%TF.GenerationSoftware,KiCad,Pcbnew,(6.0.2)*%
%TF.CreationDate,2022-03-21T08:59:47-06:00*%
%TF.ProjectId,carrier_board,63617272-6965-4725-9f62-6f6172642e6b,v1b*%
%TF.SameCoordinates,Original*%
%TF.FileFunction,Legend,Top*%
%TF.FilePolarity,Positive*%
%FSLAX46Y46*%
G04 Gerber Fmt 4.6, Leading zero omitted, Abs format (unit mm)*
G04 Created by KiCad (PCBNEW (6.0.2)) date 2022-03-21 08:59:47*
%MOMM*%
%LPD*%
G01*
G04 APERTURE LIST*
%ADD10C,0.150000*%
%ADD11C,0.254000*%
%ADD12C,0.120000*%
%ADD13C,0.100000*%
%ADD14C,0.200000*%
G04 APERTURE END LIST*
D10*
X146452380Y-102619047D02*
X147166666Y-102619047D01*
X147309523Y-102666666D01*
X147404761Y-102761904D01*
X147452380Y-102904761D01*
X147452380Y-103000000D01*
X147452380Y-101666666D02*
X147452380Y-102142857D01*
X146452380Y-102142857D01*
X147357142Y-100761904D02*
X147404761Y-100809523D01*
X147452380Y-100952380D01*
X147452380Y-101047619D01*
X147404761Y-101190476D01*
X147309523Y-101285714D01*
X147214285Y-101333333D01*
X147023809Y-101380952D01*
X146880952Y-101380952D01*
X146690476Y-101333333D01*
X146595238Y-101285714D01*
X146500000Y-101190476D01*
X146452380Y-101047619D01*
X146452380Y-100952380D01*
X146500000Y-100809523D01*
X146547619Y-100761904D01*
X146452380Y-100047619D02*
X147166666Y-100047619D01*
X147309523Y-100095238D01*
X147404761Y-100190476D01*
X147452380Y-100333333D01*
X147452380Y-100428571D01*
X147452380Y-99095238D02*
X147452380Y-99571428D01*
X146452380Y-99571428D01*
X147357142Y-98190476D02*
X147404761Y-98238095D01*
X147452380Y-98380952D01*
X147452380Y-98476190D01*
X147404761Y-98619047D01*
X147309523Y-98714285D01*
X147214285Y-98761904D01*
X147023809Y-98809523D01*
X146880952Y-98809523D01*
X146690476Y-98761904D01*
X146595238Y-98714285D01*
X146500000Y-98619047D01*
X146452380Y-98476190D01*
X146452380Y-98380952D01*
X146500000Y-98238095D01*
X146547619Y-98190476D01*
X146452380Y-97476190D02*
X147166666Y-97476190D01*
X147309523Y-97523809D01*
X147404761Y-97619047D01*
X147452380Y-97761904D01*
X147452380Y-97857142D01*
X147452380Y-96523809D02*
X147452380Y-97000000D01*
X146452380Y-97000000D01*
X147357142Y-95619047D02*
X147404761Y-95666666D01*
X147452380Y-95809523D01*
X147452380Y-95904761D01*
X147404761Y-96047619D01*
X147309523Y-96142857D01*
X147214285Y-96190476D01*
X147023809Y-96238095D01*
X146880952Y-96238095D01*
X146690476Y-96190476D01*
X146595238Y-96142857D01*
X146500000Y-96047619D01*
X146452380Y-95904761D01*
X146452380Y-95809523D01*
X146500000Y-95666666D01*
X146547619Y-95619047D01*
X146452380Y-94904761D02*
X147166666Y-94904761D01*
X147309523Y-94952380D01*
X147404761Y-95047619D01*
X147452380Y-95190476D01*
X147452380Y-95285714D01*
X147452380Y-93952380D02*
X147452380Y-94428571D01*
X146452380Y-94428571D01*
X147357142Y-93047619D02*
X147404761Y-93095238D01*
X147452380Y-93238095D01*
X147452380Y-93333333D01*
X147404761Y-93476190D01*
X147309523Y-93571428D01*
X147214285Y-93619047D01*
X147023809Y-93666666D01*
X146880952Y-93666666D01*
X146690476Y-93619047D01*
X146595238Y-93571428D01*
X146500000Y-93476190D01*
X146452380Y-93333333D01*
X146452380Y-93238095D01*
X146500000Y-93095238D01*
X146547619Y-93047619D01*
%TO.C,U1*%
X146428095Y-84727380D02*
X146428095Y-85536904D01*
X146475714Y-85632142D01*
X146523333Y-85679761D01*
X146618571Y-85727380D01*
X146809047Y-85727380D01*
X146904285Y-85679761D01*
X146951904Y-85632142D01*
X146999523Y-85536904D01*
X146999523Y-84727380D01*
X147999523Y-85727380D02*
X147428095Y-85727380D01*
X147713809Y-85727380D02*
X147713809Y-84727380D01*
X147618571Y-84870238D01*
X147523333Y-84965476D01*
X147428095Y-85013095D01*
X133603096Y-63796218D02*
X133522284Y-63823155D01*
X133441471Y-63903967D01*
X133387597Y-64011717D01*
X133387597Y-64119467D01*
X133414534Y-64200279D01*
X133495346Y-64334966D01*
X133576158Y-64415778D01*
X133710845Y-64496590D01*
X133791658Y-64523528D01*
X133899407Y-64523528D01*
X134007157Y-64469653D01*
X134061032Y-64415778D01*
X134114906Y-64308028D01*
X134114906Y-64254154D01*
X133926345Y-64065592D01*
X133818595Y-64173341D01*
X134411218Y-64065592D02*
X133845532Y-63499906D01*
X134061032Y-63284407D01*
X134141844Y-63257470D01*
X134195719Y-63257470D01*
X134276531Y-63284407D01*
X134357343Y-63365219D01*
X134384280Y-63446032D01*
X134384280Y-63499906D01*
X134357343Y-63580719D01*
X134141844Y-63796218D01*
X135273215Y-63203595D02*
X134949966Y-63526844D01*
X135111590Y-63365219D02*
X134545905Y-62799534D01*
X134572842Y-62934221D01*
X134572842Y-63041971D01*
X134545905Y-63122783D01*
X151094761Y-111798809D02*
X151209047Y-111836904D01*
X151399523Y-111836904D01*
X151475714Y-111798809D01*
X151513809Y-111760714D01*
X151551904Y-111684523D01*
X151551904Y-111608333D01*
X151513809Y-111532142D01*
X151475714Y-111494047D01*
X151399523Y-111455952D01*
X151247142Y-111417857D01*
X151170952Y-111379761D01*
X151132857Y-111341666D01*
X151094761Y-111265476D01*
X151094761Y-111189285D01*
X151132857Y-111113095D01*
X151170952Y-111075000D01*
X151247142Y-111036904D01*
X151437619Y-111036904D01*
X151551904Y-111075000D01*
X151818571Y-111036904D02*
X152009047Y-111836904D01*
X152161428Y-111265476D01*
X152313809Y-111836904D01*
X152504285Y-111036904D01*
X152809047Y-111836904D02*
X152809047Y-111036904D01*
X152999523Y-111036904D01*
X153113809Y-111075000D01*
X153190000Y-111151190D01*
X153228095Y-111227380D01*
X153266190Y-111379761D01*
X153266190Y-111494047D01*
X153228095Y-111646428D01*
X153190000Y-111722619D01*
X153113809Y-111798809D01*
X152999523Y-111836904D01*
X152809047Y-111836904D01*
X153609047Y-111836904D02*
X153609047Y-111036904D01*
X154142380Y-111036904D02*
X154294761Y-111036904D01*
X154370952Y-111075000D01*
X154447142Y-111151190D01*
X154485238Y-111303571D01*
X154485238Y-111570238D01*
X154447142Y-111722619D01*
X154370952Y-111798809D01*
X154294761Y-111836904D01*
X154142380Y-111836904D01*
X154066190Y-111798809D01*
X153990000Y-111722619D01*
X153951904Y-111570238D01*
X153951904Y-111303571D01*
X153990000Y-111151190D01*
X154066190Y-111075000D01*
X154142380Y-111036904D01*
X159341597Y-80015964D02*
X159610971Y-79746590D01*
X159449346Y-80231463D02*
X159072223Y-79477216D01*
X159826470Y-79854340D01*
X159772595Y-78830719D02*
X159691783Y-78857656D01*
X159610971Y-78938468D01*
X159557096Y-79046218D01*
X159557096Y-79153967D01*
X159584033Y-79234780D01*
X159664845Y-79369467D01*
X159745658Y-79450279D01*
X159880345Y-79531091D01*
X159961157Y-79558028D01*
X160068906Y-79558028D01*
X160176656Y-79504154D01*
X160230531Y-79450279D01*
X160284406Y-79342529D01*
X160284406Y-79288654D01*
X160095844Y-79100093D01*
X159988094Y-79207842D01*
X160580717Y-79100093D02*
X160015032Y-78534407D01*
X160903966Y-78776844D01*
X160338280Y-78211158D01*
X161173340Y-78507470D02*
X160607654Y-77941784D01*
X160742341Y-77807097D01*
X160850091Y-77753223D01*
X160957841Y-77753223D01*
X161038653Y-77780160D01*
X161173340Y-77860972D01*
X161254152Y-77941784D01*
X161334964Y-78076471D01*
X161361902Y-78157284D01*
X161361902Y-78265033D01*
X161308027Y-78372783D01*
X161173340Y-78507470D01*
X133033722Y-99635592D02*
X132952910Y-99662529D01*
X132872097Y-99743341D01*
X132818223Y-99851091D01*
X132818223Y-99958841D01*
X132845160Y-100039653D01*
X132925972Y-100174340D01*
X133006784Y-100255152D01*
X133141471Y-100335964D01*
X133222284Y-100362902D01*
X133330033Y-100362902D01*
X133437783Y-100309027D01*
X133491658Y-100255152D01*
X133545532Y-100147402D01*
X133545532Y-100093528D01*
X133356971Y-99904966D01*
X133249221Y-100012715D01*
X133841844Y-99904966D02*
X133276158Y-99339280D01*
X133491658Y-99123781D01*
X133572470Y-99096844D01*
X133626345Y-99096844D01*
X133707157Y-99123781D01*
X133787969Y-99204593D01*
X133814906Y-99285406D01*
X133814906Y-99339280D01*
X133787969Y-99420093D01*
X133572470Y-99635592D01*
X134703841Y-99042969D02*
X134380592Y-99366218D01*
X134542216Y-99204593D02*
X133976531Y-98638908D01*
X134003468Y-98773595D01*
X134003468Y-98881345D01*
X133976531Y-98962157D01*
X134407529Y-98315659D02*
X134407529Y-98261784D01*
X134434467Y-98180972D01*
X134569154Y-98046285D01*
X134649966Y-98019348D01*
X134703841Y-98019348D01*
X134784653Y-98046285D01*
X134838528Y-98100160D01*
X134892402Y-98207910D01*
X134892402Y-98854407D01*
X135242589Y-98504221D01*
X159287722Y-97095592D02*
X159206910Y-97122529D01*
X159126097Y-97203341D01*
X159072223Y-97311091D01*
X159072223Y-97418841D01*
X159099160Y-97499653D01*
X159179972Y-97634340D01*
X159260784Y-97715152D01*
X159395471Y-97795964D01*
X159476284Y-97822902D01*
X159584033Y-97822902D01*
X159691783Y-97769027D01*
X159745658Y-97715152D01*
X159799532Y-97607402D01*
X159799532Y-97553528D01*
X159610971Y-97364966D01*
X159503221Y-97472715D01*
X160095844Y-97364966D02*
X159530158Y-96799280D01*
X159745658Y-96583781D01*
X159826470Y-96556844D01*
X159880345Y-96556844D01*
X159961157Y-96583781D01*
X160041969Y-96664593D01*
X160068906Y-96745406D01*
X160068906Y-96799280D01*
X160041969Y-96880093D01*
X159826470Y-97095592D01*
X160122781Y-96314407D02*
X160122781Y-96260532D01*
X160149719Y-96179720D01*
X160284406Y-96045033D01*
X160365218Y-96018096D01*
X160419093Y-96018096D01*
X160499905Y-96045033D01*
X160553780Y-96098908D01*
X160607654Y-96206658D01*
X160607654Y-96853155D01*
X160957841Y-96502969D01*
X160742341Y-95587097D02*
X160796216Y-95533223D01*
X160877028Y-95506285D01*
X160930903Y-95506285D01*
X161011715Y-95533223D01*
X161146402Y-95614035D01*
X161281089Y-95748722D01*
X161361902Y-95883409D01*
X161388839Y-95964221D01*
X161388839Y-96018096D01*
X161361902Y-96098908D01*
X161308027Y-96152783D01*
X161227215Y-96179720D01*
X161173340Y-96179720D01*
X161092528Y-96152783D01*
X160957841Y-96071971D01*
X160823154Y-95937284D01*
X160742341Y-95802597D01*
X160715404Y-95721784D01*
X160715404Y-95667910D01*
X160742341Y-95587097D01*
X159110473Y-64344966D02*
X159864720Y-64722089D01*
X159487597Y-63967842D01*
X160187969Y-64344966D02*
X160295719Y-64291091D01*
X160430406Y-64156404D01*
X160457343Y-64075592D01*
X160457343Y-64021717D01*
X160430406Y-63940905D01*
X160376531Y-63887030D01*
X160295719Y-63860093D01*
X160241844Y-63860093D01*
X160161032Y-63887030D01*
X160026345Y-63967842D01*
X159945532Y-63994780D01*
X159891658Y-63994780D01*
X159810845Y-63967842D01*
X159756971Y-63913967D01*
X159730033Y-63833155D01*
X159730033Y-63779280D01*
X159756971Y-63698468D01*
X159891658Y-63563781D01*
X159999407Y-63509906D01*
X160618967Y-63429094D02*
X160888341Y-63698468D01*
X160134094Y-63321345D02*
X160618967Y-63429094D01*
X160511218Y-62944221D01*
X161211590Y-63321345D02*
X161319340Y-63267470D01*
X161454027Y-63132783D01*
X161480964Y-63051971D01*
X161480964Y-62998096D01*
X161454027Y-62917284D01*
X161400152Y-62863409D01*
X161319340Y-62836471D01*
X161265465Y-62836471D01*
X161184653Y-62863409D01*
X161049966Y-62944221D01*
X160969154Y-62971158D01*
X160915279Y-62971158D01*
X160834467Y-62944221D01*
X160780592Y-62890346D01*
X160753654Y-62809534D01*
X160753654Y-62755659D01*
X160780592Y-62674847D01*
X160915279Y-62540160D01*
X161023028Y-62486285D01*
X159079847Y-71765592D02*
X159430033Y-71415406D01*
X159456971Y-71819467D01*
X159537783Y-71738654D01*
X159618595Y-71711717D01*
X159672470Y-71711717D01*
X159753282Y-71738654D01*
X159887969Y-71873341D01*
X159914906Y-71954154D01*
X159914906Y-72008028D01*
X159887969Y-72088841D01*
X159726345Y-72250465D01*
X159645532Y-72277402D01*
X159591658Y-72277402D01*
X159591658Y-71253781D02*
X160345905Y-71630905D01*
X159968781Y-70876658D01*
X160103468Y-70741971D02*
X160453654Y-70391784D01*
X160480592Y-70795845D01*
X160561404Y-70715033D01*
X160642216Y-70688096D01*
X160696091Y-70688096D01*
X160776903Y-70715033D01*
X160911590Y-70849720D01*
X160938528Y-70930532D01*
X160938528Y-70984407D01*
X160911590Y-71065219D01*
X160749966Y-71226844D01*
X160669154Y-71253781D01*
X160615279Y-71253781D01*
X159287722Y-109795592D02*
X159206910Y-109822529D01*
X159126097Y-109903341D01*
X159072223Y-110011091D01*
X159072223Y-110118841D01*
X159099160Y-110199653D01*
X159179972Y-110334340D01*
X159260784Y-110415152D01*
X159395471Y-110495964D01*
X159476284Y-110522902D01*
X159584033Y-110522902D01*
X159691783Y-110469027D01*
X159745658Y-110415152D01*
X159799532Y-110307402D01*
X159799532Y-110253528D01*
X159610971Y-110064966D01*
X159503221Y-110172715D01*
X160095844Y-110064966D02*
X159530158Y-109499280D01*
X159745658Y-109283781D01*
X159826470Y-109256844D01*
X159880345Y-109256844D01*
X159961157Y-109283781D01*
X160041969Y-109364593D01*
X160068906Y-109445406D01*
X160068906Y-109499280D01*
X160041969Y-109580093D01*
X159826470Y-109795592D01*
X160957841Y-109202969D02*
X160634592Y-109526218D01*
X160796216Y-109364593D02*
X160230531Y-108798908D01*
X160257468Y-108933595D01*
X160257468Y-109041345D01*
X160230531Y-109122157D01*
X160877028Y-108152410D02*
X160769279Y-108260160D01*
X160742341Y-108340972D01*
X160742341Y-108394847D01*
X160769279Y-108529534D01*
X160850091Y-108664221D01*
X161065590Y-108879720D01*
X161146402Y-108906658D01*
X161200277Y-108906658D01*
X161281089Y-108879720D01*
X161388839Y-108771971D01*
X161415776Y-108691158D01*
X161415776Y-108637284D01*
X161388839Y-108556471D01*
X161254152Y-108421784D01*
X161173340Y-108394847D01*
X161119465Y-108394847D01*
X161038653Y-108421784D01*
X160930903Y-108529534D01*
X160903966Y-108610346D01*
X160903966Y-108664221D01*
X160930903Y-108745033D01*
X133703096Y-81586218D02*
X133622284Y-81613155D01*
X133541471Y-81693967D01*
X133487597Y-81801717D01*
X133487597Y-81909467D01*
X133514534Y-81990279D01*
X133595346Y-82124966D01*
X133676158Y-82205778D01*
X133810845Y-82286590D01*
X133891658Y-82313528D01*
X133999407Y-82313528D01*
X134107157Y-82259653D01*
X134161032Y-82205778D01*
X134214906Y-82098028D01*
X134214906Y-82044154D01*
X134026345Y-81855592D01*
X133918595Y-81963341D01*
X134511218Y-81855592D02*
X133945532Y-81289906D01*
X134161032Y-81074407D01*
X134241844Y-81047470D01*
X134295719Y-81047470D01*
X134376531Y-81074407D01*
X134457343Y-81155219D01*
X134484280Y-81236032D01*
X134484280Y-81289906D01*
X134457343Y-81370719D01*
X134241844Y-81586218D01*
X134753654Y-80481784D02*
X134645905Y-80589534D01*
X134618967Y-80670346D01*
X134618967Y-80724221D01*
X134645905Y-80858908D01*
X134726717Y-80993595D01*
X134942216Y-81209094D01*
X135023028Y-81236032D01*
X135076903Y-81236032D01*
X135157715Y-81209094D01*
X135265465Y-81101345D01*
X135292402Y-81020532D01*
X135292402Y-80966658D01*
X135265465Y-80885845D01*
X135130778Y-80751158D01*
X135049966Y-80724221D01*
X134996091Y-80724221D01*
X134915279Y-80751158D01*
X134807529Y-80858908D01*
X134780592Y-80939720D01*
X134780592Y-80993595D01*
X134807529Y-81074407D01*
X133703096Y-86666218D02*
X133622284Y-86693155D01*
X133541471Y-86773967D01*
X133487597Y-86881717D01*
X133487597Y-86989467D01*
X133514534Y-87070279D01*
X133595346Y-87204966D01*
X133676158Y-87285778D01*
X133810845Y-87366590D01*
X133891658Y-87393528D01*
X133999407Y-87393528D01*
X134107157Y-87339653D01*
X134161032Y-87285778D01*
X134214906Y-87178028D01*
X134214906Y-87124154D01*
X134026345Y-86935592D01*
X133918595Y-87043341D01*
X134511218Y-86935592D02*
X133945532Y-86369906D01*
X134161032Y-86154407D01*
X134241844Y-86127470D01*
X134295719Y-86127470D01*
X134376531Y-86154407D01*
X134457343Y-86235219D01*
X134484280Y-86316032D01*
X134484280Y-86369906D01*
X134457343Y-86450719D01*
X134241844Y-86666218D01*
X134834467Y-85965845D02*
X134753654Y-85992783D01*
X134699780Y-85992783D01*
X134618967Y-85965845D01*
X134592030Y-85938908D01*
X134565093Y-85858096D01*
X134565093Y-85804221D01*
X134592030Y-85723409D01*
X134699780Y-85615659D01*
X134780592Y-85588722D01*
X134834467Y-85588722D01*
X134915279Y-85615659D01*
X134942216Y-85642597D01*
X134969154Y-85723409D01*
X134969154Y-85777284D01*
X134942216Y-85858096D01*
X134834467Y-85965845D01*
X134807529Y-86046658D01*
X134807529Y-86100532D01*
X134834467Y-86181345D01*
X134942216Y-86289094D01*
X135023028Y-86316032D01*
X135076903Y-86316032D01*
X135157715Y-86289094D01*
X135265465Y-86181345D01*
X135292402Y-86100532D01*
X135292402Y-86046658D01*
X135265465Y-85965845D01*
X135157715Y-85858096D01*
X135076903Y-85831158D01*
X135023028Y-85831158D01*
X134942216Y-85858096D01*
X160028375Y-87218435D02*
X159570439Y-87137622D01*
X159705126Y-87541683D02*
X159139441Y-86975998D01*
X159354940Y-86760499D01*
X159435752Y-86733561D01*
X159489627Y-86733561D01*
X159570439Y-86760499D01*
X159651251Y-86841311D01*
X159678189Y-86922123D01*
X159678189Y-86975998D01*
X159651251Y-87056810D01*
X159435752Y-87272309D01*
X159705126Y-86410312D02*
X160163062Y-86868248D01*
X160243874Y-86895186D01*
X160297749Y-86895186D01*
X160378561Y-86868248D01*
X160486311Y-86760499D01*
X160513248Y-86679687D01*
X160513248Y-86625812D01*
X160486311Y-86544999D01*
X160028375Y-86087064D01*
X160863435Y-86383375D02*
X160297749Y-85817690D01*
X161186683Y-86060126D01*
X160620998Y-85494441D01*
X159287722Y-81865592D02*
X159206910Y-81892529D01*
X159126097Y-81973341D01*
X159072223Y-82081091D01*
X159072223Y-82188841D01*
X159099160Y-82269653D01*
X159179972Y-82404340D01*
X159260784Y-82485152D01*
X159395471Y-82565964D01*
X159476284Y-82592902D01*
X159584033Y-82592902D01*
X159691783Y-82539027D01*
X159745658Y-82485152D01*
X159799532Y-82377402D01*
X159799532Y-82323528D01*
X159610971Y-82134966D01*
X159503221Y-82242715D01*
X160095844Y-82134966D02*
X159530158Y-81569280D01*
X159745658Y-81353781D01*
X159826470Y-81326844D01*
X159880345Y-81326844D01*
X159961157Y-81353781D01*
X160041969Y-81434593D01*
X160068906Y-81515406D01*
X160068906Y-81569280D01*
X160041969Y-81650093D01*
X159826470Y-81865592D01*
X160122781Y-81084407D02*
X160122781Y-81030532D01*
X160149719Y-80949720D01*
X160284406Y-80815033D01*
X160365218Y-80788096D01*
X160419093Y-80788096D01*
X160499905Y-80815033D01*
X160553780Y-80868908D01*
X160607654Y-80976658D01*
X160607654Y-81623155D01*
X160957841Y-81272969D01*
X160580717Y-80518722D02*
X160957841Y-80141598D01*
X161281089Y-80949720D01*
X159287722Y-99635592D02*
X159206910Y-99662529D01*
X159126097Y-99743341D01*
X159072223Y-99851091D01*
X159072223Y-99958841D01*
X159099160Y-100039653D01*
X159179972Y-100174340D01*
X159260784Y-100255152D01*
X159395471Y-100335964D01*
X159476284Y-100362902D01*
X159584033Y-100362902D01*
X159691783Y-100309027D01*
X159745658Y-100255152D01*
X159799532Y-100147402D01*
X159799532Y-100093528D01*
X159610971Y-99904966D01*
X159503221Y-100012715D01*
X160095844Y-99904966D02*
X159530158Y-99339280D01*
X159745658Y-99123781D01*
X159826470Y-99096844D01*
X159880345Y-99096844D01*
X159961157Y-99123781D01*
X160041969Y-99204593D01*
X160068906Y-99285406D01*
X160068906Y-99339280D01*
X160041969Y-99420093D01*
X159826470Y-99635592D01*
X160957841Y-99042969D02*
X160634592Y-99366218D01*
X160796216Y-99204593D02*
X160230531Y-98638908D01*
X160257468Y-98773595D01*
X160257468Y-98881345D01*
X160230531Y-98962157D01*
X161227215Y-98773595D02*
X161334964Y-98665845D01*
X161361902Y-98585033D01*
X161361902Y-98531158D01*
X161334964Y-98396471D01*
X161254152Y-98261784D01*
X161038653Y-98046285D01*
X160957841Y-98019348D01*
X160903966Y-98019348D01*
X160823154Y-98046285D01*
X160715404Y-98154035D01*
X160688467Y-98234847D01*
X160688467Y-98288722D01*
X160715404Y-98369534D01*
X160850091Y-98504221D01*
X160930903Y-98531158D01*
X160984778Y-98531158D01*
X161065590Y-98504221D01*
X161173340Y-98396471D01*
X161200277Y-98315659D01*
X161200277Y-98261784D01*
X161173340Y-98180972D01*
X133803096Y-84096218D02*
X133722284Y-84123155D01*
X133641471Y-84203967D01*
X133587597Y-84311717D01*
X133587597Y-84419467D01*
X133614534Y-84500279D01*
X133695346Y-84634966D01*
X133776158Y-84715778D01*
X133910845Y-84796590D01*
X133991658Y-84823528D01*
X134099407Y-84823528D01*
X134207157Y-84769653D01*
X134261032Y-84715778D01*
X134314906Y-84608028D01*
X134314906Y-84554154D01*
X134126345Y-84365592D01*
X134018595Y-84473341D01*
X134611218Y-84365592D02*
X134045532Y-83799906D01*
X134261032Y-83584407D01*
X134341844Y-83557470D01*
X134395719Y-83557470D01*
X134476531Y-83584407D01*
X134557343Y-83665219D01*
X134584280Y-83746032D01*
X134584280Y-83799906D01*
X134557343Y-83880719D01*
X134341844Y-84096218D01*
X134557343Y-83288096D02*
X134934467Y-82910972D01*
X135257715Y-83719094D01*
X159287722Y-102175592D02*
X159206910Y-102202529D01*
X159126097Y-102283341D01*
X159072223Y-102391091D01*
X159072223Y-102498841D01*
X159099160Y-102579653D01*
X159179972Y-102714340D01*
X159260784Y-102795152D01*
X159395471Y-102875964D01*
X159476284Y-102902902D01*
X159584033Y-102902902D01*
X159691783Y-102849027D01*
X159745658Y-102795152D01*
X159799532Y-102687402D01*
X159799532Y-102633528D01*
X159610971Y-102444966D01*
X159503221Y-102552715D01*
X160095844Y-102444966D02*
X159530158Y-101879280D01*
X159745658Y-101663781D01*
X159826470Y-101636844D01*
X159880345Y-101636844D01*
X159961157Y-101663781D01*
X160041969Y-101744593D01*
X160068906Y-101825406D01*
X160068906Y-101879280D01*
X160041969Y-101960093D01*
X159826470Y-102175592D01*
X160957841Y-101582969D02*
X160634592Y-101906218D01*
X160796216Y-101744593D02*
X160230531Y-101178908D01*
X160257468Y-101313595D01*
X160257468Y-101421345D01*
X160230531Y-101502157D01*
X160957841Y-100936471D02*
X160877028Y-100963409D01*
X160823154Y-100963409D01*
X160742341Y-100936471D01*
X160715404Y-100909534D01*
X160688467Y-100828722D01*
X160688467Y-100774847D01*
X160715404Y-100694035D01*
X160823154Y-100586285D01*
X160903966Y-100559348D01*
X160957841Y-100559348D01*
X161038653Y-100586285D01*
X161065590Y-100613223D01*
X161092528Y-100694035D01*
X161092528Y-100747910D01*
X161065590Y-100828722D01*
X160957841Y-100936471D01*
X160930903Y-101017284D01*
X160930903Y-101071158D01*
X160957841Y-101151971D01*
X161065590Y-101259720D01*
X161146402Y-101286658D01*
X161200277Y-101286658D01*
X161281089Y-101259720D01*
X161388839Y-101151971D01*
X161415776Y-101071158D01*
X161415776Y-101017284D01*
X161388839Y-100936471D01*
X161281089Y-100828722D01*
X161200277Y-100801784D01*
X161146402Y-100801784D01*
X161065590Y-100828722D01*
X159143129Y-61802309D02*
X159897377Y-62179433D01*
X159520253Y-61425186D01*
X160166751Y-61317436D02*
X160274500Y-61263561D01*
X160328375Y-61263561D01*
X160409187Y-61290499D01*
X160490000Y-61371311D01*
X160516937Y-61452123D01*
X160516937Y-61505998D01*
X160490000Y-61586810D01*
X160274500Y-61802309D01*
X159708815Y-61236624D01*
X159897377Y-61048062D01*
X159978189Y-61021125D01*
X160032064Y-61021125D01*
X160112876Y-61048062D01*
X160166751Y-61101937D01*
X160193688Y-61182749D01*
X160193688Y-61236624D01*
X160166751Y-61317436D01*
X159978189Y-61505998D01*
X160274500Y-60670938D02*
X160732436Y-61128874D01*
X160813248Y-61155812D01*
X160867123Y-61155812D01*
X160947935Y-61128874D01*
X161055685Y-61021125D01*
X161082622Y-60940312D01*
X161082622Y-60886438D01*
X161055685Y-60805625D01*
X160597749Y-60347690D01*
X161378934Y-60644001D02*
X161486683Y-60590126D01*
X161621370Y-60455439D01*
X161648308Y-60374627D01*
X161648308Y-60320752D01*
X161621370Y-60239940D01*
X161567496Y-60186065D01*
X161486683Y-60159128D01*
X161432809Y-60159128D01*
X161351996Y-60186065D01*
X161217309Y-60266877D01*
X161136497Y-60293815D01*
X161082622Y-60293815D01*
X161001810Y-60266877D01*
X160947935Y-60213003D01*
X160920998Y-60132190D01*
X160920998Y-60078316D01*
X160947935Y-59997503D01*
X161082622Y-59862816D01*
X161190372Y-59808942D01*
X133603096Y-68886218D02*
X133522284Y-68913155D01*
X133441471Y-68993967D01*
X133387597Y-69101717D01*
X133387597Y-69209467D01*
X133414534Y-69290279D01*
X133495346Y-69424966D01*
X133576158Y-69505778D01*
X133710845Y-69586590D01*
X133791658Y-69613528D01*
X133899407Y-69613528D01*
X134007157Y-69559653D01*
X134061032Y-69505778D01*
X134114906Y-69398028D01*
X134114906Y-69344154D01*
X133926345Y-69155592D01*
X133818595Y-69263341D01*
X134411218Y-69155592D02*
X133845532Y-68589906D01*
X134061032Y-68374407D01*
X134141844Y-68347470D01*
X134195719Y-68347470D01*
X134276531Y-68374407D01*
X134357343Y-68455219D01*
X134384280Y-68536032D01*
X134384280Y-68589906D01*
X134357343Y-68670719D01*
X134141844Y-68886218D01*
X134438155Y-68105033D02*
X134438155Y-68051158D01*
X134465093Y-67970346D01*
X134599780Y-67835659D01*
X134680592Y-67808722D01*
X134734467Y-67808722D01*
X134815279Y-67835659D01*
X134869154Y-67889534D01*
X134923028Y-67997284D01*
X134923028Y-68643781D01*
X135273215Y-68293595D01*
X133179722Y-109795592D02*
X133098910Y-109822529D01*
X133018097Y-109903341D01*
X132964223Y-110011091D01*
X132964223Y-110118841D01*
X132991160Y-110199653D01*
X133071972Y-110334340D01*
X133152784Y-110415152D01*
X133287471Y-110495964D01*
X133368284Y-110522902D01*
X133476033Y-110522902D01*
X133583783Y-110469027D01*
X133637658Y-110415152D01*
X133691532Y-110307402D01*
X133691532Y-110253528D01*
X133502971Y-110064966D01*
X133395221Y-110172715D01*
X133987844Y-110064966D02*
X133422158Y-109499280D01*
X133637658Y-109283781D01*
X133718470Y-109256844D01*
X133772345Y-109256844D01*
X133853157Y-109283781D01*
X133933969Y-109364593D01*
X133960906Y-109445406D01*
X133960906Y-109499280D01*
X133933969Y-109580093D01*
X133718470Y-109795592D01*
X134849841Y-109202969D02*
X134526592Y-109526218D01*
X134688216Y-109364593D02*
X134122531Y-108798908D01*
X134149468Y-108933595D01*
X134149468Y-109041345D01*
X134122531Y-109122157D01*
X134795966Y-108125473D02*
X134526592Y-108394847D01*
X134769028Y-108691158D01*
X134769028Y-108637284D01*
X134795966Y-108556471D01*
X134930653Y-108421784D01*
X135011465Y-108394847D01*
X135065340Y-108394847D01*
X135146152Y-108421784D01*
X135280839Y-108556471D01*
X135307776Y-108637284D01*
X135307776Y-108691158D01*
X135280839Y-108771971D01*
X135146152Y-108906658D01*
X135065340Y-108933595D01*
X135011465Y-108933595D01*
X159287722Y-84395592D02*
X159206910Y-84422529D01*
X159126097Y-84503341D01*
X159072223Y-84611091D01*
X159072223Y-84718841D01*
X159099160Y-84799653D01*
X159179972Y-84934340D01*
X159260784Y-85015152D01*
X159395471Y-85095964D01*
X159476284Y-85122902D01*
X159584033Y-85122902D01*
X159691783Y-85069027D01*
X159745658Y-85015152D01*
X159799532Y-84907402D01*
X159799532Y-84853528D01*
X159610971Y-84664966D01*
X159503221Y-84772715D01*
X160095844Y-84664966D02*
X159530158Y-84099280D01*
X159745658Y-83883781D01*
X159826470Y-83856844D01*
X159880345Y-83856844D01*
X159961157Y-83883781D01*
X160041969Y-83964593D01*
X160068906Y-84045406D01*
X160068906Y-84099280D01*
X160041969Y-84180093D01*
X159826470Y-84395592D01*
X160122781Y-83614407D02*
X160122781Y-83560532D01*
X160149719Y-83479720D01*
X160284406Y-83345033D01*
X160365218Y-83318096D01*
X160419093Y-83318096D01*
X160499905Y-83345033D01*
X160553780Y-83398908D01*
X160607654Y-83506658D01*
X160607654Y-84153155D01*
X160957841Y-83802969D01*
X160877028Y-82752410D02*
X160769279Y-82860160D01*
X160742341Y-82940972D01*
X160742341Y-82994847D01*
X160769279Y-83129534D01*
X160850091Y-83264221D01*
X161065590Y-83479720D01*
X161146402Y-83506658D01*
X161200277Y-83506658D01*
X161281089Y-83479720D01*
X161388839Y-83371971D01*
X161415776Y-83291158D01*
X161415776Y-83237284D01*
X161388839Y-83156471D01*
X161254152Y-83021784D01*
X161173340Y-82994847D01*
X161119465Y-82994847D01*
X161038653Y-83021784D01*
X160930903Y-83129534D01*
X160903966Y-83210346D01*
X160903966Y-83264221D01*
X160930903Y-83345033D01*
X159112131Y-69233308D02*
X159462317Y-68883122D01*
X159489255Y-69287183D01*
X159570067Y-69206370D01*
X159650879Y-69179433D01*
X159704754Y-69179433D01*
X159785566Y-69206370D01*
X159920253Y-69341057D01*
X159947190Y-69421870D01*
X159947190Y-69475744D01*
X159920253Y-69556557D01*
X159758629Y-69718181D01*
X159677816Y-69745118D01*
X159623942Y-69745118D01*
X159623942Y-68721497D02*
X160378189Y-69098621D01*
X160001065Y-68344374D01*
X160135752Y-68209687D02*
X160485938Y-67859500D01*
X160512876Y-68263561D01*
X160593688Y-68182749D01*
X160674500Y-68155812D01*
X160728375Y-68155812D01*
X160809187Y-68182749D01*
X160943874Y-68317436D01*
X160970812Y-68398248D01*
X160970812Y-68452123D01*
X160943874Y-68532935D01*
X160782250Y-68694560D01*
X160701438Y-68721497D01*
X160647563Y-68721497D01*
X161213248Y-68371311D02*
X161644247Y-67940312D01*
X161428748Y-67455439D02*
X161617309Y-67266877D01*
X161994433Y-67482377D02*
X161725059Y-67751751D01*
X161159374Y-67186065D01*
X161428748Y-66916691D01*
X162236870Y-67239940D02*
X161671184Y-66674255D01*
X162560118Y-66916691D01*
X161994433Y-66351006D01*
X159344788Y-74808773D02*
X159614162Y-74539399D01*
X159452537Y-75024272D02*
X159075414Y-74270025D01*
X159829661Y-74647149D01*
X160018223Y-74458587D02*
X159452537Y-73892902D01*
X159587224Y-73758215D01*
X159694974Y-73704340D01*
X159802723Y-73704340D01*
X159883536Y-73731277D01*
X160018223Y-73812089D01*
X160099035Y-73892902D01*
X160179847Y-74027589D01*
X160206784Y-74108401D01*
X160206784Y-74216150D01*
X160152910Y-74323900D01*
X160018223Y-74458587D01*
X160853282Y-73515778D02*
X160853282Y-73569653D01*
X160799407Y-73677402D01*
X160745532Y-73731277D01*
X160637783Y-73785152D01*
X160530033Y-73785152D01*
X160449221Y-73758215D01*
X160314534Y-73677402D01*
X160233722Y-73596590D01*
X160152910Y-73461903D01*
X160125972Y-73381091D01*
X160125972Y-73273341D01*
X160179847Y-73165592D01*
X160233722Y-73111717D01*
X160341471Y-73057842D01*
X160395346Y-73057842D01*
X161068781Y-73515778D02*
X161499780Y-73084780D01*
X160934094Y-72411345D02*
X161688341Y-72788468D01*
X161311218Y-72034221D01*
X162388714Y-72088096D02*
X161930778Y-72007284D01*
X162065465Y-72411345D02*
X161499780Y-71845659D01*
X161715279Y-71630160D01*
X161796091Y-71603223D01*
X161849966Y-71603223D01*
X161930778Y-71630160D01*
X162011590Y-71710972D01*
X162038528Y-71791784D01*
X162038528Y-71845659D01*
X162011590Y-71926471D01*
X161796091Y-72141971D01*
X162334839Y-71549348D02*
X162523401Y-71360786D01*
X162900524Y-71576285D02*
X162631150Y-71845659D01*
X162065465Y-71279974D01*
X162334839Y-71010600D01*
X163035211Y-70848975D02*
X162846650Y-71037537D01*
X163142961Y-71333849D02*
X162577276Y-70768163D01*
X162846650Y-70498789D01*
X159276158Y-66373155D02*
X159195346Y-66400093D01*
X159114534Y-66480905D01*
X159060659Y-66588654D01*
X159060659Y-66696404D01*
X159087597Y-66777216D01*
X159168409Y-66911903D01*
X159249221Y-66992715D01*
X159383908Y-67073528D01*
X159464720Y-67100465D01*
X159572470Y-67100465D01*
X159680219Y-67046590D01*
X159734094Y-66992715D01*
X159787969Y-66884966D01*
X159787969Y-66831091D01*
X159599407Y-66642529D01*
X159491658Y-66750279D01*
X160084280Y-66642529D02*
X159518595Y-66076844D01*
X160407529Y-66319280D01*
X159841844Y-65753595D01*
X160676903Y-66049906D02*
X160111218Y-65484221D01*
X160245905Y-65349534D01*
X160353654Y-65295659D01*
X160461404Y-65295659D01*
X160542216Y-65322597D01*
X160676903Y-65403409D01*
X160757715Y-65484221D01*
X160838528Y-65618908D01*
X160865465Y-65699720D01*
X160865465Y-65807470D01*
X160811590Y-65915219D01*
X160676903Y-66049906D01*
X133703096Y-89206218D02*
X133622284Y-89233155D01*
X133541471Y-89313967D01*
X133487597Y-89421717D01*
X133487597Y-89529467D01*
X133514534Y-89610279D01*
X133595346Y-89744966D01*
X133676158Y-89825778D01*
X133810845Y-89906590D01*
X133891658Y-89933528D01*
X133999407Y-89933528D01*
X134107157Y-89879653D01*
X134161032Y-89825778D01*
X134214906Y-89718028D01*
X134214906Y-89664154D01*
X134026345Y-89475592D01*
X133918595Y-89583341D01*
X134511218Y-89475592D02*
X133945532Y-88909906D01*
X134161032Y-88694407D01*
X134241844Y-88667470D01*
X134295719Y-88667470D01*
X134376531Y-88694407D01*
X134457343Y-88775219D01*
X134484280Y-88856032D01*
X134484280Y-88909906D01*
X134457343Y-88990719D01*
X134241844Y-89206218D01*
X135103841Y-88882969D02*
X135211590Y-88775219D01*
X135238528Y-88694407D01*
X135238528Y-88640532D01*
X135211590Y-88505845D01*
X135130778Y-88371158D01*
X134915279Y-88155659D01*
X134834467Y-88128722D01*
X134780592Y-88128722D01*
X134699780Y-88155659D01*
X134592030Y-88263409D01*
X134565093Y-88344221D01*
X134565093Y-88398096D01*
X134592030Y-88478908D01*
X134726717Y-88613595D01*
X134807529Y-88640532D01*
X134861404Y-88640532D01*
X134942216Y-88613595D01*
X135049966Y-88505845D01*
X135076903Y-88425033D01*
X135076903Y-88371158D01*
X135049966Y-88290346D01*
X133676158Y-91773155D02*
X133595346Y-91800093D01*
X133514534Y-91880905D01*
X133460659Y-91988654D01*
X133460659Y-92096404D01*
X133487597Y-92177216D01*
X133568409Y-92311903D01*
X133649221Y-92392715D01*
X133783908Y-92473528D01*
X133864720Y-92500465D01*
X133972470Y-92500465D01*
X134080219Y-92446590D01*
X134134094Y-92392715D01*
X134187969Y-92284966D01*
X134187969Y-92231091D01*
X133999407Y-92042529D01*
X133891658Y-92150279D01*
X134484280Y-92042529D02*
X133918595Y-91476844D01*
X134807529Y-91719280D01*
X134241844Y-91153595D01*
X135076903Y-91449906D02*
X134511218Y-90884221D01*
X134645905Y-90749534D01*
X134753654Y-90695659D01*
X134861404Y-90695659D01*
X134942216Y-90722597D01*
X135076903Y-90803409D01*
X135157715Y-90884221D01*
X135238528Y-91018908D01*
X135265465Y-91099720D01*
X135265465Y-91207470D01*
X135211590Y-91315219D01*
X135076903Y-91449906D01*
X133179722Y-102175592D02*
X133098910Y-102202529D01*
X133018097Y-102283341D01*
X132964223Y-102391091D01*
X132964223Y-102498841D01*
X132991160Y-102579653D01*
X133071972Y-102714340D01*
X133152784Y-102795152D01*
X133287471Y-102875964D01*
X133368284Y-102902902D01*
X133476033Y-102902902D01*
X133583783Y-102849027D01*
X133637658Y-102795152D01*
X133691532Y-102687402D01*
X133691532Y-102633528D01*
X133502971Y-102444966D01*
X133395221Y-102552715D01*
X133987844Y-102444966D02*
X133422158Y-101879280D01*
X133637658Y-101663781D01*
X133718470Y-101636844D01*
X133772345Y-101636844D01*
X133853157Y-101663781D01*
X133933969Y-101744593D01*
X133960906Y-101825406D01*
X133960906Y-101879280D01*
X133933969Y-101960093D01*
X133718470Y-102175592D01*
X134849841Y-101582969D02*
X134526592Y-101906218D01*
X134688216Y-101744593D02*
X134122531Y-101178908D01*
X134149468Y-101313595D01*
X134149468Y-101421345D01*
X134122531Y-101502157D01*
X134472717Y-100828722D02*
X134822903Y-100478536D01*
X134849841Y-100882597D01*
X134930653Y-100801784D01*
X135011465Y-100774847D01*
X135065340Y-100774847D01*
X135146152Y-100801784D01*
X135280839Y-100936471D01*
X135307776Y-101017284D01*
X135307776Y-101071158D01*
X135280839Y-101151971D01*
X135119215Y-101313595D01*
X135038402Y-101340532D01*
X134984528Y-101340532D01*
X133033722Y-97095592D02*
X132952910Y-97122529D01*
X132872097Y-97203341D01*
X132818223Y-97311091D01*
X132818223Y-97418841D01*
X132845160Y-97499653D01*
X132925972Y-97634340D01*
X133006784Y-97715152D01*
X133141471Y-97795964D01*
X133222284Y-97822902D01*
X133330033Y-97822902D01*
X133437783Y-97769027D01*
X133491658Y-97715152D01*
X133545532Y-97607402D01*
X133545532Y-97553528D01*
X133356971Y-97364966D01*
X133249221Y-97472715D01*
X133841844Y-97364966D02*
X133276158Y-96799280D01*
X133491658Y-96583781D01*
X133572470Y-96556844D01*
X133626345Y-96556844D01*
X133707157Y-96583781D01*
X133787969Y-96664593D01*
X133814906Y-96745406D01*
X133814906Y-96799280D01*
X133787969Y-96880093D01*
X133572470Y-97095592D01*
X134703841Y-96502969D02*
X134380592Y-96826218D01*
X134542216Y-96664593D02*
X133976531Y-96098908D01*
X134003468Y-96233595D01*
X134003468Y-96341345D01*
X133976531Y-96422157D01*
X135242589Y-95964221D02*
X134919340Y-96287470D01*
X135080964Y-96125845D02*
X134515279Y-95560160D01*
X134542216Y-95694847D01*
X134542216Y-95802597D01*
X134515279Y-95883409D01*
X133703096Y-76506218D02*
X133622284Y-76533155D01*
X133541471Y-76613967D01*
X133487597Y-76721717D01*
X133487597Y-76829467D01*
X133514534Y-76910279D01*
X133595346Y-77044966D01*
X133676158Y-77125778D01*
X133810845Y-77206590D01*
X133891658Y-77233528D01*
X133999407Y-77233528D01*
X134107157Y-77179653D01*
X134161032Y-77125778D01*
X134214906Y-77018028D01*
X134214906Y-76964154D01*
X134026345Y-76775592D01*
X133918595Y-76883341D01*
X134511218Y-76775592D02*
X133945532Y-76209906D01*
X134161032Y-75994407D01*
X134241844Y-75967470D01*
X134295719Y-75967470D01*
X134376531Y-75994407D01*
X134457343Y-76075219D01*
X134484280Y-76156032D01*
X134484280Y-76209906D01*
X134457343Y-76290719D01*
X134241844Y-76506218D01*
X134780592Y-75374847D02*
X134511218Y-75644221D01*
X134753654Y-75940532D01*
X134753654Y-75886658D01*
X134780592Y-75805845D01*
X134915279Y-75671158D01*
X134996091Y-75644221D01*
X135049966Y-75644221D01*
X135130778Y-75671158D01*
X135265465Y-75805845D01*
X135292402Y-75886658D01*
X135292402Y-75940532D01*
X135265465Y-76021345D01*
X135130778Y-76156032D01*
X135049966Y-76182969D01*
X134996091Y-76182969D01*
X133703096Y-61266218D02*
X133622284Y-61293155D01*
X133541471Y-61373967D01*
X133487597Y-61481717D01*
X133487597Y-61589467D01*
X133514534Y-61670279D01*
X133595346Y-61804966D01*
X133676158Y-61885778D01*
X133810845Y-61966590D01*
X133891658Y-61993528D01*
X133999407Y-61993528D01*
X134107157Y-61939653D01*
X134161032Y-61885778D01*
X134214906Y-61778028D01*
X134214906Y-61724154D01*
X134026345Y-61535592D01*
X133918595Y-61643341D01*
X134511218Y-61535592D02*
X133945532Y-60969906D01*
X134161032Y-60754407D01*
X134241844Y-60727470D01*
X134295719Y-60727470D01*
X134376531Y-60754407D01*
X134457343Y-60835219D01*
X134484280Y-60916032D01*
X134484280Y-60969906D01*
X134457343Y-61050719D01*
X134241844Y-61266218D01*
X134618967Y-60296471D02*
X134672842Y-60242597D01*
X134753654Y-60215659D01*
X134807529Y-60215659D01*
X134888341Y-60242597D01*
X135023028Y-60323409D01*
X135157715Y-60458096D01*
X135238528Y-60592783D01*
X135265465Y-60673595D01*
X135265465Y-60727470D01*
X135238528Y-60808282D01*
X135184653Y-60862157D01*
X135103841Y-60889094D01*
X135049966Y-60889094D01*
X134969154Y-60862157D01*
X134834467Y-60781345D01*
X134699780Y-60646658D01*
X134618967Y-60511971D01*
X134592030Y-60431158D01*
X134592030Y-60377284D01*
X134618967Y-60296471D01*
X133179722Y-94555592D02*
X133098910Y-94582529D01*
X133018097Y-94663341D01*
X132964223Y-94771091D01*
X132964223Y-94878841D01*
X132991160Y-94959653D01*
X133071972Y-95094340D01*
X133152784Y-95175152D01*
X133287471Y-95255964D01*
X133368284Y-95282902D01*
X133476033Y-95282902D01*
X133583783Y-95229027D01*
X133637658Y-95175152D01*
X133691532Y-95067402D01*
X133691532Y-95013528D01*
X133502971Y-94824966D01*
X133395221Y-94932715D01*
X133987844Y-94824966D02*
X133422158Y-94259280D01*
X133637658Y-94043781D01*
X133718470Y-94016844D01*
X133772345Y-94016844D01*
X133853157Y-94043781D01*
X133933969Y-94124593D01*
X133960906Y-94205406D01*
X133960906Y-94259280D01*
X133933969Y-94340093D01*
X133718470Y-94555592D01*
X134849841Y-93962969D02*
X134526592Y-94286218D01*
X134688216Y-94124593D02*
X134122531Y-93558908D01*
X134149468Y-93693595D01*
X134149468Y-93801345D01*
X134122531Y-93882157D01*
X134634341Y-93047097D02*
X134688216Y-92993223D01*
X134769028Y-92966285D01*
X134822903Y-92966285D01*
X134903715Y-92993223D01*
X135038402Y-93074035D01*
X135173089Y-93208722D01*
X135253902Y-93343409D01*
X135280839Y-93424221D01*
X135280839Y-93478096D01*
X135253902Y-93558908D01*
X135200027Y-93612783D01*
X135119215Y-93639720D01*
X135065340Y-93639720D01*
X134984528Y-93612783D01*
X134849841Y-93531971D01*
X134715154Y-93397284D01*
X134634341Y-93262597D01*
X134607404Y-93181784D01*
X134607404Y-93127910D01*
X134634341Y-93047097D01*
X159287722Y-76521592D02*
X159206910Y-76548529D01*
X159126097Y-76629341D01*
X159072223Y-76737091D01*
X159072223Y-76844841D01*
X159099160Y-76925653D01*
X159179972Y-77060340D01*
X159260784Y-77141152D01*
X159395471Y-77221964D01*
X159476284Y-77248902D01*
X159584033Y-77248902D01*
X159691783Y-77195027D01*
X159745658Y-77141152D01*
X159799532Y-77033402D01*
X159799532Y-76979528D01*
X159610971Y-76790966D01*
X159503221Y-76898715D01*
X160095844Y-76790966D02*
X159530158Y-76225280D01*
X159745658Y-76009781D01*
X159826470Y-75982844D01*
X159880345Y-75982844D01*
X159961157Y-76009781D01*
X160041969Y-76090593D01*
X160068906Y-76171406D01*
X160068906Y-76225280D01*
X160041969Y-76306093D01*
X159826470Y-76521592D01*
X160122781Y-75740407D02*
X160122781Y-75686532D01*
X160149719Y-75605720D01*
X160284406Y-75471033D01*
X160365218Y-75444096D01*
X160419093Y-75444096D01*
X160499905Y-75471033D01*
X160553780Y-75524908D01*
X160607654Y-75632658D01*
X160607654Y-76279155D01*
X160957841Y-75928969D01*
X160957841Y-75282471D02*
X160877028Y-75309409D01*
X160823154Y-75309409D01*
X160742341Y-75282471D01*
X160715404Y-75255534D01*
X160688467Y-75174722D01*
X160688467Y-75120847D01*
X160715404Y-75040035D01*
X160823154Y-74932285D01*
X160903966Y-74905348D01*
X160957841Y-74905348D01*
X161038653Y-74932285D01*
X161065590Y-74959223D01*
X161092528Y-75040035D01*
X161092528Y-75093910D01*
X161065590Y-75174722D01*
X160957841Y-75282471D01*
X160930903Y-75363284D01*
X160930903Y-75417158D01*
X160957841Y-75497971D01*
X161065590Y-75605720D01*
X161146402Y-75632658D01*
X161200277Y-75632658D01*
X161281089Y-75605720D01*
X161388839Y-75497971D01*
X161415776Y-75417158D01*
X161415776Y-75363284D01*
X161388839Y-75282471D01*
X161281089Y-75174722D01*
X161200277Y-75147784D01*
X161146402Y-75147784D01*
X161065590Y-75174722D01*
X133676158Y-104473155D02*
X133595346Y-104500093D01*
X133514534Y-104580905D01*
X133460659Y-104688654D01*
X133460659Y-104796404D01*
X133487597Y-104877216D01*
X133568409Y-105011903D01*
X133649221Y-105092715D01*
X133783908Y-105173528D01*
X133864720Y-105200465D01*
X133972470Y-105200465D01*
X134080219Y-105146590D01*
X134134094Y-105092715D01*
X134187969Y-104984966D01*
X134187969Y-104931091D01*
X133999407Y-104742529D01*
X133891658Y-104850279D01*
X134484280Y-104742529D02*
X133918595Y-104176844D01*
X134807529Y-104419280D01*
X134241844Y-103853595D01*
X135076903Y-104149906D02*
X134511218Y-103584221D01*
X134645905Y-103449534D01*
X134753654Y-103395659D01*
X134861404Y-103395659D01*
X134942216Y-103422597D01*
X135076903Y-103503409D01*
X135157715Y-103584221D01*
X135238528Y-103718908D01*
X135265465Y-103799720D01*
X135265465Y-103907470D01*
X135211590Y-104015219D01*
X135076903Y-104149906D01*
X133703096Y-73966218D02*
X133622284Y-73993155D01*
X133541471Y-74073967D01*
X133487597Y-74181717D01*
X133487597Y-74289467D01*
X133514534Y-74370279D01*
X133595346Y-74504966D01*
X133676158Y-74585778D01*
X133810845Y-74666590D01*
X133891658Y-74693528D01*
X133999407Y-74693528D01*
X134107157Y-74639653D01*
X134161032Y-74585778D01*
X134214906Y-74478028D01*
X134214906Y-74424154D01*
X134026345Y-74235592D01*
X133918595Y-74343341D01*
X134511218Y-74235592D02*
X133945532Y-73669906D01*
X134161032Y-73454407D01*
X134241844Y-73427470D01*
X134295719Y-73427470D01*
X134376531Y-73454407D01*
X134457343Y-73535219D01*
X134484280Y-73616032D01*
X134484280Y-73669906D01*
X134457343Y-73750719D01*
X134241844Y-73966218D01*
X134942216Y-73050346D02*
X135319340Y-73427470D01*
X134592030Y-72969534D02*
X134861404Y-73508282D01*
X135211590Y-73158096D01*
X133703096Y-71426218D02*
X133622284Y-71453155D01*
X133541471Y-71533967D01*
X133487597Y-71641717D01*
X133487597Y-71749467D01*
X133514534Y-71830279D01*
X133595346Y-71964966D01*
X133676158Y-72045778D01*
X133810845Y-72126590D01*
X133891658Y-72153528D01*
X133999407Y-72153528D01*
X134107157Y-72099653D01*
X134161032Y-72045778D01*
X134214906Y-71938028D01*
X134214906Y-71884154D01*
X134026345Y-71695592D01*
X133918595Y-71803341D01*
X134511218Y-71695592D02*
X133945532Y-71129906D01*
X134161032Y-70914407D01*
X134241844Y-70887470D01*
X134295719Y-70887470D01*
X134376531Y-70914407D01*
X134457343Y-70995219D01*
X134484280Y-71076032D01*
X134484280Y-71129906D01*
X134457343Y-71210719D01*
X134241844Y-71426218D01*
X134457343Y-70618096D02*
X134807529Y-70267910D01*
X134834467Y-70671971D01*
X134915279Y-70591158D01*
X134996091Y-70564221D01*
X135049966Y-70564221D01*
X135130778Y-70591158D01*
X135265465Y-70725845D01*
X135292402Y-70806658D01*
X135292402Y-70860532D01*
X135265465Y-70941345D01*
X135103841Y-71102969D01*
X135023028Y-71129906D01*
X134969154Y-71129906D01*
X133133722Y-107255592D02*
X133052910Y-107282529D01*
X132972097Y-107363341D01*
X132918223Y-107471091D01*
X132918223Y-107578841D01*
X132945160Y-107659653D01*
X133025972Y-107794340D01*
X133106784Y-107875152D01*
X133241471Y-107955964D01*
X133322284Y-107982902D01*
X133430033Y-107982902D01*
X133537783Y-107929027D01*
X133591658Y-107875152D01*
X133645532Y-107767402D01*
X133645532Y-107713528D01*
X133456971Y-107524966D01*
X133349221Y-107632715D01*
X133941844Y-107524966D02*
X133376158Y-106959280D01*
X133591658Y-106743781D01*
X133672470Y-106716844D01*
X133726345Y-106716844D01*
X133807157Y-106743781D01*
X133887969Y-106824593D01*
X133914906Y-106905406D01*
X133914906Y-106959280D01*
X133887969Y-107040093D01*
X133672470Y-107255592D01*
X134803841Y-106662969D02*
X134480592Y-106986218D01*
X134642216Y-106824593D02*
X134076531Y-106258908D01*
X134103468Y-106393595D01*
X134103468Y-106501345D01*
X134076531Y-106582157D01*
X134911590Y-105800972D02*
X135288714Y-106178096D01*
X134561404Y-105720160D02*
X134830778Y-106258908D01*
X135180964Y-105908722D01*
X159276158Y-91773155D02*
X159195346Y-91800093D01*
X159114534Y-91880905D01*
X159060659Y-91988654D01*
X159060659Y-92096404D01*
X159087597Y-92177216D01*
X159168409Y-92311903D01*
X159249221Y-92392715D01*
X159383908Y-92473528D01*
X159464720Y-92500465D01*
X159572470Y-92500465D01*
X159680219Y-92446590D01*
X159734094Y-92392715D01*
X159787969Y-92284966D01*
X159787969Y-92231091D01*
X159599407Y-92042529D01*
X159491658Y-92150279D01*
X160084280Y-92042529D02*
X159518595Y-91476844D01*
X160407529Y-91719280D01*
X159841844Y-91153595D01*
X160676903Y-91449906D02*
X160111218Y-90884221D01*
X160245905Y-90749534D01*
X160353654Y-90695659D01*
X160461404Y-90695659D01*
X160542216Y-90722597D01*
X160676903Y-90803409D01*
X160757715Y-90884221D01*
X160838528Y-91018908D01*
X160865465Y-91099720D01*
X160865465Y-91207470D01*
X160811590Y-91315219D01*
X160676903Y-91449906D01*
X133676158Y-66373155D02*
X133595346Y-66400093D01*
X133514534Y-66480905D01*
X133460659Y-66588654D01*
X133460659Y-66696404D01*
X133487597Y-66777216D01*
X133568409Y-66911903D01*
X133649221Y-66992715D01*
X133783908Y-67073528D01*
X133864720Y-67100465D01*
X133972470Y-67100465D01*
X134080219Y-67046590D01*
X134134094Y-66992715D01*
X134187969Y-66884966D01*
X134187969Y-66831091D01*
X133999407Y-66642529D01*
X133891658Y-66750279D01*
X134484280Y-66642529D02*
X133918595Y-66076844D01*
X134807529Y-66319280D01*
X134241844Y-65753595D01*
X135076903Y-66049906D02*
X134511218Y-65484221D01*
X134645905Y-65349534D01*
X134753654Y-65295659D01*
X134861404Y-65295659D01*
X134942216Y-65322597D01*
X135076903Y-65403409D01*
X135157715Y-65484221D01*
X135238528Y-65618908D01*
X135265465Y-65699720D01*
X135265465Y-65807470D01*
X135211590Y-65915219D01*
X135076903Y-66049906D01*
X159287722Y-94565592D02*
X159206910Y-94592529D01*
X159126097Y-94673341D01*
X159072223Y-94781091D01*
X159072223Y-94888841D01*
X159099160Y-94969653D01*
X159179972Y-95104340D01*
X159260784Y-95185152D01*
X159395471Y-95265964D01*
X159476284Y-95292902D01*
X159584033Y-95292902D01*
X159691783Y-95239027D01*
X159745658Y-95185152D01*
X159799532Y-95077402D01*
X159799532Y-95023528D01*
X159610971Y-94834966D01*
X159503221Y-94942715D01*
X160095844Y-94834966D02*
X159530158Y-94269280D01*
X159745658Y-94053781D01*
X159826470Y-94026844D01*
X159880345Y-94026844D01*
X159961157Y-94053781D01*
X160041969Y-94134593D01*
X160068906Y-94215406D01*
X160068906Y-94269280D01*
X160041969Y-94350093D01*
X159826470Y-94565592D01*
X160122781Y-93784407D02*
X160122781Y-93730532D01*
X160149719Y-93649720D01*
X160284406Y-93515033D01*
X160365218Y-93488096D01*
X160419093Y-93488096D01*
X160499905Y-93515033D01*
X160553780Y-93568908D01*
X160607654Y-93676658D01*
X160607654Y-94323155D01*
X160957841Y-93972969D01*
X161496589Y-93434221D02*
X161173340Y-93757470D01*
X161334964Y-93595845D02*
X160769279Y-93030160D01*
X160796216Y-93164847D01*
X160796216Y-93272597D01*
X160769279Y-93353409D01*
X159276158Y-104473155D02*
X159195346Y-104500093D01*
X159114534Y-104580905D01*
X159060659Y-104688654D01*
X159060659Y-104796404D01*
X159087597Y-104877216D01*
X159168409Y-105011903D01*
X159249221Y-105092715D01*
X159383908Y-105173528D01*
X159464720Y-105200465D01*
X159572470Y-105200465D01*
X159680219Y-105146590D01*
X159734094Y-105092715D01*
X159787969Y-104984966D01*
X159787969Y-104931091D01*
X159599407Y-104742529D01*
X159491658Y-104850279D01*
X160084280Y-104742529D02*
X159518595Y-104176844D01*
X160407529Y-104419280D01*
X159841844Y-103853595D01*
X160676903Y-104149906D02*
X160111218Y-103584221D01*
X160245905Y-103449534D01*
X160353654Y-103395659D01*
X160461404Y-103395659D01*
X160542216Y-103422597D01*
X160676903Y-103503409D01*
X160757715Y-103584221D01*
X160838528Y-103718908D01*
X160865465Y-103799720D01*
X160865465Y-103907470D01*
X160811590Y-104015219D01*
X160676903Y-104149906D01*
X159287722Y-89475592D02*
X159206910Y-89502529D01*
X159126097Y-89583341D01*
X159072223Y-89691091D01*
X159072223Y-89798841D01*
X159099160Y-89879653D01*
X159179972Y-90014340D01*
X159260784Y-90095152D01*
X159395471Y-90175964D01*
X159476284Y-90202902D01*
X159584033Y-90202902D01*
X159691783Y-90149027D01*
X159745658Y-90095152D01*
X159799532Y-89987402D01*
X159799532Y-89933528D01*
X159610971Y-89744966D01*
X159503221Y-89852715D01*
X160095844Y-89744966D02*
X159530158Y-89179280D01*
X159745658Y-88963781D01*
X159826470Y-88936844D01*
X159880345Y-88936844D01*
X159961157Y-88963781D01*
X160041969Y-89044593D01*
X160068906Y-89125406D01*
X160068906Y-89179280D01*
X160041969Y-89260093D01*
X159826470Y-89475592D01*
X160122781Y-88694407D02*
X160122781Y-88640532D01*
X160149719Y-88559720D01*
X160284406Y-88425033D01*
X160365218Y-88398096D01*
X160419093Y-88398096D01*
X160499905Y-88425033D01*
X160553780Y-88478908D01*
X160607654Y-88586658D01*
X160607654Y-89233155D01*
X160957841Y-88882969D01*
X160661529Y-88155659D02*
X160661529Y-88101784D01*
X160688467Y-88020972D01*
X160823154Y-87886285D01*
X160903966Y-87859348D01*
X160957841Y-87859348D01*
X161038653Y-87886285D01*
X161092528Y-87940160D01*
X161146402Y-88047910D01*
X161146402Y-88694407D01*
X161496589Y-88344221D01*
X133676158Y-79073155D02*
X133595346Y-79100093D01*
X133514534Y-79180905D01*
X133460659Y-79288654D01*
X133460659Y-79396404D01*
X133487597Y-79477216D01*
X133568409Y-79611903D01*
X133649221Y-79692715D01*
X133783908Y-79773528D01*
X133864720Y-79800465D01*
X133972470Y-79800465D01*
X134080219Y-79746590D01*
X134134094Y-79692715D01*
X134187969Y-79584966D01*
X134187969Y-79531091D01*
X133999407Y-79342529D01*
X133891658Y-79450279D01*
X134484280Y-79342529D02*
X133918595Y-78776844D01*
X134807529Y-79019280D01*
X134241844Y-78453595D01*
X135076903Y-78749906D02*
X134511218Y-78184221D01*
X134645905Y-78049534D01*
X134753654Y-77995659D01*
X134861404Y-77995659D01*
X134942216Y-78022597D01*
X135076903Y-78103409D01*
X135157715Y-78184221D01*
X135238528Y-78318908D01*
X135265465Y-78399720D01*
X135265465Y-78507470D01*
X135211590Y-78615219D01*
X135076903Y-78749906D01*
X139680476Y-111798809D02*
X139794761Y-111836904D01*
X139985238Y-111836904D01*
X140061428Y-111798809D01*
X140099523Y-111760714D01*
X140137619Y-111684523D01*
X140137619Y-111608333D01*
X140099523Y-111532142D01*
X140061428Y-111494047D01*
X139985238Y-111455952D01*
X139832857Y-111417857D01*
X139756666Y-111379761D01*
X139718571Y-111341666D01*
X139680476Y-111265476D01*
X139680476Y-111189285D01*
X139718571Y-111113095D01*
X139756666Y-111075000D01*
X139832857Y-111036904D01*
X140023333Y-111036904D01*
X140137619Y-111075000D01*
X140404285Y-111036904D02*
X140594761Y-111836904D01*
X140747142Y-111265476D01*
X140899523Y-111836904D01*
X141090000Y-111036904D01*
X141851904Y-111760714D02*
X141813809Y-111798809D01*
X141699523Y-111836904D01*
X141623333Y-111836904D01*
X141509047Y-111798809D01*
X141432857Y-111722619D01*
X141394761Y-111646428D01*
X141356666Y-111494047D01*
X141356666Y-111379761D01*
X141394761Y-111227380D01*
X141432857Y-111151190D01*
X141509047Y-111075000D01*
X141623333Y-111036904D01*
X141699523Y-111036904D01*
X141813809Y-111075000D01*
X141851904Y-111113095D01*
X142575714Y-111836904D02*
X142194761Y-111836904D01*
X142194761Y-111036904D01*
X142842380Y-111836904D02*
X142842380Y-111036904D01*
X143299523Y-111836904D02*
X142956666Y-111379761D01*
X143299523Y-111036904D02*
X142842380Y-111494047D01*
X159287722Y-107255592D02*
X159206910Y-107282529D01*
X159126097Y-107363341D01*
X159072223Y-107471091D01*
X159072223Y-107578841D01*
X159099160Y-107659653D01*
X159179972Y-107794340D01*
X159260784Y-107875152D01*
X159395471Y-107955964D01*
X159476284Y-107982902D01*
X159584033Y-107982902D01*
X159691783Y-107929027D01*
X159745658Y-107875152D01*
X159799532Y-107767402D01*
X159799532Y-107713528D01*
X159610971Y-107524966D01*
X159503221Y-107632715D01*
X160095844Y-107524966D02*
X159530158Y-106959280D01*
X159745658Y-106743781D01*
X159826470Y-106716844D01*
X159880345Y-106716844D01*
X159961157Y-106743781D01*
X160041969Y-106824593D01*
X160068906Y-106905406D01*
X160068906Y-106959280D01*
X160041969Y-107040093D01*
X159826470Y-107255592D01*
X160957841Y-106662969D02*
X160634592Y-106986218D01*
X160796216Y-106824593D02*
X160230531Y-106258908D01*
X160257468Y-106393595D01*
X160257468Y-106501345D01*
X160230531Y-106582157D01*
X160580717Y-105908722D02*
X160957841Y-105531598D01*
X161281089Y-106339720D01*
%TO.C,R1*%
X129022380Y-73079166D02*
X128546190Y-73412500D01*
X129022380Y-73650595D02*
X128022380Y-73650595D01*
X128022380Y-73269642D01*
X128070000Y-73174404D01*
X128117619Y-73126785D01*
X128212857Y-73079166D01*
X128355714Y-73079166D01*
X128450952Y-73126785D01*
X128498571Y-73174404D01*
X128546190Y-73269642D01*
X128546190Y-73650595D01*
X129022380Y-72126785D02*
X129022380Y-72698214D01*
X129022380Y-72412500D02*
X128022380Y-72412500D01*
X128165238Y-72507738D01*
X128260476Y-72602976D01*
X128308095Y-72698214D01*
%TO.C,D1*%
X128952380Y-68613095D02*
X127952380Y-68613095D01*
X127952380Y-68375000D01*
X128000000Y-68232142D01*
X128095238Y-68136904D01*
X128190476Y-68089285D01*
X128380952Y-68041666D01*
X128523809Y-68041666D01*
X128714285Y-68089285D01*
X128809523Y-68136904D01*
X128904761Y-68232142D01*
X128952380Y-68375000D01*
X128952380Y-68613095D01*
X128952380Y-67089285D02*
X128952380Y-67660714D01*
X128952380Y-67375000D02*
X127952380Y-67375000D01*
X128095238Y-67470238D01*
X128190476Y-67565476D01*
X128238095Y-67660714D01*
X131952380Y-71184523D02*
X130952380Y-71184523D01*
X130952380Y-70803571D01*
X131000000Y-70708333D01*
X131047619Y-70660714D01*
X131142857Y-70613095D01*
X131285714Y-70613095D01*
X131380952Y-70660714D01*
X131428571Y-70708333D01*
X131476190Y-70803571D01*
X131476190Y-71184523D01*
X130952380Y-70279761D02*
X131952380Y-70041666D01*
X131238095Y-69851190D01*
X131952380Y-69660714D01*
X130952380Y-69422619D01*
X131952380Y-68470238D02*
X131476190Y-68803571D01*
X131952380Y-69041666D02*
X130952380Y-69041666D01*
X130952380Y-68660714D01*
X131000000Y-68565476D01*
X131047619Y-68517857D01*
X131142857Y-68470238D01*
X131285714Y-68470238D01*
X131380952Y-68517857D01*
X131428571Y-68565476D01*
X131476190Y-68660714D01*
X131476190Y-69041666D01*
X130904761Y-67327380D02*
X132190476Y-68184523D01*
X131428571Y-66994047D02*
X131428571Y-66660714D01*
X131952380Y-66517857D02*
X131952380Y-66994047D01*
X130952380Y-66994047D01*
X130952380Y-66517857D01*
X131952380Y-65517857D02*
X131476190Y-65851190D01*
X131952380Y-66089285D02*
X130952380Y-66089285D01*
X130952380Y-65708333D01*
X131000000Y-65613095D01*
X131047619Y-65565476D01*
X131142857Y-65517857D01*
X131285714Y-65517857D01*
X131380952Y-65565476D01*
X131428571Y-65613095D01*
X131476190Y-65708333D01*
X131476190Y-66089285D01*
X131952380Y-64517857D02*
X131476190Y-64851190D01*
X131952380Y-65089285D02*
X130952380Y-65089285D01*
X130952380Y-64708333D01*
X131000000Y-64613095D01*
X131047619Y-64565476D01*
X131142857Y-64517857D01*
X131285714Y-64517857D01*
X131380952Y-64565476D01*
X131428571Y-64613095D01*
X131476190Y-64708333D01*
X131476190Y-65089285D01*
D11*
%TO.C,J1*%
X146766666Y-123304523D02*
X146766666Y-124211666D01*
X146706190Y-124393095D01*
X146585238Y-124514047D01*
X146403809Y-124574523D01*
X146282857Y-124574523D01*
X148036666Y-124574523D02*
X147310952Y-124574523D01*
X147673809Y-124574523D02*
X147673809Y-123304523D01*
X147552857Y-123485952D01*
X147431904Y-123606904D01*
X147310952Y-123667380D01*
D12*
%TO.C,U1*%
X157690000Y-64775000D02*
X157690000Y-65175000D01*
X157690000Y-90175000D02*
X157690000Y-90575000D01*
X157690000Y-59775000D02*
X157690000Y-60075000D01*
X136690000Y-72375000D02*
X136690000Y-72775000D01*
X136690000Y-85075000D02*
X136690000Y-85475000D01*
X136690000Y-107975000D02*
X136690000Y-108375000D01*
X136690000Y-87575000D02*
X136690000Y-87975000D01*
X136690000Y-62175000D02*
X136690000Y-62575000D01*
X136690000Y-59775000D02*
X157690000Y-59775000D01*
X136690000Y-102875000D02*
X136690000Y-103275000D01*
X143490000Y-110775000D02*
X136690000Y-110775000D01*
X157690000Y-107975000D02*
X157690000Y-108375000D01*
X157690000Y-95275000D02*
X157690000Y-95675000D01*
X136690000Y-64775000D02*
X136690000Y-65175000D01*
X157690000Y-82575000D02*
X157690000Y-82975000D01*
X136690000Y-105375000D02*
X136690000Y-105775000D01*
X157690000Y-102875000D02*
X157690000Y-103275000D01*
X136690000Y-90175000D02*
X136690000Y-90575000D01*
X136690000Y-79975000D02*
X136690000Y-80375000D01*
X157690000Y-72375000D02*
X157690000Y-72775000D01*
X139697000Y-62442000D02*
X139697000Y-59775000D01*
X157690000Y-77475000D02*
X157690000Y-77875000D01*
X136690000Y-67275000D02*
X136690000Y-67675000D01*
X157690000Y-62175000D02*
X157690000Y-62575000D01*
X136690000Y-62442000D02*
X139697000Y-62442000D01*
X136690000Y-100375000D02*
X136690000Y-100775000D01*
X136690000Y-77475000D02*
X136690000Y-77875000D01*
X136690000Y-92675000D02*
X136690000Y-93075000D01*
X157690000Y-67275000D02*
X157690000Y-67675000D01*
X157690000Y-100375000D02*
X157690000Y-100775000D01*
X157690000Y-74875000D02*
X157690000Y-75275000D01*
X157690000Y-105375000D02*
X157690000Y-105775000D01*
X136690000Y-69875000D02*
X136690000Y-70275000D01*
X157690000Y-79975000D02*
X157690000Y-80375000D01*
X148290000Y-110775000D02*
X148690000Y-110775000D01*
X136690000Y-74875000D02*
X136690000Y-75275000D01*
X157690000Y-97775000D02*
X157690000Y-98175000D01*
X157690000Y-87575000D02*
X157690000Y-87975000D01*
X145690000Y-110775000D02*
X146090000Y-110775000D01*
X157690000Y-92675000D02*
X157690000Y-93075000D01*
X136690000Y-82575000D02*
X136690000Y-82975000D01*
X157690000Y-85075000D02*
X157690000Y-85475000D01*
X136690000Y-59775000D02*
X136690000Y-60075000D01*
X136690000Y-95275000D02*
X136690000Y-95675000D01*
X157690000Y-110775000D02*
X150890000Y-110775000D01*
X136690000Y-97775000D02*
X136690000Y-98175000D01*
X157690000Y-69875000D02*
X157690000Y-70275000D01*
%TO.C,R1*%
X129477500Y-73167224D02*
X129477500Y-72657776D01*
X130522500Y-73167224D02*
X130522500Y-72657776D01*
%TO.C,D1*%
X130735000Y-66215000D02*
X129265000Y-66215000D01*
X130735000Y-68675000D02*
X130735000Y-66215000D01*
X129265000Y-66215000D02*
X129265000Y-68675000D01*
D13*
%TO.C,J1*%
X142740000Y-125200000D02*
X151340000Y-125200000D01*
D14*
X150640000Y-118975000D02*
X150640000Y-118975000D01*
X150640000Y-118875000D02*
X150640000Y-118875000D01*
D13*
X152840000Y-119750000D02*
X152840000Y-121675000D01*
X141440000Y-119750000D02*
X152840000Y-119750000D01*
X141440000Y-121275000D02*
X141440000Y-119750000D01*
D14*
X150640000Y-118975000D02*
X150640000Y-118975000D01*
X150640000Y-118975000D02*
G75*
G03*
X150640000Y-118875000I0J50000D01*
G01*
X150640000Y-118975000D02*
G75*
G03*
X150640000Y-118875000I0J50000D01*
G01*
X150640000Y-118875000D02*
G75*
G03*
X150640000Y-118975000I0J-50000D01*
G01*
%TD*%
M02*
