M48
; DRILL file {KiCad (6.0.2)} date Sun Mar 20 15:37:51 2022
; FORMAT={-:-/ absolute / metric / decimal}
; #@! TF.CreationDate,2022-03-20T15:37:51-06:00
; #@! TF.GenerationSoftware,Kicad,Pcbnew,(6.0.2)
; #@! TF.FileFunction,MixedPlating,1,2
FMAT,2
METRIC
; #@! TA.AperFunction,Plated,PTH,ViaDrill
T1C0.400
; #@! TA.AperFunction,Plated,PTH,ComponentDrill
T2C1.020
; #@! TA.AperFunction,NonPlated,NPTH,ComponentDrill
T3C1.500
; #@! TA.AperFunction,NonPlated,NPTH,ComponentDrill
T4C1.800
; #@! TA.AperFunction,NonPlated,NPTH,ComponentDrill
T5C2.100
%
G90
G05
T1
X153.0Y-72.0
X153.0Y-116.0
X160.0Y-119.0
X161.0Y-107.0
T2
X138.3Y-61.145
X138.3Y-63.685
X138.3Y-66.225
X138.3Y-68.765
X138.3Y-71.305
X138.3Y-73.845
X138.3Y-76.385
X138.3Y-78.925
X138.3Y-81.465
X138.3Y-84.005
X138.3Y-86.545
X138.3Y-89.085
X138.3Y-91.625
X138.3Y-94.165
X138.3Y-96.705
X138.3Y-99.245
X138.3Y-101.785
X138.3Y-104.325
X138.3Y-106.865
X138.3Y-109.405
X144.65Y-109.175
X147.19Y-109.175
X149.73Y-109.175
X156.08Y-61.145
X156.08Y-63.685
X156.08Y-66.225
X156.08Y-68.765
X156.08Y-71.305
X156.08Y-73.845
X156.08Y-76.385
X156.08Y-78.925
X156.08Y-81.465
X156.08Y-84.005
X156.08Y-86.545
X156.08Y-89.085
X156.08Y-91.625
X156.08Y-94.165
X156.08Y-96.705
X156.08Y-99.245
X156.08Y-101.785
X156.08Y-104.325
X156.08Y-106.865
X156.08Y-109.405
T3
X144.765Y-64.305
X149.615Y-64.305
T4
X144.465Y-61.275
X149.915Y-61.275
T5
X130.0Y-62.0
X130.0Y-125.0
X164.0Y-62.0
X164.0Y-125.0
T0
M30
