%TF.GenerationSoftware,KiCad,Pcbnew,(6.0.2)*%
%TF.CreationDate,2022-03-20T12:26:15-06:00*%
%TF.ProjectId,carrier_board,63617272-6965-4725-9f62-6f6172642e6b,1*%
%TF.SameCoordinates,Original*%
%TF.FileFunction,Copper,L1,Top*%
%TF.FilePolarity,Positive*%
%FSLAX46Y46*%
G04 Gerber Fmt 4.6, Leading zero omitted, Abs format (unit mm)*
G04 Created by KiCad (PCBNEW (6.0.2)) date 2022-03-20 12:26:15*
%MOMM*%
%LPD*%
G01*
G04 APERTURE LIST*
G04 Aperture macros list*
%AMRoundRect*
0 Rectangle with rounded corners*
0 $1 Rounding radius*
0 $2 $3 $4 $5 $6 $7 $8 $9 X,Y pos of 4 corners*
0 Add a 4 corners polygon primitive as box body*
4,1,4,$2,$3,$4,$5,$6,$7,$8,$9,$2,$3,0*
0 Add four circle primitives for the rounded corners*
1,1,$1+$1,$2,$3*
1,1,$1+$1,$4,$5*
1,1,$1+$1,$6,$7*
1,1,$1+$1,$8,$9*
0 Add four rect primitives between the rounded corners*
20,1,$1+$1,$2,$3,$4,$5,0*
20,1,$1+$1,$4,$5,$6,$7,0*
20,1,$1+$1,$6,$7,$8,$9,0*
20,1,$1+$1,$8,$9,$2,$3,0*%
G04 Aperture macros list end*
%TA.AperFunction,SMDPad,CuDef*%
%ADD10R,3.500000X1.700000*%
%TD*%
%TA.AperFunction,ComponentPad*%
%ADD11O,1.700000X1.700000*%
%TD*%
%TA.AperFunction,ComponentPad*%
%ADD12R,1.700000X1.700000*%
%TD*%
%TA.AperFunction,SMDPad,CuDef*%
%ADD13R,1.700000X3.500000*%
%TD*%
%TA.AperFunction,SMDPad,CuDef*%
%ADD14RoundRect,0.237500X0.237500X-0.287500X0.237500X0.287500X-0.237500X0.287500X-0.237500X-0.287500X0*%
%TD*%
%TA.AperFunction,SMDPad,CuDef*%
%ADD15R,1.150000X1.200000*%
%TD*%
%TA.AperFunction,SMDPad,CuDef*%
%ADD16R,1.450000X1.200000*%
%TD*%
%TA.AperFunction,SMDPad,CuDef*%
%ADD17R,1.000000X0.700000*%
%TD*%
%TA.AperFunction,SMDPad,CuDef*%
%ADD18R,1.400000X0.900000*%
%TD*%
%TA.AperFunction,SMDPad,CuDef*%
%ADD19R,0.700000X1.000000*%
%TD*%
%TA.AperFunction,SMDPad,CuDef*%
%ADD20RoundRect,0.237500X-0.237500X0.250000X-0.237500X-0.250000X0.237500X-0.250000X0.237500X0.250000X0*%
%TD*%
%TA.AperFunction,ViaPad*%
%ADD21C,0.800000*%
%TD*%
%TA.AperFunction,Conductor*%
%ADD22C,0.250000*%
%TD*%
G04 APERTURE END LIST*
D10*
%TO.P,U1,1,GPIO0*%
%TO.N,unconnected-(U1-Pad1)*%
X137400000Y-61145000D03*
D11*
X138300000Y-61145000D03*
%TO.P,U1,2,GPIO1*%
%TO.N,Net-(D1-Pad2)*%
X138300000Y-63685000D03*
D10*
X137400000Y-63685000D03*
%TO.P,U1,3,GND*%
%TO.N,GND*%
X137400000Y-66225000D03*
D12*
X138300000Y-66225000D03*
D10*
%TO.P,U1,4,GPIO2*%
%TO.N,unconnected-(U1-Pad4)*%
X137400000Y-68765000D03*
D11*
X138300000Y-68765000D03*
%TO.P,U1,5,GPIO3*%
%TO.N,unconnected-(U1-Pad5)*%
X138300000Y-71305000D03*
D10*
X137400000Y-71305000D03*
D11*
%TO.P,U1,6,GPIO4*%
%TO.N,unconnected-(U1-Pad6)*%
X138300000Y-73845000D03*
D10*
X137400000Y-73845000D03*
D11*
%TO.P,U1,7,GPIO5*%
%TO.N,unconnected-(U1-Pad7)*%
X138300000Y-76385000D03*
D10*
X137400000Y-76385000D03*
%TO.P,U1,8,GND*%
%TO.N,GND*%
X137400000Y-78925000D03*
D12*
X138300000Y-78925000D03*
D11*
%TO.P,U1,9,GPIO6*%
%TO.N,unconnected-(U1-Pad9)*%
X138300000Y-81465000D03*
D10*
X137400000Y-81465000D03*
D11*
%TO.P,U1,10,GPIO7*%
%TO.N,unconnected-(U1-Pad10)*%
X138300000Y-84005000D03*
D10*
X137400000Y-84005000D03*
%TO.P,U1,11,GPIO8*%
%TO.N,unconnected-(U1-Pad11)*%
X137400000Y-86545000D03*
D11*
X138300000Y-86545000D03*
D10*
%TO.P,U1,12,GPIO9*%
%TO.N,unconnected-(U1-Pad12)*%
X137400000Y-89085000D03*
D11*
X138300000Y-89085000D03*
D10*
%TO.P,U1,13,GND*%
%TO.N,GND*%
X137400000Y-91625000D03*
D12*
X138300000Y-91625000D03*
D10*
%TO.P,U1,14,GPIO10*%
%TO.N,unconnected-(U1-Pad14)*%
X137400000Y-94165000D03*
D11*
X138300000Y-94165000D03*
D10*
%TO.P,U1,15,GPIO11*%
%TO.N,unconnected-(U1-Pad15)*%
X137400000Y-96705000D03*
D11*
X138300000Y-96705000D03*
%TO.P,U1,16,GPIO12*%
%TO.N,unconnected-(U1-Pad16)*%
X138300000Y-99245000D03*
D10*
X137400000Y-99245000D03*
D11*
%TO.P,U1,17,GPIO13*%
%TO.N,unconnected-(U1-Pad17)*%
X138300000Y-101785000D03*
D10*
X137400000Y-101785000D03*
D12*
%TO.P,U1,18,GND*%
%TO.N,GND*%
X138300000Y-104325000D03*
D10*
X137400000Y-104325000D03*
%TO.P,U1,19,GPIO14*%
%TO.N,unconnected-(U1-Pad19)*%
X137400000Y-106865000D03*
D11*
X138300000Y-106865000D03*
D10*
%TO.P,U1,20,GPIO15*%
%TO.N,unconnected-(U1-Pad20)*%
X137400000Y-109405000D03*
D11*
X138300000Y-109405000D03*
%TO.P,U1,21,GPIO16*%
%TO.N,Net-(J1-PadP7)*%
X156080000Y-109405000D03*
D10*
X156980000Y-109405000D03*
%TO.P,U1,22,GPIO17*%
%TO.N,Net-(J1-PadP2)*%
X156980000Y-106865000D03*
D11*
X156080000Y-106865000D03*
D10*
%TO.P,U1,23,GND*%
%TO.N,GND*%
X156980000Y-104325000D03*
D12*
X156080000Y-104325000D03*
D11*
%TO.P,U1,24,GPIO18*%
%TO.N,Net-(J1-PadP5)*%
X156080000Y-101785000D03*
D10*
X156980000Y-101785000D03*
%TO.P,U1,25,GPIO19*%
%TO.N,Net-(J1-PadP3)*%
X156980000Y-99245000D03*
D11*
X156080000Y-99245000D03*
%TO.P,U1,26,GPIO20*%
%TO.N,Net-(U1-Pad26)*%
X156080000Y-96705000D03*
D10*
X156980000Y-96705000D03*
%TO.P,U1,27,GPIO21*%
%TO.N,unconnected-(U1-Pad27)*%
X156980000Y-94165000D03*
D11*
X156080000Y-94165000D03*
D10*
%TO.P,U1,28,GND*%
%TO.N,GND*%
X156980000Y-91625000D03*
D12*
X156080000Y-91625000D03*
D11*
%TO.P,U1,29,GPIO22*%
%TO.N,unconnected-(U1-Pad29)*%
X156080000Y-89085000D03*
D10*
X156980000Y-89085000D03*
%TO.P,U1,30,RUN*%
%TO.N,unconnected-(U1-Pad30)*%
X156980000Y-86545000D03*
D11*
X156080000Y-86545000D03*
%TO.P,U1,31,GPIO26_ADC0*%
%TO.N,unconnected-(U1-Pad31)*%
X156080000Y-84005000D03*
D10*
X156980000Y-84005000D03*
%TO.P,U1,32,GPIO27_ADC1*%
%TO.N,unconnected-(U1-Pad32)*%
X156980000Y-81465000D03*
D11*
X156080000Y-81465000D03*
D10*
%TO.P,U1,33,AGND*%
%TO.N,GND*%
X156980000Y-78925000D03*
D12*
X156080000Y-78925000D03*
D10*
%TO.P,U1,34,GPIO28_ADC2*%
%TO.N,unconnected-(U1-Pad34)*%
X156980000Y-76385000D03*
D11*
X156080000Y-76385000D03*
%TO.P,U1,35,ADC_VREF*%
%TO.N,unconnected-(U1-Pad35)*%
X156080000Y-73845000D03*
D10*
X156980000Y-73845000D03*
D11*
%TO.P,U1,36,3V3*%
%TO.N,VDD*%
X156080000Y-71305000D03*
D10*
X156980000Y-71305000D03*
%TO.P,U1,37,3V3_EN*%
%TO.N,unconnected-(U1-Pad37)*%
X156980000Y-68765000D03*
D11*
X156080000Y-68765000D03*
D12*
%TO.P,U1,38,GND*%
%TO.N,GND*%
X156080000Y-66225000D03*
D10*
X156980000Y-66225000D03*
%TO.P,U1,39,VSYS*%
%TO.N,unconnected-(U1-Pad39)*%
X156980000Y-63685000D03*
D11*
X156080000Y-63685000D03*
D10*
%TO.P,U1,40,VBUS*%
%TO.N,unconnected-(U1-Pad40)*%
X156980000Y-61145000D03*
D11*
X156080000Y-61145000D03*
%TO.P,U1,41,SWCLK*%
%TO.N,unconnected-(U1-Pad41)*%
X144650000Y-109175000D03*
D13*
X144650000Y-110075000D03*
D12*
%TO.P,U1,42,GND*%
%TO.N,GND*%
X147190000Y-109175000D03*
D13*
X147190000Y-110075000D03*
D11*
%TO.P,U1,43,SWDIO*%
%TO.N,unconnected-(U1-Pad43)*%
X149730000Y-109175000D03*
D13*
X149730000Y-110075000D03*
%TD*%
D14*
%TO.P,D1,1,K*%
%TO.N,Net-(D1-Pad1)*%
X130000000Y-68750000D03*
%TO.P,D1,2,A*%
%TO.N,Net-(D1-Pad2)*%
X130000000Y-67000000D03*
%TD*%
D15*
%TO.P,J1,G1,GND_1*%
%TO.N,GND*%
X141915000Y-122110000D03*
%TO.P,J1,G2,GND_2*%
X141915000Y-124700000D03*
D16*
%TO.P,J1,G3,GND_3*%
X152315000Y-122550000D03*
D17*
%TO.P,J1,G4,POL*%
%TO.N,Net-(U1-Pad26)*%
X152540000Y-123700000D03*
D18*
%TO.P,J1,G5,DET*%
%TO.N,GND*%
X152340000Y-124850000D03*
D19*
%TO.P,J1,P1,DAT2*%
%TO.N,unconnected-(J1-PadP1)*%
X150690000Y-121060000D03*
%TO.P,J1,P2,CD/DAT3*%
%TO.N,Net-(J1-PadP2)*%
X149590000Y-121060000D03*
%TO.P,J1,P3,CMD*%
%TO.N,Net-(J1-PadP3)*%
X148490000Y-121060000D03*
%TO.P,J1,P4,VDD*%
%TO.N,VDD*%
X147390000Y-121060000D03*
%TO.P,J1,P5,CLK*%
%TO.N,Net-(J1-PadP5)*%
X146290000Y-121060000D03*
%TO.P,J1,P6,VSS*%
%TO.N,GND*%
X145190000Y-121060000D03*
%TO.P,J1,P7,DAT0*%
%TO.N,Net-(J1-PadP7)*%
X144090000Y-121060000D03*
%TO.P,J1,P8,DAT1*%
%TO.N,unconnected-(J1-PadP8)*%
X142990000Y-121060000D03*
%TD*%
D20*
%TO.P,R1,1*%
%TO.N,Net-(D1-Pad1)*%
X130000000Y-71962500D03*
%TO.P,R1,2*%
%TO.N,GND*%
X130000000Y-73787500D03*
%TD*%
D21*
%TO.N,Net-(J1-PadP2)*%
X160000000Y-119000000D03*
X161000000Y-107000000D03*
%TO.N,VDD*%
X153000000Y-116000000D03*
X153000000Y-72000000D03*
%TD*%
D22*
%TO.N,Net-(D1-Pad2)*%
X133315000Y-63685000D02*
X130000000Y-67000000D01*
X138300000Y-63685000D02*
X133315000Y-63685000D01*
%TO.N,Net-(D1-Pad1)*%
X130000000Y-68750000D02*
X130000000Y-71962500D01*
%TO.N,Net-(J1-PadP2)*%
X156080000Y-106865000D02*
X160865000Y-106865000D01*
X160865000Y-106865000D02*
X161000000Y-107000000D01*
X150900000Y-119000000D02*
X160000000Y-119000000D01*
X149590000Y-121060000D02*
X149590000Y-120310000D01*
X149590000Y-120310000D02*
X150900000Y-119000000D01*
%TO.N,Net-(J1-PadP3)*%
X163000000Y-117000000D02*
X164000000Y-116000000D01*
X162245000Y-99245000D02*
X164000000Y-101000000D01*
X148490000Y-120310000D02*
X151800000Y-117000000D01*
X148490000Y-121060000D02*
X148490000Y-120310000D01*
X156080000Y-99245000D02*
X162245000Y-99245000D01*
X151800000Y-117000000D02*
X163000000Y-117000000D01*
X164000000Y-116000000D02*
X164000000Y-101000000D01*
%TO.N,VDD*%
X153695000Y-71305000D02*
X153000000Y-72000000D01*
X153000000Y-116000000D02*
X151000000Y-116000000D01*
X147390000Y-119610000D02*
X147390000Y-121060000D01*
X156080000Y-71305000D02*
X153695000Y-71305000D01*
X151000000Y-116000000D02*
X147390000Y-119610000D01*
%TO.N,Net-(J1-PadP5)*%
X161785000Y-101785000D02*
X156080000Y-101785000D01*
X151000000Y-115000000D02*
X162000000Y-115000000D01*
X163000000Y-114000000D02*
X163000000Y-103000000D01*
X146290000Y-119710000D02*
X151000000Y-115000000D01*
X146290000Y-121060000D02*
X146290000Y-119710000D01*
X163000000Y-103000000D02*
X161785000Y-101785000D01*
X162000000Y-115000000D02*
X163000000Y-114000000D01*
%TO.N,Net-(J1-PadP7)*%
X161000000Y-114000000D02*
X162000000Y-113000000D01*
X161405000Y-109405000D02*
X156080000Y-109405000D01*
X162000000Y-113000000D02*
X162000000Y-110000000D01*
X162000000Y-110000000D02*
X161405000Y-109405000D01*
X144090000Y-120310000D02*
X150400000Y-114000000D01*
X144090000Y-121060000D02*
X144090000Y-120310000D01*
X150400000Y-114000000D02*
X161000000Y-114000000D01*
%TO.N,Net-(U1-Pad26)*%
X152540000Y-123700000D02*
X159300000Y-123700000D01*
X165000000Y-98410000D02*
X165000000Y-118000000D01*
X163295000Y-96705000D02*
X156080000Y-96705000D01*
X163295000Y-96705000D02*
X165000000Y-98410000D01*
X159300000Y-123700000D02*
X165000000Y-118000000D01*
%TD*%
%TA.AperFunction,Conductor*%
%TO.N,GND*%
G36*
X166434121Y-59528002D02*
G01*
X166480614Y-59581658D01*
X166492000Y-59634000D01*
X166492000Y-127266000D01*
X166471998Y-127334121D01*
X166418342Y-127380614D01*
X166366000Y-127392000D01*
X127634000Y-127392000D01*
X127565879Y-127371998D01*
X127519386Y-127318342D01*
X127508000Y-127266000D01*
X127508000Y-125054568D01*
X128437382Y-125054568D01*
X128437963Y-125059588D01*
X128437963Y-125059592D01*
X128450924Y-125171607D01*
X128466208Y-125303699D01*
X128467587Y-125308573D01*
X128467588Y-125308577D01*
X128533116Y-125540148D01*
X128534494Y-125545017D01*
X128536628Y-125549592D01*
X128536630Y-125549599D01*
X128627648Y-125744786D01*
X128640484Y-125772313D01*
X128643326Y-125776494D01*
X128643326Y-125776495D01*
X128778605Y-125975552D01*
X128778608Y-125975556D01*
X128781451Y-125979739D01*
X128784928Y-125983416D01*
X128784929Y-125983417D01*
X128885238Y-126089491D01*
X128953767Y-126161959D01*
X128957793Y-126165037D01*
X128957794Y-126165038D01*
X129148981Y-126311212D01*
X129148985Y-126311215D01*
X129153001Y-126314285D01*
X129374026Y-126432797D01*
X129378807Y-126434443D01*
X129378811Y-126434445D01*
X129604538Y-126512169D01*
X129611156Y-126514448D01*
X129714689Y-126532331D01*
X129854380Y-126556460D01*
X129854386Y-126556461D01*
X129858290Y-126557135D01*
X129862251Y-126557315D01*
X129862252Y-126557315D01*
X129886931Y-126558436D01*
X129886950Y-126558436D01*
X129888350Y-126558500D01*
X130063015Y-126558500D01*
X130065523Y-126558298D01*
X130065528Y-126558298D01*
X130244944Y-126543863D01*
X130244949Y-126543862D01*
X130249985Y-126543457D01*
X130254893Y-126542252D01*
X130254896Y-126542251D01*
X130488625Y-126484841D01*
X130493539Y-126483634D01*
X130498191Y-126481659D01*
X130498195Y-126481658D01*
X130719741Y-126387617D01*
X130719742Y-126387617D01*
X130724396Y-126385641D01*
X130936615Y-126252000D01*
X131124738Y-126086147D01*
X131283924Y-125892351D01*
X131410078Y-125675596D01*
X131412885Y-125668285D01*
X131498143Y-125446181D01*
X131499955Y-125441461D01*
X131508126Y-125402352D01*
X131520176Y-125344669D01*
X140832001Y-125344669D01*
X140832371Y-125351490D01*
X140837895Y-125402352D01*
X140841521Y-125417604D01*
X140886676Y-125538054D01*
X140895214Y-125553649D01*
X140971715Y-125655724D01*
X140984276Y-125668285D01*
X141086351Y-125744786D01*
X141101946Y-125753324D01*
X141222394Y-125798478D01*
X141237649Y-125802105D01*
X141288514Y-125807631D01*
X141295328Y-125808000D01*
X141642885Y-125808000D01*
X141658124Y-125803525D01*
X141659329Y-125802135D01*
X141661000Y-125794452D01*
X141661000Y-125789884D01*
X142169000Y-125789884D01*
X142173475Y-125805123D01*
X142174865Y-125806328D01*
X142182548Y-125807999D01*
X142534669Y-125807999D01*
X142541490Y-125807629D01*
X142592352Y-125802105D01*
X142607604Y-125798479D01*
X142728054Y-125753324D01*
X142743649Y-125744786D01*
X142845724Y-125668285D01*
X142858285Y-125655724D01*
X142934786Y-125553649D01*
X142943324Y-125538054D01*
X142988478Y-125417606D01*
X142992105Y-125402351D01*
X142997631Y-125351486D01*
X142998000Y-125344672D01*
X142998000Y-125344669D01*
X151132001Y-125344669D01*
X151132371Y-125351490D01*
X151137895Y-125402352D01*
X151141521Y-125417604D01*
X151186676Y-125538054D01*
X151195214Y-125553649D01*
X151271715Y-125655724D01*
X151284276Y-125668285D01*
X151386351Y-125744786D01*
X151401946Y-125753324D01*
X151522394Y-125798478D01*
X151537649Y-125802105D01*
X151588514Y-125807631D01*
X151595328Y-125808000D01*
X152067885Y-125808000D01*
X152083124Y-125803525D01*
X152084329Y-125802135D01*
X152086000Y-125794452D01*
X152086000Y-125789884D01*
X152594000Y-125789884D01*
X152598475Y-125805123D01*
X152599865Y-125806328D01*
X152607548Y-125807999D01*
X153084669Y-125807999D01*
X153091490Y-125807629D01*
X153142352Y-125802105D01*
X153157604Y-125798479D01*
X153278054Y-125753324D01*
X153293649Y-125744786D01*
X153395724Y-125668285D01*
X153408285Y-125655724D01*
X153484786Y-125553649D01*
X153493324Y-125538054D01*
X153538478Y-125417606D01*
X153542105Y-125402351D01*
X153547631Y-125351486D01*
X153548000Y-125344672D01*
X153548000Y-125122115D01*
X153543525Y-125106876D01*
X153542135Y-125105671D01*
X153534452Y-125104000D01*
X152612115Y-125104000D01*
X152596876Y-125108475D01*
X152595671Y-125109865D01*
X152594000Y-125117548D01*
X152594000Y-125789884D01*
X152086000Y-125789884D01*
X152086000Y-125122115D01*
X152081525Y-125106876D01*
X152080135Y-125105671D01*
X152072452Y-125104000D01*
X151150116Y-125104000D01*
X151134877Y-125108475D01*
X151133672Y-125109865D01*
X151132001Y-125117548D01*
X151132001Y-125344669D01*
X142998000Y-125344669D01*
X142998000Y-125054568D01*
X162437382Y-125054568D01*
X162437963Y-125059588D01*
X162437963Y-125059592D01*
X162450924Y-125171607D01*
X162466208Y-125303699D01*
X162467587Y-125308573D01*
X162467588Y-125308577D01*
X162533116Y-125540148D01*
X162534494Y-125545017D01*
X162536628Y-125549592D01*
X162536630Y-125549599D01*
X162627648Y-125744786D01*
X162640484Y-125772313D01*
X162643326Y-125776494D01*
X162643326Y-125776495D01*
X162778605Y-125975552D01*
X162778608Y-125975556D01*
X162781451Y-125979739D01*
X162784928Y-125983416D01*
X162784929Y-125983417D01*
X162885238Y-126089491D01*
X162953767Y-126161959D01*
X162957793Y-126165037D01*
X162957794Y-126165038D01*
X163148981Y-126311212D01*
X163148985Y-126311215D01*
X163153001Y-126314285D01*
X163374026Y-126432797D01*
X163378807Y-126434443D01*
X163378811Y-126434445D01*
X163604538Y-126512169D01*
X163611156Y-126514448D01*
X163714689Y-126532331D01*
X163854380Y-126556460D01*
X163854386Y-126556461D01*
X163858290Y-126557135D01*
X163862251Y-126557315D01*
X163862252Y-126557315D01*
X163886931Y-126558436D01*
X163886950Y-126558436D01*
X163888350Y-126558500D01*
X164063015Y-126558500D01*
X164065523Y-126558298D01*
X164065528Y-126558298D01*
X164244944Y-126543863D01*
X164244949Y-126543862D01*
X164249985Y-126543457D01*
X164254893Y-126542252D01*
X164254896Y-126542251D01*
X164488625Y-126484841D01*
X164493539Y-126483634D01*
X164498191Y-126481659D01*
X164498195Y-126481658D01*
X164719741Y-126387617D01*
X164719742Y-126387617D01*
X164724396Y-126385641D01*
X164936615Y-126252000D01*
X165124738Y-126086147D01*
X165283924Y-125892351D01*
X165410078Y-125675596D01*
X165412885Y-125668285D01*
X165498143Y-125446181D01*
X165499955Y-125441461D01*
X165508126Y-125402352D01*
X165550206Y-125200921D01*
X165551241Y-125195967D01*
X165555342Y-125105671D01*
X165557662Y-125054568D01*
X165562618Y-124945432D01*
X165533792Y-124696301D01*
X165504144Y-124591525D01*
X165466884Y-124459852D01*
X165466883Y-124459850D01*
X165465506Y-124454983D01*
X165463372Y-124450408D01*
X165463370Y-124450401D01*
X165361653Y-124232269D01*
X165361651Y-124232265D01*
X165359516Y-124227687D01*
X165343787Y-124204542D01*
X165221395Y-124024448D01*
X165221392Y-124024444D01*
X165218549Y-124020261D01*
X165117925Y-123913853D01*
X165049713Y-123841721D01*
X165046233Y-123838041D01*
X164941497Y-123757964D01*
X164851019Y-123688788D01*
X164851015Y-123688785D01*
X164846999Y-123685715D01*
X164625974Y-123567203D01*
X164621193Y-123565557D01*
X164621189Y-123565555D01*
X164393633Y-123487201D01*
X164388844Y-123485552D01*
X164285311Y-123467669D01*
X164145620Y-123443540D01*
X164145614Y-123443539D01*
X164141710Y-123442865D01*
X164137749Y-123442685D01*
X164137748Y-123442685D01*
X164113069Y-123441564D01*
X164113050Y-123441564D01*
X164111650Y-123441500D01*
X163936985Y-123441500D01*
X163934477Y-123441702D01*
X163934472Y-123441702D01*
X163755056Y-123456137D01*
X163755051Y-123456138D01*
X163750015Y-123456543D01*
X163745107Y-123457748D01*
X163745104Y-123457749D01*
X163549787Y-123505724D01*
X163506461Y-123516366D01*
X163501809Y-123518341D01*
X163501805Y-123518342D01*
X163305848Y-123601521D01*
X163275604Y-123614359D01*
X163210727Y-123655214D01*
X163069299Y-123744276D01*
X163063385Y-123748000D01*
X162875262Y-123913853D01*
X162716076Y-124107649D01*
X162589922Y-124324404D01*
X162588109Y-124329127D01*
X162588108Y-124329129D01*
X162544963Y-124441525D01*
X162500045Y-124558539D01*
X162499012Y-124563485D01*
X162499010Y-124563491D01*
X162492568Y-124594329D01*
X162448759Y-124804033D01*
X162437382Y-125054568D01*
X142998000Y-125054568D01*
X142998000Y-124972115D01*
X142993525Y-124956876D01*
X142992135Y-124955671D01*
X142984452Y-124954000D01*
X142187115Y-124954000D01*
X142171876Y-124958475D01*
X142170671Y-124959865D01*
X142169000Y-124967548D01*
X142169000Y-125789884D01*
X141661000Y-125789884D01*
X141661000Y-124972115D01*
X141656525Y-124956876D01*
X141655135Y-124955671D01*
X141647452Y-124954000D01*
X140850116Y-124954000D01*
X140834877Y-124958475D01*
X140833672Y-124959865D01*
X140832001Y-124967548D01*
X140832001Y-125344669D01*
X131520176Y-125344669D01*
X131550206Y-125200921D01*
X131551241Y-125195967D01*
X131555342Y-125105671D01*
X131557662Y-125054568D01*
X131562618Y-124945432D01*
X131533792Y-124696301D01*
X131504144Y-124591525D01*
X131466884Y-124459852D01*
X131466883Y-124459850D01*
X131465506Y-124454983D01*
X131463372Y-124450408D01*
X131463370Y-124450401D01*
X131452871Y-124427885D01*
X140832000Y-124427885D01*
X140836475Y-124443124D01*
X140837865Y-124444329D01*
X140845548Y-124446000D01*
X141642885Y-124446000D01*
X141658124Y-124441525D01*
X141659329Y-124440135D01*
X141661000Y-124432452D01*
X141661000Y-124427885D01*
X142169000Y-124427885D01*
X142173475Y-124443124D01*
X142174865Y-124444329D01*
X142182548Y-124446000D01*
X142979884Y-124446000D01*
X142995123Y-124441525D01*
X142996328Y-124440135D01*
X142997999Y-124432452D01*
X142997999Y-124055331D01*
X142997629Y-124048510D01*
X142992105Y-123997648D01*
X142988479Y-123982396D01*
X142943324Y-123861946D01*
X142934786Y-123846351D01*
X142858285Y-123744276D01*
X142845724Y-123731715D01*
X142743649Y-123655214D01*
X142728054Y-123646676D01*
X142607606Y-123601522D01*
X142592351Y-123597895D01*
X142541486Y-123592369D01*
X142534672Y-123592000D01*
X142187115Y-123592000D01*
X142171876Y-123596475D01*
X142170671Y-123597865D01*
X142169000Y-123605548D01*
X142169000Y-124427885D01*
X141661000Y-124427885D01*
X141661000Y-123610116D01*
X141656525Y-123594877D01*
X141655135Y-123593672D01*
X141647452Y-123592001D01*
X141295331Y-123592001D01*
X141288510Y-123592371D01*
X141237648Y-123597895D01*
X141222396Y-123601521D01*
X141101946Y-123646676D01*
X141086351Y-123655214D01*
X140984276Y-123731715D01*
X140971715Y-123744276D01*
X140895214Y-123846351D01*
X140886676Y-123861946D01*
X140841522Y-123982394D01*
X140837895Y-123997649D01*
X140832369Y-124048514D01*
X140832000Y-124055328D01*
X140832000Y-124427885D01*
X131452871Y-124427885D01*
X131361653Y-124232269D01*
X131361651Y-124232265D01*
X131359516Y-124227687D01*
X131343787Y-124204542D01*
X131221395Y-124024448D01*
X131221392Y-124024444D01*
X131218549Y-124020261D01*
X131117925Y-123913853D01*
X131049713Y-123841721D01*
X131046233Y-123838041D01*
X130941497Y-123757964D01*
X130851019Y-123688788D01*
X130851015Y-123688785D01*
X130846999Y-123685715D01*
X130625974Y-123567203D01*
X130621193Y-123565557D01*
X130621189Y-123565555D01*
X130393633Y-123487201D01*
X130388844Y-123485552D01*
X130285311Y-123467669D01*
X130145620Y-123443540D01*
X130145614Y-123443539D01*
X130141710Y-123442865D01*
X130137749Y-123442685D01*
X130137748Y-123442685D01*
X130113069Y-123441564D01*
X130113050Y-123441564D01*
X130111650Y-123441500D01*
X129936985Y-123441500D01*
X129934477Y-123441702D01*
X129934472Y-123441702D01*
X129755056Y-123456137D01*
X129755051Y-123456138D01*
X129750015Y-123456543D01*
X129745107Y-123457748D01*
X129745104Y-123457749D01*
X129549787Y-123505724D01*
X129506461Y-123516366D01*
X129501809Y-123518341D01*
X129501805Y-123518342D01*
X129305848Y-123601521D01*
X129275604Y-123614359D01*
X129210727Y-123655214D01*
X129069299Y-123744276D01*
X129063385Y-123748000D01*
X128875262Y-123913853D01*
X128716076Y-124107649D01*
X128589922Y-124324404D01*
X128588109Y-124329127D01*
X128588108Y-124329129D01*
X128544963Y-124441525D01*
X128500045Y-124558539D01*
X128499012Y-124563485D01*
X128499010Y-124563491D01*
X128492568Y-124594329D01*
X128448759Y-124804033D01*
X128437382Y-125054568D01*
X127508000Y-125054568D01*
X127508000Y-122754669D01*
X140832001Y-122754669D01*
X140832371Y-122761490D01*
X140837895Y-122812352D01*
X140841521Y-122827604D01*
X140886676Y-122948054D01*
X140895214Y-122963649D01*
X140971715Y-123065724D01*
X140984276Y-123078285D01*
X141086351Y-123154786D01*
X141101946Y-123163324D01*
X141222394Y-123208478D01*
X141237649Y-123212105D01*
X141288514Y-123217631D01*
X141295328Y-123218000D01*
X141642885Y-123218000D01*
X141658124Y-123213525D01*
X141659329Y-123212135D01*
X141661000Y-123204452D01*
X141661000Y-123199884D01*
X142169000Y-123199884D01*
X142173475Y-123215123D01*
X142174865Y-123216328D01*
X142182548Y-123217999D01*
X142534669Y-123217999D01*
X142541490Y-123217629D01*
X142592352Y-123212105D01*
X142607604Y-123208479D01*
X142728054Y-123163324D01*
X142743649Y-123154786D01*
X142845724Y-123078285D01*
X142858285Y-123065724D01*
X142934786Y-122963649D01*
X142943324Y-122948054D01*
X142988478Y-122827606D01*
X142992105Y-122812351D01*
X142997631Y-122761486D01*
X142998000Y-122754672D01*
X142998000Y-122382115D01*
X142993525Y-122366876D01*
X142992135Y-122365671D01*
X142984452Y-122364000D01*
X142187115Y-122364000D01*
X142171876Y-122368475D01*
X142170671Y-122369865D01*
X142169000Y-122377548D01*
X142169000Y-123199884D01*
X141661000Y-123199884D01*
X141661000Y-122382115D01*
X141656525Y-122366876D01*
X141655135Y-122365671D01*
X141647452Y-122364000D01*
X140850116Y-122364000D01*
X140834877Y-122368475D01*
X140833672Y-122369865D01*
X140832001Y-122377548D01*
X140832001Y-122754669D01*
X127508000Y-122754669D01*
X127508000Y-121837885D01*
X140832000Y-121837885D01*
X140836475Y-121853124D01*
X140837865Y-121854329D01*
X140845548Y-121856000D01*
X141642885Y-121856000D01*
X141658124Y-121851525D01*
X141659329Y-121850135D01*
X141661000Y-121842452D01*
X141661000Y-121608134D01*
X142131500Y-121608134D01*
X142138255Y-121670316D01*
X142160982Y-121730940D01*
X142169000Y-121775170D01*
X142169000Y-121837885D01*
X142173475Y-121853124D01*
X142174865Y-121854329D01*
X142188975Y-121857398D01*
X142251287Y-121891423D01*
X142263016Y-121904950D01*
X142276739Y-121923261D01*
X142393295Y-122010615D01*
X142529684Y-122061745D01*
X142591866Y-122068500D01*
X143388134Y-122068500D01*
X143392746Y-122067999D01*
X143442466Y-122062598D01*
X143442468Y-122062598D01*
X143450316Y-122061745D01*
X143457709Y-122058973D01*
X143457711Y-122058973D01*
X143495771Y-122044705D01*
X143566578Y-122039522D01*
X143584229Y-122044705D01*
X143622289Y-122058973D01*
X143622291Y-122058973D01*
X143629684Y-122061745D01*
X143637532Y-122062598D01*
X143637534Y-122062598D01*
X143687254Y-122067999D01*
X143691866Y-122068500D01*
X144488134Y-122068500D01*
X144550316Y-122061745D01*
X144596482Y-122044438D01*
X144667289Y-122039255D01*
X144684942Y-122044438D01*
X144722394Y-122058478D01*
X144737649Y-122062105D01*
X144788514Y-122067631D01*
X144795328Y-122068000D01*
X144917885Y-122068000D01*
X144933124Y-122063525D01*
X144934329Y-122062135D01*
X144936000Y-122054452D01*
X144936000Y-121704986D01*
X144939301Y-121676835D01*
X144941745Y-121670316D01*
X144942599Y-121662460D01*
X144948131Y-121611531D01*
X144948500Y-121608134D01*
X144948500Y-120932000D01*
X144968502Y-120863879D01*
X145022158Y-120817386D01*
X145074500Y-120806000D01*
X145305500Y-120806000D01*
X145373621Y-120826002D01*
X145420114Y-120879658D01*
X145431500Y-120932000D01*
X145431500Y-121608134D01*
X145431869Y-121611531D01*
X145437402Y-121662460D01*
X145438255Y-121670316D01*
X145440699Y-121676835D01*
X145444000Y-121704986D01*
X145444000Y-122049884D01*
X145448475Y-122065123D01*
X145449865Y-122066328D01*
X145457548Y-122067999D01*
X145584669Y-122067999D01*
X145591490Y-122067629D01*
X145642352Y-122062105D01*
X145657604Y-122058479D01*
X145695058Y-122044438D01*
X145765865Y-122039255D01*
X145783516Y-122044438D01*
X145829684Y-122061745D01*
X145891866Y-122068500D01*
X146688134Y-122068500D01*
X146692746Y-122067999D01*
X146742466Y-122062598D01*
X146742468Y-122062598D01*
X146750316Y-122061745D01*
X146757709Y-122058973D01*
X146757711Y-122058973D01*
X146795771Y-122044705D01*
X146866578Y-122039522D01*
X146884229Y-122044705D01*
X146922289Y-122058973D01*
X146922291Y-122058973D01*
X146929684Y-122061745D01*
X146937532Y-122062598D01*
X146937534Y-122062598D01*
X146987254Y-122067999D01*
X146991866Y-122068500D01*
X147788134Y-122068500D01*
X147792746Y-122067999D01*
X147842466Y-122062598D01*
X147842468Y-122062598D01*
X147850316Y-122061745D01*
X147857709Y-122058973D01*
X147857711Y-122058973D01*
X147895771Y-122044705D01*
X147966578Y-122039522D01*
X147984229Y-122044705D01*
X148022289Y-122058973D01*
X148022291Y-122058973D01*
X148029684Y-122061745D01*
X148037532Y-122062598D01*
X148037534Y-122062598D01*
X148087254Y-122067999D01*
X148091866Y-122068500D01*
X148888134Y-122068500D01*
X148892746Y-122067999D01*
X148942466Y-122062598D01*
X148942468Y-122062598D01*
X148950316Y-122061745D01*
X148957709Y-122058973D01*
X148957711Y-122058973D01*
X148995771Y-122044705D01*
X149066578Y-122039522D01*
X149084229Y-122044705D01*
X149122289Y-122058973D01*
X149122291Y-122058973D01*
X149129684Y-122061745D01*
X149137532Y-122062598D01*
X149137534Y-122062598D01*
X149187254Y-122067999D01*
X149191866Y-122068500D01*
X149988134Y-122068500D01*
X149992746Y-122067999D01*
X150042466Y-122062598D01*
X150042468Y-122062598D01*
X150050316Y-122061745D01*
X150057709Y-122058973D01*
X150057711Y-122058973D01*
X150095771Y-122044705D01*
X150166578Y-122039522D01*
X150184229Y-122044705D01*
X150222289Y-122058973D01*
X150222291Y-122058973D01*
X150229684Y-122061745D01*
X150237532Y-122062598D01*
X150237534Y-122062598D01*
X150287254Y-122067999D01*
X150291866Y-122068500D01*
X150956000Y-122068500D01*
X151024121Y-122088502D01*
X151070614Y-122142158D01*
X151082000Y-122194500D01*
X151082000Y-122277885D01*
X151086475Y-122293124D01*
X151087865Y-122294329D01*
X151095548Y-122296000D01*
X152042885Y-122296000D01*
X152058124Y-122291525D01*
X152059329Y-122290135D01*
X152061000Y-122282452D01*
X152061000Y-122277885D01*
X152569000Y-122277885D01*
X152573475Y-122293124D01*
X152574865Y-122294329D01*
X152582548Y-122296000D01*
X153529884Y-122296000D01*
X153545123Y-122291525D01*
X153546328Y-122290135D01*
X153547999Y-122282452D01*
X153547999Y-121905331D01*
X153547629Y-121898510D01*
X153542105Y-121847648D01*
X153538479Y-121832396D01*
X153493324Y-121711946D01*
X153484786Y-121696351D01*
X153408285Y-121594276D01*
X153395724Y-121581715D01*
X153293649Y-121505214D01*
X153278054Y-121496676D01*
X153157606Y-121451522D01*
X153142351Y-121447895D01*
X153091486Y-121442369D01*
X153084672Y-121442000D01*
X152587115Y-121442000D01*
X152571876Y-121446475D01*
X152570671Y-121447865D01*
X152569000Y-121455548D01*
X152569000Y-122277885D01*
X152061000Y-122277885D01*
X152061000Y-121460116D01*
X152056525Y-121444877D01*
X152055135Y-121443672D01*
X152047452Y-121442001D01*
X151674500Y-121442001D01*
X151606379Y-121421999D01*
X151559886Y-121368343D01*
X151548500Y-121316001D01*
X151548500Y-120511866D01*
X151541745Y-120449684D01*
X151490615Y-120313295D01*
X151403261Y-120196739D01*
X151286705Y-120109385D01*
X151150316Y-120058255D01*
X151088134Y-120051500D01*
X151048595Y-120051500D01*
X150980474Y-120031498D01*
X150933981Y-119977842D01*
X150923877Y-119907568D01*
X150953371Y-119842988D01*
X150959500Y-119836405D01*
X151125500Y-119670405D01*
X151187812Y-119636379D01*
X151214595Y-119633500D01*
X159291800Y-119633500D01*
X159359921Y-119653502D01*
X159379147Y-119669843D01*
X159379420Y-119669540D01*
X159384332Y-119673963D01*
X159388747Y-119678866D01*
X159543248Y-119791118D01*
X159549276Y-119793802D01*
X159549278Y-119793803D01*
X159659750Y-119842988D01*
X159717712Y-119868794D01*
X159805368Y-119887426D01*
X159898056Y-119907128D01*
X159898061Y-119907128D01*
X159904513Y-119908500D01*
X160095487Y-119908500D01*
X160101939Y-119907128D01*
X160101944Y-119907128D01*
X160194632Y-119887426D01*
X160282288Y-119868794D01*
X160340250Y-119842988D01*
X160450722Y-119793803D01*
X160450724Y-119793802D01*
X160456752Y-119791118D01*
X160611253Y-119678866D01*
X160646785Y-119639404D01*
X160734621Y-119541852D01*
X160734622Y-119541851D01*
X160739040Y-119536944D01*
X160834527Y-119371556D01*
X160893542Y-119189928D01*
X160913504Y-119000000D01*
X160893542Y-118810072D01*
X160834527Y-118628444D01*
X160739040Y-118463056D01*
X160692967Y-118411886D01*
X160615675Y-118326045D01*
X160615674Y-118326044D01*
X160611253Y-118321134D01*
X160492783Y-118235060D01*
X160462094Y-118212763D01*
X160462093Y-118212762D01*
X160456752Y-118208882D01*
X160450724Y-118206198D01*
X160450722Y-118206197D01*
X160288319Y-118133891D01*
X160288318Y-118133891D01*
X160282288Y-118131206D01*
X160188887Y-118111353D01*
X160101944Y-118092872D01*
X160101939Y-118092872D01*
X160095487Y-118091500D01*
X159904513Y-118091500D01*
X159898061Y-118092872D01*
X159898056Y-118092872D01*
X159811113Y-118111353D01*
X159717712Y-118131206D01*
X159711682Y-118133891D01*
X159711681Y-118133891D01*
X159549278Y-118206197D01*
X159549276Y-118206198D01*
X159543248Y-118208882D01*
X159537907Y-118212762D01*
X159537906Y-118212763D01*
X159446716Y-118279017D01*
X159388747Y-118321134D01*
X159384332Y-118326037D01*
X159379420Y-118330460D01*
X159378295Y-118329211D01*
X159324986Y-118362051D01*
X159291800Y-118366500D01*
X151633595Y-118366500D01*
X151565474Y-118346498D01*
X151518981Y-118292842D01*
X151508877Y-118222568D01*
X151538371Y-118157988D01*
X151544500Y-118151405D01*
X152025500Y-117670405D01*
X152087812Y-117636379D01*
X152114595Y-117633500D01*
X162921233Y-117633500D01*
X162932416Y-117634027D01*
X162939909Y-117635702D01*
X162947835Y-117635453D01*
X162947836Y-117635453D01*
X163007986Y-117633562D01*
X163011945Y-117633500D01*
X163039856Y-117633500D01*
X163043791Y-117633003D01*
X163043856Y-117632995D01*
X163055693Y-117632062D01*
X163087951Y-117631048D01*
X163091970Y-117630922D01*
X163099889Y-117630673D01*
X163119343Y-117625021D01*
X163138700Y-117621013D01*
X163150930Y-117619468D01*
X163150931Y-117619468D01*
X163158797Y-117618474D01*
X163166168Y-117615555D01*
X163166170Y-117615555D01*
X163199912Y-117602196D01*
X163211142Y-117598351D01*
X163245983Y-117588229D01*
X163245984Y-117588229D01*
X163253593Y-117586018D01*
X163260412Y-117581985D01*
X163260417Y-117581983D01*
X163271028Y-117575707D01*
X163288776Y-117567012D01*
X163307617Y-117559552D01*
X163343387Y-117533564D01*
X163353307Y-117527048D01*
X163384535Y-117508580D01*
X163384538Y-117508578D01*
X163391362Y-117504542D01*
X163405683Y-117490221D01*
X163420717Y-117477380D01*
X163430694Y-117470131D01*
X163437107Y-117465472D01*
X163465298Y-117431395D01*
X163473288Y-117422616D01*
X164151405Y-116744499D01*
X164213717Y-116710473D01*
X164284532Y-116715538D01*
X164341368Y-116758085D01*
X164366179Y-116824605D01*
X164366500Y-116833594D01*
X164366500Y-117685405D01*
X164346498Y-117753526D01*
X164329595Y-117774500D01*
X159074500Y-123029595D01*
X159012188Y-123063621D01*
X158985405Y-123066500D01*
X153674000Y-123066500D01*
X153605879Y-123046498D01*
X153559386Y-122992842D01*
X153548000Y-122940500D01*
X153548000Y-122822115D01*
X153543525Y-122806876D01*
X153542135Y-122805671D01*
X153534452Y-122804000D01*
X151100116Y-122804000D01*
X151084877Y-122808475D01*
X151083672Y-122809865D01*
X151082001Y-122817548D01*
X151082001Y-123194669D01*
X151082371Y-123201490D01*
X151087895Y-123252352D01*
X151091521Y-123267604D01*
X151136676Y-123388054D01*
X151145214Y-123403649D01*
X151221715Y-123505724D01*
X151234276Y-123518285D01*
X151336351Y-123594786D01*
X151351946Y-123603324D01*
X151449730Y-123639982D01*
X151506494Y-123682624D01*
X151531194Y-123749185D01*
X151531500Y-123757964D01*
X151531500Y-123810780D01*
X151511498Y-123878901D01*
X151457842Y-123925394D01*
X151449731Y-123928762D01*
X151401944Y-123946677D01*
X151386351Y-123955214D01*
X151284276Y-124031715D01*
X151271715Y-124044276D01*
X151195214Y-124146351D01*
X151186676Y-124161946D01*
X151141522Y-124282394D01*
X151137895Y-124297649D01*
X151132369Y-124348514D01*
X151132000Y-124355328D01*
X151132000Y-124577885D01*
X151136475Y-124593124D01*
X151137865Y-124594329D01*
X151145548Y-124596000D01*
X153529884Y-124596000D01*
X153545123Y-124591525D01*
X153546328Y-124590135D01*
X153547999Y-124582452D01*
X153547999Y-124459500D01*
X153568001Y-124391379D01*
X153621657Y-124344886D01*
X153673999Y-124333500D01*
X159221233Y-124333500D01*
X159232416Y-124334027D01*
X159239909Y-124335702D01*
X159247835Y-124335453D01*
X159247836Y-124335453D01*
X159307986Y-124333562D01*
X159311945Y-124333500D01*
X159339856Y-124333500D01*
X159343791Y-124333003D01*
X159343856Y-124332995D01*
X159355693Y-124332062D01*
X159387951Y-124331048D01*
X159391970Y-124330922D01*
X159399889Y-124330673D01*
X159419343Y-124325021D01*
X159438700Y-124321013D01*
X159450930Y-124319468D01*
X159450931Y-124319468D01*
X159458797Y-124318474D01*
X159466168Y-124315555D01*
X159466170Y-124315555D01*
X159499912Y-124302196D01*
X159511142Y-124298351D01*
X159545983Y-124288229D01*
X159545984Y-124288229D01*
X159553593Y-124286018D01*
X159560412Y-124281985D01*
X159560417Y-124281983D01*
X159571028Y-124275707D01*
X159588776Y-124267012D01*
X159607617Y-124259552D01*
X159643387Y-124233564D01*
X159653307Y-124227048D01*
X159684535Y-124208580D01*
X159684538Y-124208578D01*
X159691362Y-124204542D01*
X159705683Y-124190221D01*
X159720717Y-124177380D01*
X159730694Y-124170131D01*
X159737107Y-124165472D01*
X159765298Y-124131395D01*
X159773288Y-124122616D01*
X165392247Y-118503657D01*
X165400537Y-118496113D01*
X165407018Y-118492000D01*
X165428829Y-118468774D01*
X165453658Y-118442333D01*
X165456413Y-118439491D01*
X165476134Y-118419770D01*
X165478612Y-118416575D01*
X165486318Y-118407553D01*
X165511158Y-118381101D01*
X165516586Y-118375321D01*
X165526346Y-118357568D01*
X165537199Y-118341045D01*
X165544753Y-118331306D01*
X165549613Y-118325041D01*
X165567176Y-118284457D01*
X165572383Y-118273827D01*
X165593695Y-118235060D01*
X165595666Y-118227383D01*
X165595668Y-118227378D01*
X165598732Y-118215442D01*
X165605138Y-118196730D01*
X165610033Y-118185419D01*
X165613181Y-118178145D01*
X165614421Y-118170317D01*
X165614423Y-118170310D01*
X165620099Y-118134476D01*
X165622505Y-118122856D01*
X165631528Y-118087711D01*
X165631528Y-118087710D01*
X165633500Y-118080030D01*
X165633500Y-118059776D01*
X165635051Y-118040065D01*
X165636980Y-118027886D01*
X165638220Y-118020057D01*
X165634059Y-117976038D01*
X165633500Y-117964181D01*
X165633500Y-98488767D01*
X165634027Y-98477584D01*
X165635702Y-98470091D01*
X165633562Y-98402014D01*
X165633500Y-98398055D01*
X165633500Y-98370144D01*
X165632995Y-98366144D01*
X165632062Y-98354301D01*
X165631829Y-98346866D01*
X165630673Y-98310110D01*
X165625022Y-98290658D01*
X165621014Y-98271306D01*
X165619467Y-98259063D01*
X165618474Y-98251203D01*
X165615556Y-98243832D01*
X165602200Y-98210097D01*
X165598355Y-98198870D01*
X165597721Y-98196687D01*
X165586018Y-98156407D01*
X165581221Y-98148295D01*
X165575707Y-98138972D01*
X165567012Y-98121224D01*
X165559552Y-98102383D01*
X165533564Y-98066613D01*
X165527048Y-98056693D01*
X165508580Y-98025465D01*
X165508578Y-98025462D01*
X165504542Y-98018638D01*
X165490221Y-98004317D01*
X165477380Y-97989283D01*
X165465472Y-97972893D01*
X165431395Y-97944702D01*
X165422616Y-97936712D01*
X163798652Y-96312747D01*
X163791112Y-96304461D01*
X163787000Y-96297982D01*
X163737348Y-96251356D01*
X163734507Y-96248602D01*
X163714770Y-96228865D01*
X163711573Y-96226385D01*
X163702551Y-96218680D01*
X163676100Y-96193841D01*
X163670321Y-96188414D01*
X163663375Y-96184595D01*
X163663372Y-96184593D01*
X163652566Y-96178652D01*
X163636047Y-96167801D01*
X163635583Y-96167441D01*
X163620041Y-96155386D01*
X163612772Y-96152241D01*
X163612768Y-96152238D01*
X163579463Y-96137826D01*
X163568813Y-96132609D01*
X163530060Y-96111305D01*
X163510437Y-96106267D01*
X163491734Y-96099863D01*
X163480420Y-96094967D01*
X163480419Y-96094967D01*
X163473145Y-96091819D01*
X163465322Y-96090580D01*
X163465312Y-96090577D01*
X163429476Y-96084901D01*
X163417856Y-96082495D01*
X163382711Y-96073472D01*
X163382710Y-96073472D01*
X163375030Y-96071500D01*
X163354776Y-96071500D01*
X163335065Y-96069949D01*
X163322886Y-96068020D01*
X163315057Y-96066780D01*
X163307165Y-96067526D01*
X163271039Y-96070941D01*
X163259181Y-96071500D01*
X159364500Y-96071500D01*
X159296379Y-96051498D01*
X159249886Y-95997842D01*
X159238500Y-95945500D01*
X159238500Y-95806866D01*
X159231745Y-95744684D01*
X159180615Y-95608295D01*
X159107370Y-95510564D01*
X159082522Y-95444059D01*
X159097575Y-95374676D01*
X159107370Y-95359435D01*
X159175229Y-95268891D01*
X159180615Y-95261705D01*
X159231745Y-95125316D01*
X159238500Y-95063134D01*
X159238500Y-93266866D01*
X159231745Y-93204684D01*
X159180615Y-93068295D01*
X159107058Y-92970148D01*
X159082210Y-92903642D01*
X159097263Y-92834259D01*
X159107058Y-92819018D01*
X159174786Y-92728649D01*
X159183324Y-92713054D01*
X159228478Y-92592606D01*
X159232105Y-92577351D01*
X159237631Y-92526486D01*
X159238000Y-92519672D01*
X159238000Y-91897115D01*
X159233525Y-91881876D01*
X159232135Y-91880671D01*
X159224452Y-91879000D01*
X154740116Y-91879000D01*
X154724877Y-91883475D01*
X154723672Y-91884865D01*
X154722001Y-91892548D01*
X154722001Y-92519669D01*
X154722371Y-92526490D01*
X154727895Y-92577352D01*
X154731521Y-92592604D01*
X154776676Y-92713054D01*
X154785214Y-92728649D01*
X154852942Y-92819018D01*
X154877790Y-92885525D01*
X154862737Y-92954907D01*
X154852942Y-92970148D01*
X154779385Y-93068295D01*
X154728255Y-93204684D01*
X154721500Y-93266866D01*
X154721500Y-94085219D01*
X154720787Y-94098607D01*
X154717251Y-94131695D01*
X154717548Y-94136848D01*
X154717548Y-94136851D01*
X154721291Y-94201763D01*
X154721500Y-94209016D01*
X154721500Y-95063134D01*
X154728255Y-95125316D01*
X154779385Y-95261705D01*
X154784771Y-95268891D01*
X154852630Y-95359435D01*
X154877478Y-95425941D01*
X154862425Y-95495324D01*
X154852632Y-95510562D01*
X154779385Y-95608295D01*
X154728255Y-95744684D01*
X154721500Y-95806866D01*
X154721500Y-96625219D01*
X154720787Y-96638607D01*
X154717251Y-96671695D01*
X154717548Y-96676848D01*
X154717548Y-96676851D01*
X154721291Y-96741763D01*
X154721500Y-96749016D01*
X154721500Y-97603134D01*
X154728255Y-97665316D01*
X154779385Y-97801705D01*
X154784771Y-97808891D01*
X154852630Y-97899435D01*
X154877478Y-97965941D01*
X154862425Y-98035324D01*
X154852632Y-98050562D01*
X154779385Y-98148295D01*
X154728255Y-98284684D01*
X154721500Y-98346866D01*
X154721500Y-99165219D01*
X154720787Y-99178607D01*
X154717251Y-99211695D01*
X154717548Y-99216848D01*
X154717548Y-99216851D01*
X154721291Y-99281763D01*
X154721500Y-99289016D01*
X154721500Y-100143134D01*
X154728255Y-100205316D01*
X154779385Y-100341705D01*
X154784771Y-100348891D01*
X154852630Y-100439435D01*
X154877478Y-100505941D01*
X154862425Y-100575324D01*
X154852632Y-100590562D01*
X154779385Y-100688295D01*
X154728255Y-100824684D01*
X154721500Y-100886866D01*
X154721500Y-101705219D01*
X154720787Y-101718607D01*
X154717251Y-101751695D01*
X154717548Y-101756848D01*
X154717548Y-101756851D01*
X154721291Y-101821763D01*
X154721500Y-101829016D01*
X154721500Y-102683134D01*
X154728255Y-102745316D01*
X154779385Y-102881705D01*
X154784771Y-102888891D01*
X154852942Y-102979852D01*
X154877790Y-103046358D01*
X154862737Y-103115741D01*
X154852942Y-103130982D01*
X154785214Y-103221351D01*
X154776676Y-103236946D01*
X154731522Y-103357394D01*
X154727895Y-103372649D01*
X154722369Y-103423514D01*
X154722000Y-103430328D01*
X154722000Y-104052885D01*
X154726475Y-104068124D01*
X154727865Y-104069329D01*
X154735548Y-104071000D01*
X159219884Y-104071000D01*
X159235123Y-104066525D01*
X159236328Y-104065135D01*
X159237999Y-104057452D01*
X159237999Y-103430331D01*
X159237629Y-103423510D01*
X159232105Y-103372648D01*
X159228479Y-103357396D01*
X159183324Y-103236946D01*
X159174786Y-103221351D01*
X159107058Y-103130982D01*
X159082210Y-103064475D01*
X159097263Y-102995093D01*
X159107058Y-102979852D01*
X159175229Y-102888891D01*
X159180615Y-102881705D01*
X159231745Y-102745316D01*
X159238500Y-102683134D01*
X159238500Y-102544500D01*
X159258502Y-102476379D01*
X159312158Y-102429886D01*
X159364500Y-102418500D01*
X161470406Y-102418500D01*
X161538527Y-102438502D01*
X161559501Y-102455405D01*
X162329595Y-103225499D01*
X162363621Y-103287811D01*
X162366500Y-103314594D01*
X162366500Y-109166405D01*
X162346498Y-109234526D01*
X162292842Y-109281019D01*
X162222568Y-109291123D01*
X162157988Y-109261629D01*
X162151404Y-109255500D01*
X162134145Y-109238240D01*
X161908647Y-109012742D01*
X161901113Y-109004463D01*
X161897000Y-108997982D01*
X161847348Y-108951356D01*
X161844507Y-108948602D01*
X161824770Y-108928865D01*
X161821573Y-108926385D01*
X161812551Y-108918680D01*
X161786100Y-108893841D01*
X161780321Y-108888414D01*
X161773375Y-108884595D01*
X161773372Y-108884593D01*
X161762566Y-108878652D01*
X161746047Y-108867801D01*
X161745583Y-108867441D01*
X161730041Y-108855386D01*
X161722772Y-108852241D01*
X161722768Y-108852238D01*
X161689463Y-108837826D01*
X161678813Y-108832609D01*
X161640060Y-108811305D01*
X161620437Y-108806267D01*
X161601734Y-108799863D01*
X161590420Y-108794967D01*
X161590419Y-108794967D01*
X161583145Y-108791819D01*
X161575322Y-108790580D01*
X161575312Y-108790577D01*
X161539476Y-108784901D01*
X161527856Y-108782495D01*
X161492711Y-108773472D01*
X161492710Y-108773472D01*
X161485030Y-108771500D01*
X161464776Y-108771500D01*
X161445065Y-108769949D01*
X161432886Y-108768020D01*
X161425057Y-108766780D01*
X161417165Y-108767526D01*
X161381039Y-108770941D01*
X161369181Y-108771500D01*
X159364500Y-108771500D01*
X159296379Y-108751498D01*
X159249886Y-108697842D01*
X159238500Y-108645500D01*
X159238500Y-108506866D01*
X159231745Y-108444684D01*
X159180615Y-108308295D01*
X159107370Y-108210564D01*
X159082522Y-108144059D01*
X159097575Y-108074676D01*
X159107370Y-108059435D01*
X159175229Y-107968891D01*
X159180615Y-107961705D01*
X159231745Y-107825316D01*
X159238500Y-107763134D01*
X159238500Y-107624500D01*
X159258502Y-107556379D01*
X159312158Y-107509886D01*
X159364500Y-107498500D01*
X160170247Y-107498500D01*
X160238368Y-107518502D01*
X160263882Y-107540189D01*
X160388747Y-107678866D01*
X160543248Y-107791118D01*
X160549276Y-107793802D01*
X160549278Y-107793803D01*
X160711681Y-107866109D01*
X160717712Y-107868794D01*
X160811112Y-107888647D01*
X160898056Y-107907128D01*
X160898061Y-107907128D01*
X160904513Y-107908500D01*
X161095487Y-107908500D01*
X161101939Y-107907128D01*
X161101944Y-107907128D01*
X161188888Y-107888647D01*
X161282288Y-107868794D01*
X161288319Y-107866109D01*
X161450722Y-107793803D01*
X161450724Y-107793802D01*
X161456752Y-107791118D01*
X161611253Y-107678866D01*
X161739040Y-107536944D01*
X161834527Y-107371556D01*
X161893542Y-107189928D01*
X161913504Y-107000000D01*
X161893542Y-106810072D01*
X161834527Y-106628444D01*
X161739040Y-106463056D01*
X161611253Y-106321134D01*
X161487883Y-106231500D01*
X161462094Y-106212763D01*
X161462093Y-106212762D01*
X161456752Y-106208882D01*
X161450724Y-106206198D01*
X161450722Y-106206197D01*
X161288319Y-106133891D01*
X161288318Y-106133891D01*
X161282288Y-106131206D01*
X161188888Y-106111353D01*
X161101944Y-106092872D01*
X161101939Y-106092872D01*
X161095487Y-106091500D01*
X160904513Y-106091500D01*
X160898061Y-106092872D01*
X160898056Y-106092872D01*
X160811113Y-106111353D01*
X160717712Y-106131206D01*
X160543248Y-106208882D01*
X160537905Y-106212764D01*
X160534692Y-106214619D01*
X160471691Y-106231500D01*
X159364500Y-106231500D01*
X159296379Y-106211498D01*
X159249886Y-106157842D01*
X159238500Y-106105500D01*
X159238500Y-105966866D01*
X159231745Y-105904684D01*
X159180615Y-105768295D01*
X159107058Y-105670148D01*
X159082210Y-105603642D01*
X159097263Y-105534259D01*
X159107058Y-105519018D01*
X159174786Y-105428649D01*
X159183324Y-105413054D01*
X159228478Y-105292606D01*
X159232105Y-105277351D01*
X159237631Y-105226486D01*
X159238000Y-105219672D01*
X159238000Y-104597115D01*
X159233525Y-104581876D01*
X159232135Y-104580671D01*
X159224452Y-104579000D01*
X154740116Y-104579000D01*
X154724877Y-104583475D01*
X154723672Y-104584865D01*
X154722001Y-104592548D01*
X154722001Y-105219669D01*
X154722371Y-105226490D01*
X154727895Y-105277352D01*
X154731521Y-105292604D01*
X154776676Y-105413054D01*
X154785214Y-105428649D01*
X154852942Y-105519018D01*
X154877790Y-105585525D01*
X154862737Y-105654907D01*
X154852942Y-105670148D01*
X154779385Y-105768295D01*
X154728255Y-105904684D01*
X154721500Y-105966866D01*
X154721500Y-106785219D01*
X154720787Y-106798607D01*
X154717251Y-106831695D01*
X154717548Y-106836848D01*
X154717548Y-106836851D01*
X154721291Y-106901763D01*
X154721500Y-106909016D01*
X154721500Y-107763134D01*
X154728255Y-107825316D01*
X154779385Y-107961705D01*
X154784771Y-107968891D01*
X154852630Y-108059435D01*
X154877478Y-108125941D01*
X154862425Y-108195324D01*
X154852632Y-108210562D01*
X154779385Y-108308295D01*
X154728255Y-108444684D01*
X154721500Y-108506866D01*
X154721500Y-109325219D01*
X154720787Y-109338607D01*
X154717251Y-109371695D01*
X154717548Y-109376848D01*
X154717548Y-109376851D01*
X154721291Y-109441763D01*
X154721500Y-109449016D01*
X154721500Y-110303134D01*
X154728255Y-110365316D01*
X154779385Y-110501705D01*
X154866739Y-110618261D01*
X154983295Y-110705615D01*
X155119684Y-110756745D01*
X155181866Y-110763500D01*
X156050826Y-110763500D01*
X156055443Y-110763585D01*
X156136673Y-110766564D01*
X156136677Y-110766564D01*
X156141837Y-110766753D01*
X156146957Y-110766097D01*
X156146959Y-110766097D01*
X156159261Y-110764521D01*
X156175271Y-110763500D01*
X158778134Y-110763500D01*
X158840316Y-110756745D01*
X158976705Y-110705615D01*
X159093261Y-110618261D01*
X159180615Y-110501705D01*
X159231745Y-110365316D01*
X159238500Y-110303134D01*
X159238500Y-110164500D01*
X159258502Y-110096379D01*
X159312158Y-110049886D01*
X159364500Y-110038500D01*
X161090405Y-110038500D01*
X161158526Y-110058502D01*
X161179501Y-110075405D01*
X161329596Y-110225501D01*
X161363621Y-110287813D01*
X161366500Y-110314596D01*
X161366500Y-112685405D01*
X161346498Y-112753526D01*
X161329595Y-112774501D01*
X160774499Y-113329596D01*
X160712187Y-113363621D01*
X160685404Y-113366500D01*
X150478768Y-113366500D01*
X150467585Y-113365973D01*
X150460092Y-113364298D01*
X150452166Y-113364547D01*
X150452165Y-113364547D01*
X150392002Y-113366438D01*
X150388044Y-113366500D01*
X150360144Y-113366500D01*
X150356154Y-113367004D01*
X150344320Y-113367936D01*
X150300111Y-113369326D01*
X150292495Y-113371539D01*
X150292493Y-113371539D01*
X150280652Y-113374979D01*
X150261293Y-113378988D01*
X150259983Y-113379154D01*
X150241203Y-113381526D01*
X150233837Y-113384442D01*
X150233831Y-113384444D01*
X150200098Y-113397800D01*
X150188868Y-113401645D01*
X150154017Y-113411770D01*
X150146407Y-113413981D01*
X150139584Y-113418016D01*
X150128966Y-113424295D01*
X150111213Y-113432992D01*
X150103568Y-113436019D01*
X150092383Y-113440448D01*
X150085968Y-113445109D01*
X150056612Y-113466437D01*
X150046695Y-113472951D01*
X150008638Y-113495458D01*
X149994317Y-113509779D01*
X149979284Y-113522619D01*
X149962893Y-113534528D01*
X149957842Y-113540634D01*
X149934702Y-113568605D01*
X149926712Y-113577384D01*
X143697747Y-119806348D01*
X143689461Y-119813888D01*
X143682982Y-119818000D01*
X143677557Y-119823777D01*
X143636357Y-119867651D01*
X143633602Y-119870493D01*
X143613865Y-119890230D01*
X143611385Y-119893427D01*
X143603682Y-119902447D01*
X143573414Y-119934679D01*
X143569595Y-119941625D01*
X143569593Y-119941628D01*
X143563652Y-119952434D01*
X143552801Y-119968953D01*
X143540386Y-119984959D01*
X143537240Y-119992228D01*
X143536636Y-119993250D01*
X143484743Y-120041702D01*
X143414579Y-120054372D01*
X143391538Y-120051869D01*
X143391524Y-120051868D01*
X143388134Y-120051500D01*
X142591866Y-120051500D01*
X142529684Y-120058255D01*
X142393295Y-120109385D01*
X142276739Y-120196739D01*
X142189385Y-120313295D01*
X142138255Y-120449684D01*
X142131500Y-120511866D01*
X142131500Y-121608134D01*
X141661000Y-121608134D01*
X141661000Y-121020116D01*
X141656525Y-121004877D01*
X141655135Y-121003672D01*
X141647452Y-121002001D01*
X141295331Y-121002001D01*
X141288510Y-121002371D01*
X141237648Y-121007895D01*
X141222396Y-121011521D01*
X141101946Y-121056676D01*
X141086351Y-121065214D01*
X140984276Y-121141715D01*
X140971715Y-121154276D01*
X140895214Y-121256351D01*
X140886676Y-121271946D01*
X140841522Y-121392394D01*
X140837895Y-121407649D01*
X140832369Y-121458514D01*
X140832000Y-121465328D01*
X140832000Y-121837885D01*
X127508000Y-121837885D01*
X127508000Y-110303134D01*
X135141500Y-110303134D01*
X135148255Y-110365316D01*
X135199385Y-110501705D01*
X135286739Y-110618261D01*
X135403295Y-110705615D01*
X135539684Y-110756745D01*
X135601866Y-110763500D01*
X138270826Y-110763500D01*
X138275443Y-110763585D01*
X138356673Y-110766564D01*
X138356677Y-110766564D01*
X138361837Y-110766753D01*
X138366957Y-110766097D01*
X138366959Y-110766097D01*
X138379261Y-110764521D01*
X138395271Y-110763500D01*
X139198134Y-110763500D01*
X139260316Y-110756745D01*
X139396705Y-110705615D01*
X139513261Y-110618261D01*
X139600615Y-110501705D01*
X139651745Y-110365316D01*
X139658500Y-110303134D01*
X139658500Y-109502856D01*
X139659578Y-109486409D01*
X139661092Y-109474908D01*
X139661529Y-109471590D01*
X139663156Y-109405000D01*
X139658924Y-109353524D01*
X139658500Y-109343200D01*
X139658500Y-109141695D01*
X143287251Y-109141695D01*
X143287548Y-109146848D01*
X143287548Y-109146851D01*
X143291291Y-109211763D01*
X143291500Y-109219016D01*
X143291500Y-111873134D01*
X143298255Y-111935316D01*
X143349385Y-112071705D01*
X143436739Y-112188261D01*
X143553295Y-112275615D01*
X143689684Y-112326745D01*
X143751866Y-112333500D01*
X145548134Y-112333500D01*
X145610316Y-112326745D01*
X145746705Y-112275615D01*
X145844851Y-112202058D01*
X145911358Y-112177210D01*
X145980741Y-112192263D01*
X145995982Y-112202058D01*
X146086351Y-112269786D01*
X146101946Y-112278324D01*
X146222394Y-112323478D01*
X146237649Y-112327105D01*
X146288514Y-112332631D01*
X146295328Y-112333000D01*
X146917885Y-112333000D01*
X146933124Y-112328525D01*
X146934329Y-112327135D01*
X146936000Y-112319452D01*
X146936000Y-112314884D01*
X147444000Y-112314884D01*
X147448475Y-112330123D01*
X147449865Y-112331328D01*
X147457548Y-112332999D01*
X148084669Y-112332999D01*
X148091490Y-112332629D01*
X148142352Y-112327105D01*
X148157604Y-112323479D01*
X148278054Y-112278324D01*
X148293649Y-112269786D01*
X148384018Y-112202058D01*
X148450525Y-112177210D01*
X148519907Y-112192263D01*
X148535148Y-112202058D01*
X148633295Y-112275615D01*
X148769684Y-112326745D01*
X148831866Y-112333500D01*
X150628134Y-112333500D01*
X150690316Y-112326745D01*
X150826705Y-112275615D01*
X150943261Y-112188261D01*
X151030615Y-112071705D01*
X151081745Y-111935316D01*
X151088500Y-111873134D01*
X151088500Y-109272856D01*
X151089578Y-109256409D01*
X151091092Y-109244908D01*
X151091529Y-109241590D01*
X151093156Y-109175000D01*
X151088924Y-109123524D01*
X151088500Y-109113200D01*
X151088500Y-108276866D01*
X151081745Y-108214684D01*
X151030615Y-108078295D01*
X150943261Y-107961739D01*
X150826705Y-107874385D01*
X150690316Y-107823255D01*
X150628134Y-107816500D01*
X149744985Y-107816500D01*
X149743446Y-107816491D01*
X149640081Y-107815228D01*
X149640079Y-107815228D01*
X149634911Y-107815165D01*
X149629797Y-107815948D01*
X149626289Y-107816193D01*
X149617496Y-107816500D01*
X148831866Y-107816500D01*
X148769684Y-107823255D01*
X148633295Y-107874385D01*
X148589606Y-107907128D01*
X148535148Y-107947942D01*
X148468642Y-107972790D01*
X148399259Y-107957737D01*
X148384018Y-107947942D01*
X148293649Y-107880214D01*
X148278054Y-107871676D01*
X148157606Y-107826522D01*
X148142351Y-107822895D01*
X148091486Y-107817369D01*
X148084672Y-107817000D01*
X147462115Y-107817000D01*
X147446876Y-107821475D01*
X147445671Y-107822865D01*
X147444000Y-107830548D01*
X147444000Y-112314884D01*
X146936000Y-112314884D01*
X146936000Y-107835116D01*
X146931525Y-107819877D01*
X146930135Y-107818672D01*
X146922452Y-107817001D01*
X146295331Y-107817001D01*
X146288510Y-107817371D01*
X146237648Y-107822895D01*
X146222396Y-107826521D01*
X146101946Y-107871676D01*
X146086351Y-107880214D01*
X145995982Y-107947942D01*
X145929475Y-107972790D01*
X145860093Y-107957737D01*
X145844852Y-107947942D01*
X145790394Y-107907128D01*
X145746705Y-107874385D01*
X145610316Y-107823255D01*
X145548134Y-107816500D01*
X144664985Y-107816500D01*
X144663446Y-107816491D01*
X144560081Y-107815228D01*
X144560079Y-107815228D01*
X144554911Y-107815165D01*
X144549797Y-107815948D01*
X144546289Y-107816193D01*
X144537496Y-107816500D01*
X143751866Y-107816500D01*
X143689684Y-107823255D01*
X143553295Y-107874385D01*
X143436739Y-107961739D01*
X143349385Y-108078295D01*
X143298255Y-108214684D01*
X143291500Y-108276866D01*
X143291500Y-109095219D01*
X143290787Y-109108607D01*
X143287251Y-109141695D01*
X139658500Y-109141695D01*
X139658500Y-108506866D01*
X139651745Y-108444684D01*
X139600615Y-108308295D01*
X139527370Y-108210564D01*
X139502522Y-108144059D01*
X139517575Y-108074676D01*
X139527370Y-108059435D01*
X139595229Y-107968891D01*
X139600615Y-107961705D01*
X139651745Y-107825316D01*
X139658500Y-107763134D01*
X139658500Y-106962856D01*
X139659578Y-106946409D01*
X139661092Y-106934908D01*
X139661529Y-106931590D01*
X139663156Y-106865000D01*
X139658924Y-106813524D01*
X139658500Y-106803200D01*
X139658500Y-105966866D01*
X139651745Y-105904684D01*
X139600615Y-105768295D01*
X139527058Y-105670148D01*
X139502210Y-105603642D01*
X139517263Y-105534259D01*
X139527058Y-105519018D01*
X139594786Y-105428649D01*
X139603324Y-105413054D01*
X139648478Y-105292606D01*
X139652105Y-105277351D01*
X139657631Y-105226486D01*
X139658000Y-105219672D01*
X139658000Y-104597115D01*
X139653525Y-104581876D01*
X139652135Y-104580671D01*
X139644452Y-104579000D01*
X135160116Y-104579000D01*
X135144877Y-104583475D01*
X135143672Y-104584865D01*
X135142001Y-104592548D01*
X135142001Y-105219669D01*
X135142371Y-105226490D01*
X135147895Y-105277352D01*
X135151521Y-105292604D01*
X135196676Y-105413054D01*
X135205214Y-105428649D01*
X135272942Y-105519018D01*
X135297790Y-105585525D01*
X135282737Y-105654907D01*
X135272942Y-105670148D01*
X135199385Y-105768295D01*
X135148255Y-105904684D01*
X135141500Y-105966866D01*
X135141500Y-107763134D01*
X135148255Y-107825316D01*
X135199385Y-107961705D01*
X135204771Y-107968891D01*
X135272630Y-108059435D01*
X135297478Y-108125941D01*
X135282425Y-108195324D01*
X135272632Y-108210562D01*
X135199385Y-108308295D01*
X135148255Y-108444684D01*
X135141500Y-108506866D01*
X135141500Y-110303134D01*
X127508000Y-110303134D01*
X127508000Y-102683134D01*
X135141500Y-102683134D01*
X135148255Y-102745316D01*
X135199385Y-102881705D01*
X135204771Y-102888891D01*
X135272942Y-102979852D01*
X135297790Y-103046358D01*
X135282737Y-103115741D01*
X135272942Y-103130982D01*
X135205214Y-103221351D01*
X135196676Y-103236946D01*
X135151522Y-103357394D01*
X135147895Y-103372649D01*
X135142369Y-103423514D01*
X135142000Y-103430328D01*
X135142000Y-104052885D01*
X135146475Y-104068124D01*
X135147865Y-104069329D01*
X135155548Y-104071000D01*
X139639884Y-104071000D01*
X139655123Y-104066525D01*
X139656328Y-104065135D01*
X139657999Y-104057452D01*
X139657999Y-103430331D01*
X139657629Y-103423510D01*
X139652105Y-103372648D01*
X139648479Y-103357396D01*
X139603324Y-103236946D01*
X139594786Y-103221351D01*
X139527058Y-103130982D01*
X139502210Y-103064475D01*
X139517263Y-102995093D01*
X139527058Y-102979852D01*
X139595229Y-102888891D01*
X139600615Y-102881705D01*
X139651745Y-102745316D01*
X139658500Y-102683134D01*
X139658500Y-101882856D01*
X139659578Y-101866409D01*
X139661092Y-101854908D01*
X139661529Y-101851590D01*
X139663156Y-101785000D01*
X139658924Y-101733524D01*
X139658500Y-101723200D01*
X139658500Y-100886866D01*
X139651745Y-100824684D01*
X139600615Y-100688295D01*
X139527370Y-100590564D01*
X139502522Y-100524059D01*
X139517575Y-100454676D01*
X139527370Y-100439435D01*
X139595229Y-100348891D01*
X139600615Y-100341705D01*
X139651745Y-100205316D01*
X139658500Y-100143134D01*
X139658500Y-99342856D01*
X139659578Y-99326409D01*
X139661092Y-99314908D01*
X139661529Y-99311590D01*
X139663156Y-99245000D01*
X139658924Y-99193524D01*
X139658500Y-99183200D01*
X139658500Y-98346866D01*
X139651745Y-98284684D01*
X139600615Y-98148295D01*
X139527370Y-98050564D01*
X139502522Y-97984059D01*
X139517575Y-97914676D01*
X139527370Y-97899435D01*
X139595229Y-97808891D01*
X139600615Y-97801705D01*
X139651745Y-97665316D01*
X139658500Y-97603134D01*
X139658500Y-96802856D01*
X139659578Y-96786409D01*
X139661092Y-96774908D01*
X139661529Y-96771590D01*
X139663156Y-96705000D01*
X139658924Y-96653524D01*
X139658500Y-96643200D01*
X139658500Y-95806866D01*
X139651745Y-95744684D01*
X139600615Y-95608295D01*
X139527370Y-95510564D01*
X139502522Y-95444059D01*
X139517575Y-95374676D01*
X139527370Y-95359435D01*
X139595229Y-95268891D01*
X139600615Y-95261705D01*
X139651745Y-95125316D01*
X139658500Y-95063134D01*
X139658500Y-94262856D01*
X139659578Y-94246409D01*
X139661092Y-94234908D01*
X139661529Y-94231590D01*
X139663156Y-94165000D01*
X139658924Y-94113524D01*
X139658500Y-94103200D01*
X139658500Y-93266866D01*
X139651745Y-93204684D01*
X139600615Y-93068295D01*
X139527058Y-92970148D01*
X139502210Y-92903642D01*
X139517263Y-92834259D01*
X139527058Y-92819018D01*
X139594786Y-92728649D01*
X139603324Y-92713054D01*
X139648478Y-92592606D01*
X139652105Y-92577351D01*
X139657631Y-92526486D01*
X139658000Y-92519672D01*
X139658000Y-91897115D01*
X139653525Y-91881876D01*
X139652135Y-91880671D01*
X139644452Y-91879000D01*
X135160116Y-91879000D01*
X135144877Y-91883475D01*
X135143672Y-91884865D01*
X135142001Y-91892548D01*
X135142001Y-92519669D01*
X135142371Y-92526490D01*
X135147895Y-92577352D01*
X135151521Y-92592604D01*
X135196676Y-92713054D01*
X135205214Y-92728649D01*
X135272942Y-92819018D01*
X135297790Y-92885525D01*
X135282737Y-92954907D01*
X135272942Y-92970148D01*
X135199385Y-93068295D01*
X135148255Y-93204684D01*
X135141500Y-93266866D01*
X135141500Y-95063134D01*
X135148255Y-95125316D01*
X135199385Y-95261705D01*
X135204771Y-95268891D01*
X135272630Y-95359435D01*
X135297478Y-95425941D01*
X135282425Y-95495324D01*
X135272632Y-95510562D01*
X135199385Y-95608295D01*
X135148255Y-95744684D01*
X135141500Y-95806866D01*
X135141500Y-97603134D01*
X135148255Y-97665316D01*
X135199385Y-97801705D01*
X135204771Y-97808891D01*
X135272630Y-97899435D01*
X135297478Y-97965941D01*
X135282425Y-98035324D01*
X135272632Y-98050562D01*
X135199385Y-98148295D01*
X135148255Y-98284684D01*
X135141500Y-98346866D01*
X135141500Y-100143134D01*
X135148255Y-100205316D01*
X135199385Y-100341705D01*
X135204771Y-100348891D01*
X135272630Y-100439435D01*
X135297478Y-100505941D01*
X135282425Y-100575324D01*
X135272632Y-100590562D01*
X135199385Y-100688295D01*
X135148255Y-100824684D01*
X135141500Y-100886866D01*
X135141500Y-102683134D01*
X127508000Y-102683134D01*
X127508000Y-89983134D01*
X135141500Y-89983134D01*
X135148255Y-90045316D01*
X135199385Y-90181705D01*
X135204771Y-90188891D01*
X135272942Y-90279852D01*
X135297790Y-90346358D01*
X135282737Y-90415741D01*
X135272942Y-90430982D01*
X135205214Y-90521351D01*
X135196676Y-90536946D01*
X135151522Y-90657394D01*
X135147895Y-90672649D01*
X135142369Y-90723514D01*
X135142000Y-90730328D01*
X135142000Y-91352885D01*
X135146475Y-91368124D01*
X135147865Y-91369329D01*
X135155548Y-91371000D01*
X139639884Y-91371000D01*
X139655123Y-91366525D01*
X139656328Y-91365135D01*
X139657999Y-91357452D01*
X139657999Y-90730331D01*
X139657629Y-90723510D01*
X139652105Y-90672648D01*
X139648479Y-90657396D01*
X139603324Y-90536946D01*
X139594786Y-90521351D01*
X139527058Y-90430982D01*
X139502210Y-90364475D01*
X139517263Y-90295093D01*
X139527058Y-90279852D01*
X139595229Y-90188891D01*
X139600615Y-90181705D01*
X139651745Y-90045316D01*
X139658500Y-89983134D01*
X139658500Y-89182856D01*
X139659578Y-89166409D01*
X139661092Y-89154908D01*
X139661529Y-89151590D01*
X139663156Y-89085000D01*
X139660418Y-89051695D01*
X154717251Y-89051695D01*
X154717548Y-89056848D01*
X154717548Y-89056851D01*
X154721291Y-89121763D01*
X154721500Y-89129016D01*
X154721500Y-89983134D01*
X154728255Y-90045316D01*
X154779385Y-90181705D01*
X154784771Y-90188891D01*
X154852942Y-90279852D01*
X154877790Y-90346358D01*
X154862737Y-90415741D01*
X154852942Y-90430982D01*
X154785214Y-90521351D01*
X154776676Y-90536946D01*
X154731522Y-90657394D01*
X154727895Y-90672649D01*
X154722369Y-90723514D01*
X154722000Y-90730328D01*
X154722000Y-91352885D01*
X154726475Y-91368124D01*
X154727865Y-91369329D01*
X154735548Y-91371000D01*
X159219884Y-91371000D01*
X159235123Y-91366525D01*
X159236328Y-91365135D01*
X159237999Y-91357452D01*
X159237999Y-90730331D01*
X159237629Y-90723510D01*
X159232105Y-90672648D01*
X159228479Y-90657396D01*
X159183324Y-90536946D01*
X159174786Y-90521351D01*
X159107058Y-90430982D01*
X159082210Y-90364475D01*
X159097263Y-90295093D01*
X159107058Y-90279852D01*
X159175229Y-90188891D01*
X159180615Y-90181705D01*
X159231745Y-90045316D01*
X159238500Y-89983134D01*
X159238500Y-88186866D01*
X159231745Y-88124684D01*
X159180615Y-87988295D01*
X159107370Y-87890564D01*
X159082522Y-87824059D01*
X159097575Y-87754676D01*
X159107370Y-87739435D01*
X159175229Y-87648891D01*
X159180615Y-87641705D01*
X159231745Y-87505316D01*
X159238500Y-87443134D01*
X159238500Y-85646866D01*
X159231745Y-85584684D01*
X159180615Y-85448295D01*
X159107370Y-85350564D01*
X159082522Y-85284059D01*
X159097575Y-85214676D01*
X159107370Y-85199435D01*
X159175229Y-85108891D01*
X159180615Y-85101705D01*
X159231745Y-84965316D01*
X159238500Y-84903134D01*
X159238500Y-83106866D01*
X159231745Y-83044684D01*
X159180615Y-82908295D01*
X159107370Y-82810564D01*
X159082522Y-82744059D01*
X159097575Y-82674676D01*
X159107370Y-82659435D01*
X159175229Y-82568891D01*
X159180615Y-82561705D01*
X159231745Y-82425316D01*
X159238500Y-82363134D01*
X159238500Y-80566866D01*
X159231745Y-80504684D01*
X159180615Y-80368295D01*
X159107058Y-80270148D01*
X159082210Y-80203642D01*
X159097263Y-80134259D01*
X159107058Y-80119018D01*
X159174786Y-80028649D01*
X159183324Y-80013054D01*
X159228478Y-79892606D01*
X159232105Y-79877351D01*
X159237631Y-79826486D01*
X159238000Y-79819672D01*
X159238000Y-79197115D01*
X159233525Y-79181876D01*
X159232135Y-79180671D01*
X159224452Y-79179000D01*
X154740116Y-79179000D01*
X154724877Y-79183475D01*
X154723672Y-79184865D01*
X154722001Y-79192548D01*
X154722001Y-79819669D01*
X154722371Y-79826490D01*
X154727895Y-79877352D01*
X154731521Y-79892604D01*
X154776676Y-80013054D01*
X154785214Y-80028649D01*
X154852942Y-80119018D01*
X154877790Y-80185525D01*
X154862737Y-80254907D01*
X154852942Y-80270148D01*
X154779385Y-80368295D01*
X154728255Y-80504684D01*
X154721500Y-80566866D01*
X154721500Y-81385219D01*
X154720787Y-81398607D01*
X154717251Y-81431695D01*
X154717548Y-81436848D01*
X154717548Y-81436851D01*
X154721291Y-81501763D01*
X154721500Y-81509016D01*
X154721500Y-82363134D01*
X154728255Y-82425316D01*
X154779385Y-82561705D01*
X154784771Y-82568891D01*
X154852630Y-82659435D01*
X154877478Y-82725941D01*
X154862425Y-82795324D01*
X154852632Y-82810562D01*
X154779385Y-82908295D01*
X154728255Y-83044684D01*
X154721500Y-83106866D01*
X154721500Y-83925219D01*
X154720787Y-83938607D01*
X154717251Y-83971695D01*
X154717548Y-83976848D01*
X154717548Y-83976851D01*
X154721291Y-84041763D01*
X154721500Y-84049016D01*
X154721500Y-84903134D01*
X154728255Y-84965316D01*
X154779385Y-85101705D01*
X154784771Y-85108891D01*
X154852630Y-85199435D01*
X154877478Y-85265941D01*
X154862425Y-85335324D01*
X154852632Y-85350562D01*
X154779385Y-85448295D01*
X154728255Y-85584684D01*
X154721500Y-85646866D01*
X154721500Y-86465219D01*
X154720787Y-86478607D01*
X154717251Y-86511695D01*
X154717548Y-86516848D01*
X154717548Y-86516851D01*
X154721291Y-86581763D01*
X154721500Y-86589016D01*
X154721500Y-87443134D01*
X154728255Y-87505316D01*
X154779385Y-87641705D01*
X154784771Y-87648891D01*
X154852630Y-87739435D01*
X154877478Y-87805941D01*
X154862425Y-87875324D01*
X154852632Y-87890562D01*
X154779385Y-87988295D01*
X154728255Y-88124684D01*
X154721500Y-88186866D01*
X154721500Y-89005219D01*
X154720787Y-89018607D01*
X154717251Y-89051695D01*
X139660418Y-89051695D01*
X139658924Y-89033524D01*
X139658500Y-89023200D01*
X139658500Y-88186866D01*
X139651745Y-88124684D01*
X139600615Y-87988295D01*
X139527370Y-87890564D01*
X139502522Y-87824059D01*
X139517575Y-87754676D01*
X139527370Y-87739435D01*
X139595229Y-87648891D01*
X139600615Y-87641705D01*
X139651745Y-87505316D01*
X139658500Y-87443134D01*
X139658500Y-86642856D01*
X139659578Y-86626409D01*
X139661092Y-86614908D01*
X139661529Y-86611590D01*
X139663156Y-86545000D01*
X139658924Y-86493524D01*
X139658500Y-86483200D01*
X139658500Y-85646866D01*
X139651745Y-85584684D01*
X139600615Y-85448295D01*
X139527370Y-85350564D01*
X139502522Y-85284059D01*
X139517575Y-85214676D01*
X139527370Y-85199435D01*
X139595229Y-85108891D01*
X139600615Y-85101705D01*
X139651745Y-84965316D01*
X139658500Y-84903134D01*
X139658500Y-84102856D01*
X139659578Y-84086409D01*
X139661092Y-84074908D01*
X139661529Y-84071590D01*
X139663156Y-84005000D01*
X139658924Y-83953524D01*
X139658500Y-83943200D01*
X139658500Y-83106866D01*
X139651745Y-83044684D01*
X139600615Y-82908295D01*
X139527370Y-82810564D01*
X139502522Y-82744059D01*
X139517575Y-82674676D01*
X139527370Y-82659435D01*
X139595229Y-82568891D01*
X139600615Y-82561705D01*
X139651745Y-82425316D01*
X139658500Y-82363134D01*
X139658500Y-81562856D01*
X139659578Y-81546409D01*
X139661092Y-81534908D01*
X139661529Y-81531590D01*
X139663156Y-81465000D01*
X139658924Y-81413524D01*
X139658500Y-81403200D01*
X139658500Y-80566866D01*
X139651745Y-80504684D01*
X139600615Y-80368295D01*
X139527058Y-80270148D01*
X139502210Y-80203642D01*
X139517263Y-80134259D01*
X139527058Y-80119018D01*
X139594786Y-80028649D01*
X139603324Y-80013054D01*
X139648478Y-79892606D01*
X139652105Y-79877351D01*
X139657631Y-79826486D01*
X139658000Y-79819672D01*
X139658000Y-79197115D01*
X139653525Y-79181876D01*
X139652135Y-79180671D01*
X139644452Y-79179000D01*
X135160116Y-79179000D01*
X135144877Y-79183475D01*
X135143672Y-79184865D01*
X135142001Y-79192548D01*
X135142001Y-79819669D01*
X135142371Y-79826490D01*
X135147895Y-79877352D01*
X135151521Y-79892604D01*
X135196676Y-80013054D01*
X135205214Y-80028649D01*
X135272942Y-80119018D01*
X135297790Y-80185525D01*
X135282737Y-80254907D01*
X135272942Y-80270148D01*
X135199385Y-80368295D01*
X135148255Y-80504684D01*
X135141500Y-80566866D01*
X135141500Y-82363134D01*
X135148255Y-82425316D01*
X135199385Y-82561705D01*
X135204771Y-82568891D01*
X135272630Y-82659435D01*
X135297478Y-82725941D01*
X135282425Y-82795324D01*
X135272632Y-82810562D01*
X135199385Y-82908295D01*
X135148255Y-83044684D01*
X135141500Y-83106866D01*
X135141500Y-84903134D01*
X135148255Y-84965316D01*
X135199385Y-85101705D01*
X135204771Y-85108891D01*
X135272630Y-85199435D01*
X135297478Y-85265941D01*
X135282425Y-85335324D01*
X135272632Y-85350562D01*
X135199385Y-85448295D01*
X135148255Y-85584684D01*
X135141500Y-85646866D01*
X135141500Y-87443134D01*
X135148255Y-87505316D01*
X135199385Y-87641705D01*
X135204771Y-87648891D01*
X135272630Y-87739435D01*
X135297478Y-87805941D01*
X135282425Y-87875324D01*
X135272632Y-87890562D01*
X135199385Y-87988295D01*
X135148255Y-88124684D01*
X135141500Y-88186866D01*
X135141500Y-89983134D01*
X127508000Y-89983134D01*
X127508000Y-77283134D01*
X135141500Y-77283134D01*
X135148255Y-77345316D01*
X135199385Y-77481705D01*
X135204771Y-77488891D01*
X135272942Y-77579852D01*
X135297790Y-77646358D01*
X135282737Y-77715741D01*
X135272942Y-77730982D01*
X135205214Y-77821351D01*
X135196676Y-77836946D01*
X135151522Y-77957394D01*
X135147895Y-77972649D01*
X135142369Y-78023514D01*
X135142000Y-78030328D01*
X135142000Y-78652885D01*
X135146475Y-78668124D01*
X135147865Y-78669329D01*
X135155548Y-78671000D01*
X139639884Y-78671000D01*
X139655123Y-78666525D01*
X139656328Y-78665135D01*
X139657999Y-78657452D01*
X139657999Y-78030331D01*
X139657629Y-78023510D01*
X139652105Y-77972648D01*
X139648479Y-77957396D01*
X139603324Y-77836946D01*
X139594786Y-77821351D01*
X139527058Y-77730982D01*
X139502210Y-77664475D01*
X139517263Y-77595093D01*
X139527058Y-77579852D01*
X139595229Y-77488891D01*
X139600615Y-77481705D01*
X139651745Y-77345316D01*
X139658500Y-77283134D01*
X139658500Y-76482856D01*
X139659578Y-76466409D01*
X139661092Y-76454908D01*
X139661529Y-76451590D01*
X139663156Y-76385000D01*
X139658924Y-76333524D01*
X139658500Y-76323200D01*
X139658500Y-75486866D01*
X139651745Y-75424684D01*
X139600615Y-75288295D01*
X139527370Y-75190564D01*
X139502522Y-75124059D01*
X139517575Y-75054676D01*
X139527370Y-75039435D01*
X139595229Y-74948891D01*
X139600615Y-74941705D01*
X139651745Y-74805316D01*
X139658500Y-74743134D01*
X139658500Y-73942856D01*
X139659578Y-73926409D01*
X139661092Y-73914908D01*
X139661529Y-73911590D01*
X139661812Y-73900000D01*
X143600000Y-73900000D01*
X145800000Y-73900000D01*
X145800000Y-72000000D01*
X152086496Y-72000000D01*
X152106458Y-72189928D01*
X152165473Y-72371556D01*
X152168776Y-72377278D01*
X152168777Y-72377279D01*
X152187028Y-72408891D01*
X152260960Y-72536944D01*
X152265378Y-72541851D01*
X152265379Y-72541852D01*
X152383288Y-72672803D01*
X152388747Y-72678866D01*
X152543248Y-72791118D01*
X152549276Y-72793802D01*
X152549278Y-72793803D01*
X152711681Y-72866109D01*
X152717712Y-72868794D01*
X152811113Y-72888647D01*
X152898056Y-72907128D01*
X152898061Y-72907128D01*
X152904513Y-72908500D01*
X153095487Y-72908500D01*
X153101939Y-72907128D01*
X153101944Y-72907128D01*
X153188887Y-72888647D01*
X153282288Y-72868794D01*
X153288319Y-72866109D01*
X153450722Y-72793803D01*
X153450724Y-72793802D01*
X153456752Y-72791118D01*
X153611253Y-72678866D01*
X153616712Y-72672803D01*
X153734621Y-72541852D01*
X153734622Y-72541851D01*
X153739040Y-72536944D01*
X153812972Y-72408891D01*
X153831223Y-72377279D01*
X153831224Y-72377278D01*
X153834527Y-72371556D01*
X153893542Y-72189928D01*
X153908109Y-72051330D01*
X153935122Y-71985673D01*
X153993344Y-71945043D01*
X154033419Y-71938500D01*
X154595500Y-71938500D01*
X154663621Y-71958502D01*
X154710114Y-72012158D01*
X154721500Y-72064500D01*
X154721500Y-72203134D01*
X154728255Y-72265316D01*
X154779385Y-72401705D01*
X154784771Y-72408891D01*
X154852630Y-72499435D01*
X154877478Y-72565941D01*
X154862425Y-72635324D01*
X154852632Y-72650562D01*
X154779385Y-72748295D01*
X154728255Y-72884684D01*
X154721500Y-72946866D01*
X154721500Y-73765219D01*
X154720787Y-73778607D01*
X154717251Y-73811695D01*
X154717548Y-73816848D01*
X154717548Y-73816851D01*
X154721291Y-73881763D01*
X154721500Y-73889016D01*
X154721500Y-74743134D01*
X154728255Y-74805316D01*
X154779385Y-74941705D01*
X154784771Y-74948891D01*
X154852630Y-75039435D01*
X154877478Y-75105941D01*
X154862425Y-75175324D01*
X154852632Y-75190562D01*
X154779385Y-75288295D01*
X154728255Y-75424684D01*
X154721500Y-75486866D01*
X154721500Y-76305219D01*
X154720787Y-76318607D01*
X154717251Y-76351695D01*
X154717548Y-76356848D01*
X154717548Y-76356851D01*
X154721291Y-76421763D01*
X154721500Y-76429016D01*
X154721500Y-77283134D01*
X154728255Y-77345316D01*
X154779385Y-77481705D01*
X154784771Y-77488891D01*
X154852942Y-77579852D01*
X154877790Y-77646358D01*
X154862737Y-77715741D01*
X154852942Y-77730982D01*
X154785214Y-77821351D01*
X154776676Y-77836946D01*
X154731522Y-77957394D01*
X154727895Y-77972649D01*
X154722369Y-78023514D01*
X154722000Y-78030328D01*
X154722000Y-78652885D01*
X154726475Y-78668124D01*
X154727865Y-78669329D01*
X154735548Y-78671000D01*
X159219884Y-78671000D01*
X159235123Y-78666525D01*
X159236328Y-78665135D01*
X159237999Y-78657452D01*
X159237999Y-78030331D01*
X159237629Y-78023510D01*
X159232105Y-77972648D01*
X159228479Y-77957396D01*
X159183324Y-77836946D01*
X159174786Y-77821351D01*
X159107058Y-77730982D01*
X159082210Y-77664475D01*
X159097263Y-77595093D01*
X159107058Y-77579852D01*
X159175229Y-77488891D01*
X159180615Y-77481705D01*
X159231745Y-77345316D01*
X159238500Y-77283134D01*
X159238500Y-75486866D01*
X159231745Y-75424684D01*
X159180615Y-75288295D01*
X159107370Y-75190564D01*
X159082522Y-75124059D01*
X159097575Y-75054676D01*
X159107370Y-75039435D01*
X159175229Y-74948891D01*
X159180615Y-74941705D01*
X159231745Y-74805316D01*
X159238500Y-74743134D01*
X159238500Y-72946866D01*
X159231745Y-72884684D01*
X159180615Y-72748295D01*
X159107370Y-72650564D01*
X159082522Y-72584059D01*
X159097575Y-72514676D01*
X159107370Y-72499435D01*
X159175229Y-72408891D01*
X159180615Y-72401705D01*
X159231745Y-72265316D01*
X159238500Y-72203134D01*
X159238500Y-70406866D01*
X159231745Y-70344684D01*
X159180615Y-70208295D01*
X159107370Y-70110564D01*
X159082522Y-70044059D01*
X159097575Y-69974676D01*
X159107370Y-69959435D01*
X159175229Y-69868891D01*
X159180615Y-69861705D01*
X159231745Y-69725316D01*
X159238500Y-69663134D01*
X159238500Y-67866866D01*
X159231745Y-67804684D01*
X159180615Y-67668295D01*
X159107058Y-67570148D01*
X159082210Y-67503642D01*
X159097263Y-67434259D01*
X159107058Y-67419018D01*
X159174786Y-67328649D01*
X159183324Y-67313054D01*
X159228478Y-67192606D01*
X159232105Y-67177351D01*
X159237631Y-67126486D01*
X159238000Y-67119672D01*
X159238000Y-66497115D01*
X159233525Y-66481876D01*
X159232135Y-66480671D01*
X159224452Y-66479000D01*
X154740116Y-66479000D01*
X154724877Y-66483475D01*
X154723672Y-66484865D01*
X154722001Y-66492548D01*
X154722001Y-67119669D01*
X154722371Y-67126490D01*
X154727895Y-67177352D01*
X154731521Y-67192604D01*
X154776676Y-67313054D01*
X154785214Y-67328649D01*
X154852942Y-67419018D01*
X154877790Y-67485525D01*
X154862737Y-67554907D01*
X154852942Y-67570148D01*
X154779385Y-67668295D01*
X154728255Y-67804684D01*
X154721500Y-67866866D01*
X154721500Y-68685219D01*
X154720787Y-68698607D01*
X154717251Y-68731695D01*
X154717548Y-68736848D01*
X154717548Y-68736851D01*
X154721291Y-68801763D01*
X154721500Y-68809016D01*
X154721500Y-69663134D01*
X154728255Y-69725316D01*
X154779385Y-69861705D01*
X154784771Y-69868891D01*
X154852630Y-69959435D01*
X154877478Y-70025941D01*
X154862425Y-70095324D01*
X154852632Y-70110562D01*
X154779385Y-70208295D01*
X154728255Y-70344684D01*
X154721500Y-70406866D01*
X154721500Y-70545500D01*
X154701498Y-70613621D01*
X154647842Y-70660114D01*
X154595500Y-70671500D01*
X153773763Y-70671500D01*
X153762579Y-70670973D01*
X153755091Y-70669299D01*
X153747168Y-70669548D01*
X153687033Y-70671438D01*
X153683075Y-70671500D01*
X153655144Y-70671500D01*
X153651229Y-70671995D01*
X153651225Y-70671995D01*
X153651167Y-70672003D01*
X153651138Y-70672006D01*
X153639296Y-70672939D01*
X153595110Y-70674327D01*
X153577744Y-70679372D01*
X153575658Y-70679978D01*
X153556306Y-70683986D01*
X153544068Y-70685532D01*
X153544066Y-70685533D01*
X153536203Y-70686526D01*
X153495086Y-70702806D01*
X153483885Y-70706641D01*
X153441406Y-70718982D01*
X153434587Y-70723015D01*
X153434582Y-70723017D01*
X153423971Y-70729293D01*
X153406221Y-70737990D01*
X153387383Y-70745448D01*
X153380967Y-70750109D01*
X153380966Y-70750110D01*
X153351625Y-70771428D01*
X153341701Y-70777947D01*
X153310460Y-70796422D01*
X153310455Y-70796426D01*
X153303637Y-70800458D01*
X153289313Y-70814782D01*
X153274281Y-70827621D01*
X153257893Y-70839528D01*
X153229712Y-70873593D01*
X153221722Y-70882373D01*
X153049500Y-71054595D01*
X152987188Y-71088621D01*
X152960405Y-71091500D01*
X152904513Y-71091500D01*
X152898061Y-71092872D01*
X152898056Y-71092872D01*
X152811113Y-71111353D01*
X152717712Y-71131206D01*
X152711682Y-71133891D01*
X152711681Y-71133891D01*
X152549278Y-71206197D01*
X152549276Y-71206198D01*
X152543248Y-71208882D01*
X152537907Y-71212762D01*
X152537906Y-71212763D01*
X152492202Y-71245969D01*
X152388747Y-71321134D01*
X152384326Y-71326044D01*
X152384325Y-71326045D01*
X152316979Y-71400841D01*
X152260960Y-71463056D01*
X152165473Y-71628444D01*
X152106458Y-71810072D01*
X152086496Y-72000000D01*
X145800000Y-72000000D01*
X145800000Y-71700000D01*
X143600000Y-71700000D01*
X143600000Y-73900000D01*
X139661812Y-73900000D01*
X139661853Y-73898329D01*
X139663074Y-73848365D01*
X139663074Y-73848361D01*
X139663156Y-73845000D01*
X139658924Y-73793524D01*
X139658500Y-73783200D01*
X139658500Y-72946866D01*
X139651745Y-72884684D01*
X139600615Y-72748295D01*
X139527370Y-72650564D01*
X139502522Y-72584059D01*
X139517575Y-72514676D01*
X139527370Y-72499435D01*
X139595229Y-72408891D01*
X139600615Y-72401705D01*
X139651745Y-72265316D01*
X139658500Y-72203134D01*
X139658500Y-71402856D01*
X139658687Y-71400000D01*
X143600000Y-71400000D01*
X145800000Y-71400000D01*
X145800000Y-69200000D01*
X143600000Y-69200000D01*
X143600000Y-71400000D01*
X139658687Y-71400000D01*
X139659578Y-71386409D01*
X139661092Y-71374908D01*
X139661529Y-71371590D01*
X139663156Y-71305000D01*
X139658924Y-71253524D01*
X139658500Y-71243200D01*
X139658500Y-70406866D01*
X139651745Y-70344684D01*
X139600615Y-70208295D01*
X139527370Y-70110564D01*
X139502522Y-70044059D01*
X139517575Y-69974676D01*
X139527370Y-69959435D01*
X139595229Y-69868891D01*
X139600615Y-69861705D01*
X139651745Y-69725316D01*
X139658500Y-69663134D01*
X139658500Y-68900000D01*
X143600000Y-68900000D01*
X145800000Y-68900000D01*
X145800000Y-66700000D01*
X143600000Y-66700000D01*
X143600000Y-68900000D01*
X139658500Y-68900000D01*
X139658500Y-68862856D01*
X139659578Y-68846409D01*
X139661092Y-68834908D01*
X139661529Y-68831590D01*
X139663156Y-68765000D01*
X139658924Y-68713524D01*
X139658500Y-68703200D01*
X139658500Y-67866866D01*
X139651745Y-67804684D01*
X139600615Y-67668295D01*
X139527058Y-67570148D01*
X139502210Y-67503642D01*
X139517263Y-67434259D01*
X139527058Y-67419018D01*
X139594786Y-67328649D01*
X139603324Y-67313054D01*
X139648478Y-67192606D01*
X139652105Y-67177351D01*
X139657631Y-67126486D01*
X139658000Y-67119672D01*
X139658000Y-66497115D01*
X139653525Y-66481876D01*
X139652135Y-66480671D01*
X139644452Y-66479000D01*
X135160116Y-66479000D01*
X135144877Y-66483475D01*
X135143672Y-66484865D01*
X135142001Y-66492548D01*
X135142001Y-67119669D01*
X135142371Y-67126490D01*
X135147895Y-67177352D01*
X135151521Y-67192604D01*
X135196676Y-67313054D01*
X135205214Y-67328649D01*
X135272942Y-67419018D01*
X135297790Y-67485525D01*
X135282737Y-67554907D01*
X135272942Y-67570148D01*
X135199385Y-67668295D01*
X135148255Y-67804684D01*
X135141500Y-67866866D01*
X135141500Y-69663134D01*
X135148255Y-69725316D01*
X135199385Y-69861705D01*
X135204771Y-69868891D01*
X135272630Y-69959435D01*
X135297478Y-70025941D01*
X135282425Y-70095324D01*
X135272632Y-70110562D01*
X135199385Y-70208295D01*
X135148255Y-70344684D01*
X135141500Y-70406866D01*
X135141500Y-72203134D01*
X135148255Y-72265316D01*
X135199385Y-72401705D01*
X135204771Y-72408891D01*
X135272630Y-72499435D01*
X135297478Y-72565941D01*
X135282425Y-72635324D01*
X135272632Y-72650562D01*
X135199385Y-72748295D01*
X135148255Y-72884684D01*
X135141500Y-72946866D01*
X135141500Y-74743134D01*
X135148255Y-74805316D01*
X135199385Y-74941705D01*
X135204771Y-74948891D01*
X135272630Y-75039435D01*
X135297478Y-75105941D01*
X135282425Y-75175324D01*
X135272632Y-75190562D01*
X135199385Y-75288295D01*
X135148255Y-75424684D01*
X135141500Y-75486866D01*
X135141500Y-77283134D01*
X127508000Y-77283134D01*
X127508000Y-74083766D01*
X129017000Y-74083766D01*
X129017337Y-74090282D01*
X129027075Y-74184132D01*
X129029968Y-74197528D01*
X129080488Y-74348953D01*
X129086653Y-74362115D01*
X129170426Y-74497492D01*
X129179460Y-74508890D01*
X129292129Y-74621363D01*
X129303540Y-74630375D01*
X129439063Y-74713912D01*
X129452241Y-74720056D01*
X129603766Y-74770315D01*
X129617132Y-74773181D01*
X129709770Y-74782672D01*
X129716185Y-74783000D01*
X129727885Y-74783000D01*
X129743124Y-74778525D01*
X129744329Y-74777135D01*
X129746000Y-74769452D01*
X129746000Y-74764885D01*
X130254000Y-74764885D01*
X130258475Y-74780124D01*
X130259865Y-74781329D01*
X130267548Y-74783000D01*
X130283766Y-74783000D01*
X130290282Y-74782663D01*
X130384132Y-74772925D01*
X130397528Y-74770032D01*
X130548953Y-74719512D01*
X130562115Y-74713347D01*
X130697492Y-74629574D01*
X130708890Y-74620540D01*
X130821363Y-74507871D01*
X130830375Y-74496460D01*
X130913912Y-74360937D01*
X130920056Y-74347759D01*
X130970315Y-74196234D01*
X130973181Y-74182868D01*
X130982672Y-74090230D01*
X130983000Y-74083815D01*
X130983000Y-74059615D01*
X130978525Y-74044376D01*
X130977135Y-74043171D01*
X130969452Y-74041500D01*
X130272115Y-74041500D01*
X130256876Y-74045975D01*
X130255671Y-74047365D01*
X130254000Y-74055048D01*
X130254000Y-74764885D01*
X129746000Y-74764885D01*
X129746000Y-74059615D01*
X129741525Y-74044376D01*
X129740135Y-74043171D01*
X129732452Y-74041500D01*
X129035115Y-74041500D01*
X129019876Y-74045975D01*
X129018671Y-74047365D01*
X129017000Y-74055048D01*
X129017000Y-74083766D01*
X127508000Y-74083766D01*
X127508000Y-72262072D01*
X129016500Y-72262072D01*
X129027293Y-72366093D01*
X129029474Y-72372629D01*
X129029474Y-72372631D01*
X129071779Y-72499435D01*
X129082346Y-72531107D01*
X129173884Y-72679031D01*
X129281141Y-72786101D01*
X129315220Y-72848382D01*
X129310217Y-72919202D01*
X129281296Y-72964291D01*
X129178637Y-73067129D01*
X129169625Y-73078540D01*
X129086088Y-73214063D01*
X129079944Y-73227241D01*
X129029685Y-73378766D01*
X129026819Y-73392132D01*
X129017328Y-73484770D01*
X129017000Y-73491185D01*
X129017000Y-73515385D01*
X129021475Y-73530624D01*
X129022865Y-73531829D01*
X129030548Y-73533500D01*
X130964885Y-73533500D01*
X130980124Y-73529025D01*
X130981329Y-73527635D01*
X130983000Y-73519952D01*
X130983000Y-73491234D01*
X130982663Y-73484718D01*
X130972925Y-73390868D01*
X130970032Y-73377472D01*
X130919512Y-73226047D01*
X130913347Y-73212885D01*
X130829574Y-73077508D01*
X130820540Y-73066110D01*
X130718860Y-72964607D01*
X130684781Y-72902324D01*
X130689784Y-72831504D01*
X130718705Y-72786416D01*
X130719022Y-72786099D01*
X130826929Y-72678003D01*
X130910854Y-72541852D01*
X130914369Y-72536150D01*
X130914370Y-72536148D01*
X130918209Y-72529920D01*
X130972974Y-72364809D01*
X130983500Y-72262072D01*
X130983500Y-71662928D01*
X130979922Y-71628444D01*
X130973419Y-71565765D01*
X130973418Y-71565761D01*
X130972707Y-71558907D01*
X130917654Y-71393893D01*
X130826116Y-71245969D01*
X130788964Y-71208882D01*
X130708184Y-71128242D01*
X130708179Y-71128238D01*
X130703003Y-71123071D01*
X130693386Y-71117143D01*
X130691559Y-71115114D01*
X130691027Y-71114693D01*
X130691099Y-71114602D01*
X130645892Y-71064372D01*
X130633500Y-71009882D01*
X130633500Y-69739964D01*
X130653502Y-69671843D01*
X130693196Y-69632821D01*
X130704031Y-69626116D01*
X130709204Y-69620934D01*
X130821758Y-69508184D01*
X130821762Y-69508179D01*
X130826929Y-69503003D01*
X130830770Y-69496772D01*
X130914369Y-69361150D01*
X130914370Y-69361148D01*
X130918209Y-69354920D01*
X130972974Y-69189809D01*
X130983500Y-69087072D01*
X130983500Y-68412928D01*
X130972707Y-68308907D01*
X130917654Y-68143893D01*
X130826116Y-67995969D01*
X130794213Y-67964121D01*
X130760134Y-67901841D01*
X130765137Y-67831021D01*
X130794057Y-67785933D01*
X130821757Y-67758184D01*
X130826929Y-67753003D01*
X130879144Y-67668295D01*
X130914369Y-67611150D01*
X130914370Y-67611148D01*
X130918209Y-67604920D01*
X130972974Y-67439809D01*
X130976524Y-67405165D01*
X130983172Y-67340271D01*
X130983500Y-67337072D01*
X130983500Y-66964594D01*
X131003502Y-66896473D01*
X131020405Y-66875499D01*
X133540500Y-64355405D01*
X133602812Y-64321379D01*
X133629595Y-64318500D01*
X135015500Y-64318500D01*
X135083621Y-64338502D01*
X135130114Y-64392158D01*
X135141500Y-64444500D01*
X135141500Y-64583134D01*
X135148255Y-64645316D01*
X135199385Y-64781705D01*
X135204771Y-64788891D01*
X135272942Y-64879852D01*
X135297790Y-64946358D01*
X135282737Y-65015741D01*
X135272942Y-65030982D01*
X135205214Y-65121351D01*
X135196676Y-65136946D01*
X135151522Y-65257394D01*
X135147895Y-65272649D01*
X135142369Y-65323514D01*
X135142000Y-65330328D01*
X135142000Y-65952885D01*
X135146475Y-65968124D01*
X135147865Y-65969329D01*
X135155548Y-65971000D01*
X139639884Y-65971000D01*
X139655123Y-65966525D01*
X139656328Y-65965135D01*
X139657999Y-65957452D01*
X139657999Y-65330331D01*
X139657629Y-65323510D01*
X139652105Y-65272648D01*
X139648479Y-65257396D01*
X139603324Y-65136946D01*
X139594786Y-65121351D01*
X139527058Y-65030982D01*
X139502210Y-64964475D01*
X139517263Y-64895093D01*
X139527058Y-64879852D01*
X139595229Y-64788891D01*
X139600615Y-64781705D01*
X139651745Y-64645316D01*
X139658500Y-64583134D01*
X139658500Y-63782856D01*
X139659578Y-63766409D01*
X139661092Y-63754908D01*
X139661529Y-63751590D01*
X139663156Y-63685000D01*
X139658924Y-63633524D01*
X139658500Y-63623200D01*
X139658500Y-62786866D01*
X139651745Y-62724684D01*
X139600615Y-62588295D01*
X139527370Y-62490564D01*
X139502522Y-62424059D01*
X139517575Y-62354676D01*
X139527370Y-62339435D01*
X139595229Y-62248891D01*
X139600615Y-62241705D01*
X139651745Y-62105316D01*
X139658500Y-62043134D01*
X139658500Y-61242856D01*
X139658656Y-61240469D01*
X143052095Y-61240469D01*
X143052392Y-61245622D01*
X143052392Y-61245625D01*
X143058067Y-61344041D01*
X143065427Y-61471697D01*
X143066564Y-61476743D01*
X143066565Y-61476749D01*
X143098741Y-61619523D01*
X143116346Y-61697642D01*
X143118288Y-61702424D01*
X143118289Y-61702428D01*
X143201540Y-61907450D01*
X143203484Y-61912237D01*
X143324501Y-62109719D01*
X143327881Y-62113621D01*
X143369237Y-62161363D01*
X143398720Y-62225948D01*
X143400000Y-62243861D01*
X143400000Y-65200000D01*
X143828023Y-65200000D01*
X143896144Y-65220002D01*
X143917118Y-65236905D01*
X143952962Y-65272749D01*
X144133346Y-65399056D01*
X144332924Y-65492120D01*
X144545629Y-65549115D01*
X144765000Y-65568307D01*
X144984371Y-65549115D01*
X145197076Y-65492120D01*
X145396654Y-65399056D01*
X145577038Y-65272749D01*
X145612882Y-65236905D01*
X145675194Y-65202879D01*
X145701977Y-65200000D01*
X148678023Y-65200000D01*
X148746144Y-65220002D01*
X148767118Y-65236905D01*
X148802962Y-65272749D01*
X148983346Y-65399056D01*
X149182924Y-65492120D01*
X149395629Y-65549115D01*
X149615000Y-65568307D01*
X149834371Y-65549115D01*
X150047076Y-65492120D01*
X150246654Y-65399056D01*
X150427038Y-65272749D01*
X150462882Y-65236905D01*
X150525194Y-65202879D01*
X150551977Y-65200000D01*
X151000000Y-65200000D01*
X151000000Y-63651695D01*
X154717251Y-63651695D01*
X154717548Y-63656848D01*
X154717548Y-63656851D01*
X154721291Y-63721763D01*
X154721500Y-63729016D01*
X154721500Y-64583134D01*
X154728255Y-64645316D01*
X154779385Y-64781705D01*
X154784771Y-64788891D01*
X154852942Y-64879852D01*
X154877790Y-64946358D01*
X154862737Y-65015741D01*
X154852942Y-65030982D01*
X154785214Y-65121351D01*
X154776676Y-65136946D01*
X154731522Y-65257394D01*
X154727895Y-65272649D01*
X154722369Y-65323514D01*
X154722000Y-65330328D01*
X154722000Y-65952885D01*
X154726475Y-65968124D01*
X154727865Y-65969329D01*
X154735548Y-65971000D01*
X159219884Y-65971000D01*
X159235123Y-65966525D01*
X159236328Y-65965135D01*
X159237999Y-65957452D01*
X159237999Y-65330331D01*
X159237629Y-65323510D01*
X159232105Y-65272648D01*
X159228479Y-65257396D01*
X159183324Y-65136946D01*
X159174786Y-65121351D01*
X159107058Y-65030982D01*
X159082210Y-64964475D01*
X159097263Y-64895093D01*
X159107058Y-64879852D01*
X159175229Y-64788891D01*
X159180615Y-64781705D01*
X159231745Y-64645316D01*
X159238500Y-64583134D01*
X159238500Y-62786866D01*
X159231745Y-62724684D01*
X159180615Y-62588295D01*
X159107370Y-62490564D01*
X159082522Y-62424059D01*
X159097575Y-62354676D01*
X159107370Y-62339435D01*
X159175229Y-62248891D01*
X159180615Y-62241705D01*
X159231745Y-62105316D01*
X159237258Y-62054568D01*
X162437382Y-62054568D01*
X162466208Y-62303699D01*
X162467587Y-62308573D01*
X162467588Y-62308577D01*
X162533116Y-62540148D01*
X162534494Y-62545017D01*
X162536628Y-62549592D01*
X162536630Y-62549599D01*
X162638347Y-62767731D01*
X162640484Y-62772313D01*
X162643326Y-62776494D01*
X162643326Y-62776495D01*
X162778605Y-62975552D01*
X162778608Y-62975556D01*
X162781451Y-62979739D01*
X162784928Y-62983416D01*
X162784929Y-62983417D01*
X162882547Y-63086646D01*
X162953767Y-63161959D01*
X162957793Y-63165037D01*
X162957794Y-63165038D01*
X163148981Y-63311212D01*
X163148985Y-63311215D01*
X163153001Y-63314285D01*
X163374026Y-63432797D01*
X163378807Y-63434443D01*
X163378811Y-63434445D01*
X163604538Y-63512169D01*
X163611156Y-63514448D01*
X163714689Y-63532331D01*
X163854380Y-63556460D01*
X163854386Y-63556461D01*
X163858290Y-63557135D01*
X163862251Y-63557315D01*
X163862252Y-63557315D01*
X163886931Y-63558436D01*
X163886950Y-63558436D01*
X163888350Y-63558500D01*
X164063015Y-63558500D01*
X164065523Y-63558298D01*
X164065528Y-63558298D01*
X164244944Y-63543863D01*
X164244949Y-63543862D01*
X164249985Y-63543457D01*
X164254893Y-63542252D01*
X164254896Y-63542251D01*
X164488625Y-63484841D01*
X164493539Y-63483634D01*
X164498191Y-63481659D01*
X164498195Y-63481658D01*
X164719741Y-63387617D01*
X164719742Y-63387617D01*
X164724396Y-63385641D01*
X164862812Y-63298476D01*
X164932334Y-63254696D01*
X164932335Y-63254695D01*
X164936615Y-63252000D01*
X165124738Y-63086147D01*
X165283924Y-62892351D01*
X165410078Y-62675596D01*
X165499955Y-62441461D01*
X165503591Y-62424059D01*
X165550206Y-62200921D01*
X165551241Y-62195967D01*
X165552813Y-62161363D01*
X165557662Y-62054568D01*
X165562618Y-61945432D01*
X165533792Y-61696301D01*
X165499092Y-61573671D01*
X165466884Y-61459852D01*
X165466883Y-61459850D01*
X165465506Y-61454983D01*
X165463372Y-61450408D01*
X165463370Y-61450401D01*
X165361653Y-61232269D01*
X165361651Y-61232265D01*
X165359516Y-61227687D01*
X165350831Y-61214908D01*
X165221395Y-61024448D01*
X165221392Y-61024444D01*
X165218549Y-61020261D01*
X165117925Y-60913853D01*
X165049713Y-60841721D01*
X165046233Y-60838041D01*
X164985954Y-60791954D01*
X164851019Y-60688788D01*
X164851015Y-60688785D01*
X164846999Y-60685715D01*
X164625974Y-60567203D01*
X164621193Y-60565557D01*
X164621189Y-60565555D01*
X164393633Y-60487201D01*
X164388844Y-60485552D01*
X164285311Y-60467669D01*
X164145620Y-60443540D01*
X164145614Y-60443539D01*
X164141710Y-60442865D01*
X164137749Y-60442685D01*
X164137748Y-60442685D01*
X164113069Y-60441564D01*
X164113050Y-60441564D01*
X164111650Y-60441500D01*
X163936985Y-60441500D01*
X163934477Y-60441702D01*
X163934472Y-60441702D01*
X163755056Y-60456137D01*
X163755051Y-60456138D01*
X163750015Y-60456543D01*
X163745107Y-60457748D01*
X163745104Y-60457749D01*
X163513326Y-60514680D01*
X163506461Y-60516366D01*
X163501809Y-60518341D01*
X163501805Y-60518342D01*
X163363854Y-60576899D01*
X163275604Y-60614359D01*
X163063385Y-60748000D01*
X162875262Y-60913853D01*
X162716076Y-61107649D01*
X162589922Y-61324404D01*
X162500045Y-61558539D01*
X162499012Y-61563485D01*
X162499010Y-61563491D01*
X162472284Y-61691423D01*
X162448759Y-61804033D01*
X162437382Y-62054568D01*
X159237258Y-62054568D01*
X159238500Y-62043134D01*
X159238500Y-60246866D01*
X159231745Y-60184684D01*
X159180615Y-60048295D01*
X159093261Y-59931739D01*
X158976705Y-59844385D01*
X158840316Y-59793255D01*
X158778134Y-59786500D01*
X156094985Y-59786500D01*
X156093446Y-59786491D01*
X155990081Y-59785228D01*
X155990079Y-59785228D01*
X155984911Y-59785165D01*
X155979797Y-59785948D01*
X155976289Y-59786193D01*
X155967496Y-59786500D01*
X155181866Y-59786500D01*
X155119684Y-59793255D01*
X154983295Y-59844385D01*
X154866739Y-59931739D01*
X154779385Y-60048295D01*
X154728255Y-60184684D01*
X154721500Y-60246866D01*
X154721500Y-61065219D01*
X154720787Y-61078607D01*
X154717251Y-61111695D01*
X154717548Y-61116848D01*
X154717548Y-61116851D01*
X154721291Y-61181763D01*
X154721500Y-61189016D01*
X154721500Y-62043134D01*
X154728255Y-62105316D01*
X154779385Y-62241705D01*
X154784771Y-62248891D01*
X154852630Y-62339435D01*
X154877478Y-62405941D01*
X154862425Y-62475324D01*
X154852632Y-62490562D01*
X154779385Y-62588295D01*
X154728255Y-62724684D01*
X154721500Y-62786866D01*
X154721500Y-63605219D01*
X154720787Y-63618607D01*
X154717251Y-63651695D01*
X151000000Y-63651695D01*
X151000000Y-62219478D01*
X151023677Y-62145952D01*
X151058522Y-62097460D01*
X151126458Y-62002917D01*
X151173641Y-61907450D01*
X151226784Y-61799922D01*
X151226785Y-61799920D01*
X151229078Y-61795280D01*
X151296408Y-61573671D01*
X151326640Y-61344041D01*
X151326722Y-61340691D01*
X151328245Y-61278365D01*
X151328245Y-61278361D01*
X151328327Y-61275000D01*
X151320960Y-61185388D01*
X151309773Y-61049318D01*
X151309772Y-61049312D01*
X151309349Y-61044167D01*
X151277598Y-60917761D01*
X151254184Y-60824544D01*
X151254183Y-60824540D01*
X151252925Y-60819533D01*
X151250866Y-60814797D01*
X151162630Y-60611868D01*
X151162628Y-60611865D01*
X151160570Y-60607131D01*
X151063150Y-60456543D01*
X151037574Y-60417008D01*
X151037572Y-60417005D01*
X151034764Y-60412665D01*
X151031283Y-60408840D01*
X151028129Y-60404744D01*
X151029489Y-60403697D01*
X151001753Y-60346660D01*
X151000000Y-60325714D01*
X151000000Y-60300000D01*
X150986453Y-60300000D01*
X150973217Y-60297121D01*
X150973513Y-60295761D01*
X150919830Y-60279998D01*
X150894757Y-60258799D01*
X150882365Y-60245180D01*
X150882363Y-60245178D01*
X150878887Y-60241358D01*
X150874836Y-60238159D01*
X150874832Y-60238155D01*
X150701177Y-60101011D01*
X150701172Y-60101008D01*
X150697123Y-60097810D01*
X150692607Y-60095317D01*
X150692604Y-60095315D01*
X150498879Y-59988373D01*
X150498875Y-59988371D01*
X150494355Y-59985876D01*
X150489486Y-59984152D01*
X150489482Y-59984150D01*
X150280903Y-59910288D01*
X150280899Y-59910287D01*
X150276028Y-59908562D01*
X150270935Y-59907655D01*
X150270932Y-59907654D01*
X150053095Y-59868851D01*
X150053089Y-59868850D01*
X150048006Y-59867945D01*
X149975096Y-59867054D01*
X149821581Y-59865179D01*
X149821579Y-59865179D01*
X149816411Y-59865116D01*
X149587464Y-59900150D01*
X149367314Y-59972106D01*
X149362726Y-59974494D01*
X149362722Y-59974496D01*
X149204804Y-60056703D01*
X149161872Y-60079052D01*
X149157739Y-60082155D01*
X149157736Y-60082157D01*
X149010720Y-60192540D01*
X148976655Y-60218117D01*
X148973083Y-60221855D01*
X148935625Y-60261052D01*
X148874101Y-60296481D01*
X148844532Y-60300000D01*
X145537951Y-60300000D01*
X145469830Y-60279998D01*
X145444757Y-60258799D01*
X145432365Y-60245180D01*
X145432363Y-60245178D01*
X145428887Y-60241358D01*
X145424836Y-60238159D01*
X145424832Y-60238155D01*
X145251177Y-60101011D01*
X145251172Y-60101008D01*
X145247123Y-60097810D01*
X145242607Y-60095317D01*
X145242604Y-60095315D01*
X145048879Y-59988373D01*
X145048875Y-59988371D01*
X145044355Y-59985876D01*
X145039486Y-59984152D01*
X145039482Y-59984150D01*
X144830903Y-59910288D01*
X144830899Y-59910287D01*
X144826028Y-59908562D01*
X144820935Y-59907655D01*
X144820932Y-59907654D01*
X144603095Y-59868851D01*
X144603089Y-59868850D01*
X144598006Y-59867945D01*
X144525096Y-59867054D01*
X144371581Y-59865179D01*
X144371579Y-59865179D01*
X144366411Y-59865116D01*
X144137464Y-59900150D01*
X143917314Y-59972106D01*
X143912726Y-59974494D01*
X143912722Y-59974496D01*
X143754804Y-60056703D01*
X143711872Y-60079052D01*
X143707739Y-60082155D01*
X143707736Y-60082157D01*
X143560720Y-60192540D01*
X143526655Y-60218117D01*
X143483493Y-60263284D01*
X143427897Y-60297128D01*
X143418116Y-60300000D01*
X143400000Y-60300000D01*
X143400000Y-60313547D01*
X143397121Y-60326783D01*
X143392551Y-60325789D01*
X143379998Y-60368542D01*
X143371922Y-60379713D01*
X143370210Y-60381827D01*
X143366639Y-60385564D01*
X143236119Y-60576899D01*
X143138602Y-60786981D01*
X143076707Y-61010169D01*
X143052095Y-61240469D01*
X139658656Y-61240469D01*
X139659578Y-61226409D01*
X139661092Y-61214908D01*
X139661529Y-61211590D01*
X139663156Y-61145000D01*
X139658924Y-61093524D01*
X139658500Y-61083200D01*
X139658500Y-60246866D01*
X139651745Y-60184684D01*
X139600615Y-60048295D01*
X139513261Y-59931739D01*
X139396705Y-59844385D01*
X139260316Y-59793255D01*
X139198134Y-59786500D01*
X138314985Y-59786500D01*
X138313446Y-59786491D01*
X138210081Y-59785228D01*
X138210079Y-59785228D01*
X138204911Y-59785165D01*
X138199797Y-59785948D01*
X138196289Y-59786193D01*
X138187496Y-59786500D01*
X135601866Y-59786500D01*
X135539684Y-59793255D01*
X135403295Y-59844385D01*
X135286739Y-59931739D01*
X135199385Y-60048295D01*
X135148255Y-60184684D01*
X135141500Y-60246866D01*
X135141500Y-62043134D01*
X135148255Y-62105316D01*
X135199385Y-62241705D01*
X135204771Y-62248891D01*
X135272630Y-62339435D01*
X135297478Y-62405941D01*
X135282425Y-62475324D01*
X135272632Y-62490562D01*
X135199385Y-62588295D01*
X135148255Y-62724684D01*
X135141500Y-62786866D01*
X135141500Y-62925500D01*
X135121498Y-62993621D01*
X135067842Y-63040114D01*
X135015500Y-63051500D01*
X133393767Y-63051500D01*
X133382584Y-63050973D01*
X133375091Y-63049298D01*
X133367165Y-63049547D01*
X133367164Y-63049547D01*
X133307001Y-63051438D01*
X133303043Y-63051500D01*
X133275144Y-63051500D01*
X133271154Y-63052004D01*
X133259320Y-63052936D01*
X133215111Y-63054326D01*
X133207497Y-63056538D01*
X133207492Y-63056539D01*
X133195659Y-63059977D01*
X133176296Y-63063988D01*
X133156203Y-63066526D01*
X133148836Y-63069443D01*
X133148831Y-63069444D01*
X133115092Y-63082802D01*
X133103865Y-63086646D01*
X133061407Y-63098982D01*
X133054581Y-63103019D01*
X133043972Y-63109293D01*
X133026224Y-63117988D01*
X133007383Y-63125448D01*
X133000967Y-63130110D01*
X133000966Y-63130110D01*
X132971613Y-63151436D01*
X132961693Y-63157952D01*
X132930465Y-63176420D01*
X132930462Y-63176422D01*
X132923638Y-63180458D01*
X132909317Y-63194779D01*
X132894284Y-63207619D01*
X132877893Y-63219528D01*
X132872842Y-63225634D01*
X132849702Y-63253605D01*
X132841712Y-63262384D01*
X130174500Y-65929595D01*
X130112188Y-65963621D01*
X130085405Y-65966500D01*
X129712928Y-65966500D01*
X129709682Y-65966837D01*
X129709678Y-65966837D01*
X129615765Y-65976581D01*
X129615761Y-65976582D01*
X129608907Y-65977293D01*
X129602371Y-65979474D01*
X129602369Y-65979474D01*
X129469605Y-66023768D01*
X129443893Y-66032346D01*
X129295969Y-66123884D01*
X129290796Y-66129066D01*
X129178242Y-66241816D01*
X129178238Y-66241821D01*
X129173071Y-66246997D01*
X129081791Y-66395080D01*
X129027026Y-66560191D01*
X129016500Y-66662928D01*
X129016500Y-67337072D01*
X129016837Y-67340318D01*
X129016837Y-67340322D01*
X129025003Y-67419018D01*
X129027293Y-67441093D01*
X129082346Y-67606107D01*
X129173884Y-67754031D01*
X129205787Y-67785879D01*
X129239866Y-67848159D01*
X129234863Y-67918979D01*
X129205943Y-67964067D01*
X129180015Y-67990041D01*
X129173071Y-67996997D01*
X129169231Y-68003227D01*
X129169230Y-68003228D01*
X129086364Y-68137662D01*
X129081791Y-68145080D01*
X129027026Y-68310191D01*
X129016500Y-68412928D01*
X129016500Y-69087072D01*
X129027293Y-69191093D01*
X129029474Y-69197629D01*
X129029474Y-69197631D01*
X129036308Y-69218115D01*
X129082346Y-69356107D01*
X129173884Y-69504031D01*
X129179066Y-69509204D01*
X129291816Y-69621758D01*
X129291821Y-69621762D01*
X129296997Y-69626929D01*
X129303227Y-69630769D01*
X129303228Y-69630770D01*
X129306614Y-69632857D01*
X129308441Y-69634886D01*
X129308973Y-69635307D01*
X129308901Y-69635398D01*
X129354108Y-69685628D01*
X129366500Y-69740118D01*
X129366500Y-71010036D01*
X129346498Y-71078157D01*
X129306804Y-71117179D01*
X129295969Y-71123884D01*
X129290796Y-71129066D01*
X129178242Y-71241816D01*
X129178238Y-71241821D01*
X129173071Y-71246997D01*
X129169231Y-71253227D01*
X129169230Y-71253228D01*
X129086364Y-71387662D01*
X129081791Y-71395080D01*
X129027026Y-71560191D01*
X129016500Y-71662928D01*
X129016500Y-72262072D01*
X127508000Y-72262072D01*
X127508000Y-62054568D01*
X128437382Y-62054568D01*
X128466208Y-62303699D01*
X128467587Y-62308573D01*
X128467588Y-62308577D01*
X128533116Y-62540148D01*
X128534494Y-62545017D01*
X128536628Y-62549592D01*
X128536630Y-62549599D01*
X128638347Y-62767731D01*
X128640484Y-62772313D01*
X128643326Y-62776494D01*
X128643326Y-62776495D01*
X128778605Y-62975552D01*
X128778608Y-62975556D01*
X128781451Y-62979739D01*
X128784928Y-62983416D01*
X128784929Y-62983417D01*
X128882547Y-63086646D01*
X128953767Y-63161959D01*
X128957793Y-63165037D01*
X128957794Y-63165038D01*
X129148981Y-63311212D01*
X129148985Y-63311215D01*
X129153001Y-63314285D01*
X129374026Y-63432797D01*
X129378807Y-63434443D01*
X129378811Y-63434445D01*
X129604538Y-63512169D01*
X129611156Y-63514448D01*
X129714689Y-63532331D01*
X129854380Y-63556460D01*
X129854386Y-63556461D01*
X129858290Y-63557135D01*
X129862251Y-63557315D01*
X129862252Y-63557315D01*
X129886931Y-63558436D01*
X129886950Y-63558436D01*
X129888350Y-63558500D01*
X130063015Y-63558500D01*
X130065523Y-63558298D01*
X130065528Y-63558298D01*
X130244944Y-63543863D01*
X130244949Y-63543862D01*
X130249985Y-63543457D01*
X130254893Y-63542252D01*
X130254896Y-63542251D01*
X130488625Y-63484841D01*
X130493539Y-63483634D01*
X130498191Y-63481659D01*
X130498195Y-63481658D01*
X130719741Y-63387617D01*
X130719742Y-63387617D01*
X130724396Y-63385641D01*
X130862812Y-63298476D01*
X130932334Y-63254696D01*
X130932335Y-63254695D01*
X130936615Y-63252000D01*
X131124738Y-63086147D01*
X131283924Y-62892351D01*
X131410078Y-62675596D01*
X131499955Y-62441461D01*
X131503591Y-62424059D01*
X131550206Y-62200921D01*
X131551241Y-62195967D01*
X131552813Y-62161363D01*
X131557662Y-62054568D01*
X131562618Y-61945432D01*
X131533792Y-61696301D01*
X131499092Y-61573671D01*
X131466884Y-61459852D01*
X131466883Y-61459850D01*
X131465506Y-61454983D01*
X131463372Y-61450408D01*
X131463370Y-61450401D01*
X131361653Y-61232269D01*
X131361651Y-61232265D01*
X131359516Y-61227687D01*
X131350831Y-61214908D01*
X131221395Y-61024448D01*
X131221392Y-61024444D01*
X131218549Y-61020261D01*
X131117925Y-60913853D01*
X131049713Y-60841721D01*
X131046233Y-60838041D01*
X130985954Y-60791954D01*
X130851019Y-60688788D01*
X130851015Y-60688785D01*
X130846999Y-60685715D01*
X130625974Y-60567203D01*
X130621193Y-60565557D01*
X130621189Y-60565555D01*
X130393633Y-60487201D01*
X130388844Y-60485552D01*
X130285311Y-60467669D01*
X130145620Y-60443540D01*
X130145614Y-60443539D01*
X130141710Y-60442865D01*
X130137749Y-60442685D01*
X130137748Y-60442685D01*
X130113069Y-60441564D01*
X130113050Y-60441564D01*
X130111650Y-60441500D01*
X129936985Y-60441500D01*
X129934477Y-60441702D01*
X129934472Y-60441702D01*
X129755056Y-60456137D01*
X129755051Y-60456138D01*
X129750015Y-60456543D01*
X129745107Y-60457748D01*
X129745104Y-60457749D01*
X129513326Y-60514680D01*
X129506461Y-60516366D01*
X129501809Y-60518341D01*
X129501805Y-60518342D01*
X129363854Y-60576899D01*
X129275604Y-60614359D01*
X129063385Y-60748000D01*
X128875262Y-60913853D01*
X128716076Y-61107649D01*
X128589922Y-61324404D01*
X128500045Y-61558539D01*
X128499012Y-61563485D01*
X128499010Y-61563491D01*
X128472284Y-61691423D01*
X128448759Y-61804033D01*
X128437382Y-62054568D01*
X127508000Y-62054568D01*
X127508000Y-59634000D01*
X127528002Y-59565879D01*
X127581658Y-59519386D01*
X127634000Y-59508000D01*
X166366000Y-59508000D01*
X166434121Y-59528002D01*
G37*
%TD.AperFunction*%
%TD*%
M02*
