%TF.GenerationSoftware,KiCad,Pcbnew,(6.0.2)*%
%TF.CreationDate,2022-03-21T08:59:47-06:00*%
%TF.ProjectId,carrier_board,63617272-6965-4725-9f62-6f6172642e6b,v1b*%
%TF.SameCoordinates,Original*%
%TF.FileFunction,Copper,L2,Bot*%
%TF.FilePolarity,Positive*%
%FSLAX46Y46*%
G04 Gerber Fmt 4.6, Leading zero omitted, Abs format (unit mm)*
G04 Created by KiCad (PCBNEW (6.0.2)) date 2022-03-21 08:59:47*
%MOMM*%
%LPD*%
G01*
G04 APERTURE LIST*
%TA.AperFunction,ComponentPad*%
%ADD10O,1.700000X1.700000*%
%TD*%
%TA.AperFunction,ComponentPad*%
%ADD11R,1.700000X1.700000*%
%TD*%
%TA.AperFunction,ViaPad*%
%ADD12C,0.800000*%
%TD*%
%TA.AperFunction,Conductor*%
%ADD13C,0.250000*%
%TD*%
G04 APERTURE END LIST*
D10*
%TO.P,U1,1,GPIO0*%
%TO.N,unconnected-(U1-Pad1)*%
X138300000Y-61145000D03*
%TO.P,U1,2,GPIO1*%
%TO.N,unconnected-(U1-Pad2)*%
X138300000Y-63685000D03*
D11*
%TO.P,U1,3,GND*%
%TO.N,GND*%
X138300000Y-66225000D03*
D10*
%TO.P,U1,4,GPIO2*%
%TO.N,unconnected-(U1-Pad4)*%
X138300000Y-68765000D03*
%TO.P,U1,5,GPIO3*%
%TO.N,unconnected-(U1-Pad5)*%
X138300000Y-71305000D03*
%TO.P,U1,6,GPIO4*%
%TO.N,Net-(U1-Pad6)*%
X138300000Y-73845000D03*
%TO.P,U1,7,GPIO5*%
%TO.N,unconnected-(U1-Pad7)*%
X138300000Y-76385000D03*
D11*
%TO.P,U1,8,GND*%
%TO.N,GND*%
X138300000Y-78925000D03*
D10*
%TO.P,U1,9,GPIO6*%
%TO.N,unconnected-(U1-Pad9)*%
X138300000Y-81465000D03*
%TO.P,U1,10,GPIO7*%
%TO.N,unconnected-(U1-Pad10)*%
X138300000Y-84005000D03*
%TO.P,U1,11,GPIO8*%
%TO.N,unconnected-(U1-Pad11)*%
X138300000Y-86545000D03*
%TO.P,U1,12,GPIO9*%
%TO.N,unconnected-(U1-Pad12)*%
X138300000Y-89085000D03*
D11*
%TO.P,U1,13,GND*%
%TO.N,GND*%
X138300000Y-91625000D03*
D10*
%TO.P,U1,14,GPIO10*%
%TO.N,unconnected-(U1-Pad14)*%
X138300000Y-94165000D03*
%TO.P,U1,15,GPIO11*%
%TO.N,unconnected-(U1-Pad15)*%
X138300000Y-96705000D03*
%TO.P,U1,16,GPIO12*%
%TO.N,unconnected-(U1-Pad16)*%
X138300000Y-99245000D03*
%TO.P,U1,17,GPIO13*%
%TO.N,unconnected-(U1-Pad17)*%
X138300000Y-101785000D03*
D11*
%TO.P,U1,18,GND*%
%TO.N,GND*%
X138300000Y-104325000D03*
D10*
%TO.P,U1,19,GPIO14*%
%TO.N,unconnected-(U1-Pad19)*%
X138300000Y-106865000D03*
%TO.P,U1,20,GPIO15*%
%TO.N,unconnected-(U1-Pad20)*%
X138300000Y-109405000D03*
%TO.P,U1,21,GPIO16*%
%TO.N,Net-(J1-PadP7)*%
X156080000Y-109405000D03*
%TO.P,U1,22,GPIO17*%
%TO.N,Net-(J1-PadP2)*%
X156080000Y-106865000D03*
D11*
%TO.P,U1,23,GND*%
%TO.N,GND*%
X156080000Y-104325000D03*
D10*
%TO.P,U1,24,GPIO18*%
%TO.N,Net-(J1-PadP5)*%
X156080000Y-101785000D03*
%TO.P,U1,25,GPIO19*%
%TO.N,Net-(J1-PadP3)*%
X156080000Y-99245000D03*
%TO.P,U1,26,GPIO20*%
%TO.N,Net-(J1-PadG4)*%
X156080000Y-96705000D03*
%TO.P,U1,27,GPIO21*%
%TO.N,unconnected-(U1-Pad27)*%
X156080000Y-94165000D03*
D11*
%TO.P,U1,28,GND*%
%TO.N,GND*%
X156080000Y-91625000D03*
D10*
%TO.P,U1,29,GPIO22*%
%TO.N,unconnected-(U1-Pad29)*%
X156080000Y-89085000D03*
%TO.P,U1,30,RUN*%
%TO.N,unconnected-(U1-Pad30)*%
X156080000Y-86545000D03*
%TO.P,U1,31,GPIO26_ADC0*%
%TO.N,unconnected-(U1-Pad31)*%
X156080000Y-84005000D03*
%TO.P,U1,32,GPIO27_ADC1*%
%TO.N,unconnected-(U1-Pad32)*%
X156080000Y-81465000D03*
D11*
%TO.P,U1,33,AGND*%
%TO.N,GND*%
X156080000Y-78925000D03*
D10*
%TO.P,U1,34,GPIO28_ADC2*%
%TO.N,unconnected-(U1-Pad34)*%
X156080000Y-76385000D03*
%TO.P,U1,35,ADC_VREF*%
%TO.N,unconnected-(U1-Pad35)*%
X156080000Y-73845000D03*
%TO.P,U1,36,3V3*%
%TO.N,VDD*%
X156080000Y-71305000D03*
%TO.P,U1,37,3V3_EN*%
%TO.N,unconnected-(U1-Pad37)*%
X156080000Y-68765000D03*
D11*
%TO.P,U1,38,GND*%
%TO.N,GND*%
X156080000Y-66225000D03*
D10*
%TO.P,U1,39,VSYS*%
%TO.N,unconnected-(U1-Pad39)*%
X156080000Y-63685000D03*
%TO.P,U1,40,VBUS*%
%TO.N,unconnected-(U1-Pad40)*%
X156080000Y-61145000D03*
%TO.P,U1,41,SWCLK*%
%TO.N,unconnected-(U1-Pad41)*%
X144650000Y-109175000D03*
D11*
%TO.P,U1,42,GND*%
%TO.N,GND*%
X147190000Y-109175000D03*
D10*
%TO.P,U1,43,SWDIO*%
%TO.N,unconnected-(U1-Pad43)*%
X149730000Y-109175000D03*
%TD*%
D12*
%TO.N,Net-(J1-PadP2)*%
X160000000Y-119000000D03*
X161000000Y-107000000D03*
%TO.N,VDD*%
X153000000Y-116000000D03*
%TD*%
D13*
%TO.N,VDD*%
X153000000Y-74385000D02*
X153000000Y-116000000D01*
X156080000Y-71305000D02*
X153000000Y-74385000D01*
%TO.N,Net-(J1-PadP2)*%
X160000000Y-119000000D02*
X162500000Y-116500000D01*
X162500000Y-108500000D02*
X161000000Y-107000000D01*
X162500000Y-116500000D02*
X162500000Y-108500000D01*
%TD*%
%TA.AperFunction,Conductor*%
%TO.N,GND*%
G36*
X166561121Y-59401002D02*
G01*
X166607614Y-59454658D01*
X166619000Y-59507000D01*
X166619000Y-127393000D01*
X166598998Y-127461121D01*
X166545342Y-127507614D01*
X166493000Y-127519000D01*
X127507000Y-127519000D01*
X127438879Y-127498998D01*
X127392386Y-127445342D01*
X127381000Y-127393000D01*
X127381000Y-125000000D01*
X128694532Y-125000000D01*
X128714365Y-125226692D01*
X128773261Y-125446496D01*
X128869432Y-125652734D01*
X128999953Y-125839139D01*
X129160861Y-126000047D01*
X129347266Y-126130568D01*
X129352244Y-126132889D01*
X129352247Y-126132891D01*
X129548522Y-126224416D01*
X129553504Y-126226739D01*
X129558812Y-126228161D01*
X129558814Y-126228162D01*
X129767993Y-126284211D01*
X129767995Y-126284211D01*
X129773308Y-126285635D01*
X129872302Y-126294296D01*
X129940492Y-126300262D01*
X129940499Y-126300262D01*
X129943216Y-126300500D01*
X130056784Y-126300500D01*
X130059501Y-126300262D01*
X130059508Y-126300262D01*
X130127698Y-126294296D01*
X130226692Y-126285635D01*
X130232005Y-126284211D01*
X130232007Y-126284211D01*
X130441186Y-126228162D01*
X130441188Y-126228161D01*
X130446496Y-126226739D01*
X130451478Y-126224416D01*
X130647753Y-126132891D01*
X130647756Y-126132889D01*
X130652734Y-126130568D01*
X130839139Y-126000047D01*
X131000047Y-125839139D01*
X131130568Y-125652734D01*
X131226739Y-125446496D01*
X131285635Y-125226692D01*
X131305468Y-125000000D01*
X162694532Y-125000000D01*
X162714365Y-125226692D01*
X162773261Y-125446496D01*
X162869432Y-125652734D01*
X162999953Y-125839139D01*
X163160861Y-126000047D01*
X163347266Y-126130568D01*
X163352244Y-126132889D01*
X163352247Y-126132891D01*
X163548522Y-126224416D01*
X163553504Y-126226739D01*
X163558812Y-126228161D01*
X163558814Y-126228162D01*
X163767993Y-126284211D01*
X163767995Y-126284211D01*
X163773308Y-126285635D01*
X163872302Y-126294296D01*
X163940492Y-126300262D01*
X163940499Y-126300262D01*
X163943216Y-126300500D01*
X164056784Y-126300500D01*
X164059501Y-126300262D01*
X164059508Y-126300262D01*
X164127698Y-126294296D01*
X164226692Y-126285635D01*
X164232005Y-126284211D01*
X164232007Y-126284211D01*
X164441186Y-126228162D01*
X164441188Y-126228161D01*
X164446496Y-126226739D01*
X164451478Y-126224416D01*
X164647753Y-126132891D01*
X164647756Y-126132889D01*
X164652734Y-126130568D01*
X164839139Y-126000047D01*
X165000047Y-125839139D01*
X165130568Y-125652734D01*
X165226739Y-125446496D01*
X165285635Y-125226692D01*
X165305468Y-125000000D01*
X165285635Y-124773308D01*
X165226739Y-124553504D01*
X165130568Y-124347266D01*
X165000047Y-124160861D01*
X164839139Y-123999953D01*
X164652734Y-123869432D01*
X164647756Y-123867111D01*
X164647753Y-123867109D01*
X164451478Y-123775584D01*
X164451476Y-123775583D01*
X164446496Y-123773261D01*
X164441188Y-123771839D01*
X164441186Y-123771838D01*
X164232007Y-123715789D01*
X164232005Y-123715789D01*
X164226692Y-123714365D01*
X164127698Y-123705704D01*
X164059508Y-123699738D01*
X164059501Y-123699738D01*
X164056784Y-123699500D01*
X163943216Y-123699500D01*
X163940499Y-123699738D01*
X163940492Y-123699738D01*
X163872302Y-123705704D01*
X163773308Y-123714365D01*
X163767995Y-123715789D01*
X163767993Y-123715789D01*
X163558814Y-123771838D01*
X163558812Y-123771839D01*
X163553504Y-123773261D01*
X163548524Y-123775583D01*
X163548522Y-123775584D01*
X163352247Y-123867109D01*
X163352244Y-123867111D01*
X163347266Y-123869432D01*
X163160861Y-123999953D01*
X162999953Y-124160861D01*
X162869432Y-124347266D01*
X162773261Y-124553504D01*
X162714365Y-124773308D01*
X162694532Y-125000000D01*
X131305468Y-125000000D01*
X131285635Y-124773308D01*
X131226739Y-124553504D01*
X131130568Y-124347266D01*
X131000047Y-124160861D01*
X130839139Y-123999953D01*
X130652734Y-123869432D01*
X130647756Y-123867111D01*
X130647753Y-123867109D01*
X130451478Y-123775584D01*
X130451476Y-123775583D01*
X130446496Y-123773261D01*
X130441188Y-123771839D01*
X130441186Y-123771838D01*
X130232007Y-123715789D01*
X130232005Y-123715789D01*
X130226692Y-123714365D01*
X130127698Y-123705704D01*
X130059508Y-123699738D01*
X130059501Y-123699738D01*
X130056784Y-123699500D01*
X129943216Y-123699500D01*
X129940499Y-123699738D01*
X129940492Y-123699738D01*
X129872302Y-123705704D01*
X129773308Y-123714365D01*
X129767995Y-123715789D01*
X129767993Y-123715789D01*
X129558814Y-123771838D01*
X129558812Y-123771839D01*
X129553504Y-123773261D01*
X129548524Y-123775583D01*
X129548522Y-123775584D01*
X129352247Y-123867109D01*
X129352244Y-123867111D01*
X129347266Y-123869432D01*
X129160861Y-123999953D01*
X128999953Y-124160861D01*
X128869432Y-124347266D01*
X128773261Y-124553504D01*
X128714365Y-124773308D01*
X128694532Y-125000000D01*
X127381000Y-125000000D01*
X127381000Y-119000000D01*
X159442329Y-119000000D01*
X159461331Y-119144336D01*
X159517043Y-119278835D01*
X159605667Y-119394333D01*
X159721164Y-119482957D01*
X159855664Y-119538669D01*
X160000000Y-119557671D01*
X160008188Y-119556593D01*
X160136148Y-119539747D01*
X160144336Y-119538669D01*
X160278836Y-119482957D01*
X160394333Y-119394333D01*
X160482957Y-119278835D01*
X160538669Y-119144336D01*
X160557671Y-119000000D01*
X160546625Y-118916098D01*
X160557564Y-118845951D01*
X160582452Y-118810558D01*
X162662537Y-116730473D01*
X162664033Y-116729181D01*
X162668561Y-116726968D01*
X162699246Y-116693889D01*
X162702526Y-116690484D01*
X162714782Y-116678228D01*
X162717365Y-116674463D01*
X162719105Y-116672481D01*
X162738967Y-116651069D01*
X162743278Y-116640264D01*
X162747168Y-116634110D01*
X162748941Y-116630789D01*
X162751891Y-116624132D01*
X162758472Y-116614539D01*
X162763575Y-116593038D01*
X162769139Y-116575445D01*
X162774035Y-116563174D01*
X162774036Y-116563169D01*
X162777330Y-116554913D01*
X162777900Y-116549099D01*
X162777900Y-116546013D01*
X162778050Y-116542947D01*
X162778421Y-116542965D01*
X162779149Y-116536750D01*
X162779122Y-116536749D01*
X162779690Y-116525131D01*
X162782377Y-116513810D01*
X162779051Y-116489372D01*
X162777900Y-116472380D01*
X162777900Y-108548032D01*
X162778044Y-108546066D01*
X162779681Y-108541300D01*
X162777989Y-108496231D01*
X162777900Y-108491505D01*
X162777900Y-108474152D01*
X162777065Y-108469671D01*
X162776891Y-108466987D01*
X162776234Y-108449476D01*
X162776233Y-108449474D01*
X162775797Y-108437846D01*
X162771203Y-108427154D01*
X162769601Y-108420045D01*
X162768514Y-108416467D01*
X162765890Y-108409666D01*
X162763759Y-108398224D01*
X162752164Y-108379413D01*
X162743659Y-108363040D01*
X162738443Y-108350899D01*
X162738440Y-108350893D01*
X162734931Y-108342727D01*
X162731223Y-108338213D01*
X162729034Y-108336024D01*
X162726983Y-108333762D01*
X162727259Y-108333512D01*
X162723373Y-108328597D01*
X162723353Y-108328615D01*
X162715540Y-108319999D01*
X162709436Y-108310095D01*
X162689797Y-108295161D01*
X162676970Y-108283960D01*
X161582452Y-107189442D01*
X161548426Y-107127130D01*
X161546625Y-107083900D01*
X161552303Y-107040777D01*
X161557671Y-107000000D01*
X161544064Y-106896641D01*
X161539747Y-106863850D01*
X161539746Y-106863848D01*
X161538669Y-106855664D01*
X161482957Y-106721165D01*
X161394333Y-106605667D01*
X161278836Y-106517043D01*
X161144336Y-106461331D01*
X161000000Y-106442329D01*
X160991812Y-106443407D01*
X160863850Y-106460253D01*
X160863848Y-106460254D01*
X160855664Y-106461331D01*
X160839554Y-106468004D01*
X160728793Y-106513883D01*
X160728791Y-106513884D01*
X160721165Y-106517043D01*
X160605667Y-106605667D01*
X160517043Y-106721165D01*
X160461331Y-106855664D01*
X160460254Y-106863848D01*
X160460253Y-106863850D01*
X160455936Y-106896641D01*
X160442329Y-107000000D01*
X160443407Y-107008187D01*
X160443407Y-107008188D01*
X160453375Y-107083900D01*
X160461331Y-107144336D01*
X160517043Y-107278835D01*
X160605667Y-107394333D01*
X160721164Y-107482957D01*
X160855664Y-107538669D01*
X161000000Y-107557671D01*
X161083902Y-107546625D01*
X161154049Y-107557564D01*
X161189442Y-107582452D01*
X162185195Y-108578205D01*
X162219221Y-108640517D01*
X162222100Y-108667300D01*
X162222100Y-116332700D01*
X162202098Y-116400821D01*
X162185195Y-116421795D01*
X160189442Y-118417548D01*
X160127130Y-118451574D01*
X160083903Y-118453375D01*
X160000000Y-118442329D01*
X159991812Y-118443407D01*
X159863850Y-118460253D01*
X159863848Y-118460254D01*
X159855664Y-118461331D01*
X159848037Y-118464490D01*
X159848038Y-118464490D01*
X159728793Y-118513883D01*
X159728791Y-118513884D01*
X159721165Y-118517043D01*
X159605667Y-118605667D01*
X159517043Y-118721165D01*
X159461331Y-118855664D01*
X159460254Y-118863848D01*
X159460253Y-118863850D01*
X159445385Y-118976787D01*
X159442329Y-119000000D01*
X127381000Y-119000000D01*
X127381000Y-116000000D01*
X152442329Y-116000000D01*
X152461331Y-116144336D01*
X152517043Y-116278835D01*
X152605667Y-116394333D01*
X152721164Y-116482957D01*
X152855664Y-116538669D01*
X153000000Y-116557671D01*
X153008188Y-116556593D01*
X153136148Y-116539747D01*
X153144336Y-116538669D01*
X153278836Y-116482957D01*
X153394333Y-116394333D01*
X153482957Y-116278835D01*
X153538669Y-116144336D01*
X153557671Y-116000000D01*
X153538669Y-115855664D01*
X153482957Y-115721165D01*
X153394333Y-115605667D01*
X153327196Y-115554151D01*
X153285329Y-115496813D01*
X153277900Y-115454188D01*
X153277900Y-109390930D01*
X155072345Y-109390930D01*
X155075889Y-109433138D01*
X155084868Y-109540055D01*
X155088803Y-109586919D01*
X155090502Y-109592844D01*
X155137258Y-109755901D01*
X155143015Y-109775979D01*
X155145830Y-109781456D01*
X155145831Y-109781459D01*
X155211162Y-109908580D01*
X155232916Y-109950908D01*
X155236739Y-109955732D01*
X155236742Y-109955736D01*
X155260651Y-109985901D01*
X155355083Y-110105044D01*
X155359777Y-110109038D01*
X155359777Y-110109039D01*
X155428402Y-110167443D01*
X155504862Y-110232516D01*
X155510240Y-110235522D01*
X155510242Y-110235523D01*
X155587408Y-110278649D01*
X155676547Y-110328467D01*
X155863600Y-110389244D01*
X156058895Y-110412532D01*
X156065030Y-110412060D01*
X156065032Y-110412060D01*
X156248852Y-110397916D01*
X156248856Y-110397915D01*
X156254994Y-110397443D01*
X156444428Y-110344552D01*
X156449932Y-110341772D01*
X156449934Y-110341771D01*
X156614480Y-110258653D01*
X156614482Y-110258652D01*
X156619981Y-110255874D01*
X156774966Y-110134786D01*
X156778992Y-110130122D01*
X156778995Y-110130119D01*
X156899451Y-109990569D01*
X156899452Y-109990567D01*
X156903480Y-109985901D01*
X157000628Y-109814890D01*
X157062710Y-109628266D01*
X157087360Y-109433138D01*
X157087753Y-109405000D01*
X157068561Y-109209260D01*
X157011714Y-109020975D01*
X156965546Y-108934146D01*
X156922273Y-108852760D01*
X156922271Y-108852757D01*
X156919379Y-108847318D01*
X156915489Y-108842548D01*
X156915486Y-108842544D01*
X156798967Y-108699678D01*
X156798964Y-108699675D01*
X156795072Y-108694903D01*
X156729331Y-108640517D01*
X156648278Y-108573464D01*
X156648274Y-108573462D01*
X156643528Y-108569535D01*
X156470520Y-108475990D01*
X156282637Y-108417830D01*
X156276519Y-108417187D01*
X156276514Y-108417186D01*
X156093164Y-108397916D01*
X156093162Y-108397916D01*
X156087035Y-108397272D01*
X156004199Y-108404810D01*
X155897305Y-108414538D01*
X155897302Y-108414539D01*
X155891166Y-108415097D01*
X155702489Y-108470628D01*
X155528192Y-108561748D01*
X155374912Y-108684988D01*
X155370954Y-108689705D01*
X155370952Y-108689707D01*
X155306352Y-108766694D01*
X155248489Y-108835653D01*
X155153739Y-109008004D01*
X155151878Y-109013871D01*
X155151877Y-109013873D01*
X155149624Y-109020975D01*
X155094269Y-109195476D01*
X155072345Y-109390930D01*
X153277900Y-109390930D01*
X153277900Y-105219669D01*
X154722001Y-105219669D01*
X154722371Y-105226490D01*
X154727895Y-105277352D01*
X154731521Y-105292604D01*
X154776676Y-105413054D01*
X154785214Y-105428649D01*
X154861715Y-105530724D01*
X154874276Y-105543285D01*
X154976351Y-105619786D01*
X154991946Y-105628324D01*
X155112394Y-105673478D01*
X155127649Y-105677105D01*
X155178514Y-105682631D01*
X155185328Y-105683000D01*
X155669477Y-105683000D01*
X155737598Y-105703002D01*
X155784091Y-105756658D01*
X155794195Y-105826932D01*
X155764701Y-105891512D01*
X155713301Y-105924564D01*
X155714115Y-105926579D01*
X155708398Y-105928889D01*
X155702489Y-105930628D01*
X155528192Y-106021748D01*
X155374912Y-106144988D01*
X155370954Y-106149705D01*
X155370952Y-106149707D01*
X155288638Y-106247805D01*
X155248489Y-106295653D01*
X155153739Y-106468004D01*
X155151878Y-106473871D01*
X155151877Y-106473873D01*
X155149624Y-106480975D01*
X155094269Y-106655476D01*
X155072345Y-106850930D01*
X155075889Y-106893138D01*
X155085551Y-107008188D01*
X155088803Y-107046919D01*
X155090502Y-107052844D01*
X155118924Y-107151962D01*
X155143015Y-107235979D01*
X155145830Y-107241456D01*
X155145831Y-107241459D01*
X155226979Y-107399356D01*
X155232916Y-107410908D01*
X155236739Y-107415732D01*
X155236742Y-107415736D01*
X155260651Y-107445901D01*
X155355083Y-107565044D01*
X155504862Y-107692516D01*
X155676547Y-107788467D01*
X155863600Y-107849244D01*
X156058895Y-107872532D01*
X156065030Y-107872060D01*
X156065032Y-107872060D01*
X156248852Y-107857916D01*
X156248856Y-107857915D01*
X156254994Y-107857443D01*
X156444428Y-107804552D01*
X156449932Y-107801772D01*
X156449934Y-107801771D01*
X156614480Y-107718653D01*
X156614482Y-107718652D01*
X156619981Y-107715874D01*
X156774966Y-107594786D01*
X156778992Y-107590122D01*
X156778995Y-107590119D01*
X156899451Y-107450569D01*
X156899452Y-107450567D01*
X156903480Y-107445901D01*
X157000628Y-107274890D01*
X157062710Y-107088266D01*
X157087360Y-106893138D01*
X157087753Y-106865000D01*
X157068561Y-106669260D01*
X157011714Y-106480975D01*
X156919379Y-106307318D01*
X156915489Y-106302548D01*
X156915486Y-106302544D01*
X156798967Y-106159678D01*
X156798964Y-106159675D01*
X156795072Y-106154903D01*
X156778422Y-106141129D01*
X156648278Y-106033464D01*
X156648274Y-106033462D01*
X156643528Y-106029535D01*
X156470520Y-105935990D01*
X156449115Y-105929364D01*
X156389956Y-105890111D01*
X156361410Y-105825106D01*
X156372539Y-105754988D01*
X156419811Y-105702017D01*
X156486376Y-105682999D01*
X156974669Y-105682999D01*
X156981490Y-105682629D01*
X157032352Y-105677105D01*
X157047604Y-105673479D01*
X157168054Y-105628324D01*
X157183649Y-105619786D01*
X157285724Y-105543285D01*
X157298285Y-105530724D01*
X157374786Y-105428649D01*
X157383324Y-105413054D01*
X157428478Y-105292606D01*
X157432105Y-105277351D01*
X157437631Y-105226486D01*
X157438000Y-105219672D01*
X157438000Y-104597115D01*
X157433525Y-104581876D01*
X157432135Y-104580671D01*
X157424452Y-104579000D01*
X154740116Y-104579000D01*
X154724877Y-104583475D01*
X154723672Y-104584865D01*
X154722001Y-104592548D01*
X154722001Y-105219669D01*
X153277900Y-105219669D01*
X153277900Y-104052885D01*
X154722000Y-104052885D01*
X154726475Y-104068124D01*
X154727865Y-104069329D01*
X154735548Y-104071000D01*
X157419884Y-104071000D01*
X157435123Y-104066525D01*
X157436328Y-104065135D01*
X157437999Y-104057452D01*
X157437999Y-103430331D01*
X157437629Y-103423510D01*
X157432105Y-103372648D01*
X157428479Y-103357396D01*
X157383324Y-103236946D01*
X157374786Y-103221351D01*
X157298285Y-103119276D01*
X157285724Y-103106715D01*
X157183649Y-103030214D01*
X157168054Y-103021676D01*
X157047606Y-102976522D01*
X157032351Y-102972895D01*
X156981486Y-102967369D01*
X156974672Y-102967000D01*
X156490971Y-102967000D01*
X156422850Y-102946998D01*
X156376357Y-102893342D01*
X156366253Y-102823068D01*
X156395747Y-102758488D01*
X156443638Y-102724772D01*
X156444428Y-102724552D01*
X156449930Y-102721773D01*
X156449932Y-102721772D01*
X156614480Y-102638653D01*
X156614482Y-102638652D01*
X156619981Y-102635874D01*
X156774966Y-102514786D01*
X156778992Y-102510122D01*
X156778995Y-102510119D01*
X156899451Y-102370569D01*
X156899452Y-102370567D01*
X156903480Y-102365901D01*
X157000628Y-102194890D01*
X157062710Y-102008266D01*
X157087360Y-101813138D01*
X157087753Y-101785000D01*
X157068561Y-101589260D01*
X157011714Y-101400975D01*
X156919379Y-101227318D01*
X156915489Y-101222548D01*
X156915486Y-101222544D01*
X156798967Y-101079678D01*
X156798964Y-101079675D01*
X156795072Y-101074903D01*
X156778422Y-101061129D01*
X156648278Y-100953464D01*
X156648274Y-100953462D01*
X156643528Y-100949535D01*
X156470520Y-100855990D01*
X156282637Y-100797830D01*
X156276519Y-100797187D01*
X156276514Y-100797186D01*
X156093164Y-100777916D01*
X156093162Y-100777916D01*
X156087035Y-100777272D01*
X156004199Y-100784810D01*
X155897305Y-100794538D01*
X155897302Y-100794539D01*
X155891166Y-100795097D01*
X155702489Y-100850628D01*
X155528192Y-100941748D01*
X155374912Y-101064988D01*
X155370954Y-101069705D01*
X155370952Y-101069707D01*
X155288638Y-101167805D01*
X155248489Y-101215653D01*
X155153739Y-101388004D01*
X155151878Y-101393871D01*
X155151877Y-101393873D01*
X155149624Y-101400975D01*
X155094269Y-101575476D01*
X155072345Y-101770930D01*
X155088803Y-101966919D01*
X155143015Y-102155979D01*
X155145830Y-102161456D01*
X155145831Y-102161459D01*
X155230101Y-102325431D01*
X155232916Y-102330908D01*
X155236739Y-102335732D01*
X155236742Y-102335736D01*
X155260651Y-102365901D01*
X155355083Y-102485044D01*
X155504862Y-102612516D01*
X155676547Y-102708467D01*
X155715637Y-102721168D01*
X155774242Y-102761242D01*
X155801879Y-102826639D01*
X155789772Y-102896595D01*
X155741766Y-102948901D01*
X155676700Y-102967001D01*
X155185331Y-102967001D01*
X155178510Y-102967371D01*
X155127648Y-102972895D01*
X155112396Y-102976521D01*
X154991946Y-103021676D01*
X154976351Y-103030214D01*
X154874276Y-103106715D01*
X154861715Y-103119276D01*
X154785214Y-103221351D01*
X154776676Y-103236946D01*
X154731522Y-103357394D01*
X154727895Y-103372649D01*
X154722369Y-103423514D01*
X154722000Y-103430328D01*
X154722000Y-104052885D01*
X153277900Y-104052885D01*
X153277900Y-99230930D01*
X155072345Y-99230930D01*
X155088803Y-99426919D01*
X155143015Y-99615979D01*
X155145830Y-99621456D01*
X155145831Y-99621459D01*
X155230101Y-99785431D01*
X155232916Y-99790908D01*
X155236739Y-99795732D01*
X155236742Y-99795736D01*
X155260651Y-99825901D01*
X155355083Y-99945044D01*
X155504862Y-100072516D01*
X155676547Y-100168467D01*
X155863600Y-100229244D01*
X156058895Y-100252532D01*
X156065030Y-100252060D01*
X156065032Y-100252060D01*
X156248852Y-100237916D01*
X156248856Y-100237915D01*
X156254994Y-100237443D01*
X156444428Y-100184552D01*
X156449932Y-100181772D01*
X156449934Y-100181771D01*
X156614480Y-100098653D01*
X156614482Y-100098652D01*
X156619981Y-100095874D01*
X156774966Y-99974786D01*
X156778992Y-99970122D01*
X156778995Y-99970119D01*
X156899451Y-99830569D01*
X156899452Y-99830567D01*
X156903480Y-99825901D01*
X157000628Y-99654890D01*
X157062710Y-99468266D01*
X157087360Y-99273138D01*
X157087753Y-99245000D01*
X157068561Y-99049260D01*
X157011714Y-98860975D01*
X156919379Y-98687318D01*
X156915489Y-98682548D01*
X156915486Y-98682544D01*
X156798967Y-98539678D01*
X156798964Y-98539675D01*
X156795072Y-98534903D01*
X156778422Y-98521129D01*
X156648278Y-98413464D01*
X156648274Y-98413462D01*
X156643528Y-98409535D01*
X156470520Y-98315990D01*
X156282637Y-98257830D01*
X156276519Y-98257187D01*
X156276514Y-98257186D01*
X156093164Y-98237916D01*
X156093162Y-98237916D01*
X156087035Y-98237272D01*
X156004199Y-98244810D01*
X155897305Y-98254538D01*
X155897302Y-98254539D01*
X155891166Y-98255097D01*
X155702489Y-98310628D01*
X155528192Y-98401748D01*
X155374912Y-98524988D01*
X155370954Y-98529705D01*
X155370952Y-98529707D01*
X155288638Y-98627805D01*
X155248489Y-98675653D01*
X155153739Y-98848004D01*
X155151878Y-98853871D01*
X155151877Y-98853873D01*
X155149624Y-98860975D01*
X155094269Y-99035476D01*
X155072345Y-99230930D01*
X153277900Y-99230930D01*
X153277900Y-96690930D01*
X155072345Y-96690930D01*
X155088803Y-96886919D01*
X155143015Y-97075979D01*
X155145830Y-97081456D01*
X155145831Y-97081459D01*
X155230101Y-97245431D01*
X155232916Y-97250908D01*
X155236739Y-97255732D01*
X155236742Y-97255736D01*
X155260651Y-97285901D01*
X155355083Y-97405044D01*
X155504862Y-97532516D01*
X155676547Y-97628467D01*
X155863600Y-97689244D01*
X156058895Y-97712532D01*
X156065030Y-97712060D01*
X156065032Y-97712060D01*
X156248852Y-97697916D01*
X156248856Y-97697915D01*
X156254994Y-97697443D01*
X156444428Y-97644552D01*
X156449932Y-97641772D01*
X156449934Y-97641771D01*
X156614480Y-97558653D01*
X156614482Y-97558652D01*
X156619981Y-97555874D01*
X156774966Y-97434786D01*
X156778992Y-97430122D01*
X156778995Y-97430119D01*
X156899451Y-97290569D01*
X156899452Y-97290567D01*
X156903480Y-97285901D01*
X157000628Y-97114890D01*
X157062710Y-96928266D01*
X157087360Y-96733138D01*
X157087753Y-96705000D01*
X157068561Y-96509260D01*
X157011714Y-96320975D01*
X156919379Y-96147318D01*
X156915489Y-96142548D01*
X156915486Y-96142544D01*
X156798967Y-95999678D01*
X156798964Y-95999675D01*
X156795072Y-95994903D01*
X156778422Y-95981129D01*
X156648278Y-95873464D01*
X156648274Y-95873462D01*
X156643528Y-95869535D01*
X156470520Y-95775990D01*
X156282637Y-95717830D01*
X156276519Y-95717187D01*
X156276514Y-95717186D01*
X156093164Y-95697916D01*
X156093162Y-95697916D01*
X156087035Y-95697272D01*
X156004199Y-95704810D01*
X155897305Y-95714538D01*
X155897302Y-95714539D01*
X155891166Y-95715097D01*
X155702489Y-95770628D01*
X155528192Y-95861748D01*
X155374912Y-95984988D01*
X155370954Y-95989705D01*
X155370952Y-95989707D01*
X155288638Y-96087805D01*
X155248489Y-96135653D01*
X155153739Y-96308004D01*
X155151878Y-96313871D01*
X155151877Y-96313873D01*
X155149624Y-96320975D01*
X155094269Y-96495476D01*
X155072345Y-96690930D01*
X153277900Y-96690930D01*
X153277900Y-92519669D01*
X154722001Y-92519669D01*
X154722371Y-92526490D01*
X154727895Y-92577352D01*
X154731521Y-92592604D01*
X154776676Y-92713054D01*
X154785214Y-92728649D01*
X154861715Y-92830724D01*
X154874276Y-92843285D01*
X154976351Y-92919786D01*
X154991946Y-92928324D01*
X155112394Y-92973478D01*
X155127649Y-92977105D01*
X155178514Y-92982631D01*
X155185328Y-92983000D01*
X155669477Y-92983000D01*
X155737598Y-93003002D01*
X155784091Y-93056658D01*
X155794195Y-93126932D01*
X155764701Y-93191512D01*
X155713301Y-93224564D01*
X155714115Y-93226579D01*
X155708398Y-93228889D01*
X155702489Y-93230628D01*
X155528192Y-93321748D01*
X155374912Y-93444988D01*
X155370954Y-93449705D01*
X155370952Y-93449707D01*
X155288638Y-93547805D01*
X155248489Y-93595653D01*
X155153739Y-93768004D01*
X155151878Y-93773871D01*
X155151877Y-93773873D01*
X155149624Y-93780975D01*
X155094269Y-93955476D01*
X155072345Y-94150930D01*
X155088803Y-94346919D01*
X155143015Y-94535979D01*
X155145830Y-94541456D01*
X155145831Y-94541459D01*
X155230101Y-94705431D01*
X155232916Y-94710908D01*
X155236739Y-94715732D01*
X155236742Y-94715736D01*
X155260651Y-94745901D01*
X155355083Y-94865044D01*
X155504862Y-94992516D01*
X155676547Y-95088467D01*
X155863600Y-95149244D01*
X156058895Y-95172532D01*
X156065030Y-95172060D01*
X156065032Y-95172060D01*
X156248852Y-95157916D01*
X156248856Y-95157915D01*
X156254994Y-95157443D01*
X156444428Y-95104552D01*
X156449932Y-95101772D01*
X156449934Y-95101771D01*
X156614480Y-95018653D01*
X156614482Y-95018652D01*
X156619981Y-95015874D01*
X156774966Y-94894786D01*
X156778992Y-94890122D01*
X156778995Y-94890119D01*
X156899451Y-94750569D01*
X156899452Y-94750567D01*
X156903480Y-94745901D01*
X157000628Y-94574890D01*
X157062710Y-94388266D01*
X157087360Y-94193138D01*
X157087753Y-94165000D01*
X157068561Y-93969260D01*
X157011714Y-93780975D01*
X156919379Y-93607318D01*
X156915489Y-93602548D01*
X156915486Y-93602544D01*
X156798967Y-93459678D01*
X156798964Y-93459675D01*
X156795072Y-93454903D01*
X156778422Y-93441129D01*
X156648278Y-93333464D01*
X156648274Y-93333462D01*
X156643528Y-93329535D01*
X156470520Y-93235990D01*
X156449115Y-93229364D01*
X156389956Y-93190111D01*
X156361410Y-93125106D01*
X156372539Y-93054988D01*
X156419811Y-93002017D01*
X156486376Y-92982999D01*
X156974669Y-92982999D01*
X156981490Y-92982629D01*
X157032352Y-92977105D01*
X157047604Y-92973479D01*
X157168054Y-92928324D01*
X157183649Y-92919786D01*
X157285724Y-92843285D01*
X157298285Y-92830724D01*
X157374786Y-92728649D01*
X157383324Y-92713054D01*
X157428478Y-92592606D01*
X157432105Y-92577351D01*
X157437631Y-92526486D01*
X157438000Y-92519672D01*
X157438000Y-91897115D01*
X157433525Y-91881876D01*
X157432135Y-91880671D01*
X157424452Y-91879000D01*
X154740116Y-91879000D01*
X154724877Y-91883475D01*
X154723672Y-91884865D01*
X154722001Y-91892548D01*
X154722001Y-92519669D01*
X153277900Y-92519669D01*
X153277900Y-91352885D01*
X154722000Y-91352885D01*
X154726475Y-91368124D01*
X154727865Y-91369329D01*
X154735548Y-91371000D01*
X157419884Y-91371000D01*
X157435123Y-91366525D01*
X157436328Y-91365135D01*
X157437999Y-91357452D01*
X157437999Y-90730331D01*
X157437629Y-90723510D01*
X157432105Y-90672648D01*
X157428479Y-90657396D01*
X157383324Y-90536946D01*
X157374786Y-90521351D01*
X157298285Y-90419276D01*
X157285724Y-90406715D01*
X157183649Y-90330214D01*
X157168054Y-90321676D01*
X157047606Y-90276522D01*
X157032351Y-90272895D01*
X156981486Y-90267369D01*
X156974672Y-90267000D01*
X156490971Y-90267000D01*
X156422850Y-90246998D01*
X156376357Y-90193342D01*
X156366253Y-90123068D01*
X156395747Y-90058488D01*
X156443638Y-90024772D01*
X156444428Y-90024552D01*
X156449930Y-90021773D01*
X156449932Y-90021772D01*
X156614480Y-89938653D01*
X156614482Y-89938652D01*
X156619981Y-89935874D01*
X156774966Y-89814786D01*
X156778992Y-89810122D01*
X156778995Y-89810119D01*
X156899451Y-89670569D01*
X156899452Y-89670567D01*
X156903480Y-89665901D01*
X157000628Y-89494890D01*
X157062710Y-89308266D01*
X157087360Y-89113138D01*
X157087753Y-89085000D01*
X157068561Y-88889260D01*
X157011714Y-88700975D01*
X156919379Y-88527318D01*
X156915489Y-88522548D01*
X156915486Y-88522544D01*
X156798967Y-88379678D01*
X156798964Y-88379675D01*
X156795072Y-88374903D01*
X156778422Y-88361129D01*
X156648278Y-88253464D01*
X156648274Y-88253462D01*
X156643528Y-88249535D01*
X156470520Y-88155990D01*
X156282637Y-88097830D01*
X156276519Y-88097187D01*
X156276514Y-88097186D01*
X156093164Y-88077916D01*
X156093162Y-88077916D01*
X156087035Y-88077272D01*
X156004199Y-88084810D01*
X155897305Y-88094538D01*
X155897302Y-88094539D01*
X155891166Y-88095097D01*
X155702489Y-88150628D01*
X155528192Y-88241748D01*
X155374912Y-88364988D01*
X155370954Y-88369705D01*
X155370952Y-88369707D01*
X155288638Y-88467805D01*
X155248489Y-88515653D01*
X155153739Y-88688004D01*
X155151878Y-88693871D01*
X155151877Y-88693873D01*
X155149624Y-88700975D01*
X155094269Y-88875476D01*
X155072345Y-89070930D01*
X155088803Y-89266919D01*
X155143015Y-89455979D01*
X155145830Y-89461456D01*
X155145831Y-89461459D01*
X155230101Y-89625431D01*
X155232916Y-89630908D01*
X155236739Y-89635732D01*
X155236742Y-89635736D01*
X155260651Y-89665901D01*
X155355083Y-89785044D01*
X155504862Y-89912516D01*
X155676547Y-90008467D01*
X155715637Y-90021168D01*
X155774242Y-90061242D01*
X155801879Y-90126639D01*
X155789772Y-90196595D01*
X155741766Y-90248901D01*
X155676700Y-90267001D01*
X155185331Y-90267001D01*
X155178510Y-90267371D01*
X155127648Y-90272895D01*
X155112396Y-90276521D01*
X154991946Y-90321676D01*
X154976351Y-90330214D01*
X154874276Y-90406715D01*
X154861715Y-90419276D01*
X154785214Y-90521351D01*
X154776676Y-90536946D01*
X154731522Y-90657394D01*
X154727895Y-90672649D01*
X154722369Y-90723514D01*
X154722000Y-90730328D01*
X154722000Y-91352885D01*
X153277900Y-91352885D01*
X153277900Y-86530930D01*
X155072345Y-86530930D01*
X155088803Y-86726919D01*
X155143015Y-86915979D01*
X155145830Y-86921456D01*
X155145831Y-86921459D01*
X155230101Y-87085431D01*
X155232916Y-87090908D01*
X155236739Y-87095732D01*
X155236742Y-87095736D01*
X155260651Y-87125901D01*
X155355083Y-87245044D01*
X155504862Y-87372516D01*
X155676547Y-87468467D01*
X155863600Y-87529244D01*
X156058895Y-87552532D01*
X156065030Y-87552060D01*
X156065032Y-87552060D01*
X156248852Y-87537916D01*
X156248856Y-87537915D01*
X156254994Y-87537443D01*
X156444428Y-87484552D01*
X156449932Y-87481772D01*
X156449934Y-87481771D01*
X156614480Y-87398653D01*
X156614482Y-87398652D01*
X156619981Y-87395874D01*
X156774966Y-87274786D01*
X156778992Y-87270122D01*
X156778995Y-87270119D01*
X156899451Y-87130569D01*
X156899452Y-87130567D01*
X156903480Y-87125901D01*
X157000628Y-86954890D01*
X157062710Y-86768266D01*
X157087360Y-86573138D01*
X157087753Y-86545000D01*
X157068561Y-86349260D01*
X157011714Y-86160975D01*
X156919379Y-85987318D01*
X156915489Y-85982548D01*
X156915486Y-85982544D01*
X156798967Y-85839678D01*
X156798964Y-85839675D01*
X156795072Y-85834903D01*
X156778422Y-85821129D01*
X156648278Y-85713464D01*
X156648274Y-85713462D01*
X156643528Y-85709535D01*
X156470520Y-85615990D01*
X156282637Y-85557830D01*
X156276519Y-85557187D01*
X156276514Y-85557186D01*
X156093164Y-85537916D01*
X156093162Y-85537916D01*
X156087035Y-85537272D01*
X156004199Y-85544810D01*
X155897305Y-85554538D01*
X155897302Y-85554539D01*
X155891166Y-85555097D01*
X155702489Y-85610628D01*
X155528192Y-85701748D01*
X155374912Y-85824988D01*
X155370954Y-85829705D01*
X155370952Y-85829707D01*
X155288638Y-85927805D01*
X155248489Y-85975653D01*
X155153739Y-86148004D01*
X155151878Y-86153871D01*
X155151877Y-86153873D01*
X155149624Y-86160975D01*
X155094269Y-86335476D01*
X155072345Y-86530930D01*
X153277900Y-86530930D01*
X153277900Y-83990930D01*
X155072345Y-83990930D01*
X155088803Y-84186919D01*
X155143015Y-84375979D01*
X155145830Y-84381456D01*
X155145831Y-84381459D01*
X155230101Y-84545431D01*
X155232916Y-84550908D01*
X155236739Y-84555732D01*
X155236742Y-84555736D01*
X155260651Y-84585901D01*
X155355083Y-84705044D01*
X155504862Y-84832516D01*
X155676547Y-84928467D01*
X155863600Y-84989244D01*
X156058895Y-85012532D01*
X156065030Y-85012060D01*
X156065032Y-85012060D01*
X156248852Y-84997916D01*
X156248856Y-84997915D01*
X156254994Y-84997443D01*
X156444428Y-84944552D01*
X156449932Y-84941772D01*
X156449934Y-84941771D01*
X156614480Y-84858653D01*
X156614482Y-84858652D01*
X156619981Y-84855874D01*
X156774966Y-84734786D01*
X156778992Y-84730122D01*
X156778995Y-84730119D01*
X156899451Y-84590569D01*
X156899452Y-84590567D01*
X156903480Y-84585901D01*
X157000628Y-84414890D01*
X157062710Y-84228266D01*
X157087360Y-84033138D01*
X157087753Y-84005000D01*
X157068561Y-83809260D01*
X157011714Y-83620975D01*
X156919379Y-83447318D01*
X156915489Y-83442548D01*
X156915486Y-83442544D01*
X156798967Y-83299678D01*
X156798964Y-83299675D01*
X156795072Y-83294903D01*
X156778422Y-83281129D01*
X156648278Y-83173464D01*
X156648274Y-83173462D01*
X156643528Y-83169535D01*
X156470520Y-83075990D01*
X156282637Y-83017830D01*
X156276519Y-83017187D01*
X156276514Y-83017186D01*
X156093164Y-82997916D01*
X156093162Y-82997916D01*
X156087035Y-82997272D01*
X156004199Y-83004810D01*
X155897305Y-83014538D01*
X155897302Y-83014539D01*
X155891166Y-83015097D01*
X155702489Y-83070628D01*
X155528192Y-83161748D01*
X155374912Y-83284988D01*
X155370954Y-83289705D01*
X155370952Y-83289707D01*
X155288638Y-83387805D01*
X155248489Y-83435653D01*
X155153739Y-83608004D01*
X155151878Y-83613871D01*
X155151877Y-83613873D01*
X155149624Y-83620975D01*
X155094269Y-83795476D01*
X155072345Y-83990930D01*
X153277900Y-83990930D01*
X153277900Y-79819669D01*
X154722001Y-79819669D01*
X154722371Y-79826490D01*
X154727895Y-79877352D01*
X154731521Y-79892604D01*
X154776676Y-80013054D01*
X154785214Y-80028649D01*
X154861715Y-80130724D01*
X154874276Y-80143285D01*
X154976351Y-80219786D01*
X154991946Y-80228324D01*
X155112394Y-80273478D01*
X155127649Y-80277105D01*
X155178514Y-80282631D01*
X155185328Y-80283000D01*
X155669477Y-80283000D01*
X155737598Y-80303002D01*
X155784091Y-80356658D01*
X155794195Y-80426932D01*
X155764701Y-80491512D01*
X155713301Y-80524564D01*
X155714115Y-80526579D01*
X155708398Y-80528889D01*
X155702489Y-80530628D01*
X155528192Y-80621748D01*
X155374912Y-80744988D01*
X155370954Y-80749705D01*
X155370952Y-80749707D01*
X155288638Y-80847805D01*
X155248489Y-80895653D01*
X155153739Y-81068004D01*
X155151878Y-81073871D01*
X155151877Y-81073873D01*
X155149624Y-81080975D01*
X155094269Y-81255476D01*
X155072345Y-81450930D01*
X155088803Y-81646919D01*
X155143015Y-81835979D01*
X155145830Y-81841456D01*
X155145831Y-81841459D01*
X155230101Y-82005431D01*
X155232916Y-82010908D01*
X155236739Y-82015732D01*
X155236742Y-82015736D01*
X155260651Y-82045901D01*
X155355083Y-82165044D01*
X155504862Y-82292516D01*
X155676547Y-82388467D01*
X155863600Y-82449244D01*
X156058895Y-82472532D01*
X156065030Y-82472060D01*
X156065032Y-82472060D01*
X156248852Y-82457916D01*
X156248856Y-82457915D01*
X156254994Y-82457443D01*
X156444428Y-82404552D01*
X156449932Y-82401772D01*
X156449934Y-82401771D01*
X156614480Y-82318653D01*
X156614482Y-82318652D01*
X156619981Y-82315874D01*
X156774966Y-82194786D01*
X156778992Y-82190122D01*
X156778995Y-82190119D01*
X156899451Y-82050569D01*
X156899452Y-82050567D01*
X156903480Y-82045901D01*
X157000628Y-81874890D01*
X157062710Y-81688266D01*
X157087360Y-81493138D01*
X157087753Y-81465000D01*
X157068561Y-81269260D01*
X157011714Y-81080975D01*
X156919379Y-80907318D01*
X156915489Y-80902548D01*
X156915486Y-80902544D01*
X156798967Y-80759678D01*
X156798964Y-80759675D01*
X156795072Y-80754903D01*
X156778422Y-80741129D01*
X156648278Y-80633464D01*
X156648274Y-80633462D01*
X156643528Y-80629535D01*
X156470520Y-80535990D01*
X156449115Y-80529364D01*
X156389956Y-80490111D01*
X156361410Y-80425106D01*
X156372539Y-80354988D01*
X156419811Y-80302017D01*
X156486376Y-80282999D01*
X156974669Y-80282999D01*
X156981490Y-80282629D01*
X157032352Y-80277105D01*
X157047604Y-80273479D01*
X157168054Y-80228324D01*
X157183649Y-80219786D01*
X157285724Y-80143285D01*
X157298285Y-80130724D01*
X157374786Y-80028649D01*
X157383324Y-80013054D01*
X157428478Y-79892606D01*
X157432105Y-79877351D01*
X157437631Y-79826486D01*
X157438000Y-79819672D01*
X157438000Y-79197115D01*
X157433525Y-79181876D01*
X157432135Y-79180671D01*
X157424452Y-79179000D01*
X154740116Y-79179000D01*
X154724877Y-79183475D01*
X154723672Y-79184865D01*
X154722001Y-79192548D01*
X154722001Y-79819669D01*
X153277900Y-79819669D01*
X153277900Y-78652885D01*
X154722000Y-78652885D01*
X154726475Y-78668124D01*
X154727865Y-78669329D01*
X154735548Y-78671000D01*
X157419884Y-78671000D01*
X157435123Y-78666525D01*
X157436328Y-78665135D01*
X157437999Y-78657452D01*
X157437999Y-78030331D01*
X157437629Y-78023510D01*
X157432105Y-77972648D01*
X157428479Y-77957396D01*
X157383324Y-77836946D01*
X157374786Y-77821351D01*
X157298285Y-77719276D01*
X157285724Y-77706715D01*
X157183649Y-77630214D01*
X157168054Y-77621676D01*
X157047606Y-77576522D01*
X157032351Y-77572895D01*
X156981486Y-77567369D01*
X156974672Y-77567000D01*
X156490971Y-77567000D01*
X156422850Y-77546998D01*
X156376357Y-77493342D01*
X156366253Y-77423068D01*
X156395747Y-77358488D01*
X156443638Y-77324772D01*
X156444428Y-77324552D01*
X156449930Y-77321773D01*
X156449932Y-77321772D01*
X156614480Y-77238653D01*
X156614482Y-77238652D01*
X156619981Y-77235874D01*
X156774966Y-77114786D01*
X156778992Y-77110122D01*
X156778995Y-77110119D01*
X156899451Y-76970569D01*
X156899452Y-76970567D01*
X156903480Y-76965901D01*
X157000628Y-76794890D01*
X157062710Y-76608266D01*
X157087360Y-76413138D01*
X157087753Y-76385000D01*
X157068561Y-76189260D01*
X157011714Y-76000975D01*
X156919379Y-75827318D01*
X156915489Y-75822548D01*
X156915486Y-75822544D01*
X156798967Y-75679678D01*
X156798964Y-75679675D01*
X156795072Y-75674903D01*
X156778422Y-75661129D01*
X156648278Y-75553464D01*
X156648274Y-75553462D01*
X156643528Y-75549535D01*
X156470520Y-75455990D01*
X156282637Y-75397830D01*
X156276519Y-75397187D01*
X156276514Y-75397186D01*
X156093164Y-75377916D01*
X156093162Y-75377916D01*
X156087035Y-75377272D01*
X156004199Y-75384810D01*
X155897305Y-75394538D01*
X155897302Y-75394539D01*
X155891166Y-75395097D01*
X155702489Y-75450628D01*
X155528192Y-75541748D01*
X155374912Y-75664988D01*
X155370954Y-75669705D01*
X155370952Y-75669707D01*
X155288638Y-75767805D01*
X155248489Y-75815653D01*
X155153739Y-75988004D01*
X155151878Y-75993871D01*
X155151877Y-75993873D01*
X155149624Y-76000975D01*
X155094269Y-76175476D01*
X155072345Y-76370930D01*
X155088803Y-76566919D01*
X155143015Y-76755979D01*
X155145830Y-76761456D01*
X155145831Y-76761459D01*
X155230101Y-76925431D01*
X155232916Y-76930908D01*
X155236739Y-76935732D01*
X155236742Y-76935736D01*
X155260651Y-76965901D01*
X155355083Y-77085044D01*
X155504862Y-77212516D01*
X155676547Y-77308467D01*
X155715637Y-77321168D01*
X155774242Y-77361242D01*
X155801879Y-77426639D01*
X155789772Y-77496595D01*
X155741766Y-77548901D01*
X155676700Y-77567001D01*
X155185331Y-77567001D01*
X155178510Y-77567371D01*
X155127648Y-77572895D01*
X155112396Y-77576521D01*
X154991946Y-77621676D01*
X154976351Y-77630214D01*
X154874276Y-77706715D01*
X154861715Y-77719276D01*
X154785214Y-77821351D01*
X154776676Y-77836946D01*
X154731522Y-77957394D01*
X154727895Y-77972649D01*
X154722369Y-78023514D01*
X154722000Y-78030328D01*
X154722000Y-78652885D01*
X153277900Y-78652885D01*
X153277900Y-74552300D01*
X153297902Y-74484179D01*
X153314805Y-74463205D01*
X153947080Y-73830930D01*
X155072345Y-73830930D01*
X155088803Y-74026919D01*
X155090502Y-74032844D01*
X155136861Y-74194516D01*
X155143015Y-74215979D01*
X155145830Y-74221456D01*
X155145831Y-74221459D01*
X155222782Y-74371189D01*
X155232916Y-74390908D01*
X155236739Y-74395732D01*
X155236742Y-74395736D01*
X155348925Y-74537275D01*
X155355083Y-74545044D01*
X155504862Y-74672516D01*
X155676547Y-74768467D01*
X155863600Y-74829244D01*
X156058895Y-74852532D01*
X156065030Y-74852060D01*
X156065032Y-74852060D01*
X156248852Y-74837916D01*
X156248856Y-74837915D01*
X156254994Y-74837443D01*
X156444428Y-74784552D01*
X156449932Y-74781772D01*
X156449934Y-74781771D01*
X156614480Y-74698653D01*
X156614482Y-74698652D01*
X156619981Y-74695874D01*
X156774966Y-74574786D01*
X156778992Y-74570122D01*
X156778995Y-74570119D01*
X156899451Y-74430569D01*
X156899452Y-74430567D01*
X156903480Y-74425901D01*
X156920678Y-74395628D01*
X156947592Y-74348250D01*
X157000628Y-74254890D01*
X157062710Y-74068266D01*
X157087360Y-73873138D01*
X157087753Y-73845000D01*
X157068561Y-73649260D01*
X157011714Y-73460975D01*
X156919379Y-73287318D01*
X156915489Y-73282548D01*
X156915486Y-73282544D01*
X156798967Y-73139678D01*
X156798964Y-73139675D01*
X156795072Y-73134903D01*
X156778422Y-73121129D01*
X156648278Y-73013464D01*
X156648274Y-73013462D01*
X156643528Y-73009535D01*
X156470520Y-72915990D01*
X156282637Y-72857830D01*
X156276519Y-72857187D01*
X156276514Y-72857186D01*
X156093164Y-72837916D01*
X156093162Y-72837916D01*
X156087035Y-72837272D01*
X156004199Y-72844810D01*
X155897305Y-72854538D01*
X155897302Y-72854539D01*
X155891166Y-72855097D01*
X155702489Y-72910628D01*
X155528192Y-73001748D01*
X155374912Y-73124988D01*
X155370954Y-73129705D01*
X155370952Y-73129707D01*
X155288638Y-73227805D01*
X155248489Y-73275653D01*
X155153739Y-73448004D01*
X155151878Y-73453871D01*
X155151877Y-73453873D01*
X155149624Y-73460975D01*
X155094269Y-73635476D01*
X155072345Y-73830930D01*
X153947080Y-73830930D01*
X155527839Y-72250171D01*
X155590151Y-72216145D01*
X155667380Y-72223805D01*
X155671163Y-72225458D01*
X155676547Y-72228467D01*
X155682407Y-72230371D01*
X155682412Y-72230373D01*
X155743345Y-72250171D01*
X155863600Y-72289244D01*
X156058895Y-72312532D01*
X156065030Y-72312060D01*
X156065032Y-72312060D01*
X156248852Y-72297916D01*
X156248856Y-72297915D01*
X156254994Y-72297443D01*
X156444428Y-72244552D01*
X156449932Y-72241772D01*
X156449934Y-72241771D01*
X156614480Y-72158653D01*
X156614482Y-72158652D01*
X156619981Y-72155874D01*
X156774966Y-72034786D01*
X156778992Y-72030122D01*
X156778995Y-72030119D01*
X156899451Y-71890569D01*
X156899452Y-71890567D01*
X156903480Y-71885901D01*
X157000628Y-71714890D01*
X157062710Y-71528266D01*
X157087360Y-71333138D01*
X157087753Y-71305000D01*
X157068561Y-71109260D01*
X157011714Y-70920975D01*
X156919379Y-70747318D01*
X156915489Y-70742548D01*
X156915486Y-70742544D01*
X156798967Y-70599678D01*
X156798964Y-70599675D01*
X156795072Y-70594903D01*
X156778422Y-70581129D01*
X156648278Y-70473464D01*
X156648274Y-70473462D01*
X156643528Y-70469535D01*
X156470520Y-70375990D01*
X156282637Y-70317830D01*
X156276519Y-70317187D01*
X156276514Y-70317186D01*
X156093164Y-70297916D01*
X156093162Y-70297916D01*
X156087035Y-70297272D01*
X156004199Y-70304810D01*
X155897305Y-70314538D01*
X155897302Y-70314539D01*
X155891166Y-70315097D01*
X155702489Y-70370628D01*
X155528192Y-70461748D01*
X155374912Y-70584988D01*
X155370954Y-70589705D01*
X155370952Y-70589707D01*
X155288638Y-70687805D01*
X155248489Y-70735653D01*
X155153739Y-70908004D01*
X155151878Y-70913871D01*
X155151877Y-70913873D01*
X155149624Y-70920975D01*
X155094269Y-71095476D01*
X155072345Y-71290930D01*
X155088803Y-71486919D01*
X155143015Y-71675979D01*
X155145832Y-71681460D01*
X155159744Y-71708532D01*
X155173090Y-71778263D01*
X155146618Y-71844140D01*
X155136771Y-71855219D01*
X152837463Y-74154527D01*
X152835967Y-74155819D01*
X152831439Y-74158032D01*
X152823544Y-74166542D01*
X152823545Y-74166542D01*
X152800754Y-74191111D01*
X152797474Y-74194516D01*
X152785218Y-74206772D01*
X152782635Y-74210537D01*
X152780895Y-74212519D01*
X152761033Y-74233931D01*
X152756722Y-74244736D01*
X152752832Y-74250890D01*
X152751062Y-74254204D01*
X152748109Y-74260868D01*
X152741528Y-74270461D01*
X152738841Y-74281782D01*
X152738841Y-74281783D01*
X152736426Y-74291960D01*
X152730862Y-74309554D01*
X152722670Y-74330087D01*
X152722100Y-74335901D01*
X152722100Y-74338990D01*
X152721950Y-74342053D01*
X152721578Y-74342035D01*
X152720851Y-74348249D01*
X152720878Y-74348250D01*
X152720310Y-74359868D01*
X152717623Y-74371189D01*
X152719192Y-74382718D01*
X152719192Y-74382719D01*
X152720949Y-74395628D01*
X152722100Y-74412619D01*
X152722100Y-115454188D01*
X152702098Y-115522309D01*
X152672804Y-115554151D01*
X152612213Y-115600644D01*
X152605667Y-115605667D01*
X152517043Y-115721165D01*
X152461331Y-115855664D01*
X152442329Y-116000000D01*
X127381000Y-116000000D01*
X127381000Y-109390930D01*
X137292345Y-109390930D01*
X137295889Y-109433138D01*
X137304868Y-109540055D01*
X137308803Y-109586919D01*
X137310502Y-109592844D01*
X137357258Y-109755901D01*
X137363015Y-109775979D01*
X137365830Y-109781456D01*
X137365831Y-109781459D01*
X137431162Y-109908580D01*
X137452916Y-109950908D01*
X137456739Y-109955732D01*
X137456742Y-109955736D01*
X137480651Y-109985901D01*
X137575083Y-110105044D01*
X137579777Y-110109038D01*
X137579777Y-110109039D01*
X137648402Y-110167443D01*
X137724862Y-110232516D01*
X137730240Y-110235522D01*
X137730242Y-110235523D01*
X137807408Y-110278649D01*
X137896547Y-110328467D01*
X138083600Y-110389244D01*
X138278895Y-110412532D01*
X138285030Y-110412060D01*
X138285032Y-110412060D01*
X138468852Y-110397916D01*
X138468856Y-110397915D01*
X138474994Y-110397443D01*
X138664428Y-110344552D01*
X138669932Y-110341772D01*
X138669934Y-110341771D01*
X138834480Y-110258653D01*
X138834482Y-110258652D01*
X138839981Y-110255874D01*
X138994966Y-110134786D01*
X138998992Y-110130122D01*
X138998995Y-110130119D01*
X139119451Y-109990569D01*
X139119452Y-109990567D01*
X139123480Y-109985901D01*
X139220628Y-109814890D01*
X139282710Y-109628266D01*
X139307360Y-109433138D01*
X139307753Y-109405000D01*
X139288561Y-109209260D01*
X139273969Y-109160930D01*
X143642345Y-109160930D01*
X143658803Y-109356919D01*
X143660502Y-109362844D01*
X143703505Y-109512812D01*
X143713015Y-109545979D01*
X143715830Y-109551456D01*
X143715831Y-109551459D01*
X143758312Y-109634118D01*
X143802916Y-109720908D01*
X143806739Y-109725732D01*
X143806742Y-109725736D01*
X143850908Y-109781459D01*
X143925083Y-109875044D01*
X144074862Y-110002516D01*
X144246547Y-110098467D01*
X144433600Y-110159244D01*
X144628895Y-110182532D01*
X144635030Y-110182060D01*
X144635032Y-110182060D01*
X144818852Y-110167916D01*
X144818856Y-110167915D01*
X144824994Y-110167443D01*
X145014428Y-110114552D01*
X145019932Y-110111772D01*
X145019934Y-110111771D01*
X145184480Y-110028653D01*
X145184482Y-110028652D01*
X145189981Y-110025874D01*
X145344966Y-109904786D01*
X145348992Y-109900122D01*
X145348995Y-109900119D01*
X145469451Y-109760569D01*
X145469452Y-109760567D01*
X145473480Y-109755901D01*
X145570628Y-109584890D01*
X145586443Y-109537349D01*
X145626925Y-109479025D01*
X145692514Y-109451846D01*
X145762384Y-109464441D01*
X145814353Y-109512812D01*
X145832001Y-109577122D01*
X145832001Y-110069669D01*
X145832371Y-110076490D01*
X145837895Y-110127352D01*
X145841521Y-110142604D01*
X145886676Y-110263054D01*
X145895214Y-110278649D01*
X145971715Y-110380724D01*
X145984276Y-110393285D01*
X146086351Y-110469786D01*
X146101946Y-110478324D01*
X146222394Y-110523478D01*
X146237649Y-110527105D01*
X146288514Y-110532631D01*
X146295328Y-110533000D01*
X146917885Y-110533000D01*
X146933124Y-110528525D01*
X146934329Y-110527135D01*
X146936000Y-110519452D01*
X146936000Y-110514884D01*
X147444000Y-110514884D01*
X147448475Y-110530123D01*
X147449865Y-110531328D01*
X147457548Y-110532999D01*
X148084669Y-110532999D01*
X148091490Y-110532629D01*
X148142352Y-110527105D01*
X148157604Y-110523479D01*
X148278054Y-110478324D01*
X148293649Y-110469786D01*
X148395724Y-110393285D01*
X148408285Y-110380724D01*
X148484786Y-110278649D01*
X148493324Y-110263054D01*
X148538478Y-110142606D01*
X148542105Y-110127351D01*
X148547631Y-110076486D01*
X148548000Y-110069672D01*
X148548000Y-109586023D01*
X148568002Y-109517902D01*
X148621658Y-109471409D01*
X148691932Y-109461305D01*
X148756512Y-109490799D01*
X148791153Y-109539642D01*
X148791316Y-109540053D01*
X148793015Y-109545979D01*
X148795830Y-109551456D01*
X148795831Y-109551459D01*
X148838312Y-109634118D01*
X148882916Y-109720908D01*
X148886739Y-109725732D01*
X148886742Y-109725736D01*
X148930908Y-109781459D01*
X149005083Y-109875044D01*
X149154862Y-110002516D01*
X149326547Y-110098467D01*
X149513600Y-110159244D01*
X149708895Y-110182532D01*
X149715030Y-110182060D01*
X149715032Y-110182060D01*
X149898852Y-110167916D01*
X149898856Y-110167915D01*
X149904994Y-110167443D01*
X150094428Y-110114552D01*
X150099932Y-110111772D01*
X150099934Y-110111771D01*
X150264480Y-110028653D01*
X150264482Y-110028652D01*
X150269981Y-110025874D01*
X150424966Y-109904786D01*
X150428992Y-109900122D01*
X150428995Y-109900119D01*
X150549451Y-109760569D01*
X150549452Y-109760567D01*
X150553480Y-109755901D01*
X150650628Y-109584890D01*
X150712710Y-109398266D01*
X150737360Y-109203138D01*
X150737753Y-109175000D01*
X150718561Y-108979260D01*
X150661714Y-108790975D01*
X150569379Y-108617318D01*
X150565489Y-108612548D01*
X150565486Y-108612544D01*
X150448967Y-108469678D01*
X150448964Y-108469675D01*
X150445072Y-108464903D01*
X150390372Y-108419651D01*
X150298278Y-108343464D01*
X150298274Y-108343462D01*
X150293528Y-108339535D01*
X150120520Y-108245990D01*
X149932637Y-108187830D01*
X149926519Y-108187187D01*
X149926514Y-108187186D01*
X149743164Y-108167916D01*
X149743162Y-108167916D01*
X149737035Y-108167272D01*
X149654199Y-108174810D01*
X149547305Y-108184538D01*
X149547302Y-108184539D01*
X149541166Y-108185097D01*
X149352489Y-108240628D01*
X149178192Y-108331748D01*
X149024912Y-108454988D01*
X149020954Y-108459705D01*
X149020952Y-108459707D01*
X148990304Y-108496232D01*
X148898489Y-108605653D01*
X148803739Y-108778004D01*
X148801878Y-108783871D01*
X148794101Y-108808387D01*
X148754437Y-108867270D01*
X148689234Y-108895362D01*
X148619195Y-108883744D01*
X148566555Y-108836104D01*
X148547999Y-108770287D01*
X148547999Y-108280331D01*
X148547629Y-108273510D01*
X148542105Y-108222648D01*
X148538479Y-108207396D01*
X148493324Y-108086946D01*
X148484786Y-108071351D01*
X148408285Y-107969276D01*
X148395724Y-107956715D01*
X148293649Y-107880214D01*
X148278054Y-107871676D01*
X148157606Y-107826522D01*
X148142351Y-107822895D01*
X148091486Y-107817369D01*
X148084672Y-107817000D01*
X147462115Y-107817000D01*
X147446876Y-107821475D01*
X147445671Y-107822865D01*
X147444000Y-107830548D01*
X147444000Y-110514884D01*
X146936000Y-110514884D01*
X146936000Y-107835116D01*
X146931525Y-107819877D01*
X146930135Y-107818672D01*
X146922452Y-107817001D01*
X146295331Y-107817001D01*
X146288510Y-107817371D01*
X146237648Y-107822895D01*
X146222396Y-107826521D01*
X146101946Y-107871676D01*
X146086351Y-107880214D01*
X145984276Y-107956715D01*
X145971715Y-107969276D01*
X145895214Y-108071351D01*
X145886676Y-108086946D01*
X145841522Y-108207394D01*
X145837895Y-108222649D01*
X145832369Y-108273514D01*
X145832000Y-108280328D01*
X145832000Y-108766694D01*
X145811998Y-108834815D01*
X145758342Y-108881308D01*
X145688068Y-108891412D01*
X145623488Y-108861918D01*
X145585377Y-108803109D01*
X145583494Y-108796872D01*
X145581714Y-108790975D01*
X145489379Y-108617318D01*
X145485489Y-108612548D01*
X145485486Y-108612544D01*
X145368967Y-108469678D01*
X145368964Y-108469675D01*
X145365072Y-108464903D01*
X145310372Y-108419651D01*
X145218278Y-108343464D01*
X145218274Y-108343462D01*
X145213528Y-108339535D01*
X145040520Y-108245990D01*
X144852637Y-108187830D01*
X144846519Y-108187187D01*
X144846514Y-108187186D01*
X144663164Y-108167916D01*
X144663162Y-108167916D01*
X144657035Y-108167272D01*
X144574199Y-108174810D01*
X144467305Y-108184538D01*
X144467302Y-108184539D01*
X144461166Y-108185097D01*
X144272489Y-108240628D01*
X144098192Y-108331748D01*
X143944912Y-108454988D01*
X143940954Y-108459705D01*
X143940952Y-108459707D01*
X143910304Y-108496232D01*
X143818489Y-108605653D01*
X143723739Y-108778004D01*
X143721878Y-108783871D01*
X143721877Y-108783873D01*
X143701751Y-108847318D01*
X143664269Y-108965476D01*
X143642345Y-109160930D01*
X139273969Y-109160930D01*
X139231714Y-109020975D01*
X139185546Y-108934146D01*
X139142273Y-108852760D01*
X139142271Y-108852757D01*
X139139379Y-108847318D01*
X139135489Y-108842548D01*
X139135486Y-108842544D01*
X139018967Y-108699678D01*
X139018964Y-108699675D01*
X139015072Y-108694903D01*
X138949331Y-108640517D01*
X138868278Y-108573464D01*
X138868274Y-108573462D01*
X138863528Y-108569535D01*
X138690520Y-108475990D01*
X138502637Y-108417830D01*
X138496519Y-108417187D01*
X138496514Y-108417186D01*
X138313164Y-108397916D01*
X138313162Y-108397916D01*
X138307035Y-108397272D01*
X138224199Y-108404810D01*
X138117305Y-108414538D01*
X138117302Y-108414539D01*
X138111166Y-108415097D01*
X137922489Y-108470628D01*
X137748192Y-108561748D01*
X137594912Y-108684988D01*
X137590954Y-108689705D01*
X137590952Y-108689707D01*
X137526352Y-108766694D01*
X137468489Y-108835653D01*
X137373739Y-109008004D01*
X137371878Y-109013871D01*
X137371877Y-109013873D01*
X137369624Y-109020975D01*
X137314269Y-109195476D01*
X137292345Y-109390930D01*
X127381000Y-109390930D01*
X127381000Y-105219669D01*
X136942001Y-105219669D01*
X136942371Y-105226490D01*
X136947895Y-105277352D01*
X136951521Y-105292604D01*
X136996676Y-105413054D01*
X137005214Y-105428649D01*
X137081715Y-105530724D01*
X137094276Y-105543285D01*
X137196351Y-105619786D01*
X137211946Y-105628324D01*
X137332394Y-105673478D01*
X137347649Y-105677105D01*
X137398514Y-105682631D01*
X137405328Y-105683000D01*
X137889477Y-105683000D01*
X137957598Y-105703002D01*
X138004091Y-105756658D01*
X138014195Y-105826932D01*
X137984701Y-105891512D01*
X137933301Y-105924564D01*
X137934115Y-105926579D01*
X137928398Y-105928889D01*
X137922489Y-105930628D01*
X137748192Y-106021748D01*
X137594912Y-106144988D01*
X137590954Y-106149705D01*
X137590952Y-106149707D01*
X137508638Y-106247805D01*
X137468489Y-106295653D01*
X137373739Y-106468004D01*
X137371878Y-106473871D01*
X137371877Y-106473873D01*
X137369624Y-106480975D01*
X137314269Y-106655476D01*
X137292345Y-106850930D01*
X137295889Y-106893138D01*
X137305551Y-107008188D01*
X137308803Y-107046919D01*
X137310502Y-107052844D01*
X137338924Y-107151962D01*
X137363015Y-107235979D01*
X137365830Y-107241456D01*
X137365831Y-107241459D01*
X137446979Y-107399356D01*
X137452916Y-107410908D01*
X137456739Y-107415732D01*
X137456742Y-107415736D01*
X137480651Y-107445901D01*
X137575083Y-107565044D01*
X137724862Y-107692516D01*
X137896547Y-107788467D01*
X138083600Y-107849244D01*
X138278895Y-107872532D01*
X138285030Y-107872060D01*
X138285032Y-107872060D01*
X138468852Y-107857916D01*
X138468856Y-107857915D01*
X138474994Y-107857443D01*
X138664428Y-107804552D01*
X138669932Y-107801772D01*
X138669934Y-107801771D01*
X138834480Y-107718653D01*
X138834482Y-107718652D01*
X138839981Y-107715874D01*
X138994966Y-107594786D01*
X138998992Y-107590122D01*
X138998995Y-107590119D01*
X139119451Y-107450569D01*
X139119452Y-107450567D01*
X139123480Y-107445901D01*
X139220628Y-107274890D01*
X139282710Y-107088266D01*
X139307360Y-106893138D01*
X139307753Y-106865000D01*
X139288561Y-106669260D01*
X139231714Y-106480975D01*
X139139379Y-106307318D01*
X139135489Y-106302548D01*
X139135486Y-106302544D01*
X139018967Y-106159678D01*
X139018964Y-106159675D01*
X139015072Y-106154903D01*
X138998422Y-106141129D01*
X138868278Y-106033464D01*
X138868274Y-106033462D01*
X138863528Y-106029535D01*
X138690520Y-105935990D01*
X138669115Y-105929364D01*
X138609956Y-105890111D01*
X138581410Y-105825106D01*
X138592539Y-105754988D01*
X138639811Y-105702017D01*
X138706376Y-105682999D01*
X139194669Y-105682999D01*
X139201490Y-105682629D01*
X139252352Y-105677105D01*
X139267604Y-105673479D01*
X139388054Y-105628324D01*
X139403649Y-105619786D01*
X139505724Y-105543285D01*
X139518285Y-105530724D01*
X139594786Y-105428649D01*
X139603324Y-105413054D01*
X139648478Y-105292606D01*
X139652105Y-105277351D01*
X139657631Y-105226486D01*
X139658000Y-105219672D01*
X139658000Y-104597115D01*
X139653525Y-104581876D01*
X139652135Y-104580671D01*
X139644452Y-104579000D01*
X136960116Y-104579000D01*
X136944877Y-104583475D01*
X136943672Y-104584865D01*
X136942001Y-104592548D01*
X136942001Y-105219669D01*
X127381000Y-105219669D01*
X127381000Y-104052885D01*
X136942000Y-104052885D01*
X136946475Y-104068124D01*
X136947865Y-104069329D01*
X136955548Y-104071000D01*
X139639884Y-104071000D01*
X139655123Y-104066525D01*
X139656328Y-104065135D01*
X139657999Y-104057452D01*
X139657999Y-103430331D01*
X139657629Y-103423510D01*
X139652105Y-103372648D01*
X139648479Y-103357396D01*
X139603324Y-103236946D01*
X139594786Y-103221351D01*
X139518285Y-103119276D01*
X139505724Y-103106715D01*
X139403649Y-103030214D01*
X139388054Y-103021676D01*
X139267606Y-102976522D01*
X139252351Y-102972895D01*
X139201486Y-102967369D01*
X139194672Y-102967000D01*
X138710971Y-102967000D01*
X138642850Y-102946998D01*
X138596357Y-102893342D01*
X138586253Y-102823068D01*
X138615747Y-102758488D01*
X138663638Y-102724772D01*
X138664428Y-102724552D01*
X138669930Y-102721773D01*
X138669932Y-102721772D01*
X138834480Y-102638653D01*
X138834482Y-102638652D01*
X138839981Y-102635874D01*
X138994966Y-102514786D01*
X138998992Y-102510122D01*
X138998995Y-102510119D01*
X139119451Y-102370569D01*
X139119452Y-102370567D01*
X139123480Y-102365901D01*
X139220628Y-102194890D01*
X139282710Y-102008266D01*
X139307360Y-101813138D01*
X139307753Y-101785000D01*
X139288561Y-101589260D01*
X139231714Y-101400975D01*
X139139379Y-101227318D01*
X139135489Y-101222548D01*
X139135486Y-101222544D01*
X139018967Y-101079678D01*
X139018964Y-101079675D01*
X139015072Y-101074903D01*
X138998422Y-101061129D01*
X138868278Y-100953464D01*
X138868274Y-100953462D01*
X138863528Y-100949535D01*
X138690520Y-100855990D01*
X138502637Y-100797830D01*
X138496519Y-100797187D01*
X138496514Y-100797186D01*
X138313164Y-100777916D01*
X138313162Y-100777916D01*
X138307035Y-100777272D01*
X138224199Y-100784810D01*
X138117305Y-100794538D01*
X138117302Y-100794539D01*
X138111166Y-100795097D01*
X137922489Y-100850628D01*
X137748192Y-100941748D01*
X137594912Y-101064988D01*
X137590954Y-101069705D01*
X137590952Y-101069707D01*
X137508638Y-101167805D01*
X137468489Y-101215653D01*
X137373739Y-101388004D01*
X137371878Y-101393871D01*
X137371877Y-101393873D01*
X137369624Y-101400975D01*
X137314269Y-101575476D01*
X137292345Y-101770930D01*
X137308803Y-101966919D01*
X137363015Y-102155979D01*
X137365830Y-102161456D01*
X137365831Y-102161459D01*
X137450101Y-102325431D01*
X137452916Y-102330908D01*
X137456739Y-102335732D01*
X137456742Y-102335736D01*
X137480651Y-102365901D01*
X137575083Y-102485044D01*
X137724862Y-102612516D01*
X137896547Y-102708467D01*
X137935637Y-102721168D01*
X137994242Y-102761242D01*
X138021879Y-102826639D01*
X138009772Y-102896595D01*
X137961766Y-102948901D01*
X137896700Y-102967001D01*
X137405331Y-102967001D01*
X137398510Y-102967371D01*
X137347648Y-102972895D01*
X137332396Y-102976521D01*
X137211946Y-103021676D01*
X137196351Y-103030214D01*
X137094276Y-103106715D01*
X137081715Y-103119276D01*
X137005214Y-103221351D01*
X136996676Y-103236946D01*
X136951522Y-103357394D01*
X136947895Y-103372649D01*
X136942369Y-103423514D01*
X136942000Y-103430328D01*
X136942000Y-104052885D01*
X127381000Y-104052885D01*
X127381000Y-99230930D01*
X137292345Y-99230930D01*
X137308803Y-99426919D01*
X137363015Y-99615979D01*
X137365830Y-99621456D01*
X137365831Y-99621459D01*
X137450101Y-99785431D01*
X137452916Y-99790908D01*
X137456739Y-99795732D01*
X137456742Y-99795736D01*
X137480651Y-99825901D01*
X137575083Y-99945044D01*
X137724862Y-100072516D01*
X137896547Y-100168467D01*
X138083600Y-100229244D01*
X138278895Y-100252532D01*
X138285030Y-100252060D01*
X138285032Y-100252060D01*
X138468852Y-100237916D01*
X138468856Y-100237915D01*
X138474994Y-100237443D01*
X138664428Y-100184552D01*
X138669932Y-100181772D01*
X138669934Y-100181771D01*
X138834480Y-100098653D01*
X138834482Y-100098652D01*
X138839981Y-100095874D01*
X138994966Y-99974786D01*
X138998992Y-99970122D01*
X138998995Y-99970119D01*
X139119451Y-99830569D01*
X139119452Y-99830567D01*
X139123480Y-99825901D01*
X139220628Y-99654890D01*
X139282710Y-99468266D01*
X139307360Y-99273138D01*
X139307753Y-99245000D01*
X139288561Y-99049260D01*
X139231714Y-98860975D01*
X139139379Y-98687318D01*
X139135489Y-98682548D01*
X139135486Y-98682544D01*
X139018967Y-98539678D01*
X139018964Y-98539675D01*
X139015072Y-98534903D01*
X138998422Y-98521129D01*
X138868278Y-98413464D01*
X138868274Y-98413462D01*
X138863528Y-98409535D01*
X138690520Y-98315990D01*
X138502637Y-98257830D01*
X138496519Y-98257187D01*
X138496514Y-98257186D01*
X138313164Y-98237916D01*
X138313162Y-98237916D01*
X138307035Y-98237272D01*
X138224199Y-98244810D01*
X138117305Y-98254538D01*
X138117302Y-98254539D01*
X138111166Y-98255097D01*
X137922489Y-98310628D01*
X137748192Y-98401748D01*
X137594912Y-98524988D01*
X137590954Y-98529705D01*
X137590952Y-98529707D01*
X137508638Y-98627805D01*
X137468489Y-98675653D01*
X137373739Y-98848004D01*
X137371878Y-98853871D01*
X137371877Y-98853873D01*
X137369624Y-98860975D01*
X137314269Y-99035476D01*
X137292345Y-99230930D01*
X127381000Y-99230930D01*
X127381000Y-96690930D01*
X137292345Y-96690930D01*
X137308803Y-96886919D01*
X137363015Y-97075979D01*
X137365830Y-97081456D01*
X137365831Y-97081459D01*
X137450101Y-97245431D01*
X137452916Y-97250908D01*
X137456739Y-97255732D01*
X137456742Y-97255736D01*
X137480651Y-97285901D01*
X137575083Y-97405044D01*
X137724862Y-97532516D01*
X137896547Y-97628467D01*
X138083600Y-97689244D01*
X138278895Y-97712532D01*
X138285030Y-97712060D01*
X138285032Y-97712060D01*
X138468852Y-97697916D01*
X138468856Y-97697915D01*
X138474994Y-97697443D01*
X138664428Y-97644552D01*
X138669932Y-97641772D01*
X138669934Y-97641771D01*
X138834480Y-97558653D01*
X138834482Y-97558652D01*
X138839981Y-97555874D01*
X138994966Y-97434786D01*
X138998992Y-97430122D01*
X138998995Y-97430119D01*
X139119451Y-97290569D01*
X139119452Y-97290567D01*
X139123480Y-97285901D01*
X139220628Y-97114890D01*
X139282710Y-96928266D01*
X139307360Y-96733138D01*
X139307753Y-96705000D01*
X139288561Y-96509260D01*
X139231714Y-96320975D01*
X139139379Y-96147318D01*
X139135489Y-96142548D01*
X139135486Y-96142544D01*
X139018967Y-95999678D01*
X139018964Y-95999675D01*
X139015072Y-95994903D01*
X138998422Y-95981129D01*
X138868278Y-95873464D01*
X138868274Y-95873462D01*
X138863528Y-95869535D01*
X138690520Y-95775990D01*
X138502637Y-95717830D01*
X138496519Y-95717187D01*
X138496514Y-95717186D01*
X138313164Y-95697916D01*
X138313162Y-95697916D01*
X138307035Y-95697272D01*
X138224199Y-95704810D01*
X138117305Y-95714538D01*
X138117302Y-95714539D01*
X138111166Y-95715097D01*
X137922489Y-95770628D01*
X137748192Y-95861748D01*
X137594912Y-95984988D01*
X137590954Y-95989705D01*
X137590952Y-95989707D01*
X137508638Y-96087805D01*
X137468489Y-96135653D01*
X137373739Y-96308004D01*
X137371878Y-96313871D01*
X137371877Y-96313873D01*
X137369624Y-96320975D01*
X137314269Y-96495476D01*
X137292345Y-96690930D01*
X127381000Y-96690930D01*
X127381000Y-92519669D01*
X136942001Y-92519669D01*
X136942371Y-92526490D01*
X136947895Y-92577352D01*
X136951521Y-92592604D01*
X136996676Y-92713054D01*
X137005214Y-92728649D01*
X137081715Y-92830724D01*
X137094276Y-92843285D01*
X137196351Y-92919786D01*
X137211946Y-92928324D01*
X137332394Y-92973478D01*
X137347649Y-92977105D01*
X137398514Y-92982631D01*
X137405328Y-92983000D01*
X137889477Y-92983000D01*
X137957598Y-93003002D01*
X138004091Y-93056658D01*
X138014195Y-93126932D01*
X137984701Y-93191512D01*
X137933301Y-93224564D01*
X137934115Y-93226579D01*
X137928398Y-93228889D01*
X137922489Y-93230628D01*
X137748192Y-93321748D01*
X137594912Y-93444988D01*
X137590954Y-93449705D01*
X137590952Y-93449707D01*
X137508638Y-93547805D01*
X137468489Y-93595653D01*
X137373739Y-93768004D01*
X137371878Y-93773871D01*
X137371877Y-93773873D01*
X137369624Y-93780975D01*
X137314269Y-93955476D01*
X137292345Y-94150930D01*
X137308803Y-94346919D01*
X137363015Y-94535979D01*
X137365830Y-94541456D01*
X137365831Y-94541459D01*
X137450101Y-94705431D01*
X137452916Y-94710908D01*
X137456739Y-94715732D01*
X137456742Y-94715736D01*
X137480651Y-94745901D01*
X137575083Y-94865044D01*
X137724862Y-94992516D01*
X137896547Y-95088467D01*
X138083600Y-95149244D01*
X138278895Y-95172532D01*
X138285030Y-95172060D01*
X138285032Y-95172060D01*
X138468852Y-95157916D01*
X138468856Y-95157915D01*
X138474994Y-95157443D01*
X138664428Y-95104552D01*
X138669932Y-95101772D01*
X138669934Y-95101771D01*
X138834480Y-95018653D01*
X138834482Y-95018652D01*
X138839981Y-95015874D01*
X138994966Y-94894786D01*
X138998992Y-94890122D01*
X138998995Y-94890119D01*
X139119451Y-94750569D01*
X139119452Y-94750567D01*
X139123480Y-94745901D01*
X139220628Y-94574890D01*
X139282710Y-94388266D01*
X139307360Y-94193138D01*
X139307753Y-94165000D01*
X139288561Y-93969260D01*
X139231714Y-93780975D01*
X139139379Y-93607318D01*
X139135489Y-93602548D01*
X139135486Y-93602544D01*
X139018967Y-93459678D01*
X139018964Y-93459675D01*
X139015072Y-93454903D01*
X138998422Y-93441129D01*
X138868278Y-93333464D01*
X138868274Y-93333462D01*
X138863528Y-93329535D01*
X138690520Y-93235990D01*
X138669115Y-93229364D01*
X138609956Y-93190111D01*
X138581410Y-93125106D01*
X138592539Y-93054988D01*
X138639811Y-93002017D01*
X138706376Y-92982999D01*
X139194669Y-92982999D01*
X139201490Y-92982629D01*
X139252352Y-92977105D01*
X139267604Y-92973479D01*
X139388054Y-92928324D01*
X139403649Y-92919786D01*
X139505724Y-92843285D01*
X139518285Y-92830724D01*
X139594786Y-92728649D01*
X139603324Y-92713054D01*
X139648478Y-92592606D01*
X139652105Y-92577351D01*
X139657631Y-92526486D01*
X139658000Y-92519672D01*
X139658000Y-91897115D01*
X139653525Y-91881876D01*
X139652135Y-91880671D01*
X139644452Y-91879000D01*
X136960116Y-91879000D01*
X136944877Y-91883475D01*
X136943672Y-91884865D01*
X136942001Y-91892548D01*
X136942001Y-92519669D01*
X127381000Y-92519669D01*
X127381000Y-91352885D01*
X136942000Y-91352885D01*
X136946475Y-91368124D01*
X136947865Y-91369329D01*
X136955548Y-91371000D01*
X139639884Y-91371000D01*
X139655123Y-91366525D01*
X139656328Y-91365135D01*
X139657999Y-91357452D01*
X139657999Y-90730331D01*
X139657629Y-90723510D01*
X139652105Y-90672648D01*
X139648479Y-90657396D01*
X139603324Y-90536946D01*
X139594786Y-90521351D01*
X139518285Y-90419276D01*
X139505724Y-90406715D01*
X139403649Y-90330214D01*
X139388054Y-90321676D01*
X139267606Y-90276522D01*
X139252351Y-90272895D01*
X139201486Y-90267369D01*
X139194672Y-90267000D01*
X138710971Y-90267000D01*
X138642850Y-90246998D01*
X138596357Y-90193342D01*
X138586253Y-90123068D01*
X138615747Y-90058488D01*
X138663638Y-90024772D01*
X138664428Y-90024552D01*
X138669930Y-90021773D01*
X138669932Y-90021772D01*
X138834480Y-89938653D01*
X138834482Y-89938652D01*
X138839981Y-89935874D01*
X138994966Y-89814786D01*
X138998992Y-89810122D01*
X138998995Y-89810119D01*
X139119451Y-89670569D01*
X139119452Y-89670567D01*
X139123480Y-89665901D01*
X139220628Y-89494890D01*
X139282710Y-89308266D01*
X139307360Y-89113138D01*
X139307753Y-89085000D01*
X139288561Y-88889260D01*
X139231714Y-88700975D01*
X139139379Y-88527318D01*
X139135489Y-88522548D01*
X139135486Y-88522544D01*
X139018967Y-88379678D01*
X139018964Y-88379675D01*
X139015072Y-88374903D01*
X138998422Y-88361129D01*
X138868278Y-88253464D01*
X138868274Y-88253462D01*
X138863528Y-88249535D01*
X138690520Y-88155990D01*
X138502637Y-88097830D01*
X138496519Y-88097187D01*
X138496514Y-88097186D01*
X138313164Y-88077916D01*
X138313162Y-88077916D01*
X138307035Y-88077272D01*
X138224199Y-88084810D01*
X138117305Y-88094538D01*
X138117302Y-88094539D01*
X138111166Y-88095097D01*
X137922489Y-88150628D01*
X137748192Y-88241748D01*
X137594912Y-88364988D01*
X137590954Y-88369705D01*
X137590952Y-88369707D01*
X137508638Y-88467805D01*
X137468489Y-88515653D01*
X137373739Y-88688004D01*
X137371878Y-88693871D01*
X137371877Y-88693873D01*
X137369624Y-88700975D01*
X137314269Y-88875476D01*
X137292345Y-89070930D01*
X137308803Y-89266919D01*
X137363015Y-89455979D01*
X137365830Y-89461456D01*
X137365831Y-89461459D01*
X137450101Y-89625431D01*
X137452916Y-89630908D01*
X137456739Y-89635732D01*
X137456742Y-89635736D01*
X137480651Y-89665901D01*
X137575083Y-89785044D01*
X137724862Y-89912516D01*
X137896547Y-90008467D01*
X137935637Y-90021168D01*
X137994242Y-90061242D01*
X138021879Y-90126639D01*
X138009772Y-90196595D01*
X137961766Y-90248901D01*
X137896700Y-90267001D01*
X137405331Y-90267001D01*
X137398510Y-90267371D01*
X137347648Y-90272895D01*
X137332396Y-90276521D01*
X137211946Y-90321676D01*
X137196351Y-90330214D01*
X137094276Y-90406715D01*
X137081715Y-90419276D01*
X137005214Y-90521351D01*
X136996676Y-90536946D01*
X136951522Y-90657394D01*
X136947895Y-90672649D01*
X136942369Y-90723514D01*
X136942000Y-90730328D01*
X136942000Y-91352885D01*
X127381000Y-91352885D01*
X127381000Y-86530930D01*
X137292345Y-86530930D01*
X137308803Y-86726919D01*
X137363015Y-86915979D01*
X137365830Y-86921456D01*
X137365831Y-86921459D01*
X137450101Y-87085431D01*
X137452916Y-87090908D01*
X137456739Y-87095732D01*
X137456742Y-87095736D01*
X137480651Y-87125901D01*
X137575083Y-87245044D01*
X137724862Y-87372516D01*
X137896547Y-87468467D01*
X138083600Y-87529244D01*
X138278895Y-87552532D01*
X138285030Y-87552060D01*
X138285032Y-87552060D01*
X138468852Y-87537916D01*
X138468856Y-87537915D01*
X138474994Y-87537443D01*
X138664428Y-87484552D01*
X138669932Y-87481772D01*
X138669934Y-87481771D01*
X138834480Y-87398653D01*
X138834482Y-87398652D01*
X138839981Y-87395874D01*
X138994966Y-87274786D01*
X138998992Y-87270122D01*
X138998995Y-87270119D01*
X139119451Y-87130569D01*
X139119452Y-87130567D01*
X139123480Y-87125901D01*
X139220628Y-86954890D01*
X139282710Y-86768266D01*
X139307360Y-86573138D01*
X139307753Y-86545000D01*
X139288561Y-86349260D01*
X139231714Y-86160975D01*
X139139379Y-85987318D01*
X139135489Y-85982548D01*
X139135486Y-85982544D01*
X139018967Y-85839678D01*
X139018964Y-85839675D01*
X139015072Y-85834903D01*
X138998422Y-85821129D01*
X138868278Y-85713464D01*
X138868274Y-85713462D01*
X138863528Y-85709535D01*
X138690520Y-85615990D01*
X138502637Y-85557830D01*
X138496519Y-85557187D01*
X138496514Y-85557186D01*
X138313164Y-85537916D01*
X138313162Y-85537916D01*
X138307035Y-85537272D01*
X138224199Y-85544810D01*
X138117305Y-85554538D01*
X138117302Y-85554539D01*
X138111166Y-85555097D01*
X137922489Y-85610628D01*
X137748192Y-85701748D01*
X137594912Y-85824988D01*
X137590954Y-85829705D01*
X137590952Y-85829707D01*
X137508638Y-85927805D01*
X137468489Y-85975653D01*
X137373739Y-86148004D01*
X137371878Y-86153871D01*
X137371877Y-86153873D01*
X137369624Y-86160975D01*
X137314269Y-86335476D01*
X137292345Y-86530930D01*
X127381000Y-86530930D01*
X127381000Y-83990930D01*
X137292345Y-83990930D01*
X137308803Y-84186919D01*
X137363015Y-84375979D01*
X137365830Y-84381456D01*
X137365831Y-84381459D01*
X137450101Y-84545431D01*
X137452916Y-84550908D01*
X137456739Y-84555732D01*
X137456742Y-84555736D01*
X137480651Y-84585901D01*
X137575083Y-84705044D01*
X137724862Y-84832516D01*
X137896547Y-84928467D01*
X138083600Y-84989244D01*
X138278895Y-85012532D01*
X138285030Y-85012060D01*
X138285032Y-85012060D01*
X138468852Y-84997916D01*
X138468856Y-84997915D01*
X138474994Y-84997443D01*
X138664428Y-84944552D01*
X138669932Y-84941772D01*
X138669934Y-84941771D01*
X138834480Y-84858653D01*
X138834482Y-84858652D01*
X138839981Y-84855874D01*
X138994966Y-84734786D01*
X138998992Y-84730122D01*
X138998995Y-84730119D01*
X139119451Y-84590569D01*
X139119452Y-84590567D01*
X139123480Y-84585901D01*
X139220628Y-84414890D01*
X139282710Y-84228266D01*
X139307360Y-84033138D01*
X139307753Y-84005000D01*
X139288561Y-83809260D01*
X139231714Y-83620975D01*
X139139379Y-83447318D01*
X139135489Y-83442548D01*
X139135486Y-83442544D01*
X139018967Y-83299678D01*
X139018964Y-83299675D01*
X139015072Y-83294903D01*
X138998422Y-83281129D01*
X138868278Y-83173464D01*
X138868274Y-83173462D01*
X138863528Y-83169535D01*
X138690520Y-83075990D01*
X138502637Y-83017830D01*
X138496519Y-83017187D01*
X138496514Y-83017186D01*
X138313164Y-82997916D01*
X138313162Y-82997916D01*
X138307035Y-82997272D01*
X138224199Y-83004810D01*
X138117305Y-83014538D01*
X138117302Y-83014539D01*
X138111166Y-83015097D01*
X137922489Y-83070628D01*
X137748192Y-83161748D01*
X137594912Y-83284988D01*
X137590954Y-83289705D01*
X137590952Y-83289707D01*
X137508638Y-83387805D01*
X137468489Y-83435653D01*
X137373739Y-83608004D01*
X137371878Y-83613871D01*
X137371877Y-83613873D01*
X137369624Y-83620975D01*
X137314269Y-83795476D01*
X137292345Y-83990930D01*
X127381000Y-83990930D01*
X127381000Y-79819669D01*
X136942001Y-79819669D01*
X136942371Y-79826490D01*
X136947895Y-79877352D01*
X136951521Y-79892604D01*
X136996676Y-80013054D01*
X137005214Y-80028649D01*
X137081715Y-80130724D01*
X137094276Y-80143285D01*
X137196351Y-80219786D01*
X137211946Y-80228324D01*
X137332394Y-80273478D01*
X137347649Y-80277105D01*
X137398514Y-80282631D01*
X137405328Y-80283000D01*
X137889477Y-80283000D01*
X137957598Y-80303002D01*
X138004091Y-80356658D01*
X138014195Y-80426932D01*
X137984701Y-80491512D01*
X137933301Y-80524564D01*
X137934115Y-80526579D01*
X137928398Y-80528889D01*
X137922489Y-80530628D01*
X137748192Y-80621748D01*
X137594912Y-80744988D01*
X137590954Y-80749705D01*
X137590952Y-80749707D01*
X137508638Y-80847805D01*
X137468489Y-80895653D01*
X137373739Y-81068004D01*
X137371878Y-81073871D01*
X137371877Y-81073873D01*
X137369624Y-81080975D01*
X137314269Y-81255476D01*
X137292345Y-81450930D01*
X137308803Y-81646919D01*
X137363015Y-81835979D01*
X137365830Y-81841456D01*
X137365831Y-81841459D01*
X137450101Y-82005431D01*
X137452916Y-82010908D01*
X137456739Y-82015732D01*
X137456742Y-82015736D01*
X137480651Y-82045901D01*
X137575083Y-82165044D01*
X137724862Y-82292516D01*
X137896547Y-82388467D01*
X138083600Y-82449244D01*
X138278895Y-82472532D01*
X138285030Y-82472060D01*
X138285032Y-82472060D01*
X138468852Y-82457916D01*
X138468856Y-82457915D01*
X138474994Y-82457443D01*
X138664428Y-82404552D01*
X138669932Y-82401772D01*
X138669934Y-82401771D01*
X138834480Y-82318653D01*
X138834482Y-82318652D01*
X138839981Y-82315874D01*
X138994966Y-82194786D01*
X138998992Y-82190122D01*
X138998995Y-82190119D01*
X139119451Y-82050569D01*
X139119452Y-82050567D01*
X139123480Y-82045901D01*
X139220628Y-81874890D01*
X139282710Y-81688266D01*
X139307360Y-81493138D01*
X139307753Y-81465000D01*
X139288561Y-81269260D01*
X139231714Y-81080975D01*
X139139379Y-80907318D01*
X139135489Y-80902548D01*
X139135486Y-80902544D01*
X139018967Y-80759678D01*
X139018964Y-80759675D01*
X139015072Y-80754903D01*
X138998422Y-80741129D01*
X138868278Y-80633464D01*
X138868274Y-80633462D01*
X138863528Y-80629535D01*
X138690520Y-80535990D01*
X138669115Y-80529364D01*
X138609956Y-80490111D01*
X138581410Y-80425106D01*
X138592539Y-80354988D01*
X138639811Y-80302017D01*
X138706376Y-80282999D01*
X139194669Y-80282999D01*
X139201490Y-80282629D01*
X139252352Y-80277105D01*
X139267604Y-80273479D01*
X139388054Y-80228324D01*
X139403649Y-80219786D01*
X139505724Y-80143285D01*
X139518285Y-80130724D01*
X139594786Y-80028649D01*
X139603324Y-80013054D01*
X139648478Y-79892606D01*
X139652105Y-79877351D01*
X139657631Y-79826486D01*
X139658000Y-79819672D01*
X139658000Y-79197115D01*
X139653525Y-79181876D01*
X139652135Y-79180671D01*
X139644452Y-79179000D01*
X136960116Y-79179000D01*
X136944877Y-79183475D01*
X136943672Y-79184865D01*
X136942001Y-79192548D01*
X136942001Y-79819669D01*
X127381000Y-79819669D01*
X127381000Y-78652885D01*
X136942000Y-78652885D01*
X136946475Y-78668124D01*
X136947865Y-78669329D01*
X136955548Y-78671000D01*
X139639884Y-78671000D01*
X139655123Y-78666525D01*
X139656328Y-78665135D01*
X139657999Y-78657452D01*
X139657999Y-78030331D01*
X139657629Y-78023510D01*
X139652105Y-77972648D01*
X139648479Y-77957396D01*
X139603324Y-77836946D01*
X139594786Y-77821351D01*
X139518285Y-77719276D01*
X139505724Y-77706715D01*
X139403649Y-77630214D01*
X139388054Y-77621676D01*
X139267606Y-77576522D01*
X139252351Y-77572895D01*
X139201486Y-77567369D01*
X139194672Y-77567000D01*
X138710971Y-77567000D01*
X138642850Y-77546998D01*
X138596357Y-77493342D01*
X138586253Y-77423068D01*
X138615747Y-77358488D01*
X138663638Y-77324772D01*
X138664428Y-77324552D01*
X138669930Y-77321773D01*
X138669932Y-77321772D01*
X138834480Y-77238653D01*
X138834482Y-77238652D01*
X138839981Y-77235874D01*
X138994966Y-77114786D01*
X138998992Y-77110122D01*
X138998995Y-77110119D01*
X139119451Y-76970569D01*
X139119452Y-76970567D01*
X139123480Y-76965901D01*
X139220628Y-76794890D01*
X139282710Y-76608266D01*
X139307360Y-76413138D01*
X139307753Y-76385000D01*
X139288561Y-76189260D01*
X139231714Y-76000975D01*
X139139379Y-75827318D01*
X139135489Y-75822548D01*
X139135486Y-75822544D01*
X139018967Y-75679678D01*
X139018964Y-75679675D01*
X139015072Y-75674903D01*
X138998422Y-75661129D01*
X138868278Y-75553464D01*
X138868274Y-75553462D01*
X138863528Y-75549535D01*
X138690520Y-75455990D01*
X138502637Y-75397830D01*
X138496519Y-75397187D01*
X138496514Y-75397186D01*
X138313164Y-75377916D01*
X138313162Y-75377916D01*
X138307035Y-75377272D01*
X138224199Y-75384810D01*
X138117305Y-75394538D01*
X138117302Y-75394539D01*
X138111166Y-75395097D01*
X137922489Y-75450628D01*
X137748192Y-75541748D01*
X137594912Y-75664988D01*
X137590954Y-75669705D01*
X137590952Y-75669707D01*
X137508638Y-75767805D01*
X137468489Y-75815653D01*
X137373739Y-75988004D01*
X137371878Y-75993871D01*
X137371877Y-75993873D01*
X137369624Y-76000975D01*
X137314269Y-76175476D01*
X137292345Y-76370930D01*
X137308803Y-76566919D01*
X137363015Y-76755979D01*
X137365830Y-76761456D01*
X137365831Y-76761459D01*
X137450101Y-76925431D01*
X137452916Y-76930908D01*
X137456739Y-76935732D01*
X137456742Y-76935736D01*
X137480651Y-76965901D01*
X137575083Y-77085044D01*
X137724862Y-77212516D01*
X137896547Y-77308467D01*
X137935637Y-77321168D01*
X137994242Y-77361242D01*
X138021879Y-77426639D01*
X138009772Y-77496595D01*
X137961766Y-77548901D01*
X137896700Y-77567001D01*
X137405331Y-77567001D01*
X137398510Y-77567371D01*
X137347648Y-77572895D01*
X137332396Y-77576521D01*
X137211946Y-77621676D01*
X137196351Y-77630214D01*
X137094276Y-77706715D01*
X137081715Y-77719276D01*
X137005214Y-77821351D01*
X136996676Y-77836946D01*
X136951522Y-77957394D01*
X136947895Y-77972649D01*
X136942369Y-78023514D01*
X136942000Y-78030328D01*
X136942000Y-78652885D01*
X127381000Y-78652885D01*
X127381000Y-73830930D01*
X137292345Y-73830930D01*
X137308803Y-74026919D01*
X137310502Y-74032844D01*
X137356861Y-74194516D01*
X137363015Y-74215979D01*
X137365830Y-74221456D01*
X137365831Y-74221459D01*
X137442782Y-74371189D01*
X137452916Y-74390908D01*
X137456739Y-74395732D01*
X137456742Y-74395736D01*
X137568925Y-74537275D01*
X137575083Y-74545044D01*
X137724862Y-74672516D01*
X137896547Y-74768467D01*
X138083600Y-74829244D01*
X138278895Y-74852532D01*
X138285030Y-74852060D01*
X138285032Y-74852060D01*
X138468852Y-74837916D01*
X138468856Y-74837915D01*
X138474994Y-74837443D01*
X138664428Y-74784552D01*
X138669932Y-74781772D01*
X138669934Y-74781771D01*
X138834480Y-74698653D01*
X138834482Y-74698652D01*
X138839981Y-74695874D01*
X138994966Y-74574786D01*
X138998992Y-74570122D01*
X138998995Y-74570119D01*
X139119451Y-74430569D01*
X139119452Y-74430567D01*
X139123480Y-74425901D01*
X139140678Y-74395628D01*
X139167592Y-74348250D01*
X139220628Y-74254890D01*
X139282710Y-74068266D01*
X139307360Y-73873138D01*
X139307753Y-73845000D01*
X139288561Y-73649260D01*
X139231714Y-73460975D01*
X139139379Y-73287318D01*
X139135489Y-73282548D01*
X139135486Y-73282544D01*
X139018967Y-73139678D01*
X139018964Y-73139675D01*
X139015072Y-73134903D01*
X138998422Y-73121129D01*
X138868278Y-73013464D01*
X138868274Y-73013462D01*
X138863528Y-73009535D01*
X138690520Y-72915990D01*
X138502637Y-72857830D01*
X138496519Y-72857187D01*
X138496514Y-72857186D01*
X138313164Y-72837916D01*
X138313162Y-72837916D01*
X138307035Y-72837272D01*
X138224199Y-72844810D01*
X138117305Y-72854538D01*
X138117302Y-72854539D01*
X138111166Y-72855097D01*
X137922489Y-72910628D01*
X137748192Y-73001748D01*
X137594912Y-73124988D01*
X137590954Y-73129705D01*
X137590952Y-73129707D01*
X137508638Y-73227805D01*
X137468489Y-73275653D01*
X137373739Y-73448004D01*
X137371878Y-73453871D01*
X137371877Y-73453873D01*
X137369624Y-73460975D01*
X137314269Y-73635476D01*
X137292345Y-73830930D01*
X127381000Y-73830930D01*
X127381000Y-71290930D01*
X137292345Y-71290930D01*
X137308803Y-71486919D01*
X137363015Y-71675979D01*
X137365830Y-71681456D01*
X137365831Y-71681459D01*
X137449438Y-71844140D01*
X137452916Y-71850908D01*
X137456739Y-71855732D01*
X137456742Y-71855736D01*
X137480651Y-71885901D01*
X137575083Y-72005044D01*
X137724862Y-72132516D01*
X137896547Y-72228467D01*
X138083600Y-72289244D01*
X138278895Y-72312532D01*
X138285030Y-72312060D01*
X138285032Y-72312060D01*
X138468852Y-72297916D01*
X138468856Y-72297915D01*
X138474994Y-72297443D01*
X138664428Y-72244552D01*
X138669932Y-72241772D01*
X138669934Y-72241771D01*
X138834480Y-72158653D01*
X138834482Y-72158652D01*
X138839981Y-72155874D01*
X138994966Y-72034786D01*
X138998992Y-72030122D01*
X138998995Y-72030119D01*
X139119451Y-71890569D01*
X139119452Y-71890567D01*
X139123480Y-71885901D01*
X139220628Y-71714890D01*
X139282710Y-71528266D01*
X139307360Y-71333138D01*
X139307753Y-71305000D01*
X139288561Y-71109260D01*
X139231714Y-70920975D01*
X139139379Y-70747318D01*
X139135489Y-70742548D01*
X139135486Y-70742544D01*
X139018967Y-70599678D01*
X139018964Y-70599675D01*
X139015072Y-70594903D01*
X138998422Y-70581129D01*
X138868278Y-70473464D01*
X138868274Y-70473462D01*
X138863528Y-70469535D01*
X138690520Y-70375990D01*
X138502637Y-70317830D01*
X138496519Y-70317187D01*
X138496514Y-70317186D01*
X138313164Y-70297916D01*
X138313162Y-70297916D01*
X138307035Y-70297272D01*
X138224199Y-70304810D01*
X138117305Y-70314538D01*
X138117302Y-70314539D01*
X138111166Y-70315097D01*
X137922489Y-70370628D01*
X137748192Y-70461748D01*
X137594912Y-70584988D01*
X137590954Y-70589705D01*
X137590952Y-70589707D01*
X137508638Y-70687805D01*
X137468489Y-70735653D01*
X137373739Y-70908004D01*
X137371878Y-70913871D01*
X137371877Y-70913873D01*
X137369624Y-70920975D01*
X137314269Y-71095476D01*
X137292345Y-71290930D01*
X127381000Y-71290930D01*
X127381000Y-67119669D01*
X136942001Y-67119669D01*
X136942371Y-67126490D01*
X136947895Y-67177352D01*
X136951521Y-67192604D01*
X136996676Y-67313054D01*
X137005214Y-67328649D01*
X137081715Y-67430724D01*
X137094276Y-67443285D01*
X137196351Y-67519786D01*
X137211946Y-67528324D01*
X137332394Y-67573478D01*
X137347649Y-67577105D01*
X137398514Y-67582631D01*
X137405328Y-67583000D01*
X137889477Y-67583000D01*
X137957598Y-67603002D01*
X138004091Y-67656658D01*
X138014195Y-67726932D01*
X137984701Y-67791512D01*
X137933301Y-67824564D01*
X137934115Y-67826579D01*
X137928398Y-67828889D01*
X137922489Y-67830628D01*
X137748192Y-67921748D01*
X137594912Y-68044988D01*
X137590954Y-68049705D01*
X137590952Y-68049707D01*
X137508638Y-68147805D01*
X137468489Y-68195653D01*
X137373739Y-68368004D01*
X137371878Y-68373871D01*
X137371877Y-68373873D01*
X137369624Y-68380975D01*
X137314269Y-68555476D01*
X137292345Y-68750930D01*
X137308803Y-68946919D01*
X137363015Y-69135979D01*
X137365830Y-69141456D01*
X137365831Y-69141459D01*
X137450101Y-69305431D01*
X137452916Y-69310908D01*
X137456739Y-69315732D01*
X137456742Y-69315736D01*
X137480651Y-69345901D01*
X137575083Y-69465044D01*
X137724862Y-69592516D01*
X137896547Y-69688467D01*
X138083600Y-69749244D01*
X138278895Y-69772532D01*
X138285030Y-69772060D01*
X138285032Y-69772060D01*
X138468852Y-69757916D01*
X138468856Y-69757915D01*
X138474994Y-69757443D01*
X138664428Y-69704552D01*
X138669932Y-69701772D01*
X138669934Y-69701771D01*
X138834480Y-69618653D01*
X138834482Y-69618652D01*
X138839981Y-69615874D01*
X138994966Y-69494786D01*
X138998992Y-69490122D01*
X138998995Y-69490119D01*
X139119451Y-69350569D01*
X139119452Y-69350567D01*
X139123480Y-69345901D01*
X139220628Y-69174890D01*
X139282710Y-68988266D01*
X139307360Y-68793138D01*
X139307753Y-68765000D01*
X139288561Y-68569260D01*
X139231714Y-68380975D01*
X139139379Y-68207318D01*
X139135489Y-68202548D01*
X139135486Y-68202544D01*
X139018967Y-68059678D01*
X139018964Y-68059675D01*
X139015072Y-68054903D01*
X138998422Y-68041129D01*
X138868278Y-67933464D01*
X138868274Y-67933462D01*
X138863528Y-67929535D01*
X138690520Y-67835990D01*
X138669115Y-67829364D01*
X138609956Y-67790111D01*
X138581410Y-67725106D01*
X138592539Y-67654988D01*
X138639811Y-67602017D01*
X138706376Y-67582999D01*
X139194669Y-67582999D01*
X139201490Y-67582629D01*
X139252352Y-67577105D01*
X139267604Y-67573479D01*
X139388054Y-67528324D01*
X139403649Y-67519786D01*
X139505724Y-67443285D01*
X139518285Y-67430724D01*
X139594786Y-67328649D01*
X139603324Y-67313054D01*
X139648478Y-67192606D01*
X139652105Y-67177351D01*
X139657631Y-67126486D01*
X139658000Y-67119672D01*
X139658000Y-67119669D01*
X154722001Y-67119669D01*
X154722371Y-67126490D01*
X154727895Y-67177352D01*
X154731521Y-67192604D01*
X154776676Y-67313054D01*
X154785214Y-67328649D01*
X154861715Y-67430724D01*
X154874276Y-67443285D01*
X154976351Y-67519786D01*
X154991946Y-67528324D01*
X155112394Y-67573478D01*
X155127649Y-67577105D01*
X155178514Y-67582631D01*
X155185328Y-67583000D01*
X155669477Y-67583000D01*
X155737598Y-67603002D01*
X155784091Y-67656658D01*
X155794195Y-67726932D01*
X155764701Y-67791512D01*
X155713301Y-67824564D01*
X155714115Y-67826579D01*
X155708398Y-67828889D01*
X155702489Y-67830628D01*
X155528192Y-67921748D01*
X155374912Y-68044988D01*
X155370954Y-68049705D01*
X155370952Y-68049707D01*
X155288638Y-68147805D01*
X155248489Y-68195653D01*
X155153739Y-68368004D01*
X155151878Y-68373871D01*
X155151877Y-68373873D01*
X155149624Y-68380975D01*
X155094269Y-68555476D01*
X155072345Y-68750930D01*
X155088803Y-68946919D01*
X155143015Y-69135979D01*
X155145830Y-69141456D01*
X155145831Y-69141459D01*
X155230101Y-69305431D01*
X155232916Y-69310908D01*
X155236739Y-69315732D01*
X155236742Y-69315736D01*
X155260651Y-69345901D01*
X155355083Y-69465044D01*
X155504862Y-69592516D01*
X155676547Y-69688467D01*
X155863600Y-69749244D01*
X156058895Y-69772532D01*
X156065030Y-69772060D01*
X156065032Y-69772060D01*
X156248852Y-69757916D01*
X156248856Y-69757915D01*
X156254994Y-69757443D01*
X156444428Y-69704552D01*
X156449932Y-69701772D01*
X156449934Y-69701771D01*
X156614480Y-69618653D01*
X156614482Y-69618652D01*
X156619981Y-69615874D01*
X156774966Y-69494786D01*
X156778992Y-69490122D01*
X156778995Y-69490119D01*
X156899451Y-69350569D01*
X156899452Y-69350567D01*
X156903480Y-69345901D01*
X157000628Y-69174890D01*
X157062710Y-68988266D01*
X157087360Y-68793138D01*
X157087753Y-68765000D01*
X157068561Y-68569260D01*
X157011714Y-68380975D01*
X156919379Y-68207318D01*
X156915489Y-68202548D01*
X156915486Y-68202544D01*
X156798967Y-68059678D01*
X156798964Y-68059675D01*
X156795072Y-68054903D01*
X156778422Y-68041129D01*
X156648278Y-67933464D01*
X156648274Y-67933462D01*
X156643528Y-67929535D01*
X156470520Y-67835990D01*
X156449115Y-67829364D01*
X156389956Y-67790111D01*
X156361410Y-67725106D01*
X156372539Y-67654988D01*
X156419811Y-67602017D01*
X156486376Y-67582999D01*
X156974669Y-67582999D01*
X156981490Y-67582629D01*
X157032352Y-67577105D01*
X157047604Y-67573479D01*
X157168054Y-67528324D01*
X157183649Y-67519786D01*
X157285724Y-67443285D01*
X157298285Y-67430724D01*
X157374786Y-67328649D01*
X157383324Y-67313054D01*
X157428478Y-67192606D01*
X157432105Y-67177351D01*
X157437631Y-67126486D01*
X157438000Y-67119672D01*
X157438000Y-66497115D01*
X157433525Y-66481876D01*
X157432135Y-66480671D01*
X157424452Y-66479000D01*
X154740116Y-66479000D01*
X154724877Y-66483475D01*
X154723672Y-66484865D01*
X154722001Y-66492548D01*
X154722001Y-67119669D01*
X139658000Y-67119669D01*
X139658000Y-66497115D01*
X139653525Y-66481876D01*
X139652135Y-66480671D01*
X139644452Y-66479000D01*
X136960116Y-66479000D01*
X136944877Y-66483475D01*
X136943672Y-66484865D01*
X136942001Y-66492548D01*
X136942001Y-67119669D01*
X127381000Y-67119669D01*
X127381000Y-65952885D01*
X136942000Y-65952885D01*
X136946475Y-65968124D01*
X136947865Y-65969329D01*
X136955548Y-65971000D01*
X139639884Y-65971000D01*
X139655123Y-65966525D01*
X139656328Y-65965135D01*
X139657999Y-65957452D01*
X139657999Y-65952885D01*
X154722000Y-65952885D01*
X154726475Y-65968124D01*
X154727865Y-65969329D01*
X154735548Y-65971000D01*
X157419884Y-65971000D01*
X157435123Y-65966525D01*
X157436328Y-65965135D01*
X157437999Y-65957452D01*
X157437999Y-65330331D01*
X157437629Y-65323510D01*
X157432105Y-65272648D01*
X157428479Y-65257396D01*
X157383324Y-65136946D01*
X157374786Y-65121351D01*
X157298285Y-65019276D01*
X157285724Y-65006715D01*
X157183649Y-64930214D01*
X157168054Y-64921676D01*
X157047606Y-64876522D01*
X157032351Y-64872895D01*
X156981486Y-64867369D01*
X156974672Y-64867000D01*
X156490971Y-64867000D01*
X156422850Y-64846998D01*
X156376357Y-64793342D01*
X156366253Y-64723068D01*
X156395747Y-64658488D01*
X156443638Y-64624772D01*
X156444428Y-64624552D01*
X156449930Y-64621773D01*
X156449932Y-64621772D01*
X156614480Y-64538653D01*
X156614482Y-64538652D01*
X156619981Y-64535874D01*
X156774966Y-64414786D01*
X156778992Y-64410122D01*
X156778995Y-64410119D01*
X156899451Y-64270569D01*
X156899452Y-64270567D01*
X156903480Y-64265901D01*
X157000628Y-64094890D01*
X157062710Y-63908266D01*
X157087360Y-63713138D01*
X157087753Y-63685000D01*
X157068561Y-63489260D01*
X157011714Y-63300975D01*
X156965546Y-63214146D01*
X156922273Y-63132760D01*
X156922271Y-63132757D01*
X156919379Y-63127318D01*
X156915489Y-63122548D01*
X156915486Y-63122544D01*
X156798967Y-62979678D01*
X156798964Y-62979675D01*
X156795072Y-62974903D01*
X156778422Y-62961129D01*
X156648278Y-62853464D01*
X156648274Y-62853462D01*
X156643528Y-62849535D01*
X156470520Y-62755990D01*
X156282637Y-62697830D01*
X156276519Y-62697187D01*
X156276514Y-62697186D01*
X156093164Y-62677916D01*
X156093162Y-62677916D01*
X156087035Y-62677272D01*
X156004199Y-62684810D01*
X155897305Y-62694538D01*
X155897302Y-62694539D01*
X155891166Y-62695097D01*
X155702489Y-62750628D01*
X155528192Y-62841748D01*
X155374912Y-62964988D01*
X155370954Y-62969705D01*
X155370952Y-62969707D01*
X155348762Y-62996152D01*
X155248489Y-63115653D01*
X155153739Y-63288004D01*
X155151878Y-63293871D01*
X155151877Y-63293873D01*
X155147753Y-63306875D01*
X155094269Y-63475476D01*
X155072345Y-63670930D01*
X155088803Y-63866919D01*
X155090502Y-63872844D01*
X155115676Y-63960635D01*
X155143015Y-64055979D01*
X155145830Y-64061456D01*
X155145831Y-64061459D01*
X155188748Y-64144966D01*
X155232916Y-64230908D01*
X155236739Y-64235732D01*
X155236742Y-64235736D01*
X155257762Y-64262256D01*
X155355083Y-64385044D01*
X155504862Y-64512516D01*
X155676547Y-64608467D01*
X155715637Y-64621168D01*
X155774242Y-64661242D01*
X155801879Y-64726639D01*
X155789772Y-64796595D01*
X155741766Y-64848901D01*
X155676700Y-64867001D01*
X155185331Y-64867001D01*
X155178510Y-64867371D01*
X155127648Y-64872895D01*
X155112396Y-64876521D01*
X154991946Y-64921676D01*
X154976351Y-64930214D01*
X154874276Y-65006715D01*
X154861715Y-65019276D01*
X154785214Y-65121351D01*
X154776676Y-65136946D01*
X154731522Y-65257394D01*
X154727895Y-65272649D01*
X154722369Y-65323514D01*
X154722000Y-65330328D01*
X154722000Y-65952885D01*
X139657999Y-65952885D01*
X139657999Y-65330331D01*
X139657629Y-65323510D01*
X139652105Y-65272648D01*
X139648479Y-65257396D01*
X139603324Y-65136946D01*
X139594786Y-65121351D01*
X139518285Y-65019276D01*
X139505724Y-65006715D01*
X139403649Y-64930214D01*
X139388054Y-64921676D01*
X139267606Y-64876522D01*
X139252351Y-64872895D01*
X139201486Y-64867369D01*
X139194672Y-64867000D01*
X138710971Y-64867000D01*
X138642850Y-64846998D01*
X138596357Y-64793342D01*
X138586253Y-64723068D01*
X138615747Y-64658488D01*
X138663638Y-64624772D01*
X138664428Y-64624552D01*
X138669930Y-64621773D01*
X138669932Y-64621772D01*
X138834480Y-64538653D01*
X138834482Y-64538652D01*
X138839981Y-64535874D01*
X138994966Y-64414786D01*
X138998992Y-64410122D01*
X138998995Y-64410119D01*
X139047327Y-64354126D01*
X143760541Y-64354126D01*
X143790935Y-64555097D01*
X143861119Y-64745852D01*
X143864479Y-64751272D01*
X143864480Y-64751273D01*
X143964863Y-64913176D01*
X143964866Y-64913180D01*
X143968226Y-64918599D01*
X143972612Y-64923237D01*
X144063432Y-65019276D01*
X144107881Y-65066280D01*
X144274379Y-65182863D01*
X144460919Y-65263586D01*
X144504301Y-65272649D01*
X144655144Y-65304162D01*
X144655149Y-65304163D01*
X144659880Y-65305151D01*
X144664762Y-65305407D01*
X144664871Y-65305413D01*
X144664887Y-65305413D01*
X144666539Y-65305500D01*
X144815800Y-65305500D01*
X144863793Y-65300625D01*
X144960868Y-65290765D01*
X144960870Y-65290765D01*
X144967216Y-65290120D01*
X145161172Y-65229338D01*
X145338944Y-65130797D01*
X145493271Y-64998523D01*
X145617848Y-64837919D01*
X145707587Y-64655545D01*
X145715660Y-64624552D01*
X145757212Y-64465034D01*
X145757212Y-64465031D01*
X145758822Y-64458852D01*
X145764310Y-64354126D01*
X148610541Y-64354126D01*
X148640935Y-64555097D01*
X148711119Y-64745852D01*
X148714479Y-64751272D01*
X148714480Y-64751273D01*
X148814863Y-64913176D01*
X148814866Y-64913180D01*
X148818226Y-64918599D01*
X148822612Y-64923237D01*
X148913432Y-65019276D01*
X148957881Y-65066280D01*
X149124379Y-65182863D01*
X149310919Y-65263586D01*
X149354301Y-65272649D01*
X149505144Y-65304162D01*
X149505149Y-65304163D01*
X149509880Y-65305151D01*
X149514762Y-65305407D01*
X149514871Y-65305413D01*
X149514887Y-65305413D01*
X149516539Y-65305500D01*
X149665800Y-65305500D01*
X149713793Y-65300625D01*
X149810868Y-65290765D01*
X149810870Y-65290765D01*
X149817216Y-65290120D01*
X150011172Y-65229338D01*
X150188944Y-65130797D01*
X150343271Y-64998523D01*
X150467848Y-64837919D01*
X150557587Y-64655545D01*
X150565660Y-64624552D01*
X150607212Y-64465034D01*
X150607212Y-64465031D01*
X150608822Y-64458852D01*
X150619459Y-64255874D01*
X150589065Y-64054903D01*
X150518881Y-63864148D01*
X150465345Y-63777802D01*
X150415137Y-63696824D01*
X150415134Y-63696820D01*
X150411774Y-63691401D01*
X150272119Y-63543720D01*
X150105621Y-63427137D01*
X149919081Y-63346414D01*
X149873053Y-63336798D01*
X149724856Y-63305838D01*
X149724851Y-63305837D01*
X149720120Y-63304849D01*
X149715238Y-63304593D01*
X149715129Y-63304587D01*
X149715113Y-63304587D01*
X149713461Y-63304500D01*
X149564200Y-63304500D01*
X149516207Y-63309375D01*
X149419132Y-63319235D01*
X149419130Y-63319235D01*
X149412784Y-63319880D01*
X149218828Y-63380662D01*
X149041056Y-63479203D01*
X148886729Y-63611477D01*
X148762152Y-63772081D01*
X148672413Y-63954455D01*
X148670804Y-63960633D01*
X148670803Y-63960635D01*
X148644603Y-64061220D01*
X148621178Y-64151148D01*
X148610541Y-64354126D01*
X145764310Y-64354126D01*
X145769459Y-64255874D01*
X145739065Y-64054903D01*
X145668881Y-63864148D01*
X145615345Y-63777802D01*
X145565137Y-63696824D01*
X145565134Y-63696820D01*
X145561774Y-63691401D01*
X145422119Y-63543720D01*
X145255621Y-63427137D01*
X145069081Y-63346414D01*
X145023053Y-63336798D01*
X144874856Y-63305838D01*
X144874851Y-63305837D01*
X144870120Y-63304849D01*
X144865238Y-63304593D01*
X144865129Y-63304587D01*
X144865113Y-63304587D01*
X144863461Y-63304500D01*
X144714200Y-63304500D01*
X144666207Y-63309375D01*
X144569132Y-63319235D01*
X144569130Y-63319235D01*
X144562784Y-63319880D01*
X144368828Y-63380662D01*
X144191056Y-63479203D01*
X144036729Y-63611477D01*
X143912152Y-63772081D01*
X143822413Y-63954455D01*
X143820804Y-63960633D01*
X143820803Y-63960635D01*
X143794603Y-64061220D01*
X143771178Y-64151148D01*
X143760541Y-64354126D01*
X139047327Y-64354126D01*
X139119451Y-64270569D01*
X139119452Y-64270567D01*
X139123480Y-64265901D01*
X139220628Y-64094890D01*
X139282710Y-63908266D01*
X139307360Y-63713138D01*
X139307753Y-63685000D01*
X139288561Y-63489260D01*
X139231714Y-63300975D01*
X139185546Y-63214146D01*
X139142273Y-63132760D01*
X139142271Y-63132757D01*
X139139379Y-63127318D01*
X139135489Y-63122548D01*
X139135486Y-63122544D01*
X139018967Y-62979678D01*
X139018964Y-62979675D01*
X139015072Y-62974903D01*
X138998422Y-62961129D01*
X138868278Y-62853464D01*
X138868274Y-62853462D01*
X138863528Y-62849535D01*
X138690520Y-62755990D01*
X138502637Y-62697830D01*
X138496519Y-62697187D01*
X138496514Y-62697186D01*
X138313164Y-62677916D01*
X138313162Y-62677916D01*
X138307035Y-62677272D01*
X138224199Y-62684810D01*
X138117305Y-62694538D01*
X138117302Y-62694539D01*
X138111166Y-62695097D01*
X137922489Y-62750628D01*
X137748192Y-62841748D01*
X137594912Y-62964988D01*
X137590954Y-62969705D01*
X137590952Y-62969707D01*
X137568762Y-62996152D01*
X137468489Y-63115653D01*
X137373739Y-63288004D01*
X137371878Y-63293871D01*
X137371877Y-63293873D01*
X137367753Y-63306875D01*
X137314269Y-63475476D01*
X137292345Y-63670930D01*
X137308803Y-63866919D01*
X137310502Y-63872844D01*
X137335676Y-63960635D01*
X137363015Y-64055979D01*
X137365830Y-64061456D01*
X137365831Y-64061459D01*
X137408748Y-64144966D01*
X137452916Y-64230908D01*
X137456739Y-64235732D01*
X137456742Y-64235736D01*
X137477762Y-64262256D01*
X137575083Y-64385044D01*
X137724862Y-64512516D01*
X137896547Y-64608467D01*
X137935637Y-64621168D01*
X137994242Y-64661242D01*
X138021879Y-64726639D01*
X138009772Y-64796595D01*
X137961766Y-64848901D01*
X137896700Y-64867001D01*
X137405331Y-64867001D01*
X137398510Y-64867371D01*
X137347648Y-64872895D01*
X137332396Y-64876521D01*
X137211946Y-64921676D01*
X137196351Y-64930214D01*
X137094276Y-65006715D01*
X137081715Y-65019276D01*
X137005214Y-65121351D01*
X136996676Y-65136946D01*
X136951522Y-65257394D01*
X136947895Y-65272649D01*
X136942369Y-65323514D01*
X136942000Y-65330328D01*
X136942000Y-65952885D01*
X127381000Y-65952885D01*
X127381000Y-62000000D01*
X128694532Y-62000000D01*
X128714365Y-62226692D01*
X128715789Y-62232005D01*
X128715789Y-62232007D01*
X128763772Y-62411081D01*
X128773261Y-62446496D01*
X128869432Y-62652734D01*
X128999953Y-62839139D01*
X129160861Y-63000047D01*
X129347266Y-63130568D01*
X129352244Y-63132889D01*
X129352247Y-63132891D01*
X129548522Y-63224416D01*
X129553504Y-63226739D01*
X129558812Y-63228161D01*
X129558814Y-63228162D01*
X129767993Y-63284211D01*
X129767995Y-63284211D01*
X129773308Y-63285635D01*
X129867469Y-63293873D01*
X129940492Y-63300262D01*
X129940499Y-63300262D01*
X129943216Y-63300500D01*
X130056784Y-63300500D01*
X130059501Y-63300262D01*
X130059508Y-63300262D01*
X130132531Y-63293873D01*
X130226692Y-63285635D01*
X130232005Y-63284211D01*
X130232007Y-63284211D01*
X130441186Y-63228162D01*
X130441188Y-63228161D01*
X130446496Y-63226739D01*
X130451478Y-63224416D01*
X130647753Y-63132891D01*
X130647756Y-63132889D01*
X130652734Y-63130568D01*
X130839139Y-63000047D01*
X131000047Y-62839139D01*
X131130568Y-62652734D01*
X131226739Y-62446496D01*
X131236229Y-62411081D01*
X131284211Y-62232007D01*
X131284211Y-62232005D01*
X131285635Y-62226692D01*
X131305468Y-62000000D01*
X131285635Y-61773308D01*
X131274183Y-61730569D01*
X131228162Y-61558814D01*
X131228161Y-61558812D01*
X131226739Y-61553504D01*
X131155831Y-61401442D01*
X131132891Y-61352247D01*
X131132889Y-61352244D01*
X131130568Y-61347266D01*
X131000047Y-61160861D01*
X130970116Y-61130930D01*
X137292345Y-61130930D01*
X137308803Y-61326919D01*
X137363015Y-61515979D01*
X137365830Y-61521456D01*
X137365831Y-61521459D01*
X137450101Y-61685431D01*
X137452916Y-61690908D01*
X137456739Y-61695732D01*
X137456742Y-61695736D01*
X137522569Y-61778788D01*
X137575083Y-61845044D01*
X137724862Y-61972516D01*
X137730240Y-61975522D01*
X137730242Y-61975523D01*
X137766656Y-61995874D01*
X137896547Y-62068467D01*
X138083600Y-62129244D01*
X138278895Y-62152532D01*
X138285030Y-62152060D01*
X138285032Y-62152060D01*
X138468852Y-62137916D01*
X138468856Y-62137915D01*
X138474994Y-62137443D01*
X138664428Y-62084552D01*
X138669932Y-62081772D01*
X138669934Y-62081771D01*
X138834480Y-61998653D01*
X138834482Y-61998652D01*
X138839981Y-61995874D01*
X138994966Y-61874786D01*
X138998992Y-61870122D01*
X138998995Y-61870119D01*
X139119451Y-61730569D01*
X139119452Y-61730567D01*
X139123480Y-61725901D01*
X139220628Y-61554890D01*
X139282710Y-61368266D01*
X139283040Y-61365654D01*
X143313133Y-61365654D01*
X143314112Y-61371351D01*
X143314112Y-61371352D01*
X143346324Y-61558814D01*
X143348941Y-61574047D01*
X143422127Y-61772425D01*
X143425079Y-61777386D01*
X143425079Y-61777387D01*
X143480249Y-61870119D01*
X143530238Y-61954144D01*
X143669655Y-62113119D01*
X143835708Y-62244024D01*
X143840819Y-62246713D01*
X143840822Y-62246715D01*
X143871241Y-62262719D01*
X144022836Y-62342477D01*
X144224773Y-62405180D01*
X144230510Y-62405859D01*
X144392768Y-62425064D01*
X144392775Y-62425064D01*
X144396455Y-62425500D01*
X144518641Y-62425500D01*
X144675560Y-62411081D01*
X144681122Y-62409512D01*
X144681124Y-62409512D01*
X144737225Y-62393690D01*
X144879069Y-62353686D01*
X144884247Y-62351133D01*
X144884251Y-62351131D01*
X145063531Y-62262719D01*
X145068710Y-62260165D01*
X145213480Y-62152060D01*
X145233509Y-62137104D01*
X145233510Y-62137103D01*
X145238133Y-62133651D01*
X145381663Y-61978381D01*
X145394215Y-61958488D01*
X145491416Y-61804434D01*
X145491416Y-61804433D01*
X145494495Y-61799554D01*
X145572848Y-61603160D01*
X145573973Y-61597503D01*
X145573975Y-61597497D01*
X145612972Y-61401442D01*
X145612972Y-61401440D01*
X145614099Y-61395775D01*
X145614494Y-61365654D01*
X148763133Y-61365654D01*
X148764112Y-61371351D01*
X148764112Y-61371352D01*
X148796324Y-61558814D01*
X148798941Y-61574047D01*
X148872127Y-61772425D01*
X148875079Y-61777386D01*
X148875079Y-61777387D01*
X148930249Y-61870119D01*
X148980238Y-61954144D01*
X149119655Y-62113119D01*
X149285708Y-62244024D01*
X149290819Y-62246713D01*
X149290822Y-62246715D01*
X149321241Y-62262719D01*
X149472836Y-62342477D01*
X149674773Y-62405180D01*
X149680510Y-62405859D01*
X149842768Y-62425064D01*
X149842775Y-62425064D01*
X149846455Y-62425500D01*
X149968641Y-62425500D01*
X150125560Y-62411081D01*
X150131122Y-62409512D01*
X150131124Y-62409512D01*
X150187225Y-62393690D01*
X150329069Y-62353686D01*
X150334247Y-62351133D01*
X150334251Y-62351131D01*
X150513531Y-62262719D01*
X150518710Y-62260165D01*
X150663480Y-62152060D01*
X150683509Y-62137104D01*
X150683510Y-62137103D01*
X150688133Y-62133651D01*
X150831663Y-61978381D01*
X150844215Y-61958488D01*
X150941416Y-61804434D01*
X150941416Y-61804433D01*
X150944495Y-61799554D01*
X151022848Y-61603160D01*
X151023973Y-61597503D01*
X151023975Y-61597497D01*
X151062972Y-61401442D01*
X151062972Y-61401440D01*
X151064099Y-61395775D01*
X151064494Y-61365654D01*
X151066791Y-61190128D01*
X151066867Y-61184346D01*
X151057689Y-61130930D01*
X155072345Y-61130930D01*
X155088803Y-61326919D01*
X155143015Y-61515979D01*
X155145830Y-61521456D01*
X155145831Y-61521459D01*
X155230101Y-61685431D01*
X155232916Y-61690908D01*
X155236739Y-61695732D01*
X155236742Y-61695736D01*
X155302569Y-61778788D01*
X155355083Y-61845044D01*
X155504862Y-61972516D01*
X155510240Y-61975522D01*
X155510242Y-61975523D01*
X155546656Y-61995874D01*
X155676547Y-62068467D01*
X155863600Y-62129244D01*
X156058895Y-62152532D01*
X156065030Y-62152060D01*
X156065032Y-62152060D01*
X156248852Y-62137916D01*
X156248856Y-62137915D01*
X156254994Y-62137443D01*
X156444428Y-62084552D01*
X156449932Y-62081772D01*
X156449934Y-62081771D01*
X156611813Y-62000000D01*
X162694532Y-62000000D01*
X162714365Y-62226692D01*
X162715789Y-62232005D01*
X162715789Y-62232007D01*
X162763772Y-62411081D01*
X162773261Y-62446496D01*
X162869432Y-62652734D01*
X162999953Y-62839139D01*
X163160861Y-63000047D01*
X163347266Y-63130568D01*
X163352244Y-63132889D01*
X163352247Y-63132891D01*
X163548522Y-63224416D01*
X163553504Y-63226739D01*
X163558812Y-63228161D01*
X163558814Y-63228162D01*
X163767993Y-63284211D01*
X163767995Y-63284211D01*
X163773308Y-63285635D01*
X163867469Y-63293873D01*
X163940492Y-63300262D01*
X163940499Y-63300262D01*
X163943216Y-63300500D01*
X164056784Y-63300500D01*
X164059501Y-63300262D01*
X164059508Y-63300262D01*
X164132531Y-63293873D01*
X164226692Y-63285635D01*
X164232005Y-63284211D01*
X164232007Y-63284211D01*
X164441186Y-63228162D01*
X164441188Y-63228161D01*
X164446496Y-63226739D01*
X164451478Y-63224416D01*
X164647753Y-63132891D01*
X164647756Y-63132889D01*
X164652734Y-63130568D01*
X164839139Y-63000047D01*
X165000047Y-62839139D01*
X165130568Y-62652734D01*
X165226739Y-62446496D01*
X165236229Y-62411081D01*
X165284211Y-62232007D01*
X165284211Y-62232005D01*
X165285635Y-62226692D01*
X165305468Y-62000000D01*
X165285635Y-61773308D01*
X165274183Y-61730569D01*
X165228162Y-61558814D01*
X165228161Y-61558812D01*
X165226739Y-61553504D01*
X165155831Y-61401442D01*
X165132891Y-61352247D01*
X165132889Y-61352244D01*
X165130568Y-61347266D01*
X165000047Y-61160861D01*
X164839139Y-60999953D01*
X164652734Y-60869432D01*
X164647756Y-60867111D01*
X164647753Y-60867109D01*
X164451478Y-60775584D01*
X164451476Y-60775583D01*
X164446496Y-60773261D01*
X164441188Y-60771839D01*
X164441186Y-60771838D01*
X164232007Y-60715789D01*
X164232005Y-60715789D01*
X164226692Y-60714365D01*
X164127698Y-60705704D01*
X164059508Y-60699738D01*
X164059501Y-60699738D01*
X164056784Y-60699500D01*
X163943216Y-60699500D01*
X163940499Y-60699738D01*
X163940492Y-60699738D01*
X163872302Y-60705704D01*
X163773308Y-60714365D01*
X163767995Y-60715789D01*
X163767993Y-60715789D01*
X163558814Y-60771838D01*
X163558812Y-60771839D01*
X163553504Y-60773261D01*
X163548524Y-60775583D01*
X163548522Y-60775584D01*
X163352247Y-60867109D01*
X163352244Y-60867111D01*
X163347266Y-60869432D01*
X163160861Y-60999953D01*
X162999953Y-61160861D01*
X162869432Y-61347266D01*
X162867111Y-61352244D01*
X162867109Y-61352247D01*
X162844169Y-61401442D01*
X162773261Y-61553504D01*
X162771839Y-61558812D01*
X162771838Y-61558814D01*
X162725817Y-61730569D01*
X162714365Y-61773308D01*
X162694532Y-62000000D01*
X156611813Y-62000000D01*
X156614480Y-61998653D01*
X156614482Y-61998652D01*
X156619981Y-61995874D01*
X156774966Y-61874786D01*
X156778992Y-61870122D01*
X156778995Y-61870119D01*
X156899451Y-61730569D01*
X156899452Y-61730567D01*
X156903480Y-61725901D01*
X157000628Y-61554890D01*
X157062710Y-61368266D01*
X157087360Y-61173138D01*
X157087624Y-61154225D01*
X157087704Y-61148523D01*
X157087704Y-61148519D01*
X157087753Y-61145000D01*
X157068561Y-60949260D01*
X157011714Y-60760975D01*
X156919379Y-60587318D01*
X156915489Y-60582548D01*
X156915486Y-60582544D01*
X156798967Y-60439678D01*
X156798964Y-60439675D01*
X156795072Y-60434903D01*
X156768470Y-60412896D01*
X156648278Y-60313464D01*
X156648274Y-60313462D01*
X156643528Y-60309535D01*
X156470520Y-60215990D01*
X156282637Y-60157830D01*
X156276519Y-60157187D01*
X156276514Y-60157186D01*
X156093164Y-60137916D01*
X156093162Y-60137916D01*
X156087035Y-60137272D01*
X156004199Y-60144810D01*
X155897305Y-60154538D01*
X155897302Y-60154539D01*
X155891166Y-60155097D01*
X155702489Y-60210628D01*
X155528192Y-60301748D01*
X155523392Y-60305608D01*
X155523391Y-60305608D01*
X155513620Y-60313464D01*
X155374912Y-60424988D01*
X155370954Y-60429705D01*
X155370952Y-60429707D01*
X155288638Y-60527805D01*
X155248489Y-60575653D01*
X155153739Y-60748004D01*
X155151878Y-60753871D01*
X155151877Y-60753873D01*
X155145727Y-60773261D01*
X155094269Y-60935476D01*
X155072345Y-61130930D01*
X151057689Y-61130930D01*
X151031059Y-60975953D01*
X150957873Y-60777575D01*
X150944924Y-60755809D01*
X150852716Y-60600821D01*
X150852715Y-60600820D01*
X150849762Y-60595856D01*
X150710345Y-60436881D01*
X150544292Y-60305976D01*
X150539181Y-60303287D01*
X150539178Y-60303285D01*
X150373257Y-60215990D01*
X150357164Y-60207523D01*
X150155227Y-60144820D01*
X150140801Y-60143113D01*
X149987232Y-60124936D01*
X149987225Y-60124936D01*
X149983545Y-60124500D01*
X149861359Y-60124500D01*
X149704440Y-60138919D01*
X149698878Y-60140488D01*
X149698876Y-60140488D01*
X149649059Y-60154538D01*
X149500931Y-60196314D01*
X149495753Y-60198867D01*
X149495749Y-60198869D01*
X149320508Y-60285289D01*
X149311290Y-60289835D01*
X149141867Y-60416349D01*
X148998337Y-60571619D01*
X148995256Y-60576502D01*
X148908271Y-60714365D01*
X148885505Y-60750446D01*
X148807152Y-60946840D01*
X148806027Y-60952497D01*
X148806025Y-60952503D01*
X148768433Y-61141494D01*
X148765901Y-61154225D01*
X148765825Y-61160000D01*
X148765825Y-61160004D01*
X148765431Y-61190128D01*
X148763133Y-61365654D01*
X145614494Y-61365654D01*
X145616791Y-61190128D01*
X145616867Y-61184346D01*
X145581059Y-60975953D01*
X145507873Y-60777575D01*
X145494924Y-60755809D01*
X145402716Y-60600821D01*
X145402715Y-60600820D01*
X145399762Y-60595856D01*
X145260345Y-60436881D01*
X145094292Y-60305976D01*
X145089181Y-60303287D01*
X145089178Y-60303285D01*
X144923257Y-60215990D01*
X144907164Y-60207523D01*
X144705227Y-60144820D01*
X144690801Y-60143113D01*
X144537232Y-60124936D01*
X144537225Y-60124936D01*
X144533545Y-60124500D01*
X144411359Y-60124500D01*
X144254440Y-60138919D01*
X144248878Y-60140488D01*
X144248876Y-60140488D01*
X144199059Y-60154538D01*
X144050931Y-60196314D01*
X144045753Y-60198867D01*
X144045749Y-60198869D01*
X143870508Y-60285289D01*
X143861290Y-60289835D01*
X143691867Y-60416349D01*
X143548337Y-60571619D01*
X143545256Y-60576502D01*
X143458271Y-60714365D01*
X143435505Y-60750446D01*
X143357152Y-60946840D01*
X143356027Y-60952497D01*
X143356025Y-60952503D01*
X143318433Y-61141494D01*
X143315901Y-61154225D01*
X143315825Y-61160000D01*
X143315825Y-61160004D01*
X143315431Y-61190128D01*
X143313133Y-61365654D01*
X139283040Y-61365654D01*
X139307360Y-61173138D01*
X139307624Y-61154225D01*
X139307704Y-61148523D01*
X139307704Y-61148519D01*
X139307753Y-61145000D01*
X139288561Y-60949260D01*
X139231714Y-60760975D01*
X139139379Y-60587318D01*
X139135489Y-60582548D01*
X139135486Y-60582544D01*
X139018967Y-60439678D01*
X139018964Y-60439675D01*
X139015072Y-60434903D01*
X138988470Y-60412896D01*
X138868278Y-60313464D01*
X138868274Y-60313462D01*
X138863528Y-60309535D01*
X138690520Y-60215990D01*
X138502637Y-60157830D01*
X138496519Y-60157187D01*
X138496514Y-60157186D01*
X138313164Y-60137916D01*
X138313162Y-60137916D01*
X138307035Y-60137272D01*
X138224199Y-60144810D01*
X138117305Y-60154538D01*
X138117302Y-60154539D01*
X138111166Y-60155097D01*
X137922489Y-60210628D01*
X137748192Y-60301748D01*
X137743392Y-60305608D01*
X137743391Y-60305608D01*
X137733620Y-60313464D01*
X137594912Y-60424988D01*
X137590954Y-60429705D01*
X137590952Y-60429707D01*
X137508638Y-60527805D01*
X137468489Y-60575653D01*
X137373739Y-60748004D01*
X137371878Y-60753871D01*
X137371877Y-60753873D01*
X137365727Y-60773261D01*
X137314269Y-60935476D01*
X137292345Y-61130930D01*
X130970116Y-61130930D01*
X130839139Y-60999953D01*
X130652734Y-60869432D01*
X130647756Y-60867111D01*
X130647753Y-60867109D01*
X130451478Y-60775584D01*
X130451476Y-60775583D01*
X130446496Y-60773261D01*
X130441188Y-60771839D01*
X130441186Y-60771838D01*
X130232007Y-60715789D01*
X130232005Y-60715789D01*
X130226692Y-60714365D01*
X130127698Y-60705704D01*
X130059508Y-60699738D01*
X130059501Y-60699738D01*
X130056784Y-60699500D01*
X129943216Y-60699500D01*
X129940499Y-60699738D01*
X129940492Y-60699738D01*
X129872302Y-60705704D01*
X129773308Y-60714365D01*
X129767995Y-60715789D01*
X129767993Y-60715789D01*
X129558814Y-60771838D01*
X129558812Y-60771839D01*
X129553504Y-60773261D01*
X129548524Y-60775583D01*
X129548522Y-60775584D01*
X129352247Y-60867109D01*
X129352244Y-60867111D01*
X129347266Y-60869432D01*
X129160861Y-60999953D01*
X128999953Y-61160861D01*
X128869432Y-61347266D01*
X128867111Y-61352244D01*
X128867109Y-61352247D01*
X128844169Y-61401442D01*
X128773261Y-61553504D01*
X128771839Y-61558812D01*
X128771838Y-61558814D01*
X128725817Y-61730569D01*
X128714365Y-61773308D01*
X128694532Y-62000000D01*
X127381000Y-62000000D01*
X127381000Y-59507000D01*
X127401002Y-59438879D01*
X127454658Y-59392386D01*
X127507000Y-59381000D01*
X166493000Y-59381000D01*
X166561121Y-59401002D01*
G37*
%TD.AperFunction*%
%TD*%
M02*
