%FSLAX45Y45*%
G04 Gerber Fmt 4.5, Leading zero omitted, Abs format (unit mm)*
G04 Created by KiCad (PCBNEW (6.0.2)) date 2022-04-09 21:40:26*
%MOMM*%
%LPD*%
G01*
G04 APERTURE LIST*
%TA.AperFunction,Profile*%
%ADD10C,0.100000*%
%TD*%
%ADD11C,0.200000*%
%ADD12C,0.040000*%
%ADD13C,0.102000*%
%ADD14C,0.150000*%
%ADD15C,0.180000*%
%ADD16C,0.210000*%
G04 APERTURE END LIST*
D10*
X12700000Y-5900000D02*
X16700000Y-5900000D01*
X16700000Y-5900000D02*
X16700000Y-12790000D01*
X16700000Y-12790000D02*
X12700000Y-12790000D01*
X12700000Y-12790000D02*
X12700000Y-5900000D01*
D11*
D12*
X15280000Y-11580000D02*
X15320000Y-11620000D01*
X15320000Y-11580000D02*
X15280000Y-11620000D01*
X15980000Y-11880000D02*
X16020000Y-11920000D01*
X16020000Y-11880000D02*
X15980000Y-11920000D01*
X16080000Y-10680000D02*
X16120000Y-10720000D01*
X16120000Y-10680000D02*
X16080000Y-10720000D01*
D13*
X13881000Y-6114500D02*
G75*
G03*
X13881000Y-6114500I-51000J0D01*
G01*
X13881000Y-6368500D02*
G75*
G03*
X13881000Y-6368500I-51000J0D01*
G01*
X13881000Y-6622500D02*
G75*
G03*
X13881000Y-6622500I-51000J0D01*
G01*
X13881000Y-6876500D02*
G75*
G03*
X13881000Y-6876500I-51000J0D01*
G01*
X13881000Y-7130500D02*
G75*
G03*
X13881000Y-7130500I-51000J0D01*
G01*
X13881000Y-7384500D02*
G75*
G03*
X13881000Y-7384500I-51000J0D01*
G01*
X13881000Y-7638500D02*
G75*
G03*
X13881000Y-7638500I-51000J0D01*
G01*
X13881000Y-7892500D02*
G75*
G03*
X13881000Y-7892500I-51000J0D01*
G01*
X13881000Y-8146500D02*
G75*
G03*
X13881000Y-8146500I-51000J0D01*
G01*
X13881000Y-8400500D02*
G75*
G03*
X13881000Y-8400500I-51000J0D01*
G01*
X13881000Y-8654500D02*
G75*
G03*
X13881000Y-8654500I-51000J0D01*
G01*
X13881000Y-8908500D02*
G75*
G03*
X13881000Y-8908500I-51000J0D01*
G01*
X13881000Y-9162500D02*
G75*
G03*
X13881000Y-9162500I-51000J0D01*
G01*
X13881000Y-9416500D02*
G75*
G03*
X13881000Y-9416500I-51000J0D01*
G01*
X13881000Y-9670500D02*
G75*
G03*
X13881000Y-9670500I-51000J0D01*
G01*
X13881000Y-9924500D02*
G75*
G03*
X13881000Y-9924500I-51000J0D01*
G01*
X13881000Y-10178500D02*
G75*
G03*
X13881000Y-10178500I-51000J0D01*
G01*
X13881000Y-10432500D02*
G75*
G03*
X13881000Y-10432500I-51000J0D01*
G01*
X13881000Y-10686500D02*
G75*
G03*
X13881000Y-10686500I-51000J0D01*
G01*
X13881000Y-10940500D02*
G75*
G03*
X13881000Y-10940500I-51000J0D01*
G01*
X14516000Y-10917500D02*
G75*
G03*
X14516000Y-10917500I-51000J0D01*
G01*
X14770000Y-10917500D02*
G75*
G03*
X14770000Y-10917500I-51000J0D01*
G01*
X15024000Y-10917500D02*
G75*
G03*
X15024000Y-10917500I-51000J0D01*
G01*
X15659000Y-6114500D02*
G75*
G03*
X15659000Y-6114500I-51000J0D01*
G01*
X15659000Y-6368500D02*
G75*
G03*
X15659000Y-6368500I-51000J0D01*
G01*
X15659000Y-6622500D02*
G75*
G03*
X15659000Y-6622500I-51000J0D01*
G01*
X15659000Y-6876500D02*
G75*
G03*
X15659000Y-6876500I-51000J0D01*
G01*
X15659000Y-7130500D02*
G75*
G03*
X15659000Y-7130500I-51000J0D01*
G01*
X15659000Y-7384500D02*
G75*
G03*
X15659000Y-7384500I-51000J0D01*
G01*
X15659000Y-7638500D02*
G75*
G03*
X15659000Y-7638500I-51000J0D01*
G01*
X15659000Y-7892500D02*
G75*
G03*
X15659000Y-7892500I-51000J0D01*
G01*
X15659000Y-8146500D02*
G75*
G03*
X15659000Y-8146500I-51000J0D01*
G01*
X15659000Y-8400500D02*
G75*
G03*
X15659000Y-8400500I-51000J0D01*
G01*
X15659000Y-8654500D02*
G75*
G03*
X15659000Y-8654500I-51000J0D01*
G01*
X15659000Y-8908500D02*
G75*
G03*
X15659000Y-8908500I-51000J0D01*
G01*
X15659000Y-9162500D02*
G75*
G03*
X15659000Y-9162500I-51000J0D01*
G01*
X15659000Y-9416500D02*
G75*
G03*
X15659000Y-9416500I-51000J0D01*
G01*
X15659000Y-9670500D02*
G75*
G03*
X15659000Y-9670500I-51000J0D01*
G01*
X15659000Y-9924500D02*
G75*
G03*
X15659000Y-9924500I-51000J0D01*
G01*
X15659000Y-10178500D02*
G75*
G03*
X15659000Y-10178500I-51000J0D01*
G01*
X15659000Y-10432500D02*
G75*
G03*
X15659000Y-10432500I-51000J0D01*
G01*
X15659000Y-10686500D02*
G75*
G03*
X15659000Y-10686500I-51000J0D01*
G01*
X15659000Y-10940500D02*
G75*
G03*
X15659000Y-10940500I-51000J0D01*
G01*
D14*
X14476500Y-6355500D02*
X14476500Y-6505500D01*
X14401500Y-6430500D02*
X14551500Y-6430500D01*
X14961500Y-6355500D02*
X14961500Y-6505500D01*
X14886500Y-6430500D02*
X15036500Y-6430500D01*
D15*
X14510140Y-6191140D02*
X14510140Y-6063860D01*
X14382860Y-6063860D01*
X14382860Y-6191140D01*
X14510140Y-6191140D01*
X15055140Y-6191140D02*
X15055140Y-6063860D01*
X14927860Y-6063860D01*
X14927860Y-6191140D01*
X15055140Y-6191140D01*
D16*
X13000000Y-6305000D02*
X13105000Y-6200000D01*
X13000000Y-6095000D01*
X12895000Y-6200000D01*
X13000000Y-6305000D01*
X13000000Y-12605000D02*
X13105000Y-12500000D01*
X13000000Y-12395000D01*
X12895000Y-12500000D01*
X13000000Y-12605000D01*
X16400000Y-6305000D02*
X16505000Y-6200000D01*
X16400000Y-6095000D01*
X16295000Y-6200000D01*
X16400000Y-6305000D01*
X16400000Y-12605000D02*
X16505000Y-12500000D01*
X16400000Y-12395000D01*
X16295000Y-12500000D01*
X16400000Y-12605000D01*
D11*
X12952619Y-13105476D02*
X12952619Y-12905476D01*
X13000238Y-12905476D01*
X13028809Y-12915000D01*
X13047857Y-12934048D01*
X13057381Y-12953095D01*
X13066905Y-12991190D01*
X13066905Y-13019762D01*
X13057381Y-13057857D01*
X13047857Y-13076905D01*
X13028809Y-13095952D01*
X13000238Y-13105476D01*
X12952619Y-13105476D01*
X13152619Y-13105476D02*
X13152619Y-12972143D01*
X13152619Y-13010238D02*
X13162143Y-12991190D01*
X13171667Y-12981667D01*
X13190714Y-12972143D01*
X13209762Y-12972143D01*
X13276428Y-13105476D02*
X13276428Y-12972143D01*
X13276428Y-12905476D02*
X13266905Y-12915000D01*
X13276428Y-12924524D01*
X13285952Y-12915000D01*
X13276428Y-12905476D01*
X13276428Y-12924524D01*
X13400238Y-13105476D02*
X13381190Y-13095952D01*
X13371667Y-13076905D01*
X13371667Y-12905476D01*
X13505000Y-13105476D02*
X13485952Y-13095952D01*
X13476428Y-13076905D01*
X13476428Y-12905476D01*
X13733571Y-13105476D02*
X13733571Y-12905476D01*
X13800238Y-13048333D01*
X13866905Y-12905476D01*
X13866905Y-13105476D01*
X14047857Y-13105476D02*
X14047857Y-13000714D01*
X14038333Y-12981667D01*
X14019286Y-12972143D01*
X13981190Y-12972143D01*
X13962143Y-12981667D01*
X14047857Y-13095952D02*
X14028809Y-13105476D01*
X13981190Y-13105476D01*
X13962143Y-13095952D01*
X13952619Y-13076905D01*
X13952619Y-13057857D01*
X13962143Y-13038809D01*
X13981190Y-13029286D01*
X14028809Y-13029286D01*
X14047857Y-13019762D01*
X14143095Y-12972143D02*
X14143095Y-13172143D01*
X14143095Y-12981667D02*
X14162143Y-12972143D01*
X14200238Y-12972143D01*
X14219286Y-12981667D01*
X14228809Y-12991190D01*
X14238333Y-13010238D01*
X14238333Y-13067381D01*
X14228809Y-13086428D01*
X14219286Y-13095952D01*
X14200238Y-13105476D01*
X14162143Y-13105476D01*
X14143095Y-13095952D01*
X14324048Y-13086428D02*
X14333571Y-13095952D01*
X14324048Y-13105476D01*
X14314524Y-13095952D01*
X14324048Y-13086428D01*
X14324048Y-13105476D01*
X14324048Y-12981667D02*
X14333571Y-12991190D01*
X14324048Y-13000714D01*
X14314524Y-12991190D01*
X14324048Y-12981667D01*
X14324048Y-13000714D01*
D12*
X12655000Y-13415000D02*
X12695000Y-13455000D01*
X12695000Y-13415000D02*
X12655000Y-13455000D01*
D11*
X12990714Y-13325476D02*
X13009762Y-13325476D01*
X13028809Y-13335000D01*
X13038333Y-13344524D01*
X13047857Y-13363571D01*
X13057381Y-13401667D01*
X13057381Y-13449286D01*
X13047857Y-13487381D01*
X13038333Y-13506428D01*
X13028809Y-13515952D01*
X13009762Y-13525476D01*
X12990714Y-13525476D01*
X12971667Y-13515952D01*
X12962143Y-13506428D01*
X12952619Y-13487381D01*
X12943095Y-13449286D01*
X12943095Y-13401667D01*
X12952619Y-13363571D01*
X12962143Y-13344524D01*
X12971667Y-13335000D01*
X12990714Y-13325476D01*
X13143095Y-13506428D02*
X13152619Y-13515952D01*
X13143095Y-13525476D01*
X13133571Y-13515952D01*
X13143095Y-13506428D01*
X13143095Y-13525476D01*
X13324048Y-13392143D02*
X13324048Y-13525476D01*
X13276428Y-13315952D02*
X13228809Y-13458809D01*
X13352619Y-13458809D01*
X13466905Y-13325476D02*
X13485952Y-13325476D01*
X13505000Y-13335000D01*
X13514524Y-13344524D01*
X13524048Y-13363571D01*
X13533571Y-13401667D01*
X13533571Y-13449286D01*
X13524048Y-13487381D01*
X13514524Y-13506428D01*
X13505000Y-13515952D01*
X13485952Y-13525476D01*
X13466905Y-13525476D01*
X13447857Y-13515952D01*
X13438333Y-13506428D01*
X13428809Y-13487381D01*
X13419286Y-13449286D01*
X13419286Y-13401667D01*
X13428809Y-13363571D01*
X13438333Y-13344524D01*
X13447857Y-13335000D01*
X13466905Y-13325476D01*
X13657381Y-13325476D02*
X13676428Y-13325476D01*
X13695476Y-13335000D01*
X13705000Y-13344524D01*
X13714524Y-13363571D01*
X13724048Y-13401667D01*
X13724048Y-13449286D01*
X13714524Y-13487381D01*
X13705000Y-13506428D01*
X13695476Y-13515952D01*
X13676428Y-13525476D01*
X13657381Y-13525476D01*
X13638333Y-13515952D01*
X13628809Y-13506428D01*
X13619286Y-13487381D01*
X13609762Y-13449286D01*
X13609762Y-13401667D01*
X13619286Y-13363571D01*
X13628809Y-13344524D01*
X13638333Y-13335000D01*
X13657381Y-13325476D01*
X13809762Y-13525476D02*
X13809762Y-13392143D01*
X13809762Y-13411190D02*
X13819286Y-13401667D01*
X13838333Y-13392143D01*
X13866905Y-13392143D01*
X13885952Y-13401667D01*
X13895476Y-13420714D01*
X13895476Y-13525476D01*
X13895476Y-13420714D02*
X13905000Y-13401667D01*
X13924048Y-13392143D01*
X13952619Y-13392143D01*
X13971667Y-13401667D01*
X13981190Y-13420714D01*
X13981190Y-13525476D01*
X14076428Y-13525476D02*
X14076428Y-13392143D01*
X14076428Y-13411190D02*
X14085952Y-13401667D01*
X14105000Y-13392143D01*
X14133571Y-13392143D01*
X14152619Y-13401667D01*
X14162143Y-13420714D01*
X14162143Y-13525476D01*
X14162143Y-13420714D02*
X14171667Y-13401667D01*
X14190714Y-13392143D01*
X14219286Y-13392143D01*
X14238333Y-13401667D01*
X14247857Y-13420714D01*
X14247857Y-13525476D01*
X14638333Y-13315952D02*
X14466905Y-13573095D01*
X14895476Y-13325476D02*
X14914524Y-13325476D01*
X14933571Y-13335000D01*
X14943095Y-13344524D01*
X14952619Y-13363571D01*
X14962143Y-13401667D01*
X14962143Y-13449286D01*
X14952619Y-13487381D01*
X14943095Y-13506428D01*
X14933571Y-13515952D01*
X14914524Y-13525476D01*
X14895476Y-13525476D01*
X14876428Y-13515952D01*
X14866905Y-13506428D01*
X14857381Y-13487381D01*
X14847857Y-13449286D01*
X14847857Y-13401667D01*
X14857381Y-13363571D01*
X14866905Y-13344524D01*
X14876428Y-13335000D01*
X14895476Y-13325476D01*
X15047857Y-13506428D02*
X15057381Y-13515952D01*
X15047857Y-13525476D01*
X15038333Y-13515952D01*
X15047857Y-13506428D01*
X15047857Y-13525476D01*
X15181190Y-13325476D02*
X15200238Y-13325476D01*
X15219286Y-13335000D01*
X15228809Y-13344524D01*
X15238333Y-13363571D01*
X15247857Y-13401667D01*
X15247857Y-13449286D01*
X15238333Y-13487381D01*
X15228809Y-13506428D01*
X15219286Y-13515952D01*
X15200238Y-13525476D01*
X15181190Y-13525476D01*
X15162143Y-13515952D01*
X15152619Y-13506428D01*
X15143095Y-13487381D01*
X15133571Y-13449286D01*
X15133571Y-13401667D01*
X15143095Y-13363571D01*
X15152619Y-13344524D01*
X15162143Y-13335000D01*
X15181190Y-13325476D01*
X15438333Y-13525476D02*
X15324048Y-13525476D01*
X15381190Y-13525476D02*
X15381190Y-13325476D01*
X15362143Y-13354048D01*
X15343095Y-13373095D01*
X15324048Y-13382619D01*
X15619286Y-13325476D02*
X15524048Y-13325476D01*
X15514524Y-13420714D01*
X15524048Y-13411190D01*
X15543095Y-13401667D01*
X15590714Y-13401667D01*
X15609762Y-13411190D01*
X15619286Y-13420714D01*
X15628809Y-13439762D01*
X15628809Y-13487381D01*
X15619286Y-13506428D01*
X15609762Y-13515952D01*
X15590714Y-13525476D01*
X15543095Y-13525476D01*
X15524048Y-13515952D01*
X15514524Y-13506428D01*
X15695476Y-13325476D02*
X15828809Y-13325476D01*
X15743095Y-13525476D01*
X15895476Y-13325476D02*
X15895476Y-13363571D01*
X15971667Y-13325476D02*
X15971667Y-13363571D01*
X16266905Y-13601667D02*
X16257381Y-13592143D01*
X16238333Y-13563571D01*
X16228809Y-13544524D01*
X16219286Y-13515952D01*
X16209762Y-13468333D01*
X16209762Y-13430238D01*
X16219286Y-13382619D01*
X16228809Y-13354048D01*
X16238333Y-13335000D01*
X16257381Y-13306428D01*
X16266905Y-13296905D01*
X16324048Y-13325476D02*
X16447857Y-13325476D01*
X16381190Y-13401667D01*
X16409762Y-13401667D01*
X16428809Y-13411190D01*
X16438333Y-13420714D01*
X16447857Y-13439762D01*
X16447857Y-13487381D01*
X16438333Y-13506428D01*
X16428809Y-13515952D01*
X16409762Y-13525476D01*
X16352619Y-13525476D01*
X16333571Y-13515952D01*
X16324048Y-13506428D01*
X16685952Y-13525476D02*
X16685952Y-13325476D01*
X16771667Y-13525476D02*
X16771667Y-13420714D01*
X16762143Y-13401667D01*
X16743095Y-13392143D01*
X16714524Y-13392143D01*
X16695476Y-13401667D01*
X16685952Y-13411190D01*
X16895476Y-13525476D02*
X16876429Y-13515952D01*
X16866905Y-13506428D01*
X16857381Y-13487381D01*
X16857381Y-13430238D01*
X16866905Y-13411190D01*
X16876429Y-13401667D01*
X16895476Y-13392143D01*
X16924048Y-13392143D01*
X16943095Y-13401667D01*
X16952619Y-13411190D01*
X16962143Y-13430238D01*
X16962143Y-13487381D01*
X16952619Y-13506428D01*
X16943095Y-13515952D01*
X16924048Y-13525476D01*
X16895476Y-13525476D01*
X17076429Y-13525476D02*
X17057381Y-13515952D01*
X17047857Y-13496905D01*
X17047857Y-13325476D01*
X17228810Y-13515952D02*
X17209762Y-13525476D01*
X17171667Y-13525476D01*
X17152619Y-13515952D01*
X17143095Y-13496905D01*
X17143095Y-13420714D01*
X17152619Y-13401667D01*
X17171667Y-13392143D01*
X17209762Y-13392143D01*
X17228810Y-13401667D01*
X17238333Y-13420714D01*
X17238333Y-13439762D01*
X17143095Y-13458809D01*
X17314524Y-13515952D02*
X17333571Y-13525476D01*
X17371667Y-13525476D01*
X17390714Y-13515952D01*
X17400238Y-13496905D01*
X17400238Y-13487381D01*
X17390714Y-13468333D01*
X17371667Y-13458809D01*
X17343095Y-13458809D01*
X17324048Y-13449286D01*
X17314524Y-13430238D01*
X17314524Y-13420714D01*
X17324048Y-13401667D01*
X17343095Y-13392143D01*
X17371667Y-13392143D01*
X17390714Y-13401667D01*
X17466905Y-13601667D02*
X17476429Y-13592143D01*
X17495476Y-13563571D01*
X17505000Y-13544524D01*
X17514524Y-13515952D01*
X17524048Y-13468333D01*
X17524048Y-13430238D01*
X17514524Y-13382619D01*
X17505000Y-13354048D01*
X17495476Y-13335000D01*
X17476429Y-13306428D01*
X17466905Y-13296905D01*
D13*
X12695000Y-13699000D02*
G75*
G03*
X12695000Y-13699000I-51000J0D01*
G01*
D11*
X13057381Y-13789476D02*
X12943095Y-13789476D01*
X13000238Y-13789476D02*
X13000238Y-13589476D01*
X12981190Y-13618048D01*
X12962143Y-13637095D01*
X12943095Y-13646619D01*
X13143095Y-13770428D02*
X13152619Y-13779952D01*
X13143095Y-13789476D01*
X13133571Y-13779952D01*
X13143095Y-13770428D01*
X13143095Y-13789476D01*
X13276428Y-13589476D02*
X13295476Y-13589476D01*
X13314524Y-13599000D01*
X13324048Y-13608524D01*
X13333571Y-13627571D01*
X13343095Y-13665667D01*
X13343095Y-13713286D01*
X13333571Y-13751381D01*
X13324048Y-13770428D01*
X13314524Y-13779952D01*
X13295476Y-13789476D01*
X13276428Y-13789476D01*
X13257381Y-13779952D01*
X13247857Y-13770428D01*
X13238333Y-13751381D01*
X13228809Y-13713286D01*
X13228809Y-13665667D01*
X13238333Y-13627571D01*
X13247857Y-13608524D01*
X13257381Y-13599000D01*
X13276428Y-13589476D01*
X13419286Y-13608524D02*
X13428809Y-13599000D01*
X13447857Y-13589476D01*
X13495476Y-13589476D01*
X13514524Y-13599000D01*
X13524048Y-13608524D01*
X13533571Y-13627571D01*
X13533571Y-13646619D01*
X13524048Y-13675190D01*
X13409762Y-13789476D01*
X13533571Y-13789476D01*
X13657381Y-13589476D02*
X13676428Y-13589476D01*
X13695476Y-13599000D01*
X13705000Y-13608524D01*
X13714524Y-13627571D01*
X13724048Y-13665667D01*
X13724048Y-13713286D01*
X13714524Y-13751381D01*
X13705000Y-13770428D01*
X13695476Y-13779952D01*
X13676428Y-13789476D01*
X13657381Y-13789476D01*
X13638333Y-13779952D01*
X13628809Y-13770428D01*
X13619286Y-13751381D01*
X13609762Y-13713286D01*
X13609762Y-13665667D01*
X13619286Y-13627571D01*
X13628809Y-13608524D01*
X13638333Y-13599000D01*
X13657381Y-13589476D01*
X13809762Y-13789476D02*
X13809762Y-13656143D01*
X13809762Y-13675190D02*
X13819286Y-13665667D01*
X13838333Y-13656143D01*
X13866905Y-13656143D01*
X13885952Y-13665667D01*
X13895476Y-13684714D01*
X13895476Y-13789476D01*
X13895476Y-13684714D02*
X13905000Y-13665667D01*
X13924048Y-13656143D01*
X13952619Y-13656143D01*
X13971667Y-13665667D01*
X13981190Y-13684714D01*
X13981190Y-13789476D01*
X14076428Y-13789476D02*
X14076428Y-13656143D01*
X14076428Y-13675190D02*
X14085952Y-13665667D01*
X14105000Y-13656143D01*
X14133571Y-13656143D01*
X14152619Y-13665667D01*
X14162143Y-13684714D01*
X14162143Y-13789476D01*
X14162143Y-13684714D02*
X14171667Y-13665667D01*
X14190714Y-13656143D01*
X14219286Y-13656143D01*
X14238333Y-13665667D01*
X14247857Y-13684714D01*
X14247857Y-13789476D01*
X14638333Y-13579952D02*
X14466905Y-13837095D01*
X14895476Y-13589476D02*
X14914524Y-13589476D01*
X14933571Y-13599000D01*
X14943095Y-13608524D01*
X14952619Y-13627571D01*
X14962143Y-13665667D01*
X14962143Y-13713286D01*
X14952619Y-13751381D01*
X14943095Y-13770428D01*
X14933571Y-13779952D01*
X14914524Y-13789476D01*
X14895476Y-13789476D01*
X14876428Y-13779952D01*
X14866905Y-13770428D01*
X14857381Y-13751381D01*
X14847857Y-13713286D01*
X14847857Y-13665667D01*
X14857381Y-13627571D01*
X14866905Y-13608524D01*
X14876428Y-13599000D01*
X14895476Y-13589476D01*
X15047857Y-13770428D02*
X15057381Y-13779952D01*
X15047857Y-13789476D01*
X15038333Y-13779952D01*
X15047857Y-13770428D01*
X15047857Y-13789476D01*
X15181190Y-13589476D02*
X15200238Y-13589476D01*
X15219286Y-13599000D01*
X15228809Y-13608524D01*
X15238333Y-13627571D01*
X15247857Y-13665667D01*
X15247857Y-13713286D01*
X15238333Y-13751381D01*
X15228809Y-13770428D01*
X15219286Y-13779952D01*
X15200238Y-13789476D01*
X15181190Y-13789476D01*
X15162143Y-13779952D01*
X15152619Y-13770428D01*
X15143095Y-13751381D01*
X15133571Y-13713286D01*
X15133571Y-13665667D01*
X15143095Y-13627571D01*
X15152619Y-13608524D01*
X15162143Y-13599000D01*
X15181190Y-13589476D01*
X15419286Y-13656143D02*
X15419286Y-13789476D01*
X15371667Y-13579952D02*
X15324048Y-13722809D01*
X15447857Y-13722809D01*
X15562143Y-13589476D02*
X15581190Y-13589476D01*
X15600238Y-13599000D01*
X15609762Y-13608524D01*
X15619286Y-13627571D01*
X15628809Y-13665667D01*
X15628809Y-13713286D01*
X15619286Y-13751381D01*
X15609762Y-13770428D01*
X15600238Y-13779952D01*
X15581190Y-13789476D01*
X15562143Y-13789476D01*
X15543095Y-13779952D01*
X15533571Y-13770428D01*
X15524048Y-13751381D01*
X15514524Y-13713286D01*
X15514524Y-13665667D01*
X15524048Y-13627571D01*
X15533571Y-13608524D01*
X15543095Y-13599000D01*
X15562143Y-13589476D01*
X15705000Y-13608524D02*
X15714524Y-13599000D01*
X15733571Y-13589476D01*
X15781190Y-13589476D01*
X15800238Y-13599000D01*
X15809762Y-13608524D01*
X15819286Y-13627571D01*
X15819286Y-13646619D01*
X15809762Y-13675190D01*
X15695476Y-13789476D01*
X15819286Y-13789476D01*
X15895476Y-13589476D02*
X15895476Y-13627571D01*
X15971667Y-13589476D02*
X15971667Y-13627571D01*
X16266905Y-13865667D02*
X16257381Y-13856143D01*
X16238333Y-13827571D01*
X16228809Y-13808524D01*
X16219286Y-13779952D01*
X16209762Y-13732333D01*
X16209762Y-13694238D01*
X16219286Y-13646619D01*
X16228809Y-13618048D01*
X16238333Y-13599000D01*
X16257381Y-13570428D01*
X16266905Y-13560905D01*
X16428809Y-13656143D02*
X16428809Y-13789476D01*
X16381190Y-13579952D02*
X16333571Y-13722809D01*
X16457381Y-13722809D01*
X16514524Y-13589476D02*
X16638333Y-13589476D01*
X16571667Y-13665667D01*
X16600238Y-13665667D01*
X16619286Y-13675190D01*
X16628809Y-13684714D01*
X16638333Y-13703762D01*
X16638333Y-13751381D01*
X16628809Y-13770428D01*
X16619286Y-13779952D01*
X16600238Y-13789476D01*
X16543095Y-13789476D01*
X16524048Y-13779952D01*
X16514524Y-13770428D01*
X16876429Y-13789476D02*
X16876429Y-13589476D01*
X16962143Y-13789476D02*
X16962143Y-13684714D01*
X16952619Y-13665667D01*
X16933571Y-13656143D01*
X16905000Y-13656143D01*
X16885952Y-13665667D01*
X16876429Y-13675190D01*
X17085952Y-13789476D02*
X17066905Y-13779952D01*
X17057381Y-13770428D01*
X17047857Y-13751381D01*
X17047857Y-13694238D01*
X17057381Y-13675190D01*
X17066905Y-13665667D01*
X17085952Y-13656143D01*
X17114524Y-13656143D01*
X17133571Y-13665667D01*
X17143095Y-13675190D01*
X17152619Y-13694238D01*
X17152619Y-13751381D01*
X17143095Y-13770428D01*
X17133571Y-13779952D01*
X17114524Y-13789476D01*
X17085952Y-13789476D01*
X17266905Y-13789476D02*
X17247857Y-13779952D01*
X17238333Y-13760905D01*
X17238333Y-13589476D01*
X17419286Y-13779952D02*
X17400238Y-13789476D01*
X17362143Y-13789476D01*
X17343095Y-13779952D01*
X17333571Y-13760905D01*
X17333571Y-13684714D01*
X17343095Y-13665667D01*
X17362143Y-13656143D01*
X17400238Y-13656143D01*
X17419286Y-13665667D01*
X17428810Y-13684714D01*
X17428810Y-13703762D01*
X17333571Y-13722809D01*
X17505000Y-13779952D02*
X17524048Y-13789476D01*
X17562143Y-13789476D01*
X17581190Y-13779952D01*
X17590714Y-13760905D01*
X17590714Y-13751381D01*
X17581190Y-13732333D01*
X17562143Y-13722809D01*
X17533571Y-13722809D01*
X17514524Y-13713286D01*
X17505000Y-13694238D01*
X17505000Y-13684714D01*
X17514524Y-13665667D01*
X17533571Y-13656143D01*
X17562143Y-13656143D01*
X17581190Y-13665667D01*
X17657381Y-13865667D02*
X17666905Y-13856143D01*
X17685952Y-13827571D01*
X17695476Y-13808524D01*
X17705000Y-13779952D01*
X17714524Y-13732333D01*
X17714524Y-13694238D01*
X17705000Y-13646619D01*
X17695476Y-13618048D01*
X17685952Y-13599000D01*
X17666905Y-13570428D01*
X17657381Y-13560905D01*
D14*
X12620000Y-13888000D02*
X12620000Y-14038000D01*
X12545000Y-13963000D02*
X12695000Y-13963000D01*
D11*
X13057381Y-14053476D02*
X12943095Y-14053476D01*
X13000238Y-14053476D02*
X13000238Y-13853476D01*
X12981190Y-13882048D01*
X12962143Y-13901095D01*
X12943095Y-13910619D01*
X13143095Y-14034428D02*
X13152619Y-14043952D01*
X13143095Y-14053476D01*
X13133571Y-14043952D01*
X13143095Y-14034428D01*
X13143095Y-14053476D01*
X13333571Y-13853476D02*
X13238333Y-13853476D01*
X13228809Y-13948714D01*
X13238333Y-13939190D01*
X13257381Y-13929667D01*
X13305000Y-13929667D01*
X13324048Y-13939190D01*
X13333571Y-13948714D01*
X13343095Y-13967762D01*
X13343095Y-14015381D01*
X13333571Y-14034428D01*
X13324048Y-14043952D01*
X13305000Y-14053476D01*
X13257381Y-14053476D01*
X13238333Y-14043952D01*
X13228809Y-14034428D01*
X13466905Y-13853476D02*
X13485952Y-13853476D01*
X13505000Y-13863000D01*
X13514524Y-13872524D01*
X13524048Y-13891571D01*
X13533571Y-13929667D01*
X13533571Y-13977286D01*
X13524048Y-14015381D01*
X13514524Y-14034428D01*
X13505000Y-14043952D01*
X13485952Y-14053476D01*
X13466905Y-14053476D01*
X13447857Y-14043952D01*
X13438333Y-14034428D01*
X13428809Y-14015381D01*
X13419286Y-13977286D01*
X13419286Y-13929667D01*
X13428809Y-13891571D01*
X13438333Y-13872524D01*
X13447857Y-13863000D01*
X13466905Y-13853476D01*
X13657381Y-13853476D02*
X13676428Y-13853476D01*
X13695476Y-13863000D01*
X13705000Y-13872524D01*
X13714524Y-13891571D01*
X13724048Y-13929667D01*
X13724048Y-13977286D01*
X13714524Y-14015381D01*
X13705000Y-14034428D01*
X13695476Y-14043952D01*
X13676428Y-14053476D01*
X13657381Y-14053476D01*
X13638333Y-14043952D01*
X13628809Y-14034428D01*
X13619286Y-14015381D01*
X13609762Y-13977286D01*
X13609762Y-13929667D01*
X13619286Y-13891571D01*
X13628809Y-13872524D01*
X13638333Y-13863000D01*
X13657381Y-13853476D01*
X13809762Y-14053476D02*
X13809762Y-13920143D01*
X13809762Y-13939190D02*
X13819286Y-13929667D01*
X13838333Y-13920143D01*
X13866905Y-13920143D01*
X13885952Y-13929667D01*
X13895476Y-13948714D01*
X13895476Y-14053476D01*
X13895476Y-13948714D02*
X13905000Y-13929667D01*
X13924048Y-13920143D01*
X13952619Y-13920143D01*
X13971667Y-13929667D01*
X13981190Y-13948714D01*
X13981190Y-14053476D01*
X14076428Y-14053476D02*
X14076428Y-13920143D01*
X14076428Y-13939190D02*
X14085952Y-13929667D01*
X14105000Y-13920143D01*
X14133571Y-13920143D01*
X14152619Y-13929667D01*
X14162143Y-13948714D01*
X14162143Y-14053476D01*
X14162143Y-13948714D02*
X14171667Y-13929667D01*
X14190714Y-13920143D01*
X14219286Y-13920143D01*
X14238333Y-13929667D01*
X14247857Y-13948714D01*
X14247857Y-14053476D01*
X14638333Y-13843952D02*
X14466905Y-14101095D01*
X14895476Y-13853476D02*
X14914524Y-13853476D01*
X14933571Y-13863000D01*
X14943095Y-13872524D01*
X14952619Y-13891571D01*
X14962143Y-13929667D01*
X14962143Y-13977286D01*
X14952619Y-14015381D01*
X14943095Y-14034428D01*
X14933571Y-14043952D01*
X14914524Y-14053476D01*
X14895476Y-14053476D01*
X14876428Y-14043952D01*
X14866905Y-14034428D01*
X14857381Y-14015381D01*
X14847857Y-13977286D01*
X14847857Y-13929667D01*
X14857381Y-13891571D01*
X14866905Y-13872524D01*
X14876428Y-13863000D01*
X14895476Y-13853476D01*
X15047857Y-14034428D02*
X15057381Y-14043952D01*
X15047857Y-14053476D01*
X15038333Y-14043952D01*
X15047857Y-14034428D01*
X15047857Y-14053476D01*
X15181190Y-13853476D02*
X15200238Y-13853476D01*
X15219286Y-13863000D01*
X15228809Y-13872524D01*
X15238333Y-13891571D01*
X15247857Y-13929667D01*
X15247857Y-13977286D01*
X15238333Y-14015381D01*
X15228809Y-14034428D01*
X15219286Y-14043952D01*
X15200238Y-14053476D01*
X15181190Y-14053476D01*
X15162143Y-14043952D01*
X15152619Y-14034428D01*
X15143095Y-14015381D01*
X15133571Y-13977286D01*
X15133571Y-13929667D01*
X15143095Y-13891571D01*
X15152619Y-13872524D01*
X15162143Y-13863000D01*
X15181190Y-13853476D01*
X15428809Y-13853476D02*
X15333571Y-13853476D01*
X15324048Y-13948714D01*
X15333571Y-13939190D01*
X15352619Y-13929667D01*
X15400238Y-13929667D01*
X15419286Y-13939190D01*
X15428809Y-13948714D01*
X15438333Y-13967762D01*
X15438333Y-14015381D01*
X15428809Y-14034428D01*
X15419286Y-14043952D01*
X15400238Y-14053476D01*
X15352619Y-14053476D01*
X15333571Y-14043952D01*
X15324048Y-14034428D01*
X15533571Y-14053476D02*
X15571667Y-14053476D01*
X15590714Y-14043952D01*
X15600238Y-14034428D01*
X15619286Y-14005857D01*
X15628809Y-13967762D01*
X15628809Y-13891571D01*
X15619286Y-13872524D01*
X15609762Y-13863000D01*
X15590714Y-13853476D01*
X15552619Y-13853476D01*
X15533571Y-13863000D01*
X15524048Y-13872524D01*
X15514524Y-13891571D01*
X15514524Y-13939190D01*
X15524048Y-13958238D01*
X15533571Y-13967762D01*
X15552619Y-13977286D01*
X15590714Y-13977286D01*
X15609762Y-13967762D01*
X15619286Y-13958238D01*
X15628809Y-13939190D01*
X15819286Y-14053476D02*
X15705000Y-14053476D01*
X15762143Y-14053476D02*
X15762143Y-13853476D01*
X15743095Y-13882048D01*
X15724048Y-13901095D01*
X15705000Y-13910619D01*
X15895476Y-13853476D02*
X15895476Y-13891571D01*
X15971667Y-13853476D02*
X15971667Y-13891571D01*
X16266905Y-14129667D02*
X16257381Y-14120143D01*
X16238333Y-14091571D01*
X16228809Y-14072524D01*
X16219286Y-14043952D01*
X16209762Y-13996333D01*
X16209762Y-13958238D01*
X16219286Y-13910619D01*
X16228809Y-13882048D01*
X16238333Y-13863000D01*
X16257381Y-13834428D01*
X16266905Y-13824905D01*
X16333571Y-13872524D02*
X16343095Y-13863000D01*
X16362143Y-13853476D01*
X16409762Y-13853476D01*
X16428809Y-13863000D01*
X16438333Y-13872524D01*
X16447857Y-13891571D01*
X16447857Y-13910619D01*
X16438333Y-13939190D01*
X16324048Y-14053476D01*
X16447857Y-14053476D01*
X16685952Y-14053476D02*
X16685952Y-13853476D01*
X16771667Y-14053476D02*
X16771667Y-13948714D01*
X16762143Y-13929667D01*
X16743095Y-13920143D01*
X16714524Y-13920143D01*
X16695476Y-13929667D01*
X16685952Y-13939190D01*
X16895476Y-14053476D02*
X16876429Y-14043952D01*
X16866905Y-14034428D01*
X16857381Y-14015381D01*
X16857381Y-13958238D01*
X16866905Y-13939190D01*
X16876429Y-13929667D01*
X16895476Y-13920143D01*
X16924048Y-13920143D01*
X16943095Y-13929667D01*
X16952619Y-13939190D01*
X16962143Y-13958238D01*
X16962143Y-14015381D01*
X16952619Y-14034428D01*
X16943095Y-14043952D01*
X16924048Y-14053476D01*
X16895476Y-14053476D01*
X17076429Y-14053476D02*
X17057381Y-14043952D01*
X17047857Y-14024905D01*
X17047857Y-13853476D01*
X17228810Y-14043952D02*
X17209762Y-14053476D01*
X17171667Y-14053476D01*
X17152619Y-14043952D01*
X17143095Y-14024905D01*
X17143095Y-13948714D01*
X17152619Y-13929667D01*
X17171667Y-13920143D01*
X17209762Y-13920143D01*
X17228810Y-13929667D01*
X17238333Y-13948714D01*
X17238333Y-13967762D01*
X17143095Y-13986809D01*
X17314524Y-14043952D02*
X17333571Y-14053476D01*
X17371667Y-14053476D01*
X17390714Y-14043952D01*
X17400238Y-14024905D01*
X17400238Y-14015381D01*
X17390714Y-13996333D01*
X17371667Y-13986809D01*
X17343095Y-13986809D01*
X17324048Y-13977286D01*
X17314524Y-13958238D01*
X17314524Y-13948714D01*
X17324048Y-13929667D01*
X17343095Y-13920143D01*
X17371667Y-13920143D01*
X17390714Y-13929667D01*
X17466905Y-14129667D02*
X17476429Y-14120143D01*
X17495476Y-14091571D01*
X17505000Y-14072524D01*
X17514524Y-14043952D01*
X17524048Y-13996333D01*
X17524048Y-13958238D01*
X17514524Y-13910619D01*
X17505000Y-13882048D01*
X17495476Y-13863000D01*
X17476429Y-13834428D01*
X17466905Y-13824905D01*
X17828810Y-14129667D02*
X17819286Y-14120143D01*
X17800238Y-14091571D01*
X17790714Y-14072524D01*
X17781190Y-14043952D01*
X17771667Y-13996333D01*
X17771667Y-13958238D01*
X17781190Y-13910619D01*
X17790714Y-13882048D01*
X17800238Y-13863000D01*
X17819286Y-13834428D01*
X17828810Y-13824905D01*
X17905000Y-13920143D02*
X17905000Y-14053476D01*
X17905000Y-13939190D02*
X17914524Y-13929667D01*
X17933571Y-13920143D01*
X17962143Y-13920143D01*
X17981190Y-13929667D01*
X17990714Y-13948714D01*
X17990714Y-14053476D01*
X18114524Y-14053476D02*
X18095476Y-14043952D01*
X18085952Y-14034428D01*
X18076429Y-14015381D01*
X18076429Y-13958238D01*
X18085952Y-13939190D01*
X18095476Y-13929667D01*
X18114524Y-13920143D01*
X18143095Y-13920143D01*
X18162143Y-13929667D01*
X18171667Y-13939190D01*
X18181190Y-13958238D01*
X18181190Y-14015381D01*
X18171667Y-14034428D01*
X18162143Y-14043952D01*
X18143095Y-14053476D01*
X18114524Y-14053476D01*
X18238333Y-13920143D02*
X18314524Y-13920143D01*
X18266905Y-13853476D02*
X18266905Y-14024905D01*
X18276429Y-14043952D01*
X18295476Y-14053476D01*
X18314524Y-14053476D01*
X18533571Y-13920143D02*
X18533571Y-14120143D01*
X18533571Y-13929667D02*
X18552619Y-13920143D01*
X18590714Y-13920143D01*
X18609762Y-13929667D01*
X18619286Y-13939190D01*
X18628810Y-13958238D01*
X18628810Y-14015381D01*
X18619286Y-14034428D01*
X18609762Y-14043952D01*
X18590714Y-14053476D01*
X18552619Y-14053476D01*
X18533571Y-14043952D01*
X18743095Y-14053476D02*
X18724048Y-14043952D01*
X18714524Y-14024905D01*
X18714524Y-13853476D01*
X18905000Y-14053476D02*
X18905000Y-13948714D01*
X18895476Y-13929667D01*
X18876429Y-13920143D01*
X18838333Y-13920143D01*
X18819286Y-13929667D01*
X18905000Y-14043952D02*
X18885952Y-14053476D01*
X18838333Y-14053476D01*
X18819286Y-14043952D01*
X18809762Y-14024905D01*
X18809762Y-14005857D01*
X18819286Y-13986809D01*
X18838333Y-13977286D01*
X18885952Y-13977286D01*
X18905000Y-13967762D01*
X18971667Y-13920143D02*
X19047857Y-13920143D01*
X19000238Y-13853476D02*
X19000238Y-14024905D01*
X19009762Y-14043952D01*
X19028810Y-14053476D01*
X19047857Y-14053476D01*
X19190714Y-14043952D02*
X19171667Y-14053476D01*
X19133571Y-14053476D01*
X19114524Y-14043952D01*
X19105000Y-14024905D01*
X19105000Y-13948714D01*
X19114524Y-13929667D01*
X19133571Y-13920143D01*
X19171667Y-13920143D01*
X19190714Y-13929667D01*
X19200238Y-13948714D01*
X19200238Y-13967762D01*
X19105000Y-13986809D01*
X19371667Y-14053476D02*
X19371667Y-13853476D01*
X19371667Y-14043952D02*
X19352619Y-14053476D01*
X19314524Y-14053476D01*
X19295476Y-14043952D01*
X19285952Y-14034428D01*
X19276429Y-14015381D01*
X19276429Y-13958238D01*
X19285952Y-13939190D01*
X19295476Y-13929667D01*
X19314524Y-13920143D01*
X19352619Y-13920143D01*
X19371667Y-13929667D01*
X19447857Y-14129667D02*
X19457381Y-14120143D01*
X19476429Y-14091571D01*
X19485952Y-14072524D01*
X19495476Y-14043952D01*
X19505000Y-13996333D01*
X19505000Y-13958238D01*
X19495476Y-13910619D01*
X19485952Y-13882048D01*
X19476429Y-13863000D01*
X19457381Y-13834428D01*
X19447857Y-13824905D01*
D15*
X12668640Y-14296640D02*
X12668640Y-14169360D01*
X12541360Y-14169360D01*
X12541360Y-14296640D01*
X12668640Y-14296640D01*
D11*
X13057381Y-14323476D02*
X12943095Y-14323476D01*
X13000238Y-14323476D02*
X13000238Y-14123476D01*
X12981190Y-14152048D01*
X12962143Y-14171095D01*
X12943095Y-14180619D01*
X13143095Y-14304428D02*
X13152619Y-14313952D01*
X13143095Y-14323476D01*
X13133571Y-14313952D01*
X13143095Y-14304428D01*
X13143095Y-14323476D01*
X13266905Y-14209190D02*
X13247857Y-14199667D01*
X13238333Y-14190143D01*
X13228809Y-14171095D01*
X13228809Y-14161571D01*
X13238333Y-14142524D01*
X13247857Y-14133000D01*
X13266905Y-14123476D01*
X13305000Y-14123476D01*
X13324048Y-14133000D01*
X13333571Y-14142524D01*
X13343095Y-14161571D01*
X13343095Y-14171095D01*
X13333571Y-14190143D01*
X13324048Y-14199667D01*
X13305000Y-14209190D01*
X13266905Y-14209190D01*
X13247857Y-14218714D01*
X13238333Y-14228238D01*
X13228809Y-14247286D01*
X13228809Y-14285381D01*
X13238333Y-14304428D01*
X13247857Y-14313952D01*
X13266905Y-14323476D01*
X13305000Y-14323476D01*
X13324048Y-14313952D01*
X13333571Y-14304428D01*
X13343095Y-14285381D01*
X13343095Y-14247286D01*
X13333571Y-14228238D01*
X13324048Y-14218714D01*
X13305000Y-14209190D01*
X13466905Y-14123476D02*
X13485952Y-14123476D01*
X13505000Y-14133000D01*
X13514524Y-14142524D01*
X13524048Y-14161571D01*
X13533571Y-14199667D01*
X13533571Y-14247286D01*
X13524048Y-14285381D01*
X13514524Y-14304428D01*
X13505000Y-14313952D01*
X13485952Y-14323476D01*
X13466905Y-14323476D01*
X13447857Y-14313952D01*
X13438333Y-14304428D01*
X13428809Y-14285381D01*
X13419286Y-14247286D01*
X13419286Y-14199667D01*
X13428809Y-14161571D01*
X13438333Y-14142524D01*
X13447857Y-14133000D01*
X13466905Y-14123476D01*
X13657381Y-14123476D02*
X13676428Y-14123476D01*
X13695476Y-14133000D01*
X13705000Y-14142524D01*
X13714524Y-14161571D01*
X13724048Y-14199667D01*
X13724048Y-14247286D01*
X13714524Y-14285381D01*
X13705000Y-14304428D01*
X13695476Y-14313952D01*
X13676428Y-14323476D01*
X13657381Y-14323476D01*
X13638333Y-14313952D01*
X13628809Y-14304428D01*
X13619286Y-14285381D01*
X13609762Y-14247286D01*
X13609762Y-14199667D01*
X13619286Y-14161571D01*
X13628809Y-14142524D01*
X13638333Y-14133000D01*
X13657381Y-14123476D01*
X13809762Y-14323476D02*
X13809762Y-14190143D01*
X13809762Y-14209190D02*
X13819286Y-14199667D01*
X13838333Y-14190143D01*
X13866905Y-14190143D01*
X13885952Y-14199667D01*
X13895476Y-14218714D01*
X13895476Y-14323476D01*
X13895476Y-14218714D02*
X13905000Y-14199667D01*
X13924048Y-14190143D01*
X13952619Y-14190143D01*
X13971667Y-14199667D01*
X13981190Y-14218714D01*
X13981190Y-14323476D01*
X14076428Y-14323476D02*
X14076428Y-14190143D01*
X14076428Y-14209190D02*
X14085952Y-14199667D01*
X14105000Y-14190143D01*
X14133571Y-14190143D01*
X14152619Y-14199667D01*
X14162143Y-14218714D01*
X14162143Y-14323476D01*
X14162143Y-14218714D02*
X14171667Y-14199667D01*
X14190714Y-14190143D01*
X14219286Y-14190143D01*
X14238333Y-14199667D01*
X14247857Y-14218714D01*
X14247857Y-14323476D01*
X14638333Y-14113952D02*
X14466905Y-14371095D01*
X14895476Y-14123476D02*
X14914524Y-14123476D01*
X14933571Y-14133000D01*
X14943095Y-14142524D01*
X14952619Y-14161571D01*
X14962143Y-14199667D01*
X14962143Y-14247286D01*
X14952619Y-14285381D01*
X14943095Y-14304428D01*
X14933571Y-14313952D01*
X14914524Y-14323476D01*
X14895476Y-14323476D01*
X14876428Y-14313952D01*
X14866905Y-14304428D01*
X14857381Y-14285381D01*
X14847857Y-14247286D01*
X14847857Y-14199667D01*
X14857381Y-14161571D01*
X14866905Y-14142524D01*
X14876428Y-14133000D01*
X14895476Y-14123476D01*
X15047857Y-14304428D02*
X15057381Y-14313952D01*
X15047857Y-14323476D01*
X15038333Y-14313952D01*
X15047857Y-14304428D01*
X15047857Y-14323476D01*
X15181190Y-14123476D02*
X15200238Y-14123476D01*
X15219286Y-14133000D01*
X15228809Y-14142524D01*
X15238333Y-14161571D01*
X15247857Y-14199667D01*
X15247857Y-14247286D01*
X15238333Y-14285381D01*
X15228809Y-14304428D01*
X15219286Y-14313952D01*
X15200238Y-14323476D01*
X15181190Y-14323476D01*
X15162143Y-14313952D01*
X15152619Y-14304428D01*
X15143095Y-14285381D01*
X15133571Y-14247286D01*
X15133571Y-14199667D01*
X15143095Y-14161571D01*
X15152619Y-14142524D01*
X15162143Y-14133000D01*
X15181190Y-14123476D01*
X15314524Y-14123476D02*
X15447857Y-14123476D01*
X15362143Y-14323476D01*
X15562143Y-14123476D02*
X15581190Y-14123476D01*
X15600238Y-14133000D01*
X15609762Y-14142524D01*
X15619286Y-14161571D01*
X15628809Y-14199667D01*
X15628809Y-14247286D01*
X15619286Y-14285381D01*
X15609762Y-14304428D01*
X15600238Y-14313952D01*
X15581190Y-14323476D01*
X15562143Y-14323476D01*
X15543095Y-14313952D01*
X15533571Y-14304428D01*
X15524048Y-14285381D01*
X15514524Y-14247286D01*
X15514524Y-14199667D01*
X15524048Y-14161571D01*
X15533571Y-14142524D01*
X15543095Y-14133000D01*
X15562143Y-14123476D01*
X15724048Y-14323476D02*
X15762143Y-14323476D01*
X15781190Y-14313952D01*
X15790714Y-14304428D01*
X15809762Y-14275857D01*
X15819286Y-14237762D01*
X15819286Y-14161571D01*
X15809762Y-14142524D01*
X15800238Y-14133000D01*
X15781190Y-14123476D01*
X15743095Y-14123476D01*
X15724048Y-14133000D01*
X15714524Y-14142524D01*
X15705000Y-14161571D01*
X15705000Y-14209190D01*
X15714524Y-14228238D01*
X15724048Y-14237762D01*
X15743095Y-14247286D01*
X15781190Y-14247286D01*
X15800238Y-14237762D01*
X15809762Y-14228238D01*
X15819286Y-14209190D01*
X15895476Y-14123476D02*
X15895476Y-14161571D01*
X15971667Y-14123476D02*
X15971667Y-14161571D01*
X16266905Y-14399667D02*
X16257381Y-14390143D01*
X16238333Y-14361571D01*
X16228809Y-14342524D01*
X16219286Y-14313952D01*
X16209762Y-14266333D01*
X16209762Y-14228238D01*
X16219286Y-14180619D01*
X16228809Y-14152048D01*
X16238333Y-14133000D01*
X16257381Y-14104428D01*
X16266905Y-14094905D01*
X16333571Y-14142524D02*
X16343095Y-14133000D01*
X16362143Y-14123476D01*
X16409762Y-14123476D01*
X16428809Y-14133000D01*
X16438333Y-14142524D01*
X16447857Y-14161571D01*
X16447857Y-14180619D01*
X16438333Y-14209190D01*
X16324048Y-14323476D01*
X16447857Y-14323476D01*
X16685952Y-14323476D02*
X16685952Y-14123476D01*
X16771667Y-14323476D02*
X16771667Y-14218714D01*
X16762143Y-14199667D01*
X16743095Y-14190143D01*
X16714524Y-14190143D01*
X16695476Y-14199667D01*
X16685952Y-14209190D01*
X16895476Y-14323476D02*
X16876429Y-14313952D01*
X16866905Y-14304428D01*
X16857381Y-14285381D01*
X16857381Y-14228238D01*
X16866905Y-14209190D01*
X16876429Y-14199667D01*
X16895476Y-14190143D01*
X16924048Y-14190143D01*
X16943095Y-14199667D01*
X16952619Y-14209190D01*
X16962143Y-14228238D01*
X16962143Y-14285381D01*
X16952619Y-14304428D01*
X16943095Y-14313952D01*
X16924048Y-14323476D01*
X16895476Y-14323476D01*
X17076429Y-14323476D02*
X17057381Y-14313952D01*
X17047857Y-14294905D01*
X17047857Y-14123476D01*
X17228810Y-14313952D02*
X17209762Y-14323476D01*
X17171667Y-14323476D01*
X17152619Y-14313952D01*
X17143095Y-14294905D01*
X17143095Y-14218714D01*
X17152619Y-14199667D01*
X17171667Y-14190143D01*
X17209762Y-14190143D01*
X17228810Y-14199667D01*
X17238333Y-14218714D01*
X17238333Y-14237762D01*
X17143095Y-14256809D01*
X17314524Y-14313952D02*
X17333571Y-14323476D01*
X17371667Y-14323476D01*
X17390714Y-14313952D01*
X17400238Y-14294905D01*
X17400238Y-14285381D01*
X17390714Y-14266333D01*
X17371667Y-14256809D01*
X17343095Y-14256809D01*
X17324048Y-14247286D01*
X17314524Y-14228238D01*
X17314524Y-14218714D01*
X17324048Y-14199667D01*
X17343095Y-14190143D01*
X17371667Y-14190143D01*
X17390714Y-14199667D01*
X17466905Y-14399667D02*
X17476429Y-14390143D01*
X17495476Y-14361571D01*
X17505000Y-14342524D01*
X17514524Y-14313952D01*
X17524048Y-14266333D01*
X17524048Y-14228238D01*
X17514524Y-14180619D01*
X17505000Y-14152048D01*
X17495476Y-14133000D01*
X17476429Y-14104428D01*
X17466905Y-14094905D01*
X17828810Y-14399667D02*
X17819286Y-14390143D01*
X17800238Y-14361571D01*
X17790714Y-14342524D01*
X17781190Y-14313952D01*
X17771667Y-14266333D01*
X17771667Y-14228238D01*
X17781190Y-14180619D01*
X17790714Y-14152048D01*
X17800238Y-14133000D01*
X17819286Y-14104428D01*
X17828810Y-14094905D01*
X17905000Y-14190143D02*
X17905000Y-14323476D01*
X17905000Y-14209190D02*
X17914524Y-14199667D01*
X17933571Y-14190143D01*
X17962143Y-14190143D01*
X17981190Y-14199667D01*
X17990714Y-14218714D01*
X17990714Y-14323476D01*
X18114524Y-14323476D02*
X18095476Y-14313952D01*
X18085952Y-14304428D01*
X18076429Y-14285381D01*
X18076429Y-14228238D01*
X18085952Y-14209190D01*
X18095476Y-14199667D01*
X18114524Y-14190143D01*
X18143095Y-14190143D01*
X18162143Y-14199667D01*
X18171667Y-14209190D01*
X18181190Y-14228238D01*
X18181190Y-14285381D01*
X18171667Y-14304428D01*
X18162143Y-14313952D01*
X18143095Y-14323476D01*
X18114524Y-14323476D01*
X18238333Y-14190143D02*
X18314524Y-14190143D01*
X18266905Y-14123476D02*
X18266905Y-14294905D01*
X18276429Y-14313952D01*
X18295476Y-14323476D01*
X18314524Y-14323476D01*
X18533571Y-14190143D02*
X18533571Y-14390143D01*
X18533571Y-14199667D02*
X18552619Y-14190143D01*
X18590714Y-14190143D01*
X18609762Y-14199667D01*
X18619286Y-14209190D01*
X18628810Y-14228238D01*
X18628810Y-14285381D01*
X18619286Y-14304428D01*
X18609762Y-14313952D01*
X18590714Y-14323476D01*
X18552619Y-14323476D01*
X18533571Y-14313952D01*
X18743095Y-14323476D02*
X18724048Y-14313952D01*
X18714524Y-14294905D01*
X18714524Y-14123476D01*
X18905000Y-14323476D02*
X18905000Y-14218714D01*
X18895476Y-14199667D01*
X18876429Y-14190143D01*
X18838333Y-14190143D01*
X18819286Y-14199667D01*
X18905000Y-14313952D02*
X18885952Y-14323476D01*
X18838333Y-14323476D01*
X18819286Y-14313952D01*
X18809762Y-14294905D01*
X18809762Y-14275857D01*
X18819286Y-14256809D01*
X18838333Y-14247286D01*
X18885952Y-14247286D01*
X18905000Y-14237762D01*
X18971667Y-14190143D02*
X19047857Y-14190143D01*
X19000238Y-14123476D02*
X19000238Y-14294905D01*
X19009762Y-14313952D01*
X19028810Y-14323476D01*
X19047857Y-14323476D01*
X19190714Y-14313952D02*
X19171667Y-14323476D01*
X19133571Y-14323476D01*
X19114524Y-14313952D01*
X19105000Y-14294905D01*
X19105000Y-14218714D01*
X19114524Y-14199667D01*
X19133571Y-14190143D01*
X19171667Y-14190143D01*
X19190714Y-14199667D01*
X19200238Y-14218714D01*
X19200238Y-14237762D01*
X19105000Y-14256809D01*
X19371667Y-14323476D02*
X19371667Y-14123476D01*
X19371667Y-14313952D02*
X19352619Y-14323476D01*
X19314524Y-14323476D01*
X19295476Y-14313952D01*
X19285952Y-14304428D01*
X19276429Y-14285381D01*
X19276429Y-14228238D01*
X19285952Y-14209190D01*
X19295476Y-14199667D01*
X19314524Y-14190143D01*
X19352619Y-14190143D01*
X19371667Y-14199667D01*
X19447857Y-14399667D02*
X19457381Y-14390143D01*
X19476429Y-14361571D01*
X19485952Y-14342524D01*
X19495476Y-14313952D01*
X19505000Y-14266333D01*
X19505000Y-14228238D01*
X19495476Y-14180619D01*
X19485952Y-14152048D01*
X19476429Y-14133000D01*
X19457381Y-14104428D01*
X19447857Y-14094905D01*
X12595000Y-14633000D02*
X12695000Y-14533000D01*
X12595000Y-14433000D01*
X12495000Y-14533000D01*
X12595000Y-14633000D01*
X12943095Y-14442524D02*
X12952619Y-14433000D01*
X12971667Y-14423476D01*
X13019286Y-14423476D01*
X13038333Y-14433000D01*
X13047857Y-14442524D01*
X13057381Y-14461571D01*
X13057381Y-14480619D01*
X13047857Y-14509190D01*
X12933571Y-14623476D01*
X13057381Y-14623476D01*
X13143095Y-14604428D02*
X13152619Y-14613952D01*
X13143095Y-14623476D01*
X13133571Y-14613952D01*
X13143095Y-14604428D01*
X13143095Y-14623476D01*
X13343095Y-14623476D02*
X13228809Y-14623476D01*
X13285952Y-14623476D02*
X13285952Y-14423476D01*
X13266905Y-14452048D01*
X13247857Y-14471095D01*
X13228809Y-14480619D01*
X13466905Y-14423476D02*
X13485952Y-14423476D01*
X13505000Y-14433000D01*
X13514524Y-14442524D01*
X13524048Y-14461571D01*
X13533571Y-14499667D01*
X13533571Y-14547286D01*
X13524048Y-14585381D01*
X13514524Y-14604428D01*
X13505000Y-14613952D01*
X13485952Y-14623476D01*
X13466905Y-14623476D01*
X13447857Y-14613952D01*
X13438333Y-14604428D01*
X13428809Y-14585381D01*
X13419286Y-14547286D01*
X13419286Y-14499667D01*
X13428809Y-14461571D01*
X13438333Y-14442524D01*
X13447857Y-14433000D01*
X13466905Y-14423476D01*
X13657381Y-14423476D02*
X13676428Y-14423476D01*
X13695476Y-14433000D01*
X13705000Y-14442524D01*
X13714524Y-14461571D01*
X13724048Y-14499667D01*
X13724048Y-14547286D01*
X13714524Y-14585381D01*
X13705000Y-14604428D01*
X13695476Y-14613952D01*
X13676428Y-14623476D01*
X13657381Y-14623476D01*
X13638333Y-14613952D01*
X13628809Y-14604428D01*
X13619286Y-14585381D01*
X13609762Y-14547286D01*
X13609762Y-14499667D01*
X13619286Y-14461571D01*
X13628809Y-14442524D01*
X13638333Y-14433000D01*
X13657381Y-14423476D01*
X13809762Y-14623476D02*
X13809762Y-14490143D01*
X13809762Y-14509190D02*
X13819286Y-14499667D01*
X13838333Y-14490143D01*
X13866905Y-14490143D01*
X13885952Y-14499667D01*
X13895476Y-14518714D01*
X13895476Y-14623476D01*
X13895476Y-14518714D02*
X13905000Y-14499667D01*
X13924048Y-14490143D01*
X13952619Y-14490143D01*
X13971667Y-14499667D01*
X13981190Y-14518714D01*
X13981190Y-14623476D01*
X14076428Y-14623476D02*
X14076428Y-14490143D01*
X14076428Y-14509190D02*
X14085952Y-14499667D01*
X14105000Y-14490143D01*
X14133571Y-14490143D01*
X14152619Y-14499667D01*
X14162143Y-14518714D01*
X14162143Y-14623476D01*
X14162143Y-14518714D02*
X14171667Y-14499667D01*
X14190714Y-14490143D01*
X14219286Y-14490143D01*
X14238333Y-14499667D01*
X14247857Y-14518714D01*
X14247857Y-14623476D01*
X14638333Y-14413952D02*
X14466905Y-14671095D01*
X14895476Y-14423476D02*
X14914524Y-14423476D01*
X14933571Y-14433000D01*
X14943095Y-14442524D01*
X14952619Y-14461571D01*
X14962143Y-14499667D01*
X14962143Y-14547286D01*
X14952619Y-14585381D01*
X14943095Y-14604428D01*
X14933571Y-14613952D01*
X14914524Y-14623476D01*
X14895476Y-14623476D01*
X14876428Y-14613952D01*
X14866905Y-14604428D01*
X14857381Y-14585381D01*
X14847857Y-14547286D01*
X14847857Y-14499667D01*
X14857381Y-14461571D01*
X14866905Y-14442524D01*
X14876428Y-14433000D01*
X14895476Y-14423476D01*
X15047857Y-14604428D02*
X15057381Y-14613952D01*
X15047857Y-14623476D01*
X15038333Y-14613952D01*
X15047857Y-14604428D01*
X15047857Y-14623476D01*
X15181190Y-14423476D02*
X15200238Y-14423476D01*
X15219286Y-14433000D01*
X15228809Y-14442524D01*
X15238333Y-14461571D01*
X15247857Y-14499667D01*
X15247857Y-14547286D01*
X15238333Y-14585381D01*
X15228809Y-14604428D01*
X15219286Y-14613952D01*
X15200238Y-14623476D01*
X15181190Y-14623476D01*
X15162143Y-14613952D01*
X15152619Y-14604428D01*
X15143095Y-14585381D01*
X15133571Y-14547286D01*
X15133571Y-14499667D01*
X15143095Y-14461571D01*
X15152619Y-14442524D01*
X15162143Y-14433000D01*
X15181190Y-14423476D01*
X15362143Y-14509190D02*
X15343095Y-14499667D01*
X15333571Y-14490143D01*
X15324048Y-14471095D01*
X15324048Y-14461571D01*
X15333571Y-14442524D01*
X15343095Y-14433000D01*
X15362143Y-14423476D01*
X15400238Y-14423476D01*
X15419286Y-14433000D01*
X15428809Y-14442524D01*
X15438333Y-14461571D01*
X15438333Y-14471095D01*
X15428809Y-14490143D01*
X15419286Y-14499667D01*
X15400238Y-14509190D01*
X15362143Y-14509190D01*
X15343095Y-14518714D01*
X15333571Y-14528238D01*
X15324048Y-14547286D01*
X15324048Y-14585381D01*
X15333571Y-14604428D01*
X15343095Y-14613952D01*
X15362143Y-14623476D01*
X15400238Y-14623476D01*
X15419286Y-14613952D01*
X15428809Y-14604428D01*
X15438333Y-14585381D01*
X15438333Y-14547286D01*
X15428809Y-14528238D01*
X15419286Y-14518714D01*
X15400238Y-14509190D01*
X15514524Y-14442524D02*
X15524048Y-14433000D01*
X15543095Y-14423476D01*
X15590714Y-14423476D01*
X15609762Y-14433000D01*
X15619286Y-14442524D01*
X15628809Y-14461571D01*
X15628809Y-14480619D01*
X15619286Y-14509190D01*
X15505000Y-14623476D01*
X15628809Y-14623476D01*
X15695476Y-14423476D02*
X15828809Y-14423476D01*
X15743095Y-14623476D01*
X15895476Y-14423476D02*
X15895476Y-14461571D01*
X15971667Y-14423476D02*
X15971667Y-14461571D01*
X16266905Y-14699667D02*
X16257381Y-14690143D01*
X16238333Y-14661571D01*
X16228809Y-14642524D01*
X16219286Y-14613952D01*
X16209762Y-14566333D01*
X16209762Y-14528238D01*
X16219286Y-14480619D01*
X16228809Y-14452048D01*
X16238333Y-14433000D01*
X16257381Y-14404428D01*
X16266905Y-14394905D01*
X16428809Y-14490143D02*
X16428809Y-14623476D01*
X16381190Y-14413952D02*
X16333571Y-14556809D01*
X16457381Y-14556809D01*
X16685952Y-14623476D02*
X16685952Y-14423476D01*
X16771667Y-14623476D02*
X16771667Y-14518714D01*
X16762143Y-14499667D01*
X16743095Y-14490143D01*
X16714524Y-14490143D01*
X16695476Y-14499667D01*
X16685952Y-14509190D01*
X16895476Y-14623476D02*
X16876429Y-14613952D01*
X16866905Y-14604428D01*
X16857381Y-14585381D01*
X16857381Y-14528238D01*
X16866905Y-14509190D01*
X16876429Y-14499667D01*
X16895476Y-14490143D01*
X16924048Y-14490143D01*
X16943095Y-14499667D01*
X16952619Y-14509190D01*
X16962143Y-14528238D01*
X16962143Y-14585381D01*
X16952619Y-14604428D01*
X16943095Y-14613952D01*
X16924048Y-14623476D01*
X16895476Y-14623476D01*
X17076429Y-14623476D02*
X17057381Y-14613952D01*
X17047857Y-14594905D01*
X17047857Y-14423476D01*
X17228810Y-14613952D02*
X17209762Y-14623476D01*
X17171667Y-14623476D01*
X17152619Y-14613952D01*
X17143095Y-14594905D01*
X17143095Y-14518714D01*
X17152619Y-14499667D01*
X17171667Y-14490143D01*
X17209762Y-14490143D01*
X17228810Y-14499667D01*
X17238333Y-14518714D01*
X17238333Y-14537762D01*
X17143095Y-14556809D01*
X17314524Y-14613952D02*
X17333571Y-14623476D01*
X17371667Y-14623476D01*
X17390714Y-14613952D01*
X17400238Y-14594905D01*
X17400238Y-14585381D01*
X17390714Y-14566333D01*
X17371667Y-14556809D01*
X17343095Y-14556809D01*
X17324048Y-14547286D01*
X17314524Y-14528238D01*
X17314524Y-14518714D01*
X17324048Y-14499667D01*
X17343095Y-14490143D01*
X17371667Y-14490143D01*
X17390714Y-14499667D01*
X17466905Y-14699667D02*
X17476429Y-14690143D01*
X17495476Y-14661571D01*
X17505000Y-14642524D01*
X17514524Y-14613952D01*
X17524048Y-14566333D01*
X17524048Y-14528238D01*
X17514524Y-14480619D01*
X17505000Y-14452048D01*
X17495476Y-14433000D01*
X17476429Y-14404428D01*
X17466905Y-14394905D01*
X17828810Y-14699667D02*
X17819286Y-14690143D01*
X17800238Y-14661571D01*
X17790714Y-14642524D01*
X17781190Y-14613952D01*
X17771667Y-14566333D01*
X17771667Y-14528238D01*
X17781190Y-14480619D01*
X17790714Y-14452048D01*
X17800238Y-14433000D01*
X17819286Y-14404428D01*
X17828810Y-14394905D01*
X17905000Y-14490143D02*
X17905000Y-14623476D01*
X17905000Y-14509190D02*
X17914524Y-14499667D01*
X17933571Y-14490143D01*
X17962143Y-14490143D01*
X17981190Y-14499667D01*
X17990714Y-14518714D01*
X17990714Y-14623476D01*
X18114524Y-14623476D02*
X18095476Y-14613952D01*
X18085952Y-14604428D01*
X18076429Y-14585381D01*
X18076429Y-14528238D01*
X18085952Y-14509190D01*
X18095476Y-14499667D01*
X18114524Y-14490143D01*
X18143095Y-14490143D01*
X18162143Y-14499667D01*
X18171667Y-14509190D01*
X18181190Y-14528238D01*
X18181190Y-14585381D01*
X18171667Y-14604428D01*
X18162143Y-14613952D01*
X18143095Y-14623476D01*
X18114524Y-14623476D01*
X18238333Y-14490143D02*
X18314524Y-14490143D01*
X18266905Y-14423476D02*
X18266905Y-14594905D01*
X18276429Y-14613952D01*
X18295476Y-14623476D01*
X18314524Y-14623476D01*
X18533571Y-14490143D02*
X18533571Y-14690143D01*
X18533571Y-14499667D02*
X18552619Y-14490143D01*
X18590714Y-14490143D01*
X18609762Y-14499667D01*
X18619286Y-14509190D01*
X18628810Y-14528238D01*
X18628810Y-14585381D01*
X18619286Y-14604428D01*
X18609762Y-14613952D01*
X18590714Y-14623476D01*
X18552619Y-14623476D01*
X18533571Y-14613952D01*
X18743095Y-14623476D02*
X18724048Y-14613952D01*
X18714524Y-14594905D01*
X18714524Y-14423476D01*
X18905000Y-14623476D02*
X18905000Y-14518714D01*
X18895476Y-14499667D01*
X18876429Y-14490143D01*
X18838333Y-14490143D01*
X18819286Y-14499667D01*
X18905000Y-14613952D02*
X18885952Y-14623476D01*
X18838333Y-14623476D01*
X18819286Y-14613952D01*
X18809762Y-14594905D01*
X18809762Y-14575857D01*
X18819286Y-14556809D01*
X18838333Y-14547286D01*
X18885952Y-14547286D01*
X18905000Y-14537762D01*
X18971667Y-14490143D02*
X19047857Y-14490143D01*
X19000238Y-14423476D02*
X19000238Y-14594905D01*
X19009762Y-14613952D01*
X19028810Y-14623476D01*
X19047857Y-14623476D01*
X19190714Y-14613952D02*
X19171667Y-14623476D01*
X19133571Y-14623476D01*
X19114524Y-14613952D01*
X19105000Y-14594905D01*
X19105000Y-14518714D01*
X19114524Y-14499667D01*
X19133571Y-14490143D01*
X19171667Y-14490143D01*
X19190714Y-14499667D01*
X19200238Y-14518714D01*
X19200238Y-14537762D01*
X19105000Y-14556809D01*
X19371667Y-14623476D02*
X19371667Y-14423476D01*
X19371667Y-14613952D02*
X19352619Y-14623476D01*
X19314524Y-14623476D01*
X19295476Y-14613952D01*
X19285952Y-14604428D01*
X19276429Y-14585381D01*
X19276429Y-14528238D01*
X19285952Y-14509190D01*
X19295476Y-14499667D01*
X19314524Y-14490143D01*
X19352619Y-14490143D01*
X19371667Y-14499667D01*
X19447857Y-14699667D02*
X19457381Y-14690143D01*
X19476429Y-14661571D01*
X19485952Y-14642524D01*
X19495476Y-14613952D01*
X19505000Y-14566333D01*
X19505000Y-14528238D01*
X19495476Y-14480619D01*
X19485952Y-14452048D01*
X19476429Y-14433000D01*
X19457381Y-14404428D01*
X19447857Y-14394905D01*
M02*
