%TF.GenerationSoftware,KiCad,Pcbnew,(6.0.2)*%
%TF.CreationDate,2022-03-20T12:26:15-06:00*%
%TF.ProjectId,carrier_board,63617272-6965-4725-9f62-6f6172642e6b,1*%
%TF.SameCoordinates,Original*%
%TF.FileFunction,Legend,Bot*%
%TF.FilePolarity,Positive*%
%FSLAX46Y46*%
G04 Gerber Fmt 4.6, Leading zero omitted, Abs format (unit mm)*
G04 Created by KiCad (PCBNEW (6.0.2)) date 2022-03-20 12:26:15*
%MOMM*%
%LPD*%
G01*
G04 APERTURE LIST*
%ADD10C,0.150000*%
%ADD11C,0.010000*%
G04 APERTURE END LIST*
D10*
X157190476Y-118647380D02*
X157000000Y-118647380D01*
X156904761Y-118695000D01*
X156809523Y-118790238D01*
X156761904Y-118980714D01*
X156761904Y-119314047D01*
X156809523Y-119504523D01*
X156904761Y-119599761D01*
X157000000Y-119647380D01*
X157190476Y-119647380D01*
X157285714Y-119599761D01*
X157380952Y-119504523D01*
X157428571Y-119314047D01*
X157428571Y-118980714D01*
X157380952Y-118790238D01*
X157285714Y-118695000D01*
X157190476Y-118647380D01*
X156333333Y-118980714D02*
X156333333Y-119980714D01*
X156333333Y-119028333D02*
X156238095Y-118980714D01*
X156047619Y-118980714D01*
X155952380Y-119028333D01*
X155904761Y-119075952D01*
X155857142Y-119171190D01*
X155857142Y-119456904D01*
X155904761Y-119552142D01*
X155952380Y-119599761D01*
X156047619Y-119647380D01*
X156238095Y-119647380D01*
X156333333Y-119599761D01*
X155047619Y-119599761D02*
X155142857Y-119647380D01*
X155333333Y-119647380D01*
X155428571Y-119599761D01*
X155476190Y-119504523D01*
X155476190Y-119123571D01*
X155428571Y-119028333D01*
X155333333Y-118980714D01*
X155142857Y-118980714D01*
X155047619Y-119028333D01*
X155000000Y-119123571D01*
X155000000Y-119218809D01*
X155476190Y-119314047D01*
X154571428Y-118980714D02*
X154571428Y-119647380D01*
X154571428Y-119075952D02*
X154523809Y-119028333D01*
X154428571Y-118980714D01*
X154285714Y-118980714D01*
X154190476Y-119028333D01*
X154142857Y-119123571D01*
X154142857Y-119647380D01*
X153095238Y-119647380D02*
X153428571Y-119171190D01*
X153666666Y-119647380D02*
X153666666Y-118647380D01*
X153285714Y-118647380D01*
X153190476Y-118695000D01*
X153142857Y-118742619D01*
X153095238Y-118837857D01*
X153095238Y-118980714D01*
X153142857Y-119075952D01*
X153190476Y-119123571D01*
X153285714Y-119171190D01*
X153666666Y-119171190D01*
X152285714Y-119599761D02*
X152380952Y-119647380D01*
X152571428Y-119647380D01*
X152666666Y-119599761D01*
X152714285Y-119504523D01*
X152714285Y-119123571D01*
X152666666Y-119028333D01*
X152571428Y-118980714D01*
X152380952Y-118980714D01*
X152285714Y-119028333D01*
X152238095Y-119123571D01*
X152238095Y-119218809D01*
X152714285Y-119314047D01*
X151857142Y-119599761D02*
X151761904Y-119647380D01*
X151571428Y-119647380D01*
X151476190Y-119599761D01*
X151428571Y-119504523D01*
X151428571Y-119456904D01*
X151476190Y-119361666D01*
X151571428Y-119314047D01*
X151714285Y-119314047D01*
X151809523Y-119266428D01*
X151857142Y-119171190D01*
X151857142Y-119123571D01*
X151809523Y-119028333D01*
X151714285Y-118980714D01*
X151571428Y-118980714D01*
X151476190Y-119028333D01*
X150619047Y-119599761D02*
X150714285Y-119647380D01*
X150904761Y-119647380D01*
X151000000Y-119599761D01*
X151047619Y-119504523D01*
X151047619Y-119123571D01*
X151000000Y-119028333D01*
X150904761Y-118980714D01*
X150714285Y-118980714D01*
X150619047Y-119028333D01*
X150571428Y-119123571D01*
X150571428Y-119218809D01*
X151047619Y-119314047D01*
X150285714Y-118980714D02*
X149904761Y-118980714D01*
X150142857Y-118647380D02*
X150142857Y-119504523D01*
X150095238Y-119599761D01*
X150000000Y-119647380D01*
X149904761Y-119647380D01*
X148238095Y-119552142D02*
X148285714Y-119599761D01*
X148428571Y-119647380D01*
X148523809Y-119647380D01*
X148666666Y-119599761D01*
X148761904Y-119504523D01*
X148809523Y-119409285D01*
X148857142Y-119218809D01*
X148857142Y-119075952D01*
X148809523Y-118885476D01*
X148761904Y-118790238D01*
X148666666Y-118695000D01*
X148523809Y-118647380D01*
X148428571Y-118647380D01*
X148285714Y-118695000D01*
X148238095Y-118742619D01*
X147380952Y-119647380D02*
X147380952Y-119123571D01*
X147428571Y-119028333D01*
X147523809Y-118980714D01*
X147714285Y-118980714D01*
X147809523Y-119028333D01*
X147380952Y-119599761D02*
X147476190Y-119647380D01*
X147714285Y-119647380D01*
X147809523Y-119599761D01*
X147857142Y-119504523D01*
X147857142Y-119409285D01*
X147809523Y-119314047D01*
X147714285Y-119266428D01*
X147476190Y-119266428D01*
X147380952Y-119218809D01*
X146904761Y-119647380D02*
X146904761Y-118980714D01*
X146904761Y-119171190D02*
X146857142Y-119075952D01*
X146809523Y-119028333D01*
X146714285Y-118980714D01*
X146619047Y-118980714D01*
X146285714Y-119647380D02*
X146285714Y-118980714D01*
X146285714Y-119171190D02*
X146238095Y-119075952D01*
X146190476Y-119028333D01*
X146095238Y-118980714D01*
X146000000Y-118980714D01*
X145666666Y-119647380D02*
X145666666Y-118980714D01*
X145666666Y-118647380D02*
X145714285Y-118695000D01*
X145666666Y-118742619D01*
X145619047Y-118695000D01*
X145666666Y-118647380D01*
X145666666Y-118742619D01*
X144809523Y-119599761D02*
X144904761Y-119647380D01*
X145095238Y-119647380D01*
X145190476Y-119599761D01*
X145238095Y-119504523D01*
X145238095Y-119123571D01*
X145190476Y-119028333D01*
X145095238Y-118980714D01*
X144904761Y-118980714D01*
X144809523Y-119028333D01*
X144761904Y-119123571D01*
X144761904Y-119218809D01*
X145238095Y-119314047D01*
X144333333Y-119647380D02*
X144333333Y-118980714D01*
X144333333Y-119171190D02*
X144285714Y-119075952D01*
X144238095Y-119028333D01*
X144142857Y-118980714D01*
X144047619Y-118980714D01*
X142619047Y-119123571D02*
X142476190Y-119171190D01*
X142428571Y-119218809D01*
X142380952Y-119314047D01*
X142380952Y-119456904D01*
X142428571Y-119552142D01*
X142476190Y-119599761D01*
X142571428Y-119647380D01*
X142952380Y-119647380D01*
X142952380Y-118647380D01*
X142619047Y-118647380D01*
X142523809Y-118695000D01*
X142476190Y-118742619D01*
X142428571Y-118837857D01*
X142428571Y-118933095D01*
X142476190Y-119028333D01*
X142523809Y-119075952D01*
X142619047Y-119123571D01*
X142952380Y-119123571D01*
X141809523Y-119647380D02*
X141904761Y-119599761D01*
X141952380Y-119552142D01*
X142000000Y-119456904D01*
X142000000Y-119171190D01*
X141952380Y-119075952D01*
X141904761Y-119028333D01*
X141809523Y-118980714D01*
X141666666Y-118980714D01*
X141571428Y-119028333D01*
X141523809Y-119075952D01*
X141476190Y-119171190D01*
X141476190Y-119456904D01*
X141523809Y-119552142D01*
X141571428Y-119599761D01*
X141666666Y-119647380D01*
X141809523Y-119647380D01*
X140619047Y-119647380D02*
X140619047Y-119123571D01*
X140666666Y-119028333D01*
X140761904Y-118980714D01*
X140952380Y-118980714D01*
X141047619Y-119028333D01*
X140619047Y-119599761D02*
X140714285Y-119647380D01*
X140952380Y-119647380D01*
X141047619Y-119599761D01*
X141095238Y-119504523D01*
X141095238Y-119409285D01*
X141047619Y-119314047D01*
X140952380Y-119266428D01*
X140714285Y-119266428D01*
X140619047Y-119218809D01*
X140142857Y-119647380D02*
X140142857Y-118980714D01*
X140142857Y-119171190D02*
X140095238Y-119075952D01*
X140047619Y-119028333D01*
X139952380Y-118980714D01*
X139857142Y-118980714D01*
X139095238Y-119647380D02*
X139095238Y-118647380D01*
X139095238Y-119599761D02*
X139190476Y-119647380D01*
X139380952Y-119647380D01*
X139476190Y-119599761D01*
X139523809Y-119552142D01*
X139571428Y-119456904D01*
X139571428Y-119171190D01*
X139523809Y-119075952D01*
X139476190Y-119028333D01*
X139380952Y-118980714D01*
X139190476Y-118980714D01*
X139095238Y-119028333D01*
X137952380Y-118980714D02*
X137714285Y-119647380D01*
X137476190Y-118980714D01*
X136571428Y-119647380D02*
X137142857Y-119647380D01*
X136857142Y-119647380D02*
X136857142Y-118647380D01*
X136952380Y-118790238D01*
X137047619Y-118885476D01*
X137142857Y-118933095D01*
X151761904Y-121209761D02*
X151857142Y-121257380D01*
X152047619Y-121257380D01*
X152142857Y-121209761D01*
X152190476Y-121162142D01*
X152238095Y-121066904D01*
X152238095Y-120781190D01*
X152190476Y-120685952D01*
X152142857Y-120638333D01*
X152047619Y-120590714D01*
X151857142Y-120590714D01*
X151761904Y-120638333D01*
X150904761Y-121257380D02*
X150904761Y-120733571D01*
X150952380Y-120638333D01*
X151047619Y-120590714D01*
X151238095Y-120590714D01*
X151333333Y-120638333D01*
X150904761Y-121209761D02*
X151000000Y-121257380D01*
X151238095Y-121257380D01*
X151333333Y-121209761D01*
X151380952Y-121114523D01*
X151380952Y-121019285D01*
X151333333Y-120924047D01*
X151238095Y-120876428D01*
X151000000Y-120876428D01*
X150904761Y-120828809D01*
X150428571Y-121257380D02*
X150428571Y-120590714D01*
X150428571Y-120781190D02*
X150380952Y-120685952D01*
X150333333Y-120638333D01*
X150238095Y-120590714D01*
X150142857Y-120590714D01*
X149380952Y-121257380D02*
X149380952Y-120733571D01*
X149428571Y-120638333D01*
X149523809Y-120590714D01*
X149714285Y-120590714D01*
X149809523Y-120638333D01*
X149380952Y-121209761D02*
X149476190Y-121257380D01*
X149714285Y-121257380D01*
X149809523Y-121209761D01*
X149857142Y-121114523D01*
X149857142Y-121019285D01*
X149809523Y-120924047D01*
X149714285Y-120876428D01*
X149476190Y-120876428D01*
X149380952Y-120828809D01*
X148761904Y-121257380D02*
X148857142Y-121209761D01*
X148904761Y-121114523D01*
X148904761Y-120257380D01*
X148476190Y-120590714D02*
X148238095Y-121257380D01*
X148000000Y-120590714D02*
X148238095Y-121257380D01*
X148333333Y-121495476D01*
X148380952Y-121543095D01*
X148476190Y-121590714D01*
X147619047Y-120590714D02*
X147619047Y-121257380D01*
X147619047Y-120685952D02*
X147571428Y-120638333D01*
X147476190Y-120590714D01*
X147333333Y-120590714D01*
X147238095Y-120638333D01*
X147190476Y-120733571D01*
X147190476Y-121257380D01*
X146809523Y-121257380D02*
X146285714Y-120590714D01*
X146809523Y-120590714D02*
X146285714Y-121257380D01*
X145190476Y-120352619D02*
X145142857Y-120305000D01*
X145047619Y-120257380D01*
X144809523Y-120257380D01*
X144714285Y-120305000D01*
X144666666Y-120352619D01*
X144619047Y-120447857D01*
X144619047Y-120543095D01*
X144666666Y-120685952D01*
X145238095Y-121257380D01*
X144619047Y-121257380D01*
X144000000Y-120257380D02*
X143904761Y-120257380D01*
X143809523Y-120305000D01*
X143761904Y-120352619D01*
X143714285Y-120447857D01*
X143666666Y-120638333D01*
X143666666Y-120876428D01*
X143714285Y-121066904D01*
X143761904Y-121162142D01*
X143809523Y-121209761D01*
X143904761Y-121257380D01*
X144000000Y-121257380D01*
X144095238Y-121209761D01*
X144142857Y-121162142D01*
X144190476Y-121066904D01*
X144238095Y-120876428D01*
X144238095Y-120638333D01*
X144190476Y-120447857D01*
X144142857Y-120352619D01*
X144095238Y-120305000D01*
X144000000Y-120257380D01*
X143285714Y-120352619D02*
X143238095Y-120305000D01*
X143142857Y-120257380D01*
X142904761Y-120257380D01*
X142809523Y-120305000D01*
X142761904Y-120352619D01*
X142714285Y-120447857D01*
X142714285Y-120543095D01*
X142761904Y-120685952D01*
X143333333Y-121257380D01*
X142714285Y-121257380D01*
X142333333Y-120352619D02*
X142285714Y-120305000D01*
X142190476Y-120257380D01*
X141952380Y-120257380D01*
X141857142Y-120305000D01*
X141809523Y-120352619D01*
X141761904Y-120447857D01*
X141761904Y-120543095D01*
X141809523Y-120685952D01*
X142380952Y-121257380D01*
X141761904Y-121257380D01*
D11*
%TO.C,REF\u002A\u002A*%
X148728336Y-96036032D02*
X148665633Y-96072301D01*
X148665633Y-96072301D02*
X148622039Y-96108301D01*
X148622039Y-96108301D02*
X148590155Y-96146018D01*
X148590155Y-96146018D02*
X148568190Y-96192142D01*
X148568190Y-96192142D02*
X148554351Y-96253364D01*
X148554351Y-96253364D02*
X148546847Y-96336374D01*
X148546847Y-96336374D02*
X148543883Y-96447862D01*
X148543883Y-96447862D02*
X148543539Y-96528005D01*
X148543539Y-96528005D02*
X148543539Y-96823008D01*
X148543539Y-96823008D02*
X148709615Y-96897458D01*
X148709615Y-96897458D02*
X148719385Y-96574345D01*
X148719385Y-96574345D02*
X148723421Y-96453672D01*
X148723421Y-96453672D02*
X148727656Y-96366084D01*
X148727656Y-96366084D02*
X148732903Y-96305593D01*
X148732903Y-96305593D02*
X148739975Y-96266211D01*
X148739975Y-96266211D02*
X148749689Y-96241950D01*
X148749689Y-96241950D02*
X148762856Y-96226823D01*
X148762856Y-96226823D02*
X148767081Y-96223549D01*
X148767081Y-96223549D02*
X148831091Y-96197977D01*
X148831091Y-96197977D02*
X148895792Y-96208096D01*
X148895792Y-96208096D02*
X148934308Y-96234943D01*
X148934308Y-96234943D02*
X148949975Y-96253967D01*
X148949975Y-96253967D02*
X148960820Y-96278931D01*
X148960820Y-96278931D02*
X148967712Y-96316777D01*
X148967712Y-96316777D02*
X148971521Y-96374445D01*
X148971521Y-96374445D02*
X148973117Y-96458878D01*
X148973117Y-96458878D02*
X148973385Y-96546871D01*
X148973385Y-96546871D02*
X148973437Y-96657266D01*
X148973437Y-96657266D02*
X148975328Y-96735406D01*
X148975328Y-96735406D02*
X148981655Y-96788108D01*
X148981655Y-96788108D02*
X148995017Y-96822185D01*
X148995017Y-96822185D02*
X149018015Y-96844454D01*
X149018015Y-96844454D02*
X149053246Y-96861730D01*
X149053246Y-96861730D02*
X149100303Y-96879681D01*
X149100303Y-96879681D02*
X149151697Y-96899221D01*
X149151697Y-96899221D02*
X149145579Y-96552428D01*
X149145579Y-96552428D02*
X149143116Y-96427411D01*
X149143116Y-96427411D02*
X149140233Y-96335025D01*
X149140233Y-96335025D02*
X149136102Y-96268824D01*
X149136102Y-96268824D02*
X149129893Y-96222363D01*
X149129893Y-96222363D02*
X149120774Y-96189199D01*
X149120774Y-96189199D02*
X149107917Y-96162887D01*
X149107917Y-96162887D02*
X149092416Y-96139672D01*
X149092416Y-96139672D02*
X149017629Y-96065512D01*
X149017629Y-96065512D02*
X148926372Y-96022627D01*
X148926372Y-96022627D02*
X148827117Y-96012355D01*
X148827117Y-96012355D02*
X148728336Y-96036032D01*
X148728336Y-96036032D02*
X148728336Y-96036032D01*
G36*
X148926372Y-96022627D02*
G01*
X149017629Y-96065512D01*
X149092416Y-96139672D01*
X149107917Y-96162887D01*
X149120774Y-96189199D01*
X149129893Y-96222363D01*
X149136102Y-96268824D01*
X149140233Y-96335025D01*
X149143116Y-96427411D01*
X149145579Y-96552428D01*
X149151697Y-96899221D01*
X149100303Y-96879681D01*
X149053246Y-96861730D01*
X149018015Y-96844454D01*
X148995017Y-96822185D01*
X148981655Y-96788108D01*
X148975328Y-96735406D01*
X148973437Y-96657266D01*
X148973385Y-96546871D01*
X148973117Y-96458878D01*
X148971521Y-96374445D01*
X148967712Y-96316777D01*
X148960820Y-96278931D01*
X148949975Y-96253967D01*
X148934308Y-96234943D01*
X148895792Y-96208096D01*
X148831091Y-96197977D01*
X148767081Y-96223549D01*
X148762856Y-96226823D01*
X148749689Y-96241950D01*
X148739975Y-96266211D01*
X148732903Y-96305593D01*
X148727656Y-96366084D01*
X148723421Y-96453672D01*
X148719385Y-96574345D01*
X148709615Y-96897458D01*
X148543539Y-96823008D01*
X148543539Y-96528005D01*
X148543883Y-96447862D01*
X148546847Y-96336374D01*
X148554351Y-96253364D01*
X148568190Y-96192142D01*
X148590155Y-96146018D01*
X148622039Y-96108301D01*
X148665633Y-96072301D01*
X148728336Y-96036032D01*
X148827117Y-96012355D01*
X148926372Y-96022627D01*
G37*
X148926372Y-96022627D02*
X149017629Y-96065512D01*
X149092416Y-96139672D01*
X149107917Y-96162887D01*
X149120774Y-96189199D01*
X149129893Y-96222363D01*
X149136102Y-96268824D01*
X149140233Y-96335025D01*
X149143116Y-96427411D01*
X149145579Y-96552428D01*
X149151697Y-96899221D01*
X149100303Y-96879681D01*
X149053246Y-96861730D01*
X149018015Y-96844454D01*
X148995017Y-96822185D01*
X148981655Y-96788108D01*
X148975328Y-96735406D01*
X148973437Y-96657266D01*
X148973385Y-96546871D01*
X148973117Y-96458878D01*
X148971521Y-96374445D01*
X148967712Y-96316777D01*
X148960820Y-96278931D01*
X148949975Y-96253967D01*
X148934308Y-96234943D01*
X148895792Y-96208096D01*
X148831091Y-96197977D01*
X148767081Y-96223549D01*
X148762856Y-96226823D01*
X148749689Y-96241950D01*
X148739975Y-96266211D01*
X148732903Y-96305593D01*
X148727656Y-96366084D01*
X148723421Y-96453672D01*
X148719385Y-96574345D01*
X148709615Y-96897458D01*
X148543539Y-96823008D01*
X148543539Y-96528005D01*
X148543883Y-96447862D01*
X148546847Y-96336374D01*
X148554351Y-96253364D01*
X148568190Y-96192142D01*
X148590155Y-96146018D01*
X148622039Y-96108301D01*
X148665633Y-96072301D01*
X148728336Y-96036032D01*
X148827117Y-96012355D01*
X148926372Y-96022627D01*
X145397919Y-96221232D02*
X145398167Y-96367263D01*
X145398167Y-96367263D02*
X145399128Y-96479598D01*
X145399128Y-96479598D02*
X145401206Y-96563621D01*
X145401206Y-96563621D02*
X145404807Y-96624712D01*
X145404807Y-96624712D02*
X145410335Y-96668252D01*
X145410335Y-96668252D02*
X145418196Y-96699622D01*
X145418196Y-96699622D02*
X145428793Y-96724205D01*
X145428793Y-96724205D02*
X145436818Y-96738237D01*
X145436818Y-96738237D02*
X145503272Y-96814331D01*
X145503272Y-96814331D02*
X145587530Y-96862027D01*
X145587530Y-96862027D02*
X145680751Y-96879142D01*
X145680751Y-96879142D02*
X145774100Y-96863489D01*
X145774100Y-96863489D02*
X145829688Y-96835361D01*
X145829688Y-96835361D02*
X145888043Y-96786703D01*
X145888043Y-96786703D02*
X145927814Y-96727276D01*
X145927814Y-96727276D02*
X145951810Y-96649450D01*
X145951810Y-96649450D02*
X145962839Y-96545595D01*
X145962839Y-96545595D02*
X145964401Y-96469405D01*
X145964401Y-96469405D02*
X145964191Y-96463929D01*
X145964191Y-96463929D02*
X145827692Y-96463929D01*
X145827692Y-96463929D02*
X145826859Y-96551298D01*
X145826859Y-96551298D02*
X145823039Y-96609135D01*
X145823039Y-96609135D02*
X145814254Y-96646972D01*
X145814254Y-96646972D02*
X145798526Y-96674341D01*
X145798526Y-96674341D02*
X145779734Y-96694985D01*
X145779734Y-96694985D02*
X145716625Y-96734833D01*
X145716625Y-96734833D02*
X145648863Y-96738238D01*
X145648863Y-96738238D02*
X145584821Y-96704968D01*
X145584821Y-96704968D02*
X145579836Y-96700460D01*
X145579836Y-96700460D02*
X145558561Y-96677010D01*
X145558561Y-96677010D02*
X145545221Y-96649109D01*
X145545221Y-96649109D02*
X145537999Y-96607584D01*
X145537999Y-96607584D02*
X145535077Y-96543259D01*
X145535077Y-96543259D02*
X145534615Y-96472143D01*
X145534615Y-96472143D02*
X145535617Y-96382801D01*
X145535617Y-96382801D02*
X145539762Y-96323201D01*
X145539762Y-96323201D02*
X145548764Y-96284032D01*
X145548764Y-96284032D02*
X145564333Y-96255983D01*
X145564333Y-96255983D02*
X145577098Y-96241087D01*
X145577098Y-96241087D02*
X145636400Y-96203518D01*
X145636400Y-96203518D02*
X145704699Y-96199000D01*
X145704699Y-96199000D02*
X145769890Y-96227696D01*
X145769890Y-96227696D02*
X145782472Y-96238349D01*
X145782472Y-96238349D02*
X145803889Y-96262006D01*
X145803889Y-96262006D02*
X145817256Y-96290194D01*
X145817256Y-96290194D02*
X145824434Y-96332188D01*
X145824434Y-96332188D02*
X145827281Y-96397262D01*
X145827281Y-96397262D02*
X145827692Y-96463929D01*
X145827692Y-96463929D02*
X145964191Y-96463929D01*
X145964191Y-96463929D02*
X145959678Y-96346708D01*
X145959678Y-96346708D02*
X145943638Y-96254520D01*
X145943638Y-96254520D02*
X145913472Y-96185212D01*
X145913472Y-96185212D02*
X145866371Y-96131154D01*
X145866371Y-96131154D02*
X145829688Y-96103448D01*
X145829688Y-96103448D02*
X145763010Y-96073515D01*
X145763010Y-96073515D02*
X145685728Y-96059621D01*
X145685728Y-96059621D02*
X145613890Y-96063340D01*
X145613890Y-96063340D02*
X145573692Y-96078343D01*
X145573692Y-96078343D02*
X145557918Y-96082613D01*
X145557918Y-96082613D02*
X145547450Y-96066693D01*
X145547450Y-96066693D02*
X145540144Y-96024032D01*
X145540144Y-96024032D02*
X145534615Y-95959049D01*
X145534615Y-95959049D02*
X145528563Y-95886675D01*
X145528563Y-95886675D02*
X145520156Y-95843130D01*
X145520156Y-95843130D02*
X145504859Y-95818230D01*
X145504859Y-95818230D02*
X145478136Y-95801788D01*
X145478136Y-95801788D02*
X145461346Y-95794507D01*
X145461346Y-95794507D02*
X145397846Y-95767906D01*
X145397846Y-95767906D02*
X145397919Y-96221232D01*
X145397919Y-96221232D02*
X145397919Y-96221232D01*
G36*
X145962839Y-96545595D02*
G01*
X145951810Y-96649450D01*
X145927814Y-96727276D01*
X145888043Y-96786703D01*
X145829688Y-96835361D01*
X145774100Y-96863489D01*
X145680751Y-96879142D01*
X145587530Y-96862027D01*
X145503272Y-96814331D01*
X145436818Y-96738237D01*
X145428793Y-96724205D01*
X145418196Y-96699622D01*
X145410335Y-96668252D01*
X145404807Y-96624712D01*
X145401206Y-96563621D01*
X145399128Y-96479598D01*
X145399064Y-96472143D01*
X145534615Y-96472143D01*
X145535077Y-96543259D01*
X145537999Y-96607584D01*
X145545221Y-96649109D01*
X145558561Y-96677010D01*
X145579836Y-96700460D01*
X145584821Y-96704968D01*
X145648863Y-96738238D01*
X145716625Y-96734833D01*
X145779734Y-96694985D01*
X145798526Y-96674341D01*
X145814254Y-96646972D01*
X145823039Y-96609135D01*
X145826859Y-96551298D01*
X145827692Y-96463929D01*
X145827281Y-96397262D01*
X145824434Y-96332188D01*
X145817256Y-96290194D01*
X145803889Y-96262006D01*
X145782472Y-96238349D01*
X145769890Y-96227696D01*
X145704699Y-96199000D01*
X145636400Y-96203518D01*
X145577098Y-96241087D01*
X145564333Y-96255983D01*
X145548764Y-96284032D01*
X145539762Y-96323201D01*
X145535617Y-96382801D01*
X145534615Y-96472143D01*
X145399064Y-96472143D01*
X145398167Y-96367263D01*
X145397919Y-96221232D01*
X145397846Y-95767906D01*
X145461346Y-95794507D01*
X145478136Y-95801788D01*
X145504859Y-95818230D01*
X145520156Y-95843130D01*
X145528563Y-95886675D01*
X145534615Y-95959049D01*
X145540144Y-96024032D01*
X145547450Y-96066693D01*
X145557918Y-96082613D01*
X145573692Y-96078343D01*
X145613890Y-96063340D01*
X145685728Y-96059621D01*
X145763010Y-96073515D01*
X145829688Y-96103448D01*
X145866371Y-96131154D01*
X145913472Y-96185212D01*
X145943638Y-96254520D01*
X145959678Y-96346708D01*
X145964191Y-96463929D01*
X145964401Y-96469405D01*
X145962839Y-96545595D01*
G37*
X145962839Y-96545595D02*
X145951810Y-96649450D01*
X145927814Y-96727276D01*
X145888043Y-96786703D01*
X145829688Y-96835361D01*
X145774100Y-96863489D01*
X145680751Y-96879142D01*
X145587530Y-96862027D01*
X145503272Y-96814331D01*
X145436818Y-96738237D01*
X145428793Y-96724205D01*
X145418196Y-96699622D01*
X145410335Y-96668252D01*
X145404807Y-96624712D01*
X145401206Y-96563621D01*
X145399128Y-96479598D01*
X145399064Y-96472143D01*
X145534615Y-96472143D01*
X145535077Y-96543259D01*
X145537999Y-96607584D01*
X145545221Y-96649109D01*
X145558561Y-96677010D01*
X145579836Y-96700460D01*
X145584821Y-96704968D01*
X145648863Y-96738238D01*
X145716625Y-96734833D01*
X145779734Y-96694985D01*
X145798526Y-96674341D01*
X145814254Y-96646972D01*
X145823039Y-96609135D01*
X145826859Y-96551298D01*
X145827692Y-96463929D01*
X145827281Y-96397262D01*
X145824434Y-96332188D01*
X145817256Y-96290194D01*
X145803889Y-96262006D01*
X145782472Y-96238349D01*
X145769890Y-96227696D01*
X145704699Y-96199000D01*
X145636400Y-96203518D01*
X145577098Y-96241087D01*
X145564333Y-96255983D01*
X145548764Y-96284032D01*
X145539762Y-96323201D01*
X145535617Y-96382801D01*
X145534615Y-96472143D01*
X145399064Y-96472143D01*
X145398167Y-96367263D01*
X145397919Y-96221232D01*
X145397846Y-95767906D01*
X145461346Y-95794507D01*
X145478136Y-95801788D01*
X145504859Y-95818230D01*
X145520156Y-95843130D01*
X145528563Y-95886675D01*
X145534615Y-95959049D01*
X145540144Y-96024032D01*
X145547450Y-96066693D01*
X145557918Y-96082613D01*
X145573692Y-96078343D01*
X145613890Y-96063340D01*
X145685728Y-96059621D01*
X145763010Y-96073515D01*
X145829688Y-96103448D01*
X145866371Y-96131154D01*
X145913472Y-96185212D01*
X145943638Y-96254520D01*
X145959678Y-96346708D01*
X145964191Y-96463929D01*
X145964401Y-96469405D01*
X145962839Y-96545595D01*
X147840154Y-95933063D02*
X147834428Y-96012923D01*
X147834428Y-96012923D02*
X147827851Y-96059982D01*
X147827851Y-96059982D02*
X147818738Y-96080509D01*
X147818738Y-96080509D02*
X147805402Y-96080772D01*
X147805402Y-96080772D02*
X147801077Y-96078321D01*
X147801077Y-96078321D02*
X147743556Y-96060579D01*
X147743556Y-96060579D02*
X147668732Y-96061615D01*
X147668732Y-96061615D02*
X147592661Y-96079853D01*
X147592661Y-96079853D02*
X147545082Y-96103448D01*
X147545082Y-96103448D02*
X147496298Y-96141141D01*
X147496298Y-96141141D02*
X147460636Y-96183798D01*
X147460636Y-96183798D02*
X147436155Y-96238000D01*
X147436155Y-96238000D02*
X147420913Y-96310327D01*
X147420913Y-96310327D02*
X147412970Y-96407362D01*
X147412970Y-96407362D02*
X147410384Y-96535685D01*
X147410384Y-96535685D02*
X147410338Y-96560301D01*
X147410338Y-96560301D02*
X147410308Y-96836813D01*
X147410308Y-96836813D02*
X147471839Y-96858263D01*
X147471839Y-96858263D02*
X147515541Y-96872855D01*
X147515541Y-96872855D02*
X147539518Y-96879649D01*
X147539518Y-96879649D02*
X147540223Y-96879712D01*
X147540223Y-96879712D02*
X147542585Y-96861288D01*
X147542585Y-96861288D02*
X147544594Y-96810469D01*
X147544594Y-96810469D02*
X147546099Y-96733936D01*
X147546099Y-96733936D02*
X147546947Y-96638373D01*
X147546947Y-96638373D02*
X147547077Y-96580272D01*
X147547077Y-96580272D02*
X147547349Y-96465714D01*
X147547349Y-96465714D02*
X147548748Y-96383610D01*
X147548748Y-96383610D02*
X147552151Y-96327336D01*
X147552151Y-96327336D02*
X147558433Y-96290269D01*
X147558433Y-96290269D02*
X147568471Y-96265787D01*
X147568471Y-96265787D02*
X147583139Y-96247268D01*
X147583139Y-96247268D02*
X147592298Y-96238349D01*
X147592298Y-96238349D02*
X147655211Y-96202409D01*
X147655211Y-96202409D02*
X147723864Y-96199718D01*
X147723864Y-96199718D02*
X147786152Y-96230113D01*
X147786152Y-96230113D02*
X147797671Y-96241087D01*
X147797671Y-96241087D02*
X147814567Y-96261722D01*
X147814567Y-96261722D02*
X147826286Y-96286199D01*
X147826286Y-96286199D02*
X147833767Y-96321590D01*
X147833767Y-96321590D02*
X147837946Y-96374969D01*
X147837946Y-96374969D02*
X147839763Y-96453409D01*
X147839763Y-96453409D02*
X147840154Y-96561560D01*
X147840154Y-96561560D02*
X147840154Y-96836813D01*
X147840154Y-96836813D02*
X147901685Y-96858263D01*
X147901685Y-96858263D02*
X147945387Y-96872855D01*
X147945387Y-96872855D02*
X147969364Y-96879649D01*
X147969364Y-96879649D02*
X147970070Y-96879712D01*
X147970070Y-96879712D02*
X147971874Y-96861012D01*
X147971874Y-96861012D02*
X147973500Y-96808265D01*
X147973500Y-96808265D02*
X147974883Y-96726500D01*
X147974883Y-96726500D02*
X147975958Y-96620748D01*
X147975958Y-96620748D02*
X147976660Y-96496037D01*
X147976660Y-96496037D02*
X147976923Y-96357398D01*
X147976923Y-96357398D02*
X147976923Y-95822749D01*
X147976923Y-95822749D02*
X147849923Y-95769179D01*
X147849923Y-95769179D02*
X147840154Y-95933063D01*
X147840154Y-95933063D02*
X147840154Y-95933063D01*
G36*
X147976923Y-95822749D02*
G01*
X147976923Y-96357398D01*
X147976660Y-96496037D01*
X147975958Y-96620748D01*
X147974883Y-96726500D01*
X147973500Y-96808265D01*
X147971874Y-96861012D01*
X147970070Y-96879712D01*
X147969364Y-96879649D01*
X147945387Y-96872855D01*
X147901685Y-96858263D01*
X147840154Y-96836813D01*
X147840154Y-96561560D01*
X147839763Y-96453409D01*
X147837946Y-96374969D01*
X147833767Y-96321590D01*
X147826286Y-96286199D01*
X147814567Y-96261722D01*
X147797671Y-96241087D01*
X147786152Y-96230113D01*
X147723864Y-96199718D01*
X147655211Y-96202409D01*
X147592298Y-96238349D01*
X147583139Y-96247268D01*
X147568471Y-96265787D01*
X147558433Y-96290269D01*
X147552151Y-96327336D01*
X147548748Y-96383610D01*
X147547349Y-96465714D01*
X147547077Y-96580272D01*
X147546947Y-96638373D01*
X147546099Y-96733936D01*
X147544594Y-96810469D01*
X147542585Y-96861288D01*
X147540223Y-96879712D01*
X147539518Y-96879649D01*
X147515541Y-96872855D01*
X147471839Y-96858263D01*
X147410308Y-96836813D01*
X147410338Y-96560301D01*
X147410384Y-96535685D01*
X147412970Y-96407362D01*
X147420913Y-96310327D01*
X147436155Y-96238000D01*
X147460636Y-96183798D01*
X147496298Y-96141141D01*
X147545082Y-96103448D01*
X147592661Y-96079853D01*
X147668732Y-96061615D01*
X147743556Y-96060579D01*
X147801077Y-96078321D01*
X147805402Y-96080772D01*
X147818738Y-96080509D01*
X147827851Y-96059982D01*
X147834428Y-96012923D01*
X147840154Y-95933063D01*
X147849923Y-95769179D01*
X147976923Y-95822749D01*
G37*
X147976923Y-95822749D02*
X147976923Y-96357398D01*
X147976660Y-96496037D01*
X147975958Y-96620748D01*
X147974883Y-96726500D01*
X147973500Y-96808265D01*
X147971874Y-96861012D01*
X147970070Y-96879712D01*
X147969364Y-96879649D01*
X147945387Y-96872855D01*
X147901685Y-96858263D01*
X147840154Y-96836813D01*
X147840154Y-96561560D01*
X147839763Y-96453409D01*
X147837946Y-96374969D01*
X147833767Y-96321590D01*
X147826286Y-96286199D01*
X147814567Y-96261722D01*
X147797671Y-96241087D01*
X147786152Y-96230113D01*
X147723864Y-96199718D01*
X147655211Y-96202409D01*
X147592298Y-96238349D01*
X147583139Y-96247268D01*
X147568471Y-96265787D01*
X147558433Y-96290269D01*
X147552151Y-96327336D01*
X147548748Y-96383610D01*
X147547349Y-96465714D01*
X147547077Y-96580272D01*
X147546947Y-96638373D01*
X147546099Y-96733936D01*
X147544594Y-96810469D01*
X147542585Y-96861288D01*
X147540223Y-96879712D01*
X147539518Y-96879649D01*
X147515541Y-96872855D01*
X147471839Y-96858263D01*
X147410308Y-96836813D01*
X147410338Y-96560301D01*
X147410384Y-96535685D01*
X147412970Y-96407362D01*
X147420913Y-96310327D01*
X147436155Y-96238000D01*
X147460636Y-96183798D01*
X147496298Y-96141141D01*
X147545082Y-96103448D01*
X147592661Y-96079853D01*
X147668732Y-96061615D01*
X147743556Y-96060579D01*
X147801077Y-96078321D01*
X147805402Y-96080772D01*
X147818738Y-96080509D01*
X147827851Y-96059982D01*
X147834428Y-96012923D01*
X147840154Y-95933063D01*
X147849923Y-95769179D01*
X147976923Y-95822749D01*
X146946499Y-96067246D02*
X146869940Y-96095676D01*
X146869940Y-96095676D02*
X146869064Y-96096222D01*
X146869064Y-96096222D02*
X146821715Y-96131070D01*
X146821715Y-96131070D02*
X146786759Y-96171795D01*
X146786759Y-96171795D02*
X146762175Y-96224868D01*
X146762175Y-96224868D02*
X146745938Y-96296757D01*
X146745938Y-96296757D02*
X146736025Y-96393935D01*
X146736025Y-96393935D02*
X146730414Y-96522871D01*
X146730414Y-96522871D02*
X146729923Y-96541241D01*
X146729923Y-96541241D02*
X146722859Y-96818230D01*
X146722859Y-96818230D02*
X146782305Y-96848971D01*
X146782305Y-96848971D02*
X146825319Y-96869745D01*
X146825319Y-96869745D02*
X146851290Y-96879589D01*
X146851290Y-96879589D02*
X146852491Y-96879712D01*
X146852491Y-96879712D02*
X146856986Y-96861549D01*
X146856986Y-96861549D02*
X146860556Y-96812555D01*
X146860556Y-96812555D02*
X146862752Y-96740974D01*
X146862752Y-96740974D02*
X146863231Y-96683011D01*
X146863231Y-96683011D02*
X146863242Y-96589113D01*
X146863242Y-96589113D02*
X146867534Y-96530146D01*
X146867534Y-96530146D02*
X146882497Y-96502022D01*
X146882497Y-96502022D02*
X146914518Y-96500649D01*
X146914518Y-96500649D02*
X146969986Y-96521941D01*
X146969986Y-96521941D02*
X147053731Y-96561079D01*
X147053731Y-96561079D02*
X147115311Y-96593586D01*
X147115311Y-96593586D02*
X147146983Y-96621788D01*
X147146983Y-96621788D02*
X147156294Y-96652525D01*
X147156294Y-96652525D02*
X147156308Y-96654047D01*
X147156308Y-96654047D02*
X147140943Y-96706997D01*
X147140943Y-96706997D02*
X147095453Y-96735603D01*
X147095453Y-96735603D02*
X147025834Y-96739746D01*
X147025834Y-96739746D02*
X146975687Y-96739027D01*
X146975687Y-96739027D02*
X146949246Y-96753470D01*
X146949246Y-96753470D02*
X146932757Y-96788161D01*
X146932757Y-96788161D02*
X146923267Y-96832359D01*
X146923267Y-96832359D02*
X146936943Y-96857436D01*
X146936943Y-96857436D02*
X146942093Y-96861025D01*
X146942093Y-96861025D02*
X146990575Y-96875439D01*
X146990575Y-96875439D02*
X147058469Y-96877480D01*
X147058469Y-96877480D02*
X147128388Y-96867926D01*
X147128388Y-96867926D02*
X147177932Y-96850465D01*
X147177932Y-96850465D02*
X147246430Y-96792307D01*
X147246430Y-96792307D02*
X147285366Y-96711351D01*
X147285366Y-96711351D02*
X147293077Y-96648103D01*
X147293077Y-96648103D02*
X147287193Y-96591054D01*
X147287193Y-96591054D02*
X147265899Y-96544485D01*
X147265899Y-96544485D02*
X147223735Y-96503124D01*
X147223735Y-96503124D02*
X147155241Y-96461698D01*
X147155241Y-96461698D02*
X147054956Y-96414936D01*
X147054956Y-96414936D02*
X147048846Y-96412293D01*
X147048846Y-96412293D02*
X146958510Y-96370560D01*
X146958510Y-96370560D02*
X146902765Y-96336334D01*
X146902765Y-96336334D02*
X146878871Y-96305578D01*
X146878871Y-96305578D02*
X146884087Y-96274254D01*
X146884087Y-96274254D02*
X146915672Y-96238326D01*
X146915672Y-96238326D02*
X146925117Y-96230059D01*
X146925117Y-96230059D02*
X146988383Y-96198001D01*
X146988383Y-96198001D02*
X147053936Y-96199350D01*
X147053936Y-96199350D02*
X147111028Y-96230781D01*
X147111028Y-96230781D02*
X147148907Y-96288967D01*
X147148907Y-96288967D02*
X147152426Y-96300389D01*
X147152426Y-96300389D02*
X147186700Y-96355780D01*
X147186700Y-96355780D02*
X147230191Y-96382461D01*
X147230191Y-96382461D02*
X147293077Y-96408903D01*
X147293077Y-96408903D02*
X147293077Y-96340491D01*
X147293077Y-96340491D02*
X147273948Y-96241053D01*
X147273948Y-96241053D02*
X147217169Y-96149845D01*
X147217169Y-96149845D02*
X147187622Y-96119332D01*
X147187622Y-96119332D02*
X147120458Y-96080171D01*
X147120458Y-96080171D02*
X147035044Y-96062443D01*
X147035044Y-96062443D02*
X146946499Y-96067246D01*
X146946499Y-96067246D02*
X146946499Y-96067246D01*
G36*
X147120458Y-96080171D02*
G01*
X147187622Y-96119332D01*
X147217169Y-96149845D01*
X147273948Y-96241053D01*
X147293077Y-96340491D01*
X147293077Y-96408903D01*
X147230191Y-96382461D01*
X147186700Y-96355780D01*
X147152426Y-96300389D01*
X147148907Y-96288967D01*
X147111028Y-96230781D01*
X147053936Y-96199350D01*
X146988383Y-96198001D01*
X146925117Y-96230059D01*
X146915672Y-96238326D01*
X146884087Y-96274254D01*
X146878871Y-96305578D01*
X146902765Y-96336334D01*
X146958510Y-96370560D01*
X147048846Y-96412293D01*
X147054956Y-96414936D01*
X147155241Y-96461698D01*
X147223735Y-96503124D01*
X147265899Y-96544485D01*
X147287193Y-96591054D01*
X147293077Y-96648103D01*
X147285366Y-96711351D01*
X147246430Y-96792307D01*
X147177932Y-96850465D01*
X147128388Y-96867926D01*
X147058469Y-96877480D01*
X146990575Y-96875439D01*
X146942093Y-96861025D01*
X146936943Y-96857436D01*
X146923267Y-96832359D01*
X146932757Y-96788161D01*
X146949246Y-96753470D01*
X146975687Y-96739027D01*
X147025834Y-96739746D01*
X147095453Y-96735603D01*
X147140943Y-96706997D01*
X147156308Y-96654047D01*
X147156294Y-96652525D01*
X147146983Y-96621788D01*
X147115311Y-96593586D01*
X147053731Y-96561079D01*
X146969986Y-96521941D01*
X146914518Y-96500649D01*
X146882497Y-96502022D01*
X146867534Y-96530146D01*
X146863242Y-96589113D01*
X146863231Y-96683011D01*
X146862752Y-96740974D01*
X146860556Y-96812555D01*
X146856986Y-96861549D01*
X146852491Y-96879712D01*
X146851290Y-96879589D01*
X146825319Y-96869745D01*
X146782305Y-96848971D01*
X146722859Y-96818230D01*
X146729923Y-96541241D01*
X146730414Y-96522871D01*
X146736025Y-96393935D01*
X146745938Y-96296757D01*
X146762175Y-96224868D01*
X146786759Y-96171795D01*
X146821715Y-96131070D01*
X146869064Y-96096222D01*
X146869940Y-96095676D01*
X146946499Y-96067246D01*
X147035044Y-96062443D01*
X147120458Y-96080171D01*
G37*
X147120458Y-96080171D02*
X147187622Y-96119332D01*
X147217169Y-96149845D01*
X147273948Y-96241053D01*
X147293077Y-96340491D01*
X147293077Y-96408903D01*
X147230191Y-96382461D01*
X147186700Y-96355780D01*
X147152426Y-96300389D01*
X147148907Y-96288967D01*
X147111028Y-96230781D01*
X147053936Y-96199350D01*
X146988383Y-96198001D01*
X146925117Y-96230059D01*
X146915672Y-96238326D01*
X146884087Y-96274254D01*
X146878871Y-96305578D01*
X146902765Y-96336334D01*
X146958510Y-96370560D01*
X147048846Y-96412293D01*
X147054956Y-96414936D01*
X147155241Y-96461698D01*
X147223735Y-96503124D01*
X147265899Y-96544485D01*
X147287193Y-96591054D01*
X147293077Y-96648103D01*
X147285366Y-96711351D01*
X147246430Y-96792307D01*
X147177932Y-96850465D01*
X147128388Y-96867926D01*
X147058469Y-96877480D01*
X146990575Y-96875439D01*
X146942093Y-96861025D01*
X146936943Y-96857436D01*
X146923267Y-96832359D01*
X146932757Y-96788161D01*
X146949246Y-96753470D01*
X146975687Y-96739027D01*
X147025834Y-96739746D01*
X147095453Y-96735603D01*
X147140943Y-96706997D01*
X147156308Y-96654047D01*
X147156294Y-96652525D01*
X147146983Y-96621788D01*
X147115311Y-96593586D01*
X147053731Y-96561079D01*
X146969986Y-96521941D01*
X146914518Y-96500649D01*
X146882497Y-96502022D01*
X146867534Y-96530146D01*
X146863242Y-96589113D01*
X146863231Y-96683011D01*
X146862752Y-96740974D01*
X146860556Y-96812555D01*
X146856986Y-96861549D01*
X146852491Y-96879712D01*
X146851290Y-96879589D01*
X146825319Y-96869745D01*
X146782305Y-96848971D01*
X146722859Y-96818230D01*
X146729923Y-96541241D01*
X146730414Y-96522871D01*
X146736025Y-96393935D01*
X146745938Y-96296757D01*
X146762175Y-96224868D01*
X146786759Y-96171795D01*
X146821715Y-96131070D01*
X146869064Y-96096222D01*
X146869940Y-96095676D01*
X146946499Y-96067246D01*
X147035044Y-96062443D01*
X147120458Y-96080171D01*
X150231114Y-96025448D02*
X150156461Y-96062670D01*
X150156461Y-96062670D02*
X150090569Y-96131204D01*
X150090569Y-96131204D02*
X150072423Y-96156591D01*
X150072423Y-96156591D02*
X150052655Y-96189809D01*
X150052655Y-96189809D02*
X150039828Y-96225888D01*
X150039828Y-96225888D02*
X150032490Y-96274041D01*
X150032490Y-96274041D02*
X150029187Y-96343479D01*
X150029187Y-96343479D02*
X150028462Y-96435149D01*
X150028462Y-96435149D02*
X150031737Y-96560773D01*
X150031737Y-96560773D02*
X150043123Y-96655097D01*
X150043123Y-96655097D02*
X150064959Y-96725466D01*
X150064959Y-96725466D02*
X150099581Y-96779229D01*
X150099581Y-96779229D02*
X150149330Y-96823731D01*
X150149330Y-96823731D02*
X150152986Y-96826366D01*
X150152986Y-96826366D02*
X150202015Y-96853320D01*
X150202015Y-96853320D02*
X150261055Y-96866655D01*
X150261055Y-96866655D02*
X150336141Y-96869943D01*
X150336141Y-96869943D02*
X150458205Y-96869943D01*
X150458205Y-96869943D02*
X150458256Y-96988440D01*
X150458256Y-96988440D02*
X150459392Y-97054435D01*
X150459392Y-97054435D02*
X150466314Y-97093145D01*
X150466314Y-97093145D02*
X150484402Y-97116362D01*
X150484402Y-97116362D02*
X150519038Y-97135876D01*
X150519038Y-97135876D02*
X150527355Y-97139863D01*
X150527355Y-97139863D02*
X150566280Y-97158546D01*
X150566280Y-97158546D02*
X150596417Y-97170346D01*
X150596417Y-97170346D02*
X150618826Y-97171365D01*
X150618826Y-97171365D02*
X150634567Y-97157704D01*
X150634567Y-97157704D02*
X150644698Y-97125465D01*
X150644698Y-97125465D02*
X150650277Y-97070747D01*
X150650277Y-97070747D02*
X150652365Y-96989654D01*
X150652365Y-96989654D02*
X150652019Y-96878287D01*
X150652019Y-96878287D02*
X150650300Y-96732745D01*
X150650300Y-96732745D02*
X150649763Y-96689212D01*
X150649763Y-96689212D02*
X150647828Y-96539148D01*
X150647828Y-96539148D02*
X150646096Y-96440985D01*
X150646096Y-96440985D02*
X150458308Y-96440985D01*
X150458308Y-96440985D02*
X150457252Y-96524307D01*
X150457252Y-96524307D02*
X150452562Y-96578823D01*
X150452562Y-96578823D02*
X150441949Y-96614780D01*
X150441949Y-96614780D02*
X150423128Y-96642425D01*
X150423128Y-96642425D02*
X150410350Y-96655908D01*
X150410350Y-96655908D02*
X150358110Y-96695360D01*
X150358110Y-96695360D02*
X150311858Y-96698571D01*
X150311858Y-96698571D02*
X150264133Y-96665992D01*
X150264133Y-96665992D02*
X150262923Y-96664789D01*
X150262923Y-96664789D02*
X150243506Y-96639611D01*
X150243506Y-96639611D02*
X150231693Y-96605390D01*
X150231693Y-96605390D02*
X150225735Y-96552691D01*
X150225735Y-96552691D02*
X150223880Y-96472074D01*
X150223880Y-96472074D02*
X150223846Y-96454214D01*
X150223846Y-96454214D02*
X150228330Y-96343118D01*
X150228330Y-96343118D02*
X150242926Y-96266104D01*
X150242926Y-96266104D02*
X150269350Y-96219090D01*
X150269350Y-96219090D02*
X150309317Y-96197993D01*
X150309317Y-96197993D02*
X150332416Y-96195866D01*
X150332416Y-96195866D02*
X150387238Y-96205843D01*
X150387238Y-96205843D02*
X150424842Y-96238695D01*
X150424842Y-96238695D02*
X150447477Y-96298800D01*
X150447477Y-96298800D02*
X150457394Y-96390541D01*
X150457394Y-96390541D02*
X150458308Y-96440985D01*
X150458308Y-96440985D02*
X150646096Y-96440985D01*
X150646096Y-96440985D02*
X150645778Y-96423003D01*
X150645778Y-96423003D02*
X150643127Y-96335622D01*
X150643127Y-96335622D02*
X150639394Y-96271848D01*
X150639394Y-96271848D02*
X150634093Y-96226525D01*
X150634093Y-96226525D02*
X150626742Y-96194498D01*
X150626742Y-96194498D02*
X150616857Y-96170611D01*
X150616857Y-96170611D02*
X150603954Y-96149707D01*
X150603954Y-96149707D02*
X150598421Y-96141841D01*
X150598421Y-96141841D02*
X150525031Y-96067538D01*
X150525031Y-96067538D02*
X150432240Y-96025410D01*
X150432240Y-96025410D02*
X150324904Y-96013665D01*
X150324904Y-96013665D02*
X150231114Y-96025448D01*
X150231114Y-96025448D02*
X150231114Y-96025448D01*
G36*
X150649763Y-96689212D02*
G01*
X150650300Y-96732745D01*
X150652019Y-96878287D01*
X150652365Y-96989654D01*
X150650277Y-97070747D01*
X150644698Y-97125465D01*
X150634567Y-97157704D01*
X150618826Y-97171365D01*
X150596417Y-97170346D01*
X150566280Y-97158546D01*
X150527355Y-97139863D01*
X150519038Y-97135876D01*
X150484402Y-97116362D01*
X150466314Y-97093145D01*
X150459392Y-97054435D01*
X150458256Y-96988440D01*
X150458205Y-96869943D01*
X150336141Y-96869943D01*
X150261055Y-96866655D01*
X150202015Y-96853320D01*
X150152986Y-96826366D01*
X150149330Y-96823731D01*
X150099581Y-96779229D01*
X150064959Y-96725466D01*
X150043123Y-96655097D01*
X150031737Y-96560773D01*
X150028959Y-96454214D01*
X150223846Y-96454214D01*
X150223880Y-96472074D01*
X150225735Y-96552691D01*
X150231693Y-96605390D01*
X150243506Y-96639611D01*
X150262923Y-96664789D01*
X150264133Y-96665992D01*
X150311858Y-96698571D01*
X150358110Y-96695360D01*
X150410350Y-96655908D01*
X150423128Y-96642425D01*
X150441949Y-96614780D01*
X150452562Y-96578823D01*
X150457252Y-96524307D01*
X150458308Y-96440985D01*
X150457394Y-96390541D01*
X150447477Y-96298800D01*
X150424842Y-96238695D01*
X150387238Y-96205843D01*
X150332416Y-96195866D01*
X150309317Y-96197993D01*
X150269350Y-96219090D01*
X150242926Y-96266104D01*
X150228330Y-96343118D01*
X150223846Y-96454214D01*
X150028959Y-96454214D01*
X150028462Y-96435149D01*
X150029187Y-96343479D01*
X150032490Y-96274041D01*
X150039828Y-96225888D01*
X150052655Y-96189809D01*
X150072423Y-96156591D01*
X150090569Y-96131204D01*
X150156461Y-96062670D01*
X150231114Y-96025448D01*
X150324904Y-96013665D01*
X150432240Y-96025410D01*
X150525031Y-96067538D01*
X150598421Y-96141841D01*
X150603954Y-96149707D01*
X150616857Y-96170611D01*
X150626742Y-96194498D01*
X150634093Y-96226525D01*
X150639394Y-96271848D01*
X150643127Y-96335622D01*
X150645778Y-96423003D01*
X150646096Y-96440985D01*
X150647828Y-96539148D01*
X150649763Y-96689212D01*
G37*
X150649763Y-96689212D02*
X150650300Y-96732745D01*
X150652019Y-96878287D01*
X150652365Y-96989654D01*
X150650277Y-97070747D01*
X150644698Y-97125465D01*
X150634567Y-97157704D01*
X150618826Y-97171365D01*
X150596417Y-97170346D01*
X150566280Y-97158546D01*
X150527355Y-97139863D01*
X150519038Y-97135876D01*
X150484402Y-97116362D01*
X150466314Y-97093145D01*
X150459392Y-97054435D01*
X150458256Y-96988440D01*
X150458205Y-96869943D01*
X150336141Y-96869943D01*
X150261055Y-96866655D01*
X150202015Y-96853320D01*
X150152986Y-96826366D01*
X150149330Y-96823731D01*
X150099581Y-96779229D01*
X150064959Y-96725466D01*
X150043123Y-96655097D01*
X150031737Y-96560773D01*
X150028959Y-96454214D01*
X150223846Y-96454214D01*
X150223880Y-96472074D01*
X150225735Y-96552691D01*
X150231693Y-96605390D01*
X150243506Y-96639611D01*
X150262923Y-96664789D01*
X150264133Y-96665992D01*
X150311858Y-96698571D01*
X150358110Y-96695360D01*
X150410350Y-96655908D01*
X150423128Y-96642425D01*
X150441949Y-96614780D01*
X150452562Y-96578823D01*
X150457252Y-96524307D01*
X150458308Y-96440985D01*
X150457394Y-96390541D01*
X150447477Y-96298800D01*
X150424842Y-96238695D01*
X150387238Y-96205843D01*
X150332416Y-96195866D01*
X150309317Y-96197993D01*
X150269350Y-96219090D01*
X150242926Y-96266104D01*
X150228330Y-96343118D01*
X150223846Y-96454214D01*
X150028959Y-96454214D01*
X150028462Y-96435149D01*
X150029187Y-96343479D01*
X150032490Y-96274041D01*
X150039828Y-96225888D01*
X150052655Y-96189809D01*
X150072423Y-96156591D01*
X150090569Y-96131204D01*
X150156461Y-96062670D01*
X150231114Y-96025448D01*
X150324904Y-96013665D01*
X150432240Y-96025410D01*
X150525031Y-96067538D01*
X150598421Y-96141841D01*
X150603954Y-96149707D01*
X150616857Y-96170611D01*
X150626742Y-96194498D01*
X150634093Y-96226525D01*
X150639394Y-96271848D01*
X150643127Y-96335622D01*
X150645778Y-96423003D01*
X150646096Y-96440985D01*
X150647828Y-96539148D01*
X150649763Y-96689212D01*
X150983114Y-96028199D02*
X150891536Y-96076352D01*
X150891536Y-96076352D02*
X150823951Y-96153848D01*
X150823951Y-96153848D02*
X150799943Y-96203670D01*
X150799943Y-96203670D02*
X150781262Y-96278476D01*
X150781262Y-96278476D02*
X150771699Y-96372995D01*
X150771699Y-96372995D02*
X150770792Y-96476153D01*
X150770792Y-96476153D02*
X150778079Y-96576878D01*
X150778079Y-96576878D02*
X150793097Y-96664096D01*
X150793097Y-96664096D02*
X150815385Y-96726734D01*
X150815385Y-96726734D02*
X150822235Y-96737522D01*
X150822235Y-96737522D02*
X150903368Y-96818048D01*
X150903368Y-96818048D02*
X150999734Y-96866279D01*
X150999734Y-96866279D02*
X151104299Y-96880393D01*
X151104299Y-96880393D02*
X151210032Y-96858572D01*
X151210032Y-96858572D02*
X151239457Y-96845490D01*
X151239457Y-96845490D02*
X151296759Y-96805174D01*
X151296759Y-96805174D02*
X151347050Y-96751718D01*
X151347050Y-96751718D02*
X151351803Y-96744938D01*
X151351803Y-96744938D02*
X151371122Y-96712264D01*
X151371122Y-96712264D02*
X151383892Y-96677337D01*
X151383892Y-96677337D02*
X151391436Y-96631357D01*
X151391436Y-96631357D02*
X151395076Y-96565527D01*
X151395076Y-96565527D02*
X151396135Y-96471048D01*
X151396135Y-96471048D02*
X151396154Y-96449866D01*
X151396154Y-96449866D02*
X151396106Y-96443125D01*
X151396106Y-96443125D02*
X151200769Y-96443125D01*
X151200769Y-96443125D02*
X151199632Y-96532292D01*
X151199632Y-96532292D02*
X151195159Y-96591463D01*
X151195159Y-96591463D02*
X151185754Y-96629684D01*
X151185754Y-96629684D02*
X151169824Y-96655996D01*
X151169824Y-96655996D02*
X151161692Y-96664789D01*
X151161692Y-96664789D02*
X151114942Y-96698204D01*
X151114942Y-96698204D02*
X151069553Y-96696680D01*
X151069553Y-96696680D02*
X151023660Y-96667695D01*
X151023660Y-96667695D02*
X150996288Y-96636752D01*
X150996288Y-96636752D02*
X150980077Y-96591586D01*
X150980077Y-96591586D02*
X150970974Y-96520363D01*
X150970974Y-96520363D02*
X150970349Y-96512057D01*
X150970349Y-96512057D02*
X150968796Y-96382980D01*
X150968796Y-96382980D02*
X150985035Y-96287115D01*
X150985035Y-96287115D02*
X151018848Y-96225050D01*
X151018848Y-96225050D02*
X151070016Y-96197375D01*
X151070016Y-96197375D02*
X151088280Y-96195866D01*
X151088280Y-96195866D02*
X151136240Y-96203456D01*
X151136240Y-96203456D02*
X151169047Y-96229751D01*
X151169047Y-96229751D02*
X151189105Y-96280038D01*
X151189105Y-96280038D02*
X151198822Y-96359607D01*
X151198822Y-96359607D02*
X151200769Y-96443125D01*
X151200769Y-96443125D02*
X151396106Y-96443125D01*
X151396106Y-96443125D02*
X151395426Y-96349192D01*
X151395426Y-96349192D02*
X151392371Y-96278849D01*
X151392371Y-96278849D02*
X151385678Y-96230106D01*
X151385678Y-96230106D02*
X151374040Y-96194231D01*
X151374040Y-96194231D02*
X151356147Y-96162491D01*
X151356147Y-96162491D02*
X151352192Y-96156591D01*
X151352192Y-96156591D02*
X151285733Y-96077047D01*
X151285733Y-96077047D02*
X151213315Y-96030872D01*
X151213315Y-96030872D02*
X151125151Y-96012542D01*
X151125151Y-96012542D02*
X151095213Y-96011646D01*
X151095213Y-96011646D02*
X150983114Y-96028199D01*
X150983114Y-96028199D02*
X150983114Y-96028199D01*
G36*
X151396135Y-96471048D02*
G01*
X151395076Y-96565527D01*
X151391436Y-96631357D01*
X151383892Y-96677337D01*
X151371122Y-96712264D01*
X151351803Y-96744938D01*
X151347050Y-96751718D01*
X151296759Y-96805174D01*
X151239457Y-96845490D01*
X151210032Y-96858572D01*
X151104299Y-96880393D01*
X150999734Y-96866279D01*
X150903368Y-96818048D01*
X150822235Y-96737522D01*
X150815385Y-96726734D01*
X150793097Y-96664096D01*
X150778079Y-96576878D01*
X150770792Y-96476153D01*
X150771611Y-96382980D01*
X150968796Y-96382980D01*
X150970349Y-96512057D01*
X150970974Y-96520363D01*
X150980077Y-96591586D01*
X150996288Y-96636752D01*
X151023660Y-96667695D01*
X151069553Y-96696680D01*
X151114942Y-96698204D01*
X151161692Y-96664789D01*
X151169824Y-96655996D01*
X151185754Y-96629684D01*
X151195159Y-96591463D01*
X151199632Y-96532292D01*
X151200769Y-96443125D01*
X151198822Y-96359607D01*
X151189105Y-96280038D01*
X151169047Y-96229751D01*
X151136240Y-96203456D01*
X151088280Y-96195866D01*
X151070016Y-96197375D01*
X151018848Y-96225050D01*
X150985035Y-96287115D01*
X150968796Y-96382980D01*
X150771611Y-96382980D01*
X150771699Y-96372995D01*
X150781262Y-96278476D01*
X150799943Y-96203670D01*
X150823951Y-96153848D01*
X150891536Y-96076352D01*
X150983114Y-96028199D01*
X151095213Y-96011646D01*
X151125151Y-96012542D01*
X151213315Y-96030872D01*
X151285733Y-96077047D01*
X151352192Y-96156591D01*
X151356147Y-96162491D01*
X151374040Y-96194231D01*
X151385678Y-96230106D01*
X151392371Y-96278849D01*
X151395426Y-96349192D01*
X151396106Y-96443125D01*
X151396154Y-96449866D01*
X151396135Y-96471048D01*
G37*
X151396135Y-96471048D02*
X151395076Y-96565527D01*
X151391436Y-96631357D01*
X151383892Y-96677337D01*
X151371122Y-96712264D01*
X151351803Y-96744938D01*
X151347050Y-96751718D01*
X151296759Y-96805174D01*
X151239457Y-96845490D01*
X151210032Y-96858572D01*
X151104299Y-96880393D01*
X150999734Y-96866279D01*
X150903368Y-96818048D01*
X150822235Y-96737522D01*
X150815385Y-96726734D01*
X150793097Y-96664096D01*
X150778079Y-96576878D01*
X150770792Y-96476153D01*
X150771611Y-96382980D01*
X150968796Y-96382980D01*
X150970349Y-96512057D01*
X150970974Y-96520363D01*
X150980077Y-96591586D01*
X150996288Y-96636752D01*
X151023660Y-96667695D01*
X151069553Y-96696680D01*
X151114942Y-96698204D01*
X151161692Y-96664789D01*
X151169824Y-96655996D01*
X151185754Y-96629684D01*
X151195159Y-96591463D01*
X151199632Y-96532292D01*
X151200769Y-96443125D01*
X151198822Y-96359607D01*
X151189105Y-96280038D01*
X151169047Y-96229751D01*
X151136240Y-96203456D01*
X151088280Y-96195866D01*
X151070016Y-96197375D01*
X151018848Y-96225050D01*
X150985035Y-96287115D01*
X150968796Y-96382980D01*
X150771611Y-96382980D01*
X150771699Y-96372995D01*
X150781262Y-96278476D01*
X150799943Y-96203670D01*
X150823951Y-96153848D01*
X150891536Y-96076352D01*
X150983114Y-96028199D01*
X151095213Y-96011646D01*
X151125151Y-96012542D01*
X151213315Y-96030872D01*
X151285733Y-96077047D01*
X151352192Y-96156591D01*
X151356147Y-96162491D01*
X151374040Y-96194231D01*
X151385678Y-96230106D01*
X151392371Y-96278849D01*
X151395426Y-96349192D01*
X151396106Y-96443125D01*
X151396154Y-96449866D01*
X151396135Y-96471048D01*
X146860122Y-89728719D02*
X146754388Y-89729298D01*
X146754388Y-89729298D02*
X146677868Y-89730865D01*
X146677868Y-89730865D02*
X146625628Y-89733915D01*
X146625628Y-89733915D02*
X146592737Y-89738939D01*
X146592737Y-89738939D02*
X146574263Y-89746432D01*
X146574263Y-89746432D02*
X146565273Y-89756887D01*
X146565273Y-89756887D02*
X146560837Y-89770796D01*
X146560837Y-89770796D02*
X146560406Y-89772597D01*
X146560406Y-89772597D02*
X146553667Y-89805088D01*
X146553667Y-89805088D02*
X146541192Y-89869195D01*
X146541192Y-89869195D02*
X146524281Y-89958094D01*
X146524281Y-89958094D02*
X146504229Y-90064962D01*
X146504229Y-90064962D02*
X146482336Y-90182976D01*
X146482336Y-90182976D02*
X146481571Y-90187121D01*
X146481571Y-90187121D02*
X146459641Y-90302774D01*
X146459641Y-90302774D02*
X146439123Y-90404957D01*
X146439123Y-90404957D02*
X146421341Y-90487541D01*
X146421341Y-90487541D02*
X146407619Y-90544399D01*
X146407619Y-90544399D02*
X146399282Y-90569401D01*
X146399282Y-90569401D02*
X146398884Y-90569844D01*
X146398884Y-90569844D02*
X146374323Y-90582053D01*
X146374323Y-90582053D02*
X146323685Y-90602399D01*
X146323685Y-90602399D02*
X146257905Y-90626488D01*
X146257905Y-90626488D02*
X146257539Y-90626617D01*
X146257539Y-90626617D02*
X146174683Y-90657761D01*
X146174683Y-90657761D02*
X146077000Y-90697434D01*
X146077000Y-90697434D02*
X145984923Y-90737324D01*
X145984923Y-90737324D02*
X145980566Y-90739296D01*
X145980566Y-90739296D02*
X145830593Y-90807363D01*
X145830593Y-90807363D02*
X145498502Y-90580582D01*
X145498502Y-90580582D02*
X145396626Y-90511447D01*
X145396626Y-90511447D02*
X145304343Y-90449640D01*
X145304343Y-90449640D02*
X145226997Y-90398676D01*
X145226997Y-90398676D02*
X145169936Y-90362070D01*
X145169936Y-90362070D02*
X145138505Y-90343337D01*
X145138505Y-90343337D02*
X145135521Y-90341947D01*
X145135521Y-90341947D02*
X145112679Y-90348133D01*
X145112679Y-90348133D02*
X145070018Y-90377978D01*
X145070018Y-90377978D02*
X145005872Y-90432890D01*
X145005872Y-90432890D02*
X144918579Y-90514277D01*
X144918579Y-90514277D02*
X144829465Y-90600865D01*
X144829465Y-90600865D02*
X144743559Y-90686190D01*
X144743559Y-90686190D02*
X144666673Y-90764051D01*
X144666673Y-90764051D02*
X144603436Y-90829640D01*
X144603436Y-90829640D02*
X144558477Y-90878148D01*
X144558477Y-90878148D02*
X144536424Y-90904768D01*
X144536424Y-90904768D02*
X144535604Y-90906138D01*
X144535604Y-90906138D02*
X144533166Y-90924406D01*
X144533166Y-90924406D02*
X144542350Y-90954238D01*
X144542350Y-90954238D02*
X144565426Y-90999664D01*
X144565426Y-90999664D02*
X144604663Y-91064713D01*
X144604663Y-91064713D02*
X144662330Y-91153413D01*
X144662330Y-91153413D02*
X144739205Y-91267600D01*
X144739205Y-91267600D02*
X144807430Y-91368105D01*
X144807430Y-91368105D02*
X144868418Y-91458246D01*
X144868418Y-91458246D02*
X144918644Y-91532792D01*
X144918644Y-91532792D02*
X144954584Y-91586508D01*
X144954584Y-91586508D02*
X144972713Y-91614161D01*
X144972713Y-91614161D02*
X144973854Y-91616038D01*
X144973854Y-91616038D02*
X144971641Y-91642533D01*
X144971641Y-91642533D02*
X144954862Y-91694029D01*
X144954862Y-91694029D02*
X144926858Y-91760794D01*
X144926858Y-91760794D02*
X144916878Y-91782115D01*
X144916878Y-91782115D02*
X144873328Y-91877102D01*
X144873328Y-91877102D02*
X144826866Y-91984880D01*
X144826866Y-91984880D02*
X144789123Y-92078135D01*
X144789123Y-92078135D02*
X144761927Y-92147349D01*
X144761927Y-92147349D02*
X144740325Y-92199949D01*
X144740325Y-92199949D02*
X144727842Y-92227440D01*
X144727842Y-92227440D02*
X144726291Y-92229559D01*
X144726291Y-92229559D02*
X144703332Y-92233067D01*
X144703332Y-92233067D02*
X144649214Y-92242681D01*
X144649214Y-92242681D02*
X144571132Y-92257032D01*
X144571132Y-92257032D02*
X144476281Y-92274750D01*
X144476281Y-92274750D02*
X144371857Y-92294468D01*
X144371857Y-92294468D02*
X144265056Y-92314817D01*
X144265056Y-92314817D02*
X144163074Y-92334429D01*
X144163074Y-92334429D02*
X144073106Y-92351934D01*
X144073106Y-92351934D02*
X144002347Y-92365965D01*
X144002347Y-92365965D02*
X143957994Y-92375152D01*
X143957994Y-92375152D02*
X143947115Y-92377750D01*
X143947115Y-92377750D02*
X143935878Y-92384161D01*
X143935878Y-92384161D02*
X143927395Y-92398640D01*
X143927395Y-92398640D02*
X143921286Y-92426076D01*
X143921286Y-92426076D02*
X143917168Y-92471354D01*
X143917168Y-92471354D02*
X143914659Y-92539363D01*
X143914659Y-92539363D02*
X143913379Y-92634990D01*
X143913379Y-92634990D02*
X143912946Y-92763123D01*
X143912946Y-92763123D02*
X143912923Y-92815644D01*
X143912923Y-92815644D02*
X143912923Y-93242788D01*
X143912923Y-93242788D02*
X144015500Y-93263034D01*
X144015500Y-93263034D02*
X144072569Y-93274013D01*
X144072569Y-93274013D02*
X144157731Y-93290038D01*
X144157731Y-93290038D02*
X144260628Y-93309176D01*
X144260628Y-93309176D02*
X144370904Y-93329494D01*
X144370904Y-93329494D02*
X144401385Y-93335075D01*
X144401385Y-93335075D02*
X144503145Y-93354860D01*
X144503145Y-93354860D02*
X144591795Y-93374316D01*
X144591795Y-93374316D02*
X144659892Y-93391640D01*
X144659892Y-93391640D02*
X144699996Y-93405031D01*
X144699996Y-93405031D02*
X144706677Y-93409022D01*
X144706677Y-93409022D02*
X144723081Y-93437285D01*
X144723081Y-93437285D02*
X144746601Y-93492052D01*
X144746601Y-93492052D02*
X144772684Y-93562531D01*
X144772684Y-93562531D02*
X144777858Y-93577712D01*
X144777858Y-93577712D02*
X144812044Y-93671839D01*
X144812044Y-93671839D02*
X144854477Y-93778044D01*
X144854477Y-93778044D02*
X144896003Y-93873416D01*
X144896003Y-93873416D02*
X144896208Y-93873859D01*
X144896208Y-93873859D02*
X144965360Y-94023468D01*
X144965360Y-94023468D02*
X144510488Y-94692560D01*
X144510488Y-94692560D02*
X144802500Y-94985059D01*
X144802500Y-94985059D02*
X144890820Y-95072113D01*
X144890820Y-95072113D02*
X144971375Y-95148852D01*
X144971375Y-95148852D02*
X145039640Y-95211180D01*
X145039640Y-95211180D02*
X145091092Y-95254999D01*
X145091092Y-95254999D02*
X145121206Y-95276213D01*
X145121206Y-95276213D02*
X145125526Y-95277559D01*
X145125526Y-95277559D02*
X145150889Y-95266959D01*
X145150889Y-95266959D02*
X145202642Y-95237490D01*
X145202642Y-95237490D02*
X145275132Y-95192648D01*
X145275132Y-95192648D02*
X145362706Y-95135927D01*
X145362706Y-95135927D02*
X145457388Y-95072405D01*
X145457388Y-95072405D02*
X145553484Y-95007611D01*
X145553484Y-95007611D02*
X145639163Y-94951230D01*
X145639163Y-94951230D02*
X145708984Y-94906731D01*
X145708984Y-94906731D02*
X145757506Y-94877582D01*
X145757506Y-94877582D02*
X145779218Y-94867251D01*
X145779218Y-94867251D02*
X145805707Y-94875993D01*
X145805707Y-94875993D02*
X145855938Y-94899030D01*
X145855938Y-94899030D02*
X145919549Y-94931574D01*
X145919549Y-94931574D02*
X145926292Y-94935192D01*
X145926292Y-94935192D02*
X146011954Y-94978153D01*
X146011954Y-94978153D02*
X146070694Y-94999222D01*
X146070694Y-94999222D02*
X146107228Y-94999446D01*
X146107228Y-94999446D02*
X146126269Y-94979871D01*
X146126269Y-94979871D02*
X146126380Y-94979597D01*
X146126380Y-94979597D02*
X146135898Y-94956415D01*
X146135898Y-94956415D02*
X146158597Y-94901384D01*
X146158597Y-94901384D02*
X146192718Y-94818765D01*
X146192718Y-94818765D02*
X146236500Y-94712815D01*
X146236500Y-94712815D02*
X146288184Y-94587795D01*
X146288184Y-94587795D02*
X146346008Y-94447963D01*
X146346008Y-94447963D02*
X146402009Y-94312580D01*
X146402009Y-94312580D02*
X146463553Y-94163177D01*
X146463553Y-94163177D02*
X146520061Y-94024775D01*
X146520061Y-94024775D02*
X146569839Y-93901616D01*
X146569839Y-93901616D02*
X146611194Y-93797945D01*
X146611194Y-93797945D02*
X146642432Y-93718002D01*
X146642432Y-93718002D02*
X146661859Y-93666031D01*
X146661859Y-93666031D02*
X146667846Y-93646635D01*
X146667846Y-93646635D02*
X146652832Y-93624386D01*
X146652832Y-93624386D02*
X146613561Y-93588925D01*
X146613561Y-93588925D02*
X146561193Y-93549830D01*
X146561193Y-93549830D02*
X146412059Y-93426188D01*
X146412059Y-93426188D02*
X146295489Y-93284465D01*
X146295489Y-93284465D02*
X146212882Y-93127647D01*
X146212882Y-93127647D02*
X146165634Y-92958718D01*
X146165634Y-92958718D02*
X146155143Y-92780665D01*
X146155143Y-92780665D02*
X146162769Y-92698482D01*
X146162769Y-92698482D02*
X146204318Y-92527974D01*
X146204318Y-92527974D02*
X146275877Y-92377402D01*
X146275877Y-92377402D02*
X146373005Y-92248252D01*
X146373005Y-92248252D02*
X146491266Y-92142007D01*
X146491266Y-92142007D02*
X146626220Y-92060153D01*
X146626220Y-92060153D02*
X146773429Y-92004175D01*
X146773429Y-92004175D02*
X146928456Y-91975558D01*
X146928456Y-91975558D02*
X147086861Y-91975787D01*
X147086861Y-91975787D02*
X147244206Y-92006348D01*
X147244206Y-92006348D02*
X147396054Y-92068725D01*
X147396054Y-92068725D02*
X147537965Y-92164403D01*
X147537965Y-92164403D02*
X147597197Y-92218515D01*
X147597197Y-92218515D02*
X147710797Y-92357463D01*
X147710797Y-92357463D02*
X147789894Y-92509304D01*
X147789894Y-92509304D02*
X147835014Y-92669610D01*
X147835014Y-92669610D02*
X147846684Y-92833955D01*
X147846684Y-92833955D02*
X147825431Y-92997914D01*
X147825431Y-92997914D02*
X147771780Y-93157061D01*
X147771780Y-93157061D02*
X147686260Y-93306968D01*
X147686260Y-93306968D02*
X147569395Y-93443210D01*
X147569395Y-93443210D02*
X147438807Y-93549830D01*
X147438807Y-93549830D02*
X147384412Y-93590585D01*
X147384412Y-93590585D02*
X147345986Y-93625661D01*
X147345986Y-93625661D02*
X147332154Y-93646669D01*
X147332154Y-93646669D02*
X147339397Y-93669578D01*
X147339397Y-93669578D02*
X147359995Y-93724308D01*
X147359995Y-93724308D02*
X147392254Y-93806615D01*
X147392254Y-93806615D02*
X147434479Y-93912258D01*
X147434479Y-93912258D02*
X147484977Y-94036993D01*
X147484977Y-94036993D02*
X147542052Y-94176579D01*
X147542052Y-94176579D02*
X147598146Y-94312613D01*
X147598146Y-94312613D02*
X147660033Y-94462144D01*
X147660033Y-94462144D02*
X147717356Y-94600710D01*
X147717356Y-94600710D02*
X147768356Y-94724050D01*
X147768356Y-94724050D02*
X147811273Y-94827907D01*
X147811273Y-94827907D02*
X147844347Y-94908023D01*
X147844347Y-94908023D02*
X147865819Y-94960138D01*
X147865819Y-94960138D02*
X147873775Y-94979597D01*
X147873775Y-94979597D02*
X147892571Y-94999366D01*
X147892571Y-94999366D02*
X147928926Y-94999308D01*
X147928926Y-94999308D02*
X147987521Y-94978384D01*
X147987521Y-94978384D02*
X148073032Y-94935556D01*
X148073032Y-94935556D02*
X148073708Y-94935192D01*
X148073708Y-94935192D02*
X148138093Y-94901955D01*
X148138093Y-94901955D02*
X148190139Y-94877745D01*
X148190139Y-94877745D02*
X148219488Y-94867347D01*
X148219488Y-94867347D02*
X148220783Y-94867251D01*
X148220783Y-94867251D02*
X148242876Y-94877798D01*
X148242876Y-94877798D02*
X148291652Y-94907127D01*
X148291652Y-94907127D02*
X148361669Y-94951770D01*
X148361669Y-94951770D02*
X148447486Y-95008257D01*
X148447486Y-95008257D02*
X148542612Y-95072405D01*
X148542612Y-95072405D02*
X148639460Y-95137354D01*
X148639460Y-95137354D02*
X148726747Y-95193839D01*
X148726747Y-95193839D02*
X148798819Y-95238364D01*
X148798819Y-95238364D02*
X148850023Y-95267433D01*
X148850023Y-95267433D02*
X148874474Y-95277559D01*
X148874474Y-95277559D02*
X148896990Y-95264250D01*
X148896990Y-95264250D02*
X148942258Y-95227055D01*
X148942258Y-95227055D02*
X149005756Y-95170071D01*
X149005756Y-95170071D02*
X149082961Y-95097392D01*
X149082961Y-95097392D02*
X149169349Y-95013114D01*
X149169349Y-95013114D02*
X149197601Y-94984959D01*
X149197601Y-94984959D02*
X149489713Y-94692359D01*
X149489713Y-94692359D02*
X149267369Y-94366047D01*
X149267369Y-94366047D02*
X149199798Y-94265840D01*
X149199798Y-94265840D02*
X149140493Y-94175906D01*
X149140493Y-94175906D02*
X149092783Y-94101453D01*
X149092783Y-94101453D02*
X149059993Y-94047694D01*
X149059993Y-94047694D02*
X149045452Y-94019837D01*
X149045452Y-94019837D02*
X149045026Y-94017855D01*
X149045026Y-94017855D02*
X149052692Y-93991598D01*
X149052692Y-93991598D02*
X149073311Y-93938780D01*
X149073311Y-93938780D02*
X149103315Y-93868253D01*
X149103315Y-93868253D02*
X149124375Y-93821036D01*
X149124375Y-93821036D02*
X149163752Y-93730637D01*
X149163752Y-93730637D02*
X149200835Y-93639309D01*
X149200835Y-93639309D02*
X149229585Y-93562143D01*
X149229585Y-93562143D02*
X149237395Y-93538635D01*
X149237395Y-93538635D02*
X149259583Y-93475859D01*
X149259583Y-93475859D02*
X149281273Y-93427354D01*
X149281273Y-93427354D02*
X149293187Y-93409022D01*
X149293187Y-93409022D02*
X149319477Y-93397802D01*
X149319477Y-93397802D02*
X149376858Y-93381897D01*
X149376858Y-93381897D02*
X149457882Y-93363110D01*
X149457882Y-93363110D02*
X149555105Y-93343242D01*
X149555105Y-93343242D02*
X149598615Y-93335075D01*
X149598615Y-93335075D02*
X149709104Y-93314772D01*
X149709104Y-93314772D02*
X149815084Y-93295113D01*
X149815084Y-93295113D02*
X149906199Y-93278031D01*
X149906199Y-93278031D02*
X149972092Y-93265461D01*
X149972092Y-93265461D02*
X149984500Y-93263034D01*
X149984500Y-93263034D02*
X150087077Y-93242788D01*
X150087077Y-93242788D02*
X150087077Y-92815644D01*
X150087077Y-92815644D02*
X150086847Y-92675189D01*
X150086847Y-92675189D02*
X150085901Y-92568922D01*
X150085901Y-92568922D02*
X150083859Y-92491956D01*
X150083859Y-92491956D02*
X150080338Y-92439403D01*
X150080338Y-92439403D02*
X150074957Y-92406376D01*
X150074957Y-92406376D02*
X150067334Y-92387988D01*
X150067334Y-92387988D02*
X150057088Y-92379351D01*
X150057088Y-92379351D02*
X150052885Y-92377750D01*
X150052885Y-92377750D02*
X150027530Y-92372070D01*
X150027530Y-92372070D02*
X149971516Y-92360738D01*
X149971516Y-92360738D02*
X149892036Y-92345122D01*
X149892036Y-92345122D02*
X149796288Y-92326590D01*
X149796288Y-92326590D02*
X149691467Y-92306512D01*
X149691467Y-92306512D02*
X149584768Y-92286255D01*
X149584768Y-92286255D02*
X149483387Y-92267189D01*
X149483387Y-92267189D02*
X149394521Y-92250682D01*
X149394521Y-92250682D02*
X149325363Y-92238102D01*
X149325363Y-92238102D02*
X149283111Y-92230818D01*
X149283111Y-92230818D02*
X149273710Y-92229559D01*
X149273710Y-92229559D02*
X149265193Y-92212706D01*
X149265193Y-92212706D02*
X149246340Y-92167813D01*
X149246340Y-92167813D02*
X149220676Y-92103373D01*
X149220676Y-92103373D02*
X149210877Y-92078135D01*
X149210877Y-92078135D02*
X149171352Y-91980629D01*
X149171352Y-91980629D02*
X149124808Y-91872902D01*
X149124808Y-91872902D02*
X149083123Y-91782115D01*
X149083123Y-91782115D02*
X149052450Y-91712696D01*
X149052450Y-91712696D02*
X149032044Y-91655653D01*
X149032044Y-91655653D02*
X149025232Y-91620720D01*
X149025232Y-91620720D02*
X149026318Y-91616038D01*
X149026318Y-91616038D02*
X149040715Y-91593934D01*
X149040715Y-91593934D02*
X149073588Y-91544774D01*
X149073588Y-91544774D02*
X149121410Y-91473791D01*
X149121410Y-91473791D02*
X149180652Y-91386221D01*
X149180652Y-91386221D02*
X149247785Y-91287300D01*
X149247785Y-91287300D02*
X149261059Y-91267773D01*
X149261059Y-91267773D02*
X149338954Y-91152083D01*
X149338954Y-91152083D02*
X149396213Y-91063987D01*
X149396213Y-91063987D02*
X149435119Y-90999429D01*
X149435119Y-90999429D02*
X149457956Y-90954354D01*
X149457956Y-90954354D02*
X149467006Y-90924706D01*
X149467006Y-90924706D02*
X149464552Y-90906428D01*
X149464552Y-90906428D02*
X149464489Y-90906312D01*
X149464489Y-90906312D02*
X149445173Y-90882304D01*
X149445173Y-90882304D02*
X149402449Y-90835890D01*
X149402449Y-90835890D02*
X149340949Y-90771880D01*
X149340949Y-90771880D02*
X149265302Y-90695088D01*
X149265302Y-90695088D02*
X149180139Y-90610325D01*
X149180139Y-90610325D02*
X149170535Y-90600865D01*
X149170535Y-90600865D02*
X149063210Y-90496932D01*
X149063210Y-90496932D02*
X148980385Y-90420618D01*
X148980385Y-90420618D02*
X148920395Y-90370514D01*
X148920395Y-90370514D02*
X148881577Y-90345213D01*
X148881577Y-90345213D02*
X148864480Y-90341947D01*
X148864480Y-90341947D02*
X148839527Y-90356193D01*
X148839527Y-90356193D02*
X148787745Y-90389099D01*
X148787745Y-90389099D02*
X148714480Y-90437151D01*
X148714480Y-90437151D02*
X148625080Y-90496833D01*
X148625080Y-90496833D02*
X148524889Y-90564631D01*
X148524889Y-90564631D02*
X148501499Y-90580582D01*
X148501499Y-90580582D02*
X148169407Y-90807363D01*
X148169407Y-90807363D02*
X148019435Y-90739296D01*
X148019435Y-90739296D02*
X147928230Y-90699628D01*
X147928230Y-90699628D02*
X147830331Y-90659734D01*
X147830331Y-90659734D02*
X147746169Y-90627926D01*
X147746169Y-90627926D02*
X147742462Y-90626617D01*
X147742462Y-90626617D02*
X147676631Y-90602519D01*
X147676631Y-90602519D02*
X147625884Y-90582143D01*
X147625884Y-90582143D02*
X147601158Y-90569879D01*
X147601158Y-90569879D02*
X147601116Y-90569844D01*
X147601116Y-90569844D02*
X147593271Y-90547677D01*
X147593271Y-90547677D02*
X147579934Y-90493160D01*
X147579934Y-90493160D02*
X147562430Y-90412423D01*
X147562430Y-90412423D02*
X147542083Y-90311593D01*
X147542083Y-90311593D02*
X147520218Y-90196799D01*
X147520218Y-90196799D02*
X147518429Y-90187121D01*
X147518429Y-90187121D02*
X147496496Y-90068847D01*
X147496496Y-90068847D02*
X147476360Y-89961485D01*
X147476360Y-89961485D02*
X147459320Y-89871860D01*
X147459320Y-89871860D02*
X147446672Y-89806794D01*
X147446672Y-89806794D02*
X147439716Y-89773111D01*
X147439716Y-89773111D02*
X147439594Y-89772597D01*
X147439594Y-89772597D02*
X147435361Y-89758268D01*
X147435361Y-89758268D02*
X147427129Y-89747450D01*
X147427129Y-89747450D02*
X147409967Y-89739649D01*
X147409967Y-89739649D02*
X147378942Y-89734372D01*
X147378942Y-89734372D02*
X147329122Y-89731125D01*
X147329122Y-89731125D02*
X147255576Y-89729415D01*
X147255576Y-89729415D02*
X147153371Y-89728750D01*
X147153371Y-89728750D02*
X147017575Y-89728636D01*
X147017575Y-89728636D02*
X147000000Y-89728635D01*
X147000000Y-89728635D02*
X146860122Y-89728719D01*
X146860122Y-89728719D02*
X146860122Y-89728719D01*
G36*
X147017575Y-89728636D02*
G01*
X147153371Y-89728750D01*
X147255576Y-89729415D01*
X147329122Y-89731125D01*
X147378942Y-89734372D01*
X147409967Y-89739649D01*
X147427129Y-89747450D01*
X147435361Y-89758268D01*
X147439594Y-89772597D01*
X147439716Y-89773111D01*
X147446672Y-89806794D01*
X147459320Y-89871860D01*
X147476360Y-89961485D01*
X147496496Y-90068847D01*
X147518429Y-90187121D01*
X147520218Y-90196799D01*
X147542083Y-90311593D01*
X147562430Y-90412423D01*
X147579934Y-90493160D01*
X147593271Y-90547677D01*
X147601116Y-90569844D01*
X147601158Y-90569879D01*
X147625884Y-90582143D01*
X147676631Y-90602519D01*
X147742462Y-90626617D01*
X147746169Y-90627926D01*
X147830331Y-90659734D01*
X147928230Y-90699628D01*
X148019435Y-90739296D01*
X148169407Y-90807363D01*
X148501499Y-90580582D01*
X148524889Y-90564631D01*
X148625080Y-90496833D01*
X148714480Y-90437151D01*
X148787745Y-90389099D01*
X148839527Y-90356193D01*
X148864480Y-90341947D01*
X148881577Y-90345213D01*
X148920395Y-90370514D01*
X148980385Y-90420618D01*
X149063210Y-90496932D01*
X149170535Y-90600865D01*
X149180139Y-90610325D01*
X149265302Y-90695088D01*
X149340949Y-90771880D01*
X149402449Y-90835890D01*
X149445173Y-90882304D01*
X149464489Y-90906312D01*
X149464552Y-90906428D01*
X149467006Y-90924706D01*
X149457956Y-90954354D01*
X149435119Y-90999429D01*
X149396213Y-91063987D01*
X149338954Y-91152083D01*
X149261059Y-91267773D01*
X149247785Y-91287300D01*
X149180652Y-91386221D01*
X149121410Y-91473791D01*
X149073588Y-91544774D01*
X149040715Y-91593934D01*
X149026318Y-91616038D01*
X149025232Y-91620720D01*
X149032044Y-91655653D01*
X149052450Y-91712696D01*
X149083123Y-91782115D01*
X149124808Y-91872902D01*
X149171352Y-91980629D01*
X149210877Y-92078135D01*
X149220676Y-92103373D01*
X149246340Y-92167813D01*
X149265193Y-92212706D01*
X149273710Y-92229559D01*
X149283111Y-92230818D01*
X149325363Y-92238102D01*
X149394521Y-92250682D01*
X149483387Y-92267189D01*
X149584768Y-92286255D01*
X149691467Y-92306512D01*
X149796288Y-92326590D01*
X149892036Y-92345122D01*
X149971516Y-92360738D01*
X150027530Y-92372070D01*
X150052885Y-92377750D01*
X150057088Y-92379351D01*
X150067334Y-92387988D01*
X150074957Y-92406376D01*
X150080338Y-92439403D01*
X150083859Y-92491956D01*
X150085901Y-92568922D01*
X150086847Y-92675189D01*
X150087077Y-92815644D01*
X150087077Y-93242788D01*
X149984500Y-93263034D01*
X149972092Y-93265461D01*
X149906199Y-93278031D01*
X149815084Y-93295113D01*
X149709104Y-93314772D01*
X149598615Y-93335075D01*
X149555105Y-93343242D01*
X149457882Y-93363110D01*
X149376858Y-93381897D01*
X149319477Y-93397802D01*
X149293187Y-93409022D01*
X149281273Y-93427354D01*
X149259583Y-93475859D01*
X149237395Y-93538635D01*
X149229585Y-93562143D01*
X149200835Y-93639309D01*
X149163752Y-93730637D01*
X149124375Y-93821036D01*
X149103315Y-93868253D01*
X149073311Y-93938780D01*
X149052692Y-93991598D01*
X149045026Y-94017855D01*
X149045452Y-94019837D01*
X149059993Y-94047694D01*
X149092783Y-94101453D01*
X149140493Y-94175906D01*
X149199798Y-94265840D01*
X149267369Y-94366047D01*
X149489713Y-94692359D01*
X149197601Y-94984959D01*
X149169349Y-95013114D01*
X149082961Y-95097392D01*
X149005756Y-95170071D01*
X148942258Y-95227055D01*
X148896990Y-95264250D01*
X148874474Y-95277559D01*
X148850023Y-95267433D01*
X148798819Y-95238364D01*
X148726747Y-95193839D01*
X148639460Y-95137354D01*
X148542612Y-95072405D01*
X148447486Y-95008257D01*
X148361669Y-94951770D01*
X148291652Y-94907127D01*
X148242876Y-94877798D01*
X148220783Y-94867251D01*
X148219488Y-94867347D01*
X148190139Y-94877745D01*
X148138093Y-94901955D01*
X148073708Y-94935192D01*
X148073032Y-94935556D01*
X147987521Y-94978384D01*
X147928926Y-94999308D01*
X147892571Y-94999366D01*
X147873775Y-94979597D01*
X147865819Y-94960138D01*
X147844347Y-94908023D01*
X147811273Y-94827907D01*
X147768356Y-94724050D01*
X147717356Y-94600710D01*
X147660033Y-94462144D01*
X147598146Y-94312613D01*
X147542052Y-94176579D01*
X147484977Y-94036993D01*
X147434479Y-93912258D01*
X147392254Y-93806615D01*
X147359995Y-93724308D01*
X147339397Y-93669578D01*
X147332154Y-93646669D01*
X147345986Y-93625661D01*
X147384412Y-93590585D01*
X147438807Y-93549830D01*
X147569395Y-93443210D01*
X147686260Y-93306968D01*
X147771780Y-93157061D01*
X147825431Y-92997914D01*
X147846684Y-92833955D01*
X147835014Y-92669610D01*
X147789894Y-92509304D01*
X147710797Y-92357463D01*
X147597197Y-92218515D01*
X147537965Y-92164403D01*
X147396054Y-92068725D01*
X147244206Y-92006348D01*
X147086861Y-91975787D01*
X146928456Y-91975558D01*
X146773429Y-92004175D01*
X146626220Y-92060153D01*
X146491266Y-92142007D01*
X146373005Y-92248252D01*
X146275877Y-92377402D01*
X146204318Y-92527974D01*
X146162769Y-92698482D01*
X146155143Y-92780665D01*
X146165634Y-92958718D01*
X146212882Y-93127647D01*
X146295489Y-93284465D01*
X146412059Y-93426188D01*
X146561193Y-93549830D01*
X146613561Y-93588925D01*
X146652832Y-93624386D01*
X146667846Y-93646635D01*
X146661859Y-93666031D01*
X146642432Y-93718002D01*
X146611194Y-93797945D01*
X146569839Y-93901616D01*
X146520061Y-94024775D01*
X146463553Y-94163177D01*
X146402009Y-94312580D01*
X146346008Y-94447963D01*
X146288184Y-94587795D01*
X146236500Y-94712815D01*
X146192718Y-94818765D01*
X146158597Y-94901384D01*
X146135898Y-94956415D01*
X146126380Y-94979597D01*
X146126269Y-94979871D01*
X146107228Y-94999446D01*
X146070694Y-94999222D01*
X146011954Y-94978153D01*
X145926292Y-94935192D01*
X145919549Y-94931574D01*
X145855938Y-94899030D01*
X145805707Y-94875993D01*
X145779218Y-94867251D01*
X145757506Y-94877582D01*
X145708984Y-94906731D01*
X145639163Y-94951230D01*
X145553484Y-95007611D01*
X145457388Y-95072405D01*
X145362706Y-95135927D01*
X145275132Y-95192648D01*
X145202642Y-95237490D01*
X145150889Y-95266959D01*
X145125526Y-95277559D01*
X145121206Y-95276213D01*
X145091092Y-95254999D01*
X145039640Y-95211180D01*
X144971375Y-95148852D01*
X144890820Y-95072113D01*
X144802500Y-94985059D01*
X144510488Y-94692560D01*
X144965360Y-94023468D01*
X144896208Y-93873859D01*
X144896003Y-93873416D01*
X144854477Y-93778044D01*
X144812044Y-93671839D01*
X144777858Y-93577712D01*
X144772684Y-93562531D01*
X144746601Y-93492052D01*
X144723081Y-93437285D01*
X144706677Y-93409022D01*
X144699996Y-93405031D01*
X144659892Y-93391640D01*
X144591795Y-93374316D01*
X144503145Y-93354860D01*
X144401385Y-93335075D01*
X144370904Y-93329494D01*
X144260628Y-93309176D01*
X144157731Y-93290038D01*
X144072569Y-93274013D01*
X144015500Y-93263034D01*
X143912923Y-93242788D01*
X143912923Y-92815644D01*
X143912946Y-92763123D01*
X143913379Y-92634990D01*
X143914659Y-92539363D01*
X143917168Y-92471354D01*
X143921286Y-92426076D01*
X143927395Y-92398640D01*
X143935878Y-92384161D01*
X143947115Y-92377750D01*
X143957994Y-92375152D01*
X144002347Y-92365965D01*
X144073106Y-92351934D01*
X144163074Y-92334429D01*
X144265056Y-92314817D01*
X144371857Y-92294468D01*
X144476281Y-92274750D01*
X144571132Y-92257032D01*
X144649214Y-92242681D01*
X144703332Y-92233067D01*
X144726291Y-92229559D01*
X144727842Y-92227440D01*
X144740325Y-92199949D01*
X144761927Y-92147349D01*
X144789123Y-92078135D01*
X144826866Y-91984880D01*
X144873328Y-91877102D01*
X144916878Y-91782115D01*
X144926858Y-91760794D01*
X144954862Y-91694029D01*
X144971641Y-91642533D01*
X144973854Y-91616038D01*
X144972713Y-91614161D01*
X144954584Y-91586508D01*
X144918644Y-91532792D01*
X144868418Y-91458246D01*
X144807430Y-91368105D01*
X144739205Y-91267600D01*
X144662330Y-91153413D01*
X144604663Y-91064713D01*
X144565426Y-90999664D01*
X144542350Y-90954238D01*
X144533166Y-90924406D01*
X144535604Y-90906138D01*
X144536424Y-90904768D01*
X144558477Y-90878148D01*
X144603436Y-90829640D01*
X144666673Y-90764051D01*
X144743559Y-90686190D01*
X144829465Y-90600865D01*
X144918579Y-90514277D01*
X145005872Y-90432890D01*
X145070018Y-90377978D01*
X145112679Y-90348133D01*
X145135521Y-90341947D01*
X145138505Y-90343337D01*
X145169936Y-90362070D01*
X145226997Y-90398676D01*
X145304343Y-90449640D01*
X145396626Y-90511447D01*
X145498502Y-90580582D01*
X145830593Y-90807363D01*
X145980566Y-90739296D01*
X145984923Y-90737324D01*
X146077000Y-90697434D01*
X146174683Y-90657761D01*
X146257539Y-90626617D01*
X146257905Y-90626488D01*
X146323685Y-90602399D01*
X146374323Y-90582053D01*
X146398884Y-90569844D01*
X146399282Y-90569401D01*
X146407619Y-90544399D01*
X146421341Y-90487541D01*
X146439123Y-90404957D01*
X146459641Y-90302774D01*
X146481571Y-90187121D01*
X146482336Y-90182976D01*
X146504229Y-90064962D01*
X146524281Y-89958094D01*
X146541192Y-89869195D01*
X146553667Y-89805088D01*
X146560406Y-89772597D01*
X146560837Y-89770796D01*
X146565273Y-89756887D01*
X146574263Y-89746432D01*
X146592737Y-89738939D01*
X146625628Y-89733915D01*
X146677868Y-89730865D01*
X146754388Y-89729298D01*
X146860122Y-89728719D01*
X147000000Y-89728635D01*
X147017575Y-89728636D01*
G37*
X147017575Y-89728636D02*
X147153371Y-89728750D01*
X147255576Y-89729415D01*
X147329122Y-89731125D01*
X147378942Y-89734372D01*
X147409967Y-89739649D01*
X147427129Y-89747450D01*
X147435361Y-89758268D01*
X147439594Y-89772597D01*
X147439716Y-89773111D01*
X147446672Y-89806794D01*
X147459320Y-89871860D01*
X147476360Y-89961485D01*
X147496496Y-90068847D01*
X147518429Y-90187121D01*
X147520218Y-90196799D01*
X147542083Y-90311593D01*
X147562430Y-90412423D01*
X147579934Y-90493160D01*
X147593271Y-90547677D01*
X147601116Y-90569844D01*
X147601158Y-90569879D01*
X147625884Y-90582143D01*
X147676631Y-90602519D01*
X147742462Y-90626617D01*
X147746169Y-90627926D01*
X147830331Y-90659734D01*
X147928230Y-90699628D01*
X148019435Y-90739296D01*
X148169407Y-90807363D01*
X148501499Y-90580582D01*
X148524889Y-90564631D01*
X148625080Y-90496833D01*
X148714480Y-90437151D01*
X148787745Y-90389099D01*
X148839527Y-90356193D01*
X148864480Y-90341947D01*
X148881577Y-90345213D01*
X148920395Y-90370514D01*
X148980385Y-90420618D01*
X149063210Y-90496932D01*
X149170535Y-90600865D01*
X149180139Y-90610325D01*
X149265302Y-90695088D01*
X149340949Y-90771880D01*
X149402449Y-90835890D01*
X149445173Y-90882304D01*
X149464489Y-90906312D01*
X149464552Y-90906428D01*
X149467006Y-90924706D01*
X149457956Y-90954354D01*
X149435119Y-90999429D01*
X149396213Y-91063987D01*
X149338954Y-91152083D01*
X149261059Y-91267773D01*
X149247785Y-91287300D01*
X149180652Y-91386221D01*
X149121410Y-91473791D01*
X149073588Y-91544774D01*
X149040715Y-91593934D01*
X149026318Y-91616038D01*
X149025232Y-91620720D01*
X149032044Y-91655653D01*
X149052450Y-91712696D01*
X149083123Y-91782115D01*
X149124808Y-91872902D01*
X149171352Y-91980629D01*
X149210877Y-92078135D01*
X149220676Y-92103373D01*
X149246340Y-92167813D01*
X149265193Y-92212706D01*
X149273710Y-92229559D01*
X149283111Y-92230818D01*
X149325363Y-92238102D01*
X149394521Y-92250682D01*
X149483387Y-92267189D01*
X149584768Y-92286255D01*
X149691467Y-92306512D01*
X149796288Y-92326590D01*
X149892036Y-92345122D01*
X149971516Y-92360738D01*
X150027530Y-92372070D01*
X150052885Y-92377750D01*
X150057088Y-92379351D01*
X150067334Y-92387988D01*
X150074957Y-92406376D01*
X150080338Y-92439403D01*
X150083859Y-92491956D01*
X150085901Y-92568922D01*
X150086847Y-92675189D01*
X150087077Y-92815644D01*
X150087077Y-93242788D01*
X149984500Y-93263034D01*
X149972092Y-93265461D01*
X149906199Y-93278031D01*
X149815084Y-93295113D01*
X149709104Y-93314772D01*
X149598615Y-93335075D01*
X149555105Y-93343242D01*
X149457882Y-93363110D01*
X149376858Y-93381897D01*
X149319477Y-93397802D01*
X149293187Y-93409022D01*
X149281273Y-93427354D01*
X149259583Y-93475859D01*
X149237395Y-93538635D01*
X149229585Y-93562143D01*
X149200835Y-93639309D01*
X149163752Y-93730637D01*
X149124375Y-93821036D01*
X149103315Y-93868253D01*
X149073311Y-93938780D01*
X149052692Y-93991598D01*
X149045026Y-94017855D01*
X149045452Y-94019837D01*
X149059993Y-94047694D01*
X149092783Y-94101453D01*
X149140493Y-94175906D01*
X149199798Y-94265840D01*
X149267369Y-94366047D01*
X149489713Y-94692359D01*
X149197601Y-94984959D01*
X149169349Y-95013114D01*
X149082961Y-95097392D01*
X149005756Y-95170071D01*
X148942258Y-95227055D01*
X148896990Y-95264250D01*
X148874474Y-95277559D01*
X148850023Y-95267433D01*
X148798819Y-95238364D01*
X148726747Y-95193839D01*
X148639460Y-95137354D01*
X148542612Y-95072405D01*
X148447486Y-95008257D01*
X148361669Y-94951770D01*
X148291652Y-94907127D01*
X148242876Y-94877798D01*
X148220783Y-94867251D01*
X148219488Y-94867347D01*
X148190139Y-94877745D01*
X148138093Y-94901955D01*
X148073708Y-94935192D01*
X148073032Y-94935556D01*
X147987521Y-94978384D01*
X147928926Y-94999308D01*
X147892571Y-94999366D01*
X147873775Y-94979597D01*
X147865819Y-94960138D01*
X147844347Y-94908023D01*
X147811273Y-94827907D01*
X147768356Y-94724050D01*
X147717356Y-94600710D01*
X147660033Y-94462144D01*
X147598146Y-94312613D01*
X147542052Y-94176579D01*
X147484977Y-94036993D01*
X147434479Y-93912258D01*
X147392254Y-93806615D01*
X147359995Y-93724308D01*
X147339397Y-93669578D01*
X147332154Y-93646669D01*
X147345986Y-93625661D01*
X147384412Y-93590585D01*
X147438807Y-93549830D01*
X147569395Y-93443210D01*
X147686260Y-93306968D01*
X147771780Y-93157061D01*
X147825431Y-92997914D01*
X147846684Y-92833955D01*
X147835014Y-92669610D01*
X147789894Y-92509304D01*
X147710797Y-92357463D01*
X147597197Y-92218515D01*
X147537965Y-92164403D01*
X147396054Y-92068725D01*
X147244206Y-92006348D01*
X147086861Y-91975787D01*
X146928456Y-91975558D01*
X146773429Y-92004175D01*
X146626220Y-92060153D01*
X146491266Y-92142007D01*
X146373005Y-92248252D01*
X146275877Y-92377402D01*
X146204318Y-92527974D01*
X146162769Y-92698482D01*
X146155143Y-92780665D01*
X146165634Y-92958718D01*
X146212882Y-93127647D01*
X146295489Y-93284465D01*
X146412059Y-93426188D01*
X146561193Y-93549830D01*
X146613561Y-93588925D01*
X146652832Y-93624386D01*
X146667846Y-93646635D01*
X146661859Y-93666031D01*
X146642432Y-93718002D01*
X146611194Y-93797945D01*
X146569839Y-93901616D01*
X146520061Y-94024775D01*
X146463553Y-94163177D01*
X146402009Y-94312580D01*
X146346008Y-94447963D01*
X146288184Y-94587795D01*
X146236500Y-94712815D01*
X146192718Y-94818765D01*
X146158597Y-94901384D01*
X146135898Y-94956415D01*
X146126380Y-94979597D01*
X146126269Y-94979871D01*
X146107228Y-94999446D01*
X146070694Y-94999222D01*
X146011954Y-94978153D01*
X145926292Y-94935192D01*
X145919549Y-94931574D01*
X145855938Y-94899030D01*
X145805707Y-94875993D01*
X145779218Y-94867251D01*
X145757506Y-94877582D01*
X145708984Y-94906731D01*
X145639163Y-94951230D01*
X145553484Y-95007611D01*
X145457388Y-95072405D01*
X145362706Y-95135927D01*
X145275132Y-95192648D01*
X145202642Y-95237490D01*
X145150889Y-95266959D01*
X145125526Y-95277559D01*
X145121206Y-95276213D01*
X145091092Y-95254999D01*
X145039640Y-95211180D01*
X144971375Y-95148852D01*
X144890820Y-95072113D01*
X144802500Y-94985059D01*
X144510488Y-94692560D01*
X144965360Y-94023468D01*
X144896208Y-93873859D01*
X144896003Y-93873416D01*
X144854477Y-93778044D01*
X144812044Y-93671839D01*
X144777858Y-93577712D01*
X144772684Y-93562531D01*
X144746601Y-93492052D01*
X144723081Y-93437285D01*
X144706677Y-93409022D01*
X144699996Y-93405031D01*
X144659892Y-93391640D01*
X144591795Y-93374316D01*
X144503145Y-93354860D01*
X144401385Y-93335075D01*
X144370904Y-93329494D01*
X144260628Y-93309176D01*
X144157731Y-93290038D01*
X144072569Y-93274013D01*
X144015500Y-93263034D01*
X143912923Y-93242788D01*
X143912923Y-92815644D01*
X143912946Y-92763123D01*
X143913379Y-92634990D01*
X143914659Y-92539363D01*
X143917168Y-92471354D01*
X143921286Y-92426076D01*
X143927395Y-92398640D01*
X143935878Y-92384161D01*
X143947115Y-92377750D01*
X143957994Y-92375152D01*
X144002347Y-92365965D01*
X144073106Y-92351934D01*
X144163074Y-92334429D01*
X144265056Y-92314817D01*
X144371857Y-92294468D01*
X144476281Y-92274750D01*
X144571132Y-92257032D01*
X144649214Y-92242681D01*
X144703332Y-92233067D01*
X144726291Y-92229559D01*
X144727842Y-92227440D01*
X144740325Y-92199949D01*
X144761927Y-92147349D01*
X144789123Y-92078135D01*
X144826866Y-91984880D01*
X144873328Y-91877102D01*
X144916878Y-91782115D01*
X144926858Y-91760794D01*
X144954862Y-91694029D01*
X144971641Y-91642533D01*
X144973854Y-91616038D01*
X144972713Y-91614161D01*
X144954584Y-91586508D01*
X144918644Y-91532792D01*
X144868418Y-91458246D01*
X144807430Y-91368105D01*
X144739205Y-91267600D01*
X144662330Y-91153413D01*
X144604663Y-91064713D01*
X144565426Y-90999664D01*
X144542350Y-90954238D01*
X144533166Y-90924406D01*
X144535604Y-90906138D01*
X144536424Y-90904768D01*
X144558477Y-90878148D01*
X144603436Y-90829640D01*
X144666673Y-90764051D01*
X144743559Y-90686190D01*
X144829465Y-90600865D01*
X144918579Y-90514277D01*
X145005872Y-90432890D01*
X145070018Y-90377978D01*
X145112679Y-90348133D01*
X145135521Y-90341947D01*
X145138505Y-90343337D01*
X145169936Y-90362070D01*
X145226997Y-90398676D01*
X145304343Y-90449640D01*
X145396626Y-90511447D01*
X145498502Y-90580582D01*
X145830593Y-90807363D01*
X145980566Y-90739296D01*
X145984923Y-90737324D01*
X146077000Y-90697434D01*
X146174683Y-90657761D01*
X146257539Y-90626617D01*
X146257905Y-90626488D01*
X146323685Y-90602399D01*
X146374323Y-90582053D01*
X146398884Y-90569844D01*
X146399282Y-90569401D01*
X146407619Y-90544399D01*
X146421341Y-90487541D01*
X146439123Y-90404957D01*
X146459641Y-90302774D01*
X146481571Y-90187121D01*
X146482336Y-90182976D01*
X146504229Y-90064962D01*
X146524281Y-89958094D01*
X146541192Y-89869195D01*
X146553667Y-89805088D01*
X146560406Y-89772597D01*
X146560837Y-89770796D01*
X146565273Y-89756887D01*
X146574263Y-89746432D01*
X146592737Y-89738939D01*
X146625628Y-89733915D01*
X146677868Y-89730865D01*
X146754388Y-89729298D01*
X146860122Y-89728719D01*
X147000000Y-89728635D01*
X147017575Y-89728636D01*
X144604071Y-96077605D02*
X144601089Y-96129011D01*
X144601089Y-96129011D02*
X144598753Y-96207135D01*
X144598753Y-96207135D02*
X144597251Y-96305800D01*
X144597251Y-96305800D02*
X144596769Y-96409286D01*
X144596769Y-96409286D02*
X144596769Y-96759476D01*
X144596769Y-96759476D02*
X144658599Y-96821306D01*
X144658599Y-96821306D02*
X144701207Y-96859405D01*
X144701207Y-96859405D02*
X144738610Y-96874838D01*
X144738610Y-96874838D02*
X144789730Y-96873861D01*
X144789730Y-96873861D02*
X144810022Y-96871376D01*
X144810022Y-96871376D02*
X144873446Y-96864143D01*
X144873446Y-96864143D02*
X144925905Y-96859998D01*
X144925905Y-96859998D02*
X144938692Y-96859615D01*
X144938692Y-96859615D02*
X144981801Y-96862119D01*
X144981801Y-96862119D02*
X145043456Y-96868405D01*
X145043456Y-96868405D02*
X145067362Y-96871376D01*
X145067362Y-96871376D02*
X145126078Y-96875971D01*
X145126078Y-96875971D02*
X145165536Y-96865989D01*
X145165536Y-96865989D02*
X145204662Y-96835171D01*
X145204662Y-96835171D02*
X145218785Y-96821306D01*
X145218785Y-96821306D02*
X145280615Y-96759476D01*
X145280615Y-96759476D02*
X145280615Y-96104446D01*
X145280615Y-96104446D02*
X145230850Y-96081772D01*
X145230850Y-96081772D02*
X145187998Y-96064977D01*
X145187998Y-96064977D02*
X145162927Y-96059097D01*
X145162927Y-96059097D02*
X145156499Y-96077679D01*
X145156499Y-96077679D02*
X145150491Y-96129598D01*
X145150491Y-96129598D02*
X145145303Y-96209115D01*
X145145303Y-96209115D02*
X145141336Y-96310489D01*
X145141336Y-96310489D02*
X145139423Y-96396135D01*
X145139423Y-96396135D02*
X145134077Y-96733174D01*
X145134077Y-96733174D02*
X145087440Y-96739768D01*
X145087440Y-96739768D02*
X145045024Y-96735157D01*
X145045024Y-96735157D02*
X145024240Y-96720230D01*
X145024240Y-96720230D02*
X145018430Y-96692320D01*
X145018430Y-96692320D02*
X145013470Y-96632868D01*
X145013470Y-96632868D02*
X145009754Y-96549409D01*
X145009754Y-96549409D02*
X145007676Y-96449475D01*
X145007676Y-96449475D02*
X145007376Y-96398047D01*
X145007376Y-96398047D02*
X145007077Y-96101997D01*
X145007077Y-96101997D02*
X144945546Y-96080547D01*
X144945546Y-96080547D02*
X144901996Y-96065963D01*
X144901996Y-96065963D02*
X144878306Y-96059162D01*
X144878306Y-96059162D02*
X144877623Y-96059097D01*
X144877623Y-96059097D02*
X144875246Y-96077585D01*
X144875246Y-96077585D02*
X144872634Y-96128849D01*
X144872634Y-96128849D02*
X144870005Y-96206592D01*
X144870005Y-96206592D02*
X144867579Y-96304517D01*
X144867579Y-96304517D02*
X144865885Y-96396135D01*
X144865885Y-96396135D02*
X144860539Y-96733174D01*
X144860539Y-96733174D02*
X144743308Y-96733174D01*
X144743308Y-96733174D02*
X144737928Y-96425689D01*
X144737928Y-96425689D02*
X144732549Y-96118204D01*
X144732549Y-96118204D02*
X144675399Y-96088650D01*
X144675399Y-96088650D02*
X144633203Y-96068356D01*
X144633203Y-96068356D02*
X144608230Y-96059147D01*
X144608230Y-96059147D02*
X144607509Y-96059097D01*
X144607509Y-96059097D02*
X144604071Y-96077605D01*
X144604071Y-96077605D02*
X144604071Y-96077605D01*
G36*
X145187998Y-96064977D02*
G01*
X145230850Y-96081772D01*
X145280615Y-96104446D01*
X145280615Y-96759476D01*
X145218785Y-96821306D01*
X145204662Y-96835171D01*
X145165536Y-96865989D01*
X145126078Y-96875971D01*
X145067362Y-96871376D01*
X145043456Y-96868405D01*
X144981801Y-96862119D01*
X144938692Y-96859615D01*
X144925905Y-96859998D01*
X144873446Y-96864143D01*
X144810022Y-96871376D01*
X144789730Y-96873861D01*
X144738610Y-96874838D01*
X144701207Y-96859405D01*
X144658599Y-96821306D01*
X144596769Y-96759476D01*
X144596769Y-96409286D01*
X144597251Y-96305800D01*
X144598753Y-96207135D01*
X144601089Y-96129011D01*
X144604071Y-96077605D01*
X144607509Y-96059097D01*
X144608230Y-96059147D01*
X144633203Y-96068356D01*
X144675399Y-96088650D01*
X144732549Y-96118204D01*
X144737928Y-96425689D01*
X144743308Y-96733174D01*
X144860539Y-96733174D01*
X144865885Y-96396135D01*
X144867579Y-96304517D01*
X144870005Y-96206592D01*
X144872634Y-96128849D01*
X144875246Y-96077585D01*
X144877623Y-96059097D01*
X144878306Y-96059162D01*
X144901996Y-96065963D01*
X144945546Y-96080547D01*
X145007077Y-96101997D01*
X145007376Y-96398047D01*
X145007676Y-96449475D01*
X145009754Y-96549409D01*
X145013470Y-96632868D01*
X145018430Y-96692320D01*
X145024240Y-96720230D01*
X145045024Y-96735157D01*
X145087440Y-96739768D01*
X145134077Y-96733174D01*
X145139423Y-96396135D01*
X145141336Y-96310489D01*
X145145303Y-96209115D01*
X145150491Y-96129598D01*
X145156499Y-96077679D01*
X145162927Y-96059097D01*
X145187998Y-96064977D01*
G37*
X145187998Y-96064977D02*
X145230850Y-96081772D01*
X145280615Y-96104446D01*
X145280615Y-96759476D01*
X145218785Y-96821306D01*
X145204662Y-96835171D01*
X145165536Y-96865989D01*
X145126078Y-96875971D01*
X145067362Y-96871376D01*
X145043456Y-96868405D01*
X144981801Y-96862119D01*
X144938692Y-96859615D01*
X144925905Y-96859998D01*
X144873446Y-96864143D01*
X144810022Y-96871376D01*
X144789730Y-96873861D01*
X144738610Y-96874838D01*
X144701207Y-96859405D01*
X144658599Y-96821306D01*
X144596769Y-96759476D01*
X144596769Y-96409286D01*
X144597251Y-96305800D01*
X144598753Y-96207135D01*
X144601089Y-96129011D01*
X144604071Y-96077605D01*
X144607509Y-96059097D01*
X144608230Y-96059147D01*
X144633203Y-96068356D01*
X144675399Y-96088650D01*
X144732549Y-96118204D01*
X144737928Y-96425689D01*
X144743308Y-96733174D01*
X144860539Y-96733174D01*
X144865885Y-96396135D01*
X144867579Y-96304517D01*
X144870005Y-96206592D01*
X144872634Y-96128849D01*
X144875246Y-96077585D01*
X144877623Y-96059097D01*
X144878306Y-96059162D01*
X144901996Y-96065963D01*
X144945546Y-96080547D01*
X145007077Y-96101997D01*
X145007376Y-96398047D01*
X145007676Y-96449475D01*
X145009754Y-96549409D01*
X145013470Y-96632868D01*
X145018430Y-96692320D01*
X145024240Y-96720230D01*
X145045024Y-96735157D01*
X145087440Y-96739768D01*
X145134077Y-96733174D01*
X145139423Y-96396135D01*
X145141336Y-96310489D01*
X145145303Y-96209115D01*
X145150491Y-96129598D01*
X145156499Y-96077679D01*
X145162927Y-96059097D01*
X145187998Y-96064977D01*
X144112667Y-96074471D02*
X144056410Y-96100060D01*
X144056410Y-96100060D02*
X144012253Y-96131067D01*
X144012253Y-96131067D02*
X143979899Y-96165738D01*
X143979899Y-96165738D02*
X143957562Y-96210463D01*
X143957562Y-96210463D02*
X143943454Y-96271635D01*
X143943454Y-96271635D02*
X143935789Y-96355644D01*
X143935789Y-96355644D02*
X143932780Y-96468883D01*
X143932780Y-96468883D02*
X143932462Y-96543452D01*
X143932462Y-96543452D02*
X143932462Y-96834363D01*
X143932462Y-96834363D02*
X143982227Y-96857038D01*
X143982227Y-96857038D02*
X144021424Y-96873610D01*
X144021424Y-96873610D02*
X144040843Y-96879712D01*
X144040843Y-96879712D02*
X144044558Y-96861553D01*
X144044558Y-96861553D02*
X144047505Y-96812591D01*
X144047505Y-96812591D02*
X144049309Y-96741096D01*
X144049309Y-96741096D02*
X144049692Y-96684328D01*
X144049692Y-96684328D02*
X144051339Y-96602314D01*
X144051339Y-96602314D02*
X144055778Y-96537252D01*
X144055778Y-96537252D02*
X144062260Y-96497410D01*
X144062260Y-96497410D02*
X144067410Y-96488943D01*
X144067410Y-96488943D02*
X144102023Y-96497589D01*
X144102023Y-96497589D02*
X144156360Y-96519766D01*
X144156360Y-96519766D02*
X144219278Y-96549829D01*
X144219278Y-96549829D02*
X144279632Y-96582135D01*
X144279632Y-96582135D02*
X144326279Y-96611041D01*
X144326279Y-96611041D02*
X144348074Y-96630904D01*
X144348074Y-96630904D02*
X144348161Y-96631118D01*
X144348161Y-96631118D02*
X144346286Y-96667878D01*
X144346286Y-96667878D02*
X144329475Y-96702969D01*
X144329475Y-96702969D02*
X144299961Y-96731471D01*
X144299961Y-96731471D02*
X144256884Y-96741004D01*
X144256884Y-96741004D02*
X144220068Y-96739893D01*
X144220068Y-96739893D02*
X144167926Y-96739076D01*
X144167926Y-96739076D02*
X144140556Y-96751292D01*
X144140556Y-96751292D02*
X144124118Y-96783567D01*
X144124118Y-96783567D02*
X144122045Y-96789653D01*
X144122045Y-96789653D02*
X144114919Y-96835682D01*
X144114919Y-96835682D02*
X144133976Y-96863630D01*
X144133976Y-96863630D02*
X144183647Y-96876950D01*
X144183647Y-96876950D02*
X144237303Y-96879413D01*
X144237303Y-96879413D02*
X144333858Y-96861153D01*
X144333858Y-96861153D02*
X144383841Y-96835074D01*
X144383841Y-96835074D02*
X144445571Y-96773811D01*
X144445571Y-96773811D02*
X144478310Y-96698613D01*
X144478310Y-96698613D02*
X144481247Y-96619154D01*
X144481247Y-96619154D02*
X144453576Y-96545110D01*
X144453576Y-96545110D02*
X144411953Y-96498712D01*
X144411953Y-96498712D02*
X144370396Y-96472736D01*
X144370396Y-96472736D02*
X144305078Y-96439850D01*
X144305078Y-96439850D02*
X144228962Y-96406500D01*
X144228962Y-96406500D02*
X144216274Y-96401404D01*
X144216274Y-96401404D02*
X144132667Y-96364508D01*
X144132667Y-96364508D02*
X144084470Y-96331989D01*
X144084470Y-96331989D02*
X144068970Y-96299661D01*
X144068970Y-96299661D02*
X144083450Y-96263337D01*
X144083450Y-96263337D02*
X144108308Y-96234943D01*
X144108308Y-96234943D02*
X144167061Y-96199982D01*
X144167061Y-96199982D02*
X144231707Y-96197360D01*
X144231707Y-96197360D02*
X144290992Y-96224301D01*
X144290992Y-96224301D02*
X144333661Y-96278031D01*
X144333661Y-96278031D02*
X144339261Y-96291893D01*
X144339261Y-96291893D02*
X144371867Y-96342879D01*
X144371867Y-96342879D02*
X144419470Y-96380730D01*
X144419470Y-96380730D02*
X144479539Y-96411793D01*
X144479539Y-96411793D02*
X144479539Y-96323711D01*
X144479539Y-96323711D02*
X144476003Y-96269894D01*
X144476003Y-96269894D02*
X144460844Y-96227477D01*
X144460844Y-96227477D02*
X144427232Y-96182222D01*
X144427232Y-96182222D02*
X144394965Y-96147363D01*
X144394965Y-96147363D02*
X144344791Y-96098005D01*
X144344791Y-96098005D02*
X144305807Y-96071490D01*
X144305807Y-96071490D02*
X144263936Y-96060854D01*
X144263936Y-96060854D02*
X144216540Y-96059097D01*
X144216540Y-96059097D02*
X144112667Y-96074471D01*
X144112667Y-96074471D02*
X144112667Y-96074471D01*
G36*
X144263936Y-96060854D02*
G01*
X144305807Y-96071490D01*
X144344791Y-96098005D01*
X144394965Y-96147363D01*
X144427232Y-96182222D01*
X144460844Y-96227477D01*
X144476003Y-96269894D01*
X144479539Y-96323711D01*
X144479539Y-96411793D01*
X144419470Y-96380730D01*
X144371867Y-96342879D01*
X144339261Y-96291893D01*
X144333661Y-96278031D01*
X144290992Y-96224301D01*
X144231707Y-96197360D01*
X144167061Y-96199982D01*
X144108308Y-96234943D01*
X144083450Y-96263337D01*
X144068970Y-96299661D01*
X144084470Y-96331989D01*
X144132667Y-96364508D01*
X144216274Y-96401404D01*
X144228962Y-96406500D01*
X144305078Y-96439850D01*
X144370396Y-96472736D01*
X144411953Y-96498712D01*
X144453576Y-96545110D01*
X144481247Y-96619154D01*
X144478310Y-96698613D01*
X144445571Y-96773811D01*
X144383841Y-96835074D01*
X144333858Y-96861153D01*
X144237303Y-96879413D01*
X144183647Y-96876950D01*
X144133976Y-96863630D01*
X144114919Y-96835682D01*
X144122045Y-96789653D01*
X144124118Y-96783567D01*
X144140556Y-96751292D01*
X144167926Y-96739076D01*
X144220068Y-96739893D01*
X144256884Y-96741004D01*
X144299961Y-96731471D01*
X144329475Y-96702969D01*
X144346286Y-96667878D01*
X144348161Y-96631118D01*
X144348074Y-96630904D01*
X144326279Y-96611041D01*
X144279632Y-96582135D01*
X144219278Y-96549829D01*
X144156360Y-96519766D01*
X144102023Y-96497589D01*
X144067410Y-96488943D01*
X144062260Y-96497410D01*
X144055778Y-96537252D01*
X144051339Y-96602314D01*
X144049692Y-96684328D01*
X144049309Y-96741096D01*
X144047505Y-96812591D01*
X144044558Y-96861553D01*
X144040843Y-96879712D01*
X144021424Y-96873610D01*
X143982227Y-96857038D01*
X143932462Y-96834363D01*
X143932462Y-96543452D01*
X143932780Y-96468883D01*
X143935789Y-96355644D01*
X143943454Y-96271635D01*
X143957562Y-96210463D01*
X143979899Y-96165738D01*
X144012253Y-96131067D01*
X144056410Y-96100060D01*
X144112667Y-96074471D01*
X144216540Y-96059097D01*
X144263936Y-96060854D01*
G37*
X144263936Y-96060854D02*
X144305807Y-96071490D01*
X144344791Y-96098005D01*
X144394965Y-96147363D01*
X144427232Y-96182222D01*
X144460844Y-96227477D01*
X144476003Y-96269894D01*
X144479539Y-96323711D01*
X144479539Y-96411793D01*
X144419470Y-96380730D01*
X144371867Y-96342879D01*
X144339261Y-96291893D01*
X144333661Y-96278031D01*
X144290992Y-96224301D01*
X144231707Y-96197360D01*
X144167061Y-96199982D01*
X144108308Y-96234943D01*
X144083450Y-96263337D01*
X144068970Y-96299661D01*
X144084470Y-96331989D01*
X144132667Y-96364508D01*
X144216274Y-96401404D01*
X144228962Y-96406500D01*
X144305078Y-96439850D01*
X144370396Y-96472736D01*
X144411953Y-96498712D01*
X144453576Y-96545110D01*
X144481247Y-96619154D01*
X144478310Y-96698613D01*
X144445571Y-96773811D01*
X144383841Y-96835074D01*
X144333858Y-96861153D01*
X144237303Y-96879413D01*
X144183647Y-96876950D01*
X144133976Y-96863630D01*
X144114919Y-96835682D01*
X144122045Y-96789653D01*
X144124118Y-96783567D01*
X144140556Y-96751292D01*
X144167926Y-96739076D01*
X144220068Y-96739893D01*
X144256884Y-96741004D01*
X144299961Y-96731471D01*
X144329475Y-96702969D01*
X144346286Y-96667878D01*
X144348161Y-96631118D01*
X144348074Y-96630904D01*
X144326279Y-96611041D01*
X144279632Y-96582135D01*
X144219278Y-96549829D01*
X144156360Y-96519766D01*
X144102023Y-96497589D01*
X144067410Y-96488943D01*
X144062260Y-96497410D01*
X144055778Y-96537252D01*
X144051339Y-96602314D01*
X144049692Y-96684328D01*
X144049309Y-96741096D01*
X144047505Y-96812591D01*
X144044558Y-96861553D01*
X144040843Y-96879712D01*
X144021424Y-96873610D01*
X143982227Y-96857038D01*
X143932462Y-96834363D01*
X143932462Y-96543452D01*
X143932780Y-96468883D01*
X143935789Y-96355644D01*
X143943454Y-96271635D01*
X143957562Y-96210463D01*
X143979899Y-96165738D01*
X144012253Y-96131067D01*
X144056410Y-96100060D01*
X144112667Y-96074471D01*
X144216540Y-96059097D01*
X144263936Y-96060854D01*
X149465746Y-96040688D02*
X149388714Y-96092510D01*
X149388714Y-96092510D02*
X149329184Y-96167355D01*
X149329184Y-96167355D02*
X149293622Y-96262597D01*
X149293622Y-96262597D02*
X149286429Y-96332699D01*
X149286429Y-96332699D02*
X149287246Y-96361952D01*
X149287246Y-96361952D02*
X149294086Y-96384350D01*
X149294086Y-96384350D02*
X149312888Y-96404417D01*
X149312888Y-96404417D02*
X149349592Y-96426676D01*
X149349592Y-96426676D02*
X149410138Y-96455652D01*
X149410138Y-96455652D02*
X149500466Y-96495870D01*
X149500466Y-96495870D02*
X149500923Y-96496072D01*
X149500923Y-96496072D02*
X149584067Y-96534153D01*
X149584067Y-96534153D02*
X149652247Y-96567968D01*
X149652247Y-96567968D02*
X149698495Y-96593876D01*
X149698495Y-96593876D02*
X149715842Y-96608238D01*
X149715842Y-96608238D02*
X149715846Y-96608354D01*
X149715846Y-96608354D02*
X149700557Y-96639628D01*
X149700557Y-96639628D02*
X149664804Y-96674100D01*
X149664804Y-96674100D02*
X149623758Y-96698933D01*
X149623758Y-96698933D02*
X149602963Y-96703866D01*
X149602963Y-96703866D02*
X149546230Y-96686805D01*
X149546230Y-96686805D02*
X149497373Y-96644076D01*
X149497373Y-96644076D02*
X149473535Y-96597098D01*
X149473535Y-96597098D02*
X149450603Y-96562465D01*
X149450603Y-96562465D02*
X149405682Y-96523024D01*
X149405682Y-96523024D02*
X149352877Y-96488952D01*
X149352877Y-96488952D02*
X149306290Y-96470423D01*
X149306290Y-96470423D02*
X149296548Y-96469405D01*
X149296548Y-96469405D02*
X149285582Y-96486158D01*
X149285582Y-96486158D02*
X149284921Y-96528982D01*
X149284921Y-96528982D02*
X149292980Y-96586724D01*
X149292980Y-96586724D02*
X149308173Y-96648232D01*
X149308173Y-96648232D02*
X149328914Y-96702352D01*
X149328914Y-96702352D02*
X149329962Y-96704453D01*
X149329962Y-96704453D02*
X149392379Y-96791603D01*
X149392379Y-96791603D02*
X149473274Y-96850882D01*
X149473274Y-96850882D02*
X149565144Y-96879977D01*
X149565144Y-96879977D02*
X149660487Y-96876577D01*
X149660487Y-96876577D02*
X149751802Y-96838371D01*
X149751802Y-96838371D02*
X149755862Y-96835684D01*
X149755862Y-96835684D02*
X149827694Y-96770585D01*
X149827694Y-96770585D02*
X149874927Y-96685648D01*
X149874927Y-96685648D02*
X149901066Y-96573964D01*
X149901066Y-96573964D02*
X149904574Y-96542586D01*
X149904574Y-96542586D02*
X149910787Y-96394479D01*
X149910787Y-96394479D02*
X149903339Y-96325411D01*
X149903339Y-96325411D02*
X149715846Y-96325411D01*
X149715846Y-96325411D02*
X149713410Y-96368495D01*
X149713410Y-96368495D02*
X149700086Y-96381069D01*
X149700086Y-96381069D02*
X149666868Y-96371662D01*
X149666868Y-96371662D02*
X149614506Y-96349426D01*
X149614506Y-96349426D02*
X149555976Y-96321553D01*
X149555976Y-96321553D02*
X149554521Y-96320815D01*
X149554521Y-96320815D02*
X149504911Y-96294720D01*
X149504911Y-96294720D02*
X149485000Y-96277306D01*
X149485000Y-96277306D02*
X149489910Y-96259050D01*
X149489910Y-96259050D02*
X149510584Y-96235063D01*
X149510584Y-96235063D02*
X149563181Y-96200349D01*
X149563181Y-96200349D02*
X149619823Y-96197799D01*
X149619823Y-96197799D02*
X149670631Y-96223062D01*
X149670631Y-96223062D02*
X149705724Y-96271790D01*
X149705724Y-96271790D02*
X149715846Y-96325411D01*
X149715846Y-96325411D02*
X149903339Y-96325411D01*
X149903339Y-96325411D02*
X149898008Y-96275979D01*
X149898008Y-96275979D02*
X149865222Y-96181998D01*
X149865222Y-96181998D02*
X149819579Y-96116158D01*
X149819579Y-96116158D02*
X149737198Y-96049624D01*
X149737198Y-96049624D02*
X149646454Y-96016619D01*
X149646454Y-96016619D02*
X149553815Y-96014516D01*
X149553815Y-96014516D02*
X149465746Y-96040688D01*
X149465746Y-96040688D02*
X149465746Y-96040688D01*
G36*
X149904574Y-96542586D02*
G01*
X149901066Y-96573964D01*
X149874927Y-96685648D01*
X149827694Y-96770585D01*
X149755862Y-96835684D01*
X149751802Y-96838371D01*
X149660487Y-96876577D01*
X149565144Y-96879977D01*
X149473274Y-96850882D01*
X149392379Y-96791603D01*
X149329962Y-96704453D01*
X149328914Y-96702352D01*
X149308173Y-96648232D01*
X149292980Y-96586724D01*
X149284921Y-96528982D01*
X149285582Y-96486158D01*
X149296548Y-96469405D01*
X149306290Y-96470423D01*
X149352877Y-96488952D01*
X149405682Y-96523024D01*
X149450603Y-96562465D01*
X149473535Y-96597098D01*
X149497373Y-96644076D01*
X149546230Y-96686805D01*
X149602963Y-96703866D01*
X149623758Y-96698933D01*
X149664804Y-96674100D01*
X149700557Y-96639628D01*
X149715846Y-96608354D01*
X149715842Y-96608238D01*
X149698495Y-96593876D01*
X149652247Y-96567968D01*
X149584067Y-96534153D01*
X149500923Y-96496072D01*
X149500466Y-96495870D01*
X149410138Y-96455652D01*
X149349592Y-96426676D01*
X149312888Y-96404417D01*
X149294086Y-96384350D01*
X149287246Y-96361952D01*
X149286429Y-96332699D01*
X149292113Y-96277306D01*
X149485000Y-96277306D01*
X149504911Y-96294720D01*
X149554521Y-96320815D01*
X149555976Y-96321553D01*
X149614506Y-96349426D01*
X149666868Y-96371662D01*
X149700086Y-96381069D01*
X149713410Y-96368495D01*
X149715846Y-96325411D01*
X149705724Y-96271790D01*
X149670631Y-96223062D01*
X149619823Y-96197799D01*
X149563181Y-96200349D01*
X149510584Y-96235063D01*
X149489910Y-96259050D01*
X149485000Y-96277306D01*
X149292113Y-96277306D01*
X149293622Y-96262597D01*
X149329184Y-96167355D01*
X149388714Y-96092510D01*
X149465746Y-96040688D01*
X149553815Y-96014516D01*
X149646454Y-96016619D01*
X149737198Y-96049624D01*
X149819579Y-96116158D01*
X149865222Y-96181998D01*
X149898008Y-96275979D01*
X149903339Y-96325411D01*
X149910787Y-96394479D01*
X149904574Y-96542586D01*
G37*
X149904574Y-96542586D02*
X149901066Y-96573964D01*
X149874927Y-96685648D01*
X149827694Y-96770585D01*
X149755862Y-96835684D01*
X149751802Y-96838371D01*
X149660487Y-96876577D01*
X149565144Y-96879977D01*
X149473274Y-96850882D01*
X149392379Y-96791603D01*
X149329962Y-96704453D01*
X149328914Y-96702352D01*
X149308173Y-96648232D01*
X149292980Y-96586724D01*
X149284921Y-96528982D01*
X149285582Y-96486158D01*
X149296548Y-96469405D01*
X149306290Y-96470423D01*
X149352877Y-96488952D01*
X149405682Y-96523024D01*
X149450603Y-96562465D01*
X149473535Y-96597098D01*
X149497373Y-96644076D01*
X149546230Y-96686805D01*
X149602963Y-96703866D01*
X149623758Y-96698933D01*
X149664804Y-96674100D01*
X149700557Y-96639628D01*
X149715846Y-96608354D01*
X149715842Y-96608238D01*
X149698495Y-96593876D01*
X149652247Y-96567968D01*
X149584067Y-96534153D01*
X149500923Y-96496072D01*
X149500466Y-96495870D01*
X149410138Y-96455652D01*
X149349592Y-96426676D01*
X149312888Y-96404417D01*
X149294086Y-96384350D01*
X149287246Y-96361952D01*
X149286429Y-96332699D01*
X149292113Y-96277306D01*
X149485000Y-96277306D01*
X149504911Y-96294720D01*
X149554521Y-96320815D01*
X149555976Y-96321553D01*
X149614506Y-96349426D01*
X149666868Y-96371662D01*
X149700086Y-96381069D01*
X149713410Y-96368495D01*
X149715846Y-96325411D01*
X149705724Y-96271790D01*
X149670631Y-96223062D01*
X149619823Y-96197799D01*
X149563181Y-96200349D01*
X149510584Y-96235063D01*
X149489910Y-96259050D01*
X149485000Y-96277306D01*
X149292113Y-96277306D01*
X149293622Y-96262597D01*
X149329184Y-96167355D01*
X149388714Y-96092510D01*
X149465746Y-96040688D01*
X149553815Y-96014516D01*
X149646454Y-96016619D01*
X149737198Y-96049624D01*
X149819579Y-96116158D01*
X149865222Y-96181998D01*
X149898008Y-96275979D01*
X149903339Y-96325411D01*
X149910787Y-96394479D01*
X149904574Y-96542586D01*
X146286638Y-96065613D02*
X146197883Y-96098364D01*
X146197883Y-96098364D02*
X146125978Y-96156293D01*
X146125978Y-96156293D02*
X146097856Y-96197071D01*
X146097856Y-96197071D02*
X146067198Y-96271897D01*
X146067198Y-96271897D02*
X146067835Y-96326001D01*
X146067835Y-96326001D02*
X146100013Y-96362389D01*
X146100013Y-96362389D02*
X146111919Y-96368576D01*
X146111919Y-96368576D02*
X146163325Y-96387868D01*
X146163325Y-96387868D02*
X146189578Y-96382925D01*
X146189578Y-96382925D02*
X146198470Y-96350530D01*
X146198470Y-96350530D02*
X146198923Y-96332635D01*
X146198923Y-96332635D02*
X146215203Y-96266802D01*
X146215203Y-96266802D02*
X146257635Y-96220750D01*
X146257635Y-96220750D02*
X146316612Y-96198507D01*
X146316612Y-96198507D02*
X146382525Y-96204104D01*
X146382525Y-96204104D02*
X146436105Y-96233172D01*
X146436105Y-96233172D02*
X146454202Y-96249753D01*
X146454202Y-96249753D02*
X146467029Y-96269868D01*
X146467029Y-96269868D02*
X146475694Y-96300275D01*
X146475694Y-96300275D02*
X146481304Y-96347731D01*
X146481304Y-96347731D02*
X146484965Y-96418993D01*
X146484965Y-96418993D02*
X146487785Y-96520818D01*
X146487785Y-96520818D02*
X146488516Y-96553058D01*
X146488516Y-96553058D02*
X146491180Y-96663353D01*
X146491180Y-96663353D02*
X146494208Y-96740979D01*
X146494208Y-96740979D02*
X146498750Y-96792339D01*
X146498750Y-96792339D02*
X146505954Y-96823833D01*
X146505954Y-96823833D02*
X146516967Y-96841863D01*
X146516967Y-96841863D02*
X146532940Y-96852831D01*
X146532940Y-96852831D02*
X146543166Y-96857676D01*
X146543166Y-96857676D02*
X146586594Y-96874244D01*
X146586594Y-96874244D02*
X146612158Y-96879712D01*
X146612158Y-96879712D02*
X146620605Y-96861450D01*
X146620605Y-96861450D02*
X146625761Y-96806239D01*
X146625761Y-96806239D02*
X146627654Y-96713442D01*
X146627654Y-96713442D02*
X146626311Y-96582421D01*
X146626311Y-96582421D02*
X146625893Y-96562212D01*
X146625893Y-96562212D02*
X146622942Y-96442676D01*
X146622942Y-96442676D02*
X146619452Y-96355392D01*
X146619452Y-96355392D02*
X146614486Y-96293534D01*
X146614486Y-96293534D02*
X146607107Y-96250279D01*
X146607107Y-96250279D02*
X146596376Y-96218803D01*
X146596376Y-96218803D02*
X146581355Y-96192282D01*
X146581355Y-96192282D02*
X146573498Y-96180918D01*
X146573498Y-96180918D02*
X146528447Y-96130635D01*
X146528447Y-96130635D02*
X146478060Y-96091524D01*
X146478060Y-96091524D02*
X146471892Y-96088110D01*
X146471892Y-96088110D02*
X146381542Y-96061155D01*
X146381542Y-96061155D02*
X146286638Y-96065613D01*
X146286638Y-96065613D02*
X146286638Y-96065613D01*
G36*
X146471892Y-96088110D02*
G01*
X146478060Y-96091524D01*
X146528447Y-96130635D01*
X146573498Y-96180918D01*
X146581355Y-96192282D01*
X146596376Y-96218803D01*
X146607107Y-96250279D01*
X146614486Y-96293534D01*
X146619452Y-96355392D01*
X146622942Y-96442676D01*
X146625893Y-96562212D01*
X146626311Y-96582421D01*
X146627654Y-96713442D01*
X146625761Y-96806239D01*
X146620605Y-96861450D01*
X146612158Y-96879712D01*
X146586594Y-96874244D01*
X146543166Y-96857676D01*
X146532940Y-96852831D01*
X146516967Y-96841863D01*
X146505954Y-96823833D01*
X146498750Y-96792339D01*
X146494208Y-96740979D01*
X146491180Y-96663353D01*
X146488516Y-96553058D01*
X146487785Y-96520818D01*
X146484965Y-96418993D01*
X146481304Y-96347731D01*
X146475694Y-96300275D01*
X146467029Y-96269868D01*
X146454202Y-96249753D01*
X146436105Y-96233172D01*
X146382525Y-96204104D01*
X146316612Y-96198507D01*
X146257635Y-96220750D01*
X146215203Y-96266802D01*
X146198923Y-96332635D01*
X146198470Y-96350530D01*
X146189578Y-96382925D01*
X146163325Y-96387868D01*
X146111919Y-96368576D01*
X146100013Y-96362389D01*
X146067835Y-96326001D01*
X146067198Y-96271897D01*
X146097856Y-96197071D01*
X146125978Y-96156293D01*
X146197883Y-96098364D01*
X146286638Y-96065613D01*
X146381542Y-96061155D01*
X146471892Y-96088110D01*
G37*
X146471892Y-96088110D02*
X146478060Y-96091524D01*
X146528447Y-96130635D01*
X146573498Y-96180918D01*
X146581355Y-96192282D01*
X146596376Y-96218803D01*
X146607107Y-96250279D01*
X146614486Y-96293534D01*
X146619452Y-96355392D01*
X146622942Y-96442676D01*
X146625893Y-96562212D01*
X146626311Y-96582421D01*
X146627654Y-96713442D01*
X146625761Y-96806239D01*
X146620605Y-96861450D01*
X146612158Y-96879712D01*
X146586594Y-96874244D01*
X146543166Y-96857676D01*
X146532940Y-96852831D01*
X146516967Y-96841863D01*
X146505954Y-96823833D01*
X146498750Y-96792339D01*
X146494208Y-96740979D01*
X146491180Y-96663353D01*
X146488516Y-96553058D01*
X146487785Y-96520818D01*
X146484965Y-96418993D01*
X146481304Y-96347731D01*
X146475694Y-96300275D01*
X146467029Y-96269868D01*
X146454202Y-96249753D01*
X146436105Y-96233172D01*
X146382525Y-96204104D01*
X146316612Y-96198507D01*
X146257635Y-96220750D01*
X146215203Y-96266802D01*
X146198923Y-96332635D01*
X146198470Y-96350530D01*
X146189578Y-96382925D01*
X146163325Y-96387868D01*
X146111919Y-96368576D01*
X146100013Y-96362389D01*
X146067835Y-96326001D01*
X146067198Y-96271897D01*
X146097856Y-96197071D01*
X146125978Y-96156293D01*
X146197883Y-96098364D01*
X146286638Y-96065613D01*
X146381542Y-96061155D01*
X146471892Y-96088110D01*
X143429193Y-96077725D02*
X143405839Y-96087931D01*
X143405839Y-96087931D02*
X143350098Y-96132077D01*
X143350098Y-96132077D02*
X143302431Y-96195910D01*
X143302431Y-96195910D02*
X143272952Y-96264030D01*
X143272952Y-96264030D02*
X143268154Y-96297613D01*
X143268154Y-96297613D02*
X143284240Y-96344499D01*
X143284240Y-96344499D02*
X143319525Y-96369308D01*
X143319525Y-96369308D02*
X143357356Y-96384330D01*
X143357356Y-96384330D02*
X143374679Y-96387098D01*
X143374679Y-96387098D02*
X143383114Y-96367009D01*
X143383114Y-96367009D02*
X143399770Y-96323294D01*
X143399770Y-96323294D02*
X143407077Y-96303541D01*
X143407077Y-96303541D02*
X143448052Y-96235214D01*
X143448052Y-96235214D02*
X143507378Y-96201134D01*
X143507378Y-96201134D02*
X143583448Y-96202182D01*
X143583448Y-96202182D02*
X143589082Y-96203524D01*
X143589082Y-96203524D02*
X143629695Y-96222779D01*
X143629695Y-96222779D02*
X143659552Y-96260318D01*
X143659552Y-96260318D02*
X143679945Y-96320752D01*
X143679945Y-96320752D02*
X143692164Y-96408694D01*
X143692164Y-96408694D02*
X143697500Y-96528756D01*
X143697500Y-96528756D02*
X143698000Y-96592641D01*
X143698000Y-96592641D02*
X143698248Y-96693346D01*
X143698248Y-96693346D02*
X143699874Y-96761997D01*
X143699874Y-96761997D02*
X143704199Y-96805616D01*
X143704199Y-96805616D02*
X143712546Y-96831225D01*
X143712546Y-96831225D02*
X143726235Y-96845846D01*
X143726235Y-96845846D02*
X143746589Y-96856501D01*
X143746589Y-96856501D02*
X143747766Y-96857038D01*
X143747766Y-96857038D02*
X143786962Y-96873610D01*
X143786962Y-96873610D02*
X143806381Y-96879712D01*
X143806381Y-96879712D02*
X143809365Y-96861262D01*
X143809365Y-96861262D02*
X143811919Y-96810266D01*
X143811919Y-96810266D02*
X143813860Y-96733251D01*
X143813860Y-96733251D02*
X143815003Y-96636748D01*
X143815003Y-96636748D02*
X143815231Y-96566127D01*
X143815231Y-96566127D02*
X143814068Y-96429468D01*
X143814068Y-96429468D02*
X143809521Y-96325794D01*
X143809521Y-96325794D02*
X143800001Y-96249051D01*
X143800001Y-96249051D02*
X143783919Y-96193189D01*
X143783919Y-96193189D02*
X143759687Y-96152155D01*
X143759687Y-96152155D02*
X143725714Y-96119897D01*
X143725714Y-96119897D02*
X143692167Y-96097383D01*
X143692167Y-96097383D02*
X143611501Y-96067419D01*
X143611501Y-96067419D02*
X143517619Y-96060661D01*
X143517619Y-96060661D02*
X143429193Y-96077725D01*
X143429193Y-96077725D02*
X143429193Y-96077725D01*
G36*
X143611501Y-96067419D02*
G01*
X143692167Y-96097383D01*
X143725714Y-96119897D01*
X143759687Y-96152155D01*
X143783919Y-96193189D01*
X143800001Y-96249051D01*
X143809521Y-96325794D01*
X143814068Y-96429468D01*
X143815231Y-96566127D01*
X143815003Y-96636748D01*
X143813860Y-96733251D01*
X143811919Y-96810266D01*
X143809365Y-96861262D01*
X143806381Y-96879712D01*
X143786962Y-96873610D01*
X143747766Y-96857038D01*
X143746589Y-96856501D01*
X143726235Y-96845846D01*
X143712546Y-96831225D01*
X143704199Y-96805616D01*
X143699874Y-96761997D01*
X143698248Y-96693346D01*
X143698000Y-96592641D01*
X143697500Y-96528756D01*
X143692164Y-96408694D01*
X143679945Y-96320752D01*
X143659552Y-96260318D01*
X143629695Y-96222779D01*
X143589082Y-96203524D01*
X143583448Y-96202182D01*
X143507378Y-96201134D01*
X143448052Y-96235214D01*
X143407077Y-96303541D01*
X143399770Y-96323294D01*
X143383114Y-96367009D01*
X143374679Y-96387098D01*
X143357356Y-96384330D01*
X143319525Y-96369308D01*
X143284240Y-96344499D01*
X143268154Y-96297613D01*
X143272952Y-96264030D01*
X143302431Y-96195910D01*
X143350098Y-96132077D01*
X143405839Y-96087931D01*
X143429193Y-96077725D01*
X143517619Y-96060661D01*
X143611501Y-96067419D01*
G37*
X143611501Y-96067419D02*
X143692167Y-96097383D01*
X143725714Y-96119897D01*
X143759687Y-96152155D01*
X143783919Y-96193189D01*
X143800001Y-96249051D01*
X143809521Y-96325794D01*
X143814068Y-96429468D01*
X143815231Y-96566127D01*
X143815003Y-96636748D01*
X143813860Y-96733251D01*
X143811919Y-96810266D01*
X143809365Y-96861262D01*
X143806381Y-96879712D01*
X143786962Y-96873610D01*
X143747766Y-96857038D01*
X143746589Y-96856501D01*
X143726235Y-96845846D01*
X143712546Y-96831225D01*
X143704199Y-96805616D01*
X143699874Y-96761997D01*
X143698248Y-96693346D01*
X143698000Y-96592641D01*
X143697500Y-96528756D01*
X143692164Y-96408694D01*
X143679945Y-96320752D01*
X143659552Y-96260318D01*
X143629695Y-96222779D01*
X143589082Y-96203524D01*
X143583448Y-96202182D01*
X143507378Y-96201134D01*
X143448052Y-96235214D01*
X143407077Y-96303541D01*
X143399770Y-96323294D01*
X143383114Y-96367009D01*
X143374679Y-96387098D01*
X143357356Y-96384330D01*
X143319525Y-96369308D01*
X143284240Y-96344499D01*
X143268154Y-96297613D01*
X143272952Y-96264030D01*
X143302431Y-96195910D01*
X143350098Y-96132077D01*
X143405839Y-96087931D01*
X143429193Y-96077725D01*
X143517619Y-96060661D01*
X143611501Y-96067419D01*
X142754776Y-96088781D02*
X142677472Y-96139304D01*
X142677472Y-96139304D02*
X142640186Y-96184533D01*
X142640186Y-96184533D02*
X142610647Y-96266606D01*
X142610647Y-96266606D02*
X142608301Y-96331550D01*
X142608301Y-96331550D02*
X142613615Y-96418388D01*
X142613615Y-96418388D02*
X142813885Y-96506046D01*
X142813885Y-96506046D02*
X142911261Y-96550830D01*
X142911261Y-96550830D02*
X142974887Y-96586856D01*
X142974887Y-96586856D02*
X143007971Y-96618060D01*
X143007971Y-96618060D02*
X143013720Y-96648379D01*
X143013720Y-96648379D02*
X142995342Y-96681748D01*
X142995342Y-96681748D02*
X142975077Y-96703866D01*
X142975077Y-96703866D02*
X142916111Y-96739336D01*
X142916111Y-96739336D02*
X142851976Y-96741822D01*
X142851976Y-96741822D02*
X142793074Y-96714178D01*
X142793074Y-96714178D02*
X142749803Y-96659263D01*
X142749803Y-96659263D02*
X142742064Y-96639871D01*
X142742064Y-96639871D02*
X142704994Y-96579307D01*
X142704994Y-96579307D02*
X142662346Y-96553495D01*
X142662346Y-96553495D02*
X142603846Y-96531414D01*
X142603846Y-96531414D02*
X142603846Y-96615127D01*
X142603846Y-96615127D02*
X142609018Y-96672093D01*
X142609018Y-96672093D02*
X142629277Y-96720132D01*
X142629277Y-96720132D02*
X142671738Y-96775289D01*
X142671738Y-96775289D02*
X142678049Y-96782457D01*
X142678049Y-96782457D02*
X142725280Y-96831528D01*
X142725280Y-96831528D02*
X142765879Y-96857863D01*
X142765879Y-96857863D02*
X142816672Y-96869978D01*
X142816672Y-96869978D02*
X142858780Y-96873946D01*
X142858780Y-96873946D02*
X142934098Y-96874934D01*
X142934098Y-96874934D02*
X142987714Y-96862409D01*
X142987714Y-96862409D02*
X143021162Y-96843812D01*
X143021162Y-96843812D02*
X143073732Y-96802918D01*
X143073732Y-96802918D02*
X143110121Y-96758691D01*
X143110121Y-96758691D02*
X143133150Y-96703069D01*
X143133150Y-96703069D02*
X143145641Y-96627990D01*
X143145641Y-96627990D02*
X143150413Y-96525392D01*
X143150413Y-96525392D02*
X143150794Y-96473319D01*
X143150794Y-96473319D02*
X143149499Y-96410891D01*
X143149499Y-96410891D02*
X143031529Y-96410891D01*
X143031529Y-96410891D02*
X143030161Y-96444381D01*
X143030161Y-96444381D02*
X143026751Y-96449866D01*
X143026751Y-96449866D02*
X143004247Y-96442415D01*
X143004247Y-96442415D02*
X142955818Y-96422696D01*
X142955818Y-96422696D02*
X142891092Y-96394661D01*
X142891092Y-96394661D02*
X142877557Y-96388635D01*
X142877557Y-96388635D02*
X142795756Y-96347039D01*
X142795756Y-96347039D02*
X142750688Y-96310481D01*
X142750688Y-96310481D02*
X142740783Y-96276239D01*
X142740783Y-96276239D02*
X142764474Y-96241591D01*
X142764474Y-96241591D02*
X142784040Y-96226282D01*
X142784040Y-96226282D02*
X142854640Y-96195664D01*
X142854640Y-96195664D02*
X142920720Y-96200723D01*
X142920720Y-96200723D02*
X142976041Y-96238094D01*
X142976041Y-96238094D02*
X143014364Y-96304416D01*
X143014364Y-96304416D02*
X143026651Y-96357059D01*
X143026651Y-96357059D02*
X143031529Y-96410891D01*
X143031529Y-96410891D02*
X143149499Y-96410891D01*
X143149499Y-96410891D02*
X143148270Y-96351663D01*
X143148270Y-96351663D02*
X143138968Y-96261653D01*
X143138968Y-96261653D02*
X143120540Y-96196110D01*
X143120540Y-96196110D02*
X143090640Y-96147855D01*
X143090640Y-96147855D02*
X143046920Y-96109710D01*
X143046920Y-96109710D02*
X143027859Y-96097383D01*
X143027859Y-96097383D02*
X142941274Y-96065279D01*
X142941274Y-96065279D02*
X142846478Y-96063259D01*
X142846478Y-96063259D02*
X142754776Y-96088781D01*
X142754776Y-96088781D02*
X142754776Y-96088781D01*
G36*
X143150413Y-96525392D02*
G01*
X143145641Y-96627990D01*
X143133150Y-96703069D01*
X143110121Y-96758691D01*
X143073732Y-96802918D01*
X143021162Y-96843812D01*
X142987714Y-96862409D01*
X142934098Y-96874934D01*
X142858780Y-96873946D01*
X142816672Y-96869978D01*
X142765879Y-96857863D01*
X142725280Y-96831528D01*
X142678049Y-96782457D01*
X142671738Y-96775289D01*
X142629277Y-96720132D01*
X142609018Y-96672093D01*
X142603846Y-96615127D01*
X142603846Y-96531414D01*
X142662346Y-96553495D01*
X142704994Y-96579307D01*
X142742064Y-96639871D01*
X142749803Y-96659263D01*
X142793074Y-96714178D01*
X142851976Y-96741822D01*
X142916111Y-96739336D01*
X142975077Y-96703866D01*
X142995342Y-96681748D01*
X143013720Y-96648379D01*
X143007971Y-96618060D01*
X142974887Y-96586856D01*
X142911261Y-96550830D01*
X142813885Y-96506046D01*
X142613615Y-96418388D01*
X142608301Y-96331550D01*
X142610299Y-96276239D01*
X142740783Y-96276239D01*
X142750688Y-96310481D01*
X142795756Y-96347039D01*
X142877557Y-96388635D01*
X142891092Y-96394661D01*
X142955818Y-96422696D01*
X143004247Y-96442415D01*
X143026751Y-96449866D01*
X143030161Y-96444381D01*
X143031529Y-96410891D01*
X143026651Y-96357059D01*
X143014364Y-96304416D01*
X142976041Y-96238094D01*
X142920720Y-96200723D01*
X142854640Y-96195664D01*
X142784040Y-96226282D01*
X142764474Y-96241591D01*
X142740783Y-96276239D01*
X142610299Y-96276239D01*
X142610647Y-96266606D01*
X142640186Y-96184533D01*
X142677472Y-96139304D01*
X142754776Y-96088781D01*
X142846478Y-96063259D01*
X142941274Y-96065279D01*
X143027859Y-96097383D01*
X143046920Y-96109710D01*
X143090640Y-96147855D01*
X143120540Y-96196110D01*
X143138968Y-96261653D01*
X143148270Y-96351663D01*
X143149499Y-96410891D01*
X143150794Y-96473319D01*
X143150413Y-96525392D01*
G37*
X143150413Y-96525392D02*
X143145641Y-96627990D01*
X143133150Y-96703069D01*
X143110121Y-96758691D01*
X143073732Y-96802918D01*
X143021162Y-96843812D01*
X142987714Y-96862409D01*
X142934098Y-96874934D01*
X142858780Y-96873946D01*
X142816672Y-96869978D01*
X142765879Y-96857863D01*
X142725280Y-96831528D01*
X142678049Y-96782457D01*
X142671738Y-96775289D01*
X142629277Y-96720132D01*
X142609018Y-96672093D01*
X142603846Y-96615127D01*
X142603846Y-96531414D01*
X142662346Y-96553495D01*
X142704994Y-96579307D01*
X142742064Y-96639871D01*
X142749803Y-96659263D01*
X142793074Y-96714178D01*
X142851976Y-96741822D01*
X142916111Y-96739336D01*
X142975077Y-96703866D01*
X142995342Y-96681748D01*
X143013720Y-96648379D01*
X143007971Y-96618060D01*
X142974887Y-96586856D01*
X142911261Y-96550830D01*
X142813885Y-96506046D01*
X142613615Y-96418388D01*
X142608301Y-96331550D01*
X142610299Y-96276239D01*
X142740783Y-96276239D01*
X142750688Y-96310481D01*
X142795756Y-96347039D01*
X142877557Y-96388635D01*
X142891092Y-96394661D01*
X142955818Y-96422696D01*
X143004247Y-96442415D01*
X143026751Y-96449866D01*
X143030161Y-96444381D01*
X143031529Y-96410891D01*
X143026651Y-96357059D01*
X143014364Y-96304416D01*
X142976041Y-96238094D01*
X142920720Y-96200723D01*
X142854640Y-96195664D01*
X142784040Y-96226282D01*
X142764474Y-96241591D01*
X142740783Y-96276239D01*
X142610299Y-96276239D01*
X142610647Y-96266606D01*
X142640186Y-96184533D01*
X142677472Y-96139304D01*
X142754776Y-96088781D01*
X142846478Y-96063259D01*
X142941274Y-96065279D01*
X143027859Y-96097383D01*
X143046920Y-96109710D01*
X143090640Y-96147855D01*
X143120540Y-96196110D01*
X143138968Y-96261653D01*
X143148270Y-96351663D01*
X143149499Y-96410891D01*
X143150794Y-96473319D01*
X143150413Y-96525392D01*
%TD*%
M02*
