%TF.GenerationSoftware,KiCad,Pcbnew,(6.0.2)*%
%TF.CreationDate,2022-03-20T15:37:48-06:00*%
%TF.ProjectId,carrier_board,63617272-6965-4725-9f62-6f6172642e6b,v1a*%
%TF.SameCoordinates,Original*%
%TF.FileFunction,Soldermask,Bot*%
%TF.FilePolarity,Negative*%
%FSLAX46Y46*%
G04 Gerber Fmt 4.6, Leading zero omitted, Abs format (unit mm)*
G04 Created by KiCad (PCBNEW (6.0.2)) date 2022-03-20 15:37:48*
%MOMM*%
%LPD*%
G01*
G04 APERTURE LIST*
%ADD10C,2.100000*%
%ADD11O,1.700000X1.700000*%
%ADD12R,1.700000X1.700000*%
%ADD13O,1.500000X1.500000*%
%ADD14O,1.800000X1.800000*%
G04 APERTURE END LIST*
D10*
%TO.C,REF\u002A\u002A*%
X164000000Y-125000000D03*
%TD*%
%TO.C,REF\u002A\u002A*%
X130000000Y-125000000D03*
%TD*%
D11*
%TO.C,U1*%
X149730000Y-109175000D03*
D12*
X147190000Y-109175000D03*
D11*
X144650000Y-109175000D03*
X156080000Y-61145000D03*
X156080000Y-63685000D03*
D12*
X156080000Y-66225000D03*
D11*
X156080000Y-68765000D03*
X156080000Y-71305000D03*
X156080000Y-73845000D03*
X156080000Y-76385000D03*
D12*
X156080000Y-78925000D03*
D11*
X156080000Y-81465000D03*
X156080000Y-84005000D03*
X156080000Y-86545000D03*
X156080000Y-89085000D03*
D12*
X156080000Y-91625000D03*
D11*
X156080000Y-94165000D03*
X156080000Y-96705000D03*
X156080000Y-99245000D03*
X156080000Y-101785000D03*
D12*
X156080000Y-104325000D03*
D11*
X156080000Y-106865000D03*
X156080000Y-109405000D03*
X138300000Y-109405000D03*
X138300000Y-106865000D03*
D12*
X138300000Y-104325000D03*
D11*
X138300000Y-101785000D03*
X138300000Y-99245000D03*
X138300000Y-96705000D03*
X138300000Y-94165000D03*
D12*
X138300000Y-91625000D03*
D11*
X138300000Y-89085000D03*
X138300000Y-86545000D03*
X138300000Y-84005000D03*
X138300000Y-81465000D03*
D12*
X138300000Y-78925000D03*
D11*
X138300000Y-76385000D03*
X138300000Y-73845000D03*
X138300000Y-71305000D03*
X138300000Y-68765000D03*
D12*
X138300000Y-66225000D03*
D11*
X138300000Y-63685000D03*
X138300000Y-61145000D03*
D13*
X144765000Y-64305000D03*
D14*
X149915000Y-61275000D03*
D13*
X149615000Y-64305000D03*
D14*
X144465000Y-61275000D03*
%TD*%
D10*
%TO.C,REF\u002A\u002A*%
X164000000Y-62000000D03*
%TD*%
%TO.C,REF\u002A\u002A*%
X130000000Y-62000000D03*
%TD*%
M02*
